<svg id="Layer_1" data-name="Layer 1" xmlns="http://www.w3.org/2000/svg" viewBox="0 0 480 480"><defs><style>.cls-1{fill:#255d98;}.cls-2{fill:#12a346;}.cls-2,.cls-3{stroke:#000;stroke-miterlimit:10;stroke-width:2px;}.cls-3{fill:#235c97;}.cls-4{fill:#fff;}.cls-5{fill:#0285c8;}.cls-6{fill:#e00225;}.cls-7{fill:#f3c304;}.cls-8{fill:#039e3e;}.cls-9{fill:#020202;}</style></defs><rect class="cls-1" width="480" height="480"/><path class="cls-2" d="M220.6,169.09a1.86,1.86,0,0,1-.34,0c-.3,0-.52.64-.84.19a.72.72,0,0,1,.17-.93.49.49,0,0,0,.14-.18c.16-.36-.07-1,.45-1.05s.39.8.8,1.07C220.85,168.53,220.73,168.81,220.6,169.09Z" transform="translate(0)"/><path class="cls-3" d="M220.6,169.09c-2.06,3.9-3,8.25-4.82,12.24-1.58,3.43-3.4,6.75-5.11,10.12a62.16,62.16,0,0,1-5.78,8.78,21.72,21.72,0,0,1-5,4.9c-3.67,2.56-6.59,5.91-9.72,9a46.82,46.82,0,0,1-5.06,4,65,65,0,0,1-11.19,6.41,21.17,21.17,0,0,1-6.84,2.38c-2.14.23-3.87,1.6-5.88,2.22-3.55,1.08-7.14,2-10.78,2.69-4.94,1-9.94,1.14-14.94,1.56-3.35.28-6.68.33-10,.36-4.32,0-8.68.47-13-.1-2.84-.38-5.86-.38-8.48-1.47-3.58-1.5-7.43-2.14-10.9-4-1.86-1-4.09-1.3-6.14-1.95a42.89,42.89,0,0,1-9.76-4.12c-4-2.46-8.15-4.45-12.23-6.66-3.29-1.78-6-4.35-8.7-6.8s-6-4.54-8.86-6.91A48.86,48.86,0,0,1,37.88,192c-1.6-2.31-3-4.73-4.65-7a70.92,70.92,0,0,1-4.51-6.4,72.13,72.13,0,0,1-7.36-18.15c-1-4-2.16-8-3.1-12.09-1.46-6.3-3.21-12.52-3.51-19.07a96.85,96.85,0,0,1-.38-10.07,108,108,0,0,1,1.68-15.29c.81-3.93,1.69-7.83,2.79-11.68.7-2.43,1.81-4.75,2.65-7.14,1.62-4.67,4.18-8.93,5.81-13.59.63-1.8,2-3.18,2.81-4.89,1-1.95,2.13-3.83,3.22-5.73,2-3.51,4.77-6.33,7.45-9.25s5.81-5.61,8.8-8.33A70,70,0,0,0,55.13,38a13.15,13.15,0,0,1,3.62-2.46c3.62-2,7.15-4.13,10.71-6.19s7.52-4,11.32-5.9c2.34-1.19,4.78-2.14,7.14-3.24C92.68,18,97.74,17,102.76,15.71c6.13-1.56,12.44-1.85,18.67-2.65a37.79,37.79,0,0,1,11.67.32c1.71.32,3.48.06,5.2.42,3.4.71,6.61,2.11,10,2.92a60,60,0,0,1,8.33,2.71c1.86.75,3.76,1.47,5.59,2.32,2.38,1.1,4.7,2.32,7.09,3.39a19.68,19.68,0,0,1,5.8,4.27,35.37,35.37,0,0,0,6.2,4.85A53.09,53.09,0,0,1,190,41.92c4.13,4.14,7.56,8.86,11.39,13.24a45,45,0,0,1,6.45,8.55,75.67,75.67,0,0,1,4.51,10.23c.86,2.48,2.32,4.69,3.3,7.1a67,67,0,0,1,3.74,11.51c.49,2.28,1.47,4.45,2,6.72a94.85,94.85,0,0,1,2.11,11.1c.31,2.52.78,5,1.18,7.53a73.23,73.23,0,0,1,.95,13c-.05,1.83.87,3.51.59,5.34a4.17,4.17,0,0,1-.33,1.8,1.07,1.07,0,0,0-.08.67c.48,3.43-.4,6.78-.59,10.16a36.61,36.61,0,0,1-1,8.38c-1.07,3.65-1.62,7.46-3.27,10.94-.41-.27-.16-1.13-.8-1.07s-.29.69-.45,1.05a.49.49,0,0,1-.14.18.72.72,0,0,0-.17.93c.32.45.54-.17.84-.19A1.86,1.86,0,0,0,220.6,169.09ZM114.46,101.33c-2.6-.51-4.74.65-6.58,2.15s-3.89,2.91-5.88,4.3a7.86,7.86,0,0,0-2.72,2.46,8,8,0,0,1-2,2.2c-1.66,1.49-3.48,3-3.69,5.39a56.9,56.9,0,0,0,0,11.67,17.34,17.34,0,0,0,.57,3.65c.92,2.62,3.11,3.5,5.55,3.66,3.3.2,5.83,2,8.47,3.62,1.4.85,2.18,2.41,3.62,3.21a4.72,4.72,0,0,1,2.25,2.41,5,5,0,0,0,3.51,3,11,11,0,0,1,5,3.2,40.7,40.7,0,0,1,2.7,3.46,4.42,4.42,0,0,1,.6,4.8,8.62,8.62,0,0,0-.56,1.52,4.91,4.91,0,0,0-.25,2.59,22,22,0,0,0,1.7,4.41,4.4,4.4,0,0,1,.36,2.69c-.44,2.42-.81,4.85-1.07,7.3-.34,3.13-.45,6.33-1.8,9.25a18.88,18.88,0,0,0-1.57,5.5c-.48,3.56,1.1,6.38,3.2,8.7A24.9,24.9,0,0,1,130,208c.67,1.34,3,2.31,4.31,1.64,2.85-1.45,5.74-2.81,8.15-5,1.57-1.44,2.93-3,4.37-4.57a60.59,60.59,0,0,0,6.6-8.32c2.16-3.27,4.93-6.11,6.93-9.5,1-1.7,2.41-3.16,3.32-4.87,2.21-4.12,3.92-8.51,6.21-12.61,1-1.82,1.48-3.9,2.86-5.53a27.85,27.85,0,0,0,4.53-8.52,36,36,0,0,0,2.34-10.1c.19-2.72.6-5.44.65-8.16,0-1.74,0-3.6-1.4-5q-2.58-2.58-5.21-5.1c-.58-.56-1.33-.92-1.67-1.73a45,45,0,0,0-3.21-5.49,5.25,5.25,0,0,0-3.23-2.27,41.05,41.05,0,0,0-7.63-1.18c-3.12-.31-6,.16-8.47,2.38a8.1,8.1,0,0,1-6.61,2.18,10.83,10.83,0,0,1-6.16-3.22c-1.5-1.55-2.84-3.23-4.35-4.77a5.35,5.35,0,0,0-5.13-1.53,2.83,2.83,0,0,1-2.88-.75,11.18,11.18,0,0,0-4-3C118.46,102,116.7,100.73,114.46,101.33Zm38.05-57.19a5.41,5.41,0,0,0-5.28,2c-1.45,1.64-1.88,5.33,1.11,6.4.72.26,1.43.54,2.17.78,2.1.69,4.36.53,6.43,1.33,1.31.51,2.55,1.11,2.87,2.59s-.86,2.35-1.87,3.19a.53.53,0,0,1-.1.06,30.67,30.67,0,0,1-5.49,2.83c-2.35.82-4.77,1.45-7.13,2.23-1.22.4-2.46.14-3.68.34-2.08.35-3.52,1-4.13,3.4-.74,3-2.76,5.35-5,7.41a4.36,4.36,0,0,1-1.54,1,14.76,14.76,0,0,1-8.77.41,5.54,5.54,0,0,0-2.51-.24c-1.45.24-3,.48-3.89,1.79a9.75,9.75,0,0,0-1.37,5.08A1.53,1.53,0,0,0,115,86a6.61,6.61,0,0,0,6.92.44c1-.56,1.9-1.2,2.89-1.71a6.78,6.78,0,0,1,5.35-.75c2.48.8,4.83,1.94,7.34,2.7A54.3,54.3,0,0,0,146,88.25c3.1.43,6.14-.3,9.15-1A7.86,7.86,0,0,1,162,88.43c2.48,2,5.22,3.83,6.8,6.8a18.7,18.7,0,0,1,2.33,5.83c.37,2.24.2,4.61,1.31,6.72,1,1.88,1.78,3.94,4.32,4.19a3.6,3.6,0,0,1,1.4.49,1.56,1.56,0,0,0,2.44-1.34,3.78,3.78,0,0,0-.59-2.54,2.65,2.65,0,0,1-.32-2.94c1.08-1.82,4.28-3,6.4-2.56,1,.21,1.83.88,2.88.78a1.6,1.6,0,0,1,1.64,1,9.77,9.77,0,0,0,1.45,2.5,9.08,9.08,0,0,1,2.52,5.06c.19,1.17,1,2.27.34,3.58a6.11,6.11,0,0,0,5,9c3.33.34,6.38,1.68,9.58,2.49.93.24,1.51,1.06,2.34,1.44a7.37,7.37,0,0,1,3.94,3.26,6.44,6.44,0,0,0,.89,1.35c.92,1.07,2,1,2.95-.09,1.65-1.83,1.48-4.23,2.07-6.37.38-1.35.4-2.81,1.07-4.09a3.93,3.93,0,0,0,.4-1.78,24.71,24.71,0,0,0-.67-5.14c-.51-2.95-.77-5.95-1.23-8.91a60.79,60.79,0,0,0-1.24-6.29c-.72-2.8-1.73-5.52-2.4-8.32a68.26,68.26,0,0,0-3.28-10c-.93-2.26-2.47-4.26-3.15-6.65A44.44,44.44,0,0,0,209,70.83c-.81-1.89-1.85-3.68-2.8-5.5a36.46,36.46,0,0,0-2.52-4.65c-1.28-1.76-2.85-3.3-4.17-5-1.46-1.92-3.14-3.7-4.72-5.55-2-2.34-4-4.74-6.09-6.95-1.72-1.76-3.11-4-6.13-4.09-2.42,0-4.79-.12-7,1.05A30.32,30.32,0,0,1,170,42.27a43.65,43.65,0,0,0-6.27,2,6.55,6.55,0,0,1-2.34.54C158.41,45.08,155.58,43.85,152.51,44.14ZM42.79,193.07A2.83,2.83,0,0,0,44,196.36a17.28,17.28,0,0,0,1.46,1.13,49.36,49.36,0,0,1,7.5,5.77c3.17,3.07,6.14,6.33,9.87,8.85A68.57,68.57,0,0,0,71.36,217c1,.51,1.38.27,1.64-.93a5.83,5.83,0,0,1,.66-2.43,64.86,64.86,0,0,1,4.79-6.33c1.77-1.91,1.35-5.2.44-7.06-.6-1.21-.68-2.17.21-3.16a7.58,7.58,0,0,1,1.47-1.47,4.77,4.77,0,0,0,2.11-3.7c.29-2.58,1.39-4.89,2.19-7.28a10.39,10.39,0,0,0-.44-7.87,29,29,0,0,0-4.55-6.21,26.83,26.83,0,0,0-6.26-5.54,44.69,44.69,0,0,0-10.11-5,18.19,18.19,0,0,1-6.63-3.22,69,69,0,0,1-6.07-6.14A7,7,0,0,0,45,148.2a1.23,1.23,0,0,0-1.36,1.26c0,.35-.15.69-.16,1a5.52,5.52,0,0,0,.9,3.8,18.47,18.47,0,0,1,3.11,6.26c1,3.57.41,7.15-.81,10.64a33.12,33.12,0,0,1-3.26,6.21,7,7,0,0,0-1.22,4.92c.24,1.43.91,2.8.74,4.3C42.69,188.8,42.19,191,42.79,193.07Zm-5.67-46a11.83,11.83,0,0,0-4.33-6.78A20.51,20.51,0,0,1,30,138.07a19,19,0,0,1-4.49-7.32,4.06,4.06,0,0,1,.92-4.12,15.24,15.24,0,0,1,4-2.83,16.8,16.8,0,0,0,6.46-6.68,8.54,8.54,0,0,1,1.45-1.94,1.82,1.82,0,0,1,3.08.45A14.92,14.92,0,0,1,43.18,120a4,4,0,0,0,.53,1.16c.25.45.7.41,1.13.36s.5-.34.49-.67c-.14-3,.2-6.1-.34-9.14-.44-2.52-.35-5,2.13-6.61a27.84,27.84,0,0,1,4.13-2.47c2-.88,2.63-2.09,2.29-4.32-.25-1.61-.52-3.23.43-4.82A29.62,29.62,0,0,1,59.46,87a3.85,3.85,0,0,0,1.26-4.28,12.62,12.62,0,0,0-2.21-4.31c-.94-1.15-1.71-2.5-2.8-3.6a3,3,0,0,0-4.08-.35A8,8,0,0,0,49,78.35c-.89,2.06-1.54,4.25-3.13,5.93A27.84,27.84,0,0,1,41,88.85a3.67,3.67,0,0,1-3.53.29,2.44,2.44,0,0,1-1.41-2.58,9.58,9.58,0,0,1,.88-4c1-2,1.52-4,.13-6a1.71,1.71,0,0,1,.11-1.67c.64-1.41,2-2.06,3.09-3a22,22,0,0,0,3.07-3.11,2.42,2.42,0,0,0-.18-3.17,22.66,22.66,0,0,0-2.91-2.62c-1.19-1-3.26-1.24-3-3.56-.74,1.32-1.88,2.24-2.45,3.57a54.31,54.31,0,0,1-4.37,7.55,86.46,86.46,0,0,0-4.68,8A131.32,131.32,0,0,0,19.5,94.14a38.11,38.11,0,0,0-1.62,6c-.6,3.68-1.56,7.3-1.79,11-.06,1,0,1.93-.15,2.89a40,40,0,0,0,.07,13c.13.73-.13,1.74.69,2.16a19.43,19.43,0,0,1,2.67,2A15.44,15.44,0,0,1,23.92,137a10.45,10.45,0,0,0,3.78,4.29c1.74,1.13,3.49,2.28,5.26,3.36A11.46,11.46,0,0,1,36.21,148c.14.2.18.39,0,.48-.86.43-.52.9-.16,1.48s.46,1.2,1.13,1.36c.43.11,1.11.35,1.13-.49a30.69,30.69,0,0,0-.07-3.59C38.17,146.63,37.88,145.91,37.12,147.08ZM99,30.43a7.24,7.24,0,0,0-.51-1.79C97,26,95.74,23.31,95.73,20.18c0-.69-.52-.81-1.08-.63-1.27.41-2.56.78-3.78,1.31C87.51,22.3,84,23.37,80.73,25c-2.85,1.46-6,2.24-8.58,4.35A55.64,55.64,0,0,1,64,34.79c-1,.56-1,1.18,0,1.73a4.26,4.26,0,0,1,1.69,1.54A13.41,13.41,0,0,1,67,42.85a43.24,43.24,0,0,1,.6,7.13,15.57,15.57,0,0,0,2.67,8.46,1.74,1.74,0,0,0,1.15.87c2,.45,3.3-.3,4-2.5a70,70,0,0,0,2-8.08c.29-1.47.63-3,1.89-4a31.53,31.53,0,0,0,2.45-2.59,5.17,5.17,0,0,1,1.85-1.34,38.94,38.94,0,0,0,6.89-3.15c2.67-1.53,5.53-2.73,7.66-5.07A3.3,3.3,0,0,0,99,30.43Zm94.46,118c.27,0,.5,0,.73,0,.7-.06,1.45-.15,1.81-.83s-.07-1.32-.54-1.86a1.66,1.66,0,0,1-.49-1.26,1.42,1.42,0,0,0-.87-1.47c-.68-.37-1.35-.75-2-1.17a2.52,2.52,0,0,0-2.63-.16c-.56.26-1.15.46-1.7.73-1.27.61-1.42,1.64-.5,2.7a9.86,9.86,0,0,0,2.16,1.7C190.66,147.63,191.87,148.68,193.47,148.48ZM193.8,131c-.23-3.76-3.24-5.28-6.5-5.24-.3,0-.77,0-.91.36s.17.79.44,1.11c.1.12.22.22.33.33,1.43,1.27,3,2.38,3.94,4.13a3.34,3.34,0,0,0,.79.85.93.93,0,0,0,1.64-.38A2.27,2.27,0,0,0,193.8,131ZM56.17,42.29c-1.86-.51-3.14.41-4.32,1.63-.68.72-.67,1.42.24,1.7,1.48.45,3,1.1,4.57.19.67-.38,1.38-.66,2.08-1a1.14,1.14,0,0,0,.78-1.15,1.2,1.2,0,0,0-.86-1.22A6.18,6.18,0,0,0,56.17,42.29ZM61,54.81a6,6,0,0,0,.92,0,1.17,1.17,0,0,0,1-.68c.17-.54-.41-.71-.75-.87a8.15,8.15,0,0,0-1.95-.71,29.15,29.15,0,0,0-4-1c-.34,0-.75,0-.86.4s.22.59.45.75A15.62,15.62,0,0,0,61,54.81ZM50.32,59.24c.45,0,.91,0,1.37,0a.93.93,0,1,0,.06-1.85c-1.27-.11-2.46-.56-3.72-.69-.85-.09-1.12.32-.76,1.11A2.48,2.48,0,0,0,50.32,59.24Z" transform="translate(0)"/><path class="cls-2" d="M114.46,101.33c2.24-.6,4,.71,5.83,1.61a11.18,11.18,0,0,1,4,3,2.83,2.83,0,0,0,2.88.75,5.35,5.35,0,0,1,5.13,1.53c1.51,1.54,2.85,3.22,4.35,4.77a10.83,10.83,0,0,0,6.16,3.22,8.1,8.1,0,0,0,6.61-2.18c2.44-2.22,5.35-2.69,8.47-2.38a41.05,41.05,0,0,1,7.63,1.18,5.25,5.25,0,0,1,3.23,2.27,45,45,0,0,1,3.21,5.49c.34.81,1.09,1.17,1.67,1.73q2.63,2.52,5.21,5.1c1.39,1.39,1.43,3.25,1.4,5-.05,2.72-.46,5.44-.65,8.16a36,36,0,0,1-2.34,10.1,27.85,27.85,0,0,1-4.53,8.52c-1.38,1.63-1.85,3.71-2.86,5.53-2.29,4.1-4,8.49-6.21,12.61-.91,1.71-2.32,3.17-3.32,4.87-2,3.39-4.77,6.23-6.93,9.5a60.59,60.59,0,0,1-6.6,8.32c-1.44,1.53-2.8,3.13-4.37,4.57-2.41,2.21-5.3,3.57-8.15,5-1.33.67-3.64-.3-4.31-1.64a24.9,24.9,0,0,0-4.07-5.49c-2.1-2.32-3.68-5.14-3.2-8.7a18.88,18.88,0,0,1,1.57-5.5c1.35-2.92,1.46-6.12,1.8-9.25.26-2.45.63-4.88,1.07-7.3a4.4,4.4,0,0,0-.36-2.69,22,22,0,0,1-1.7-4.41,4.91,4.91,0,0,1,.25-2.59,8.62,8.62,0,0,1,.56-1.52,4.42,4.42,0,0,0-.6-4.8,40.7,40.7,0,0,0-2.7-3.46,11,11,0,0,0-5-3.2,5,5,0,0,1-3.51-3,4.72,4.72,0,0,0-2.25-2.41c-1.44-.8-2.22-2.36-3.62-3.21-2.64-1.61-5.17-3.42-8.47-3.62-2.44-.16-4.63-1-5.55-3.66a17.34,17.34,0,0,1-.57-3.65,56.9,56.9,0,0,1,0-11.67c.21-2.43,2-3.9,3.69-5.39a8,8,0,0,0,2-2.2,7.86,7.86,0,0,1,2.72-2.46c2-1.39,4-2.74,5.88-4.3S111.86,100.82,114.46,101.33Z" transform="translate(0)"/><path class="cls-2" d="M152.51,44.14c3.07-.29,5.9.94,8.86.69a6.55,6.55,0,0,0,2.34-.54,43.65,43.65,0,0,1,6.27-2,30.32,30.32,0,0,0,5.58-2.18c2.2-1.17,4.57-1.1,7-1.05,3,.06,4.41,2.33,6.13,4.09,2.14,2.21,4.09,4.61,6.09,6.95,1.58,1.85,3.26,3.63,4.72,5.55,1.32,1.75,2.89,3.29,4.17,5a36.46,36.46,0,0,1,2.52,4.65c.95,1.82,2,3.61,2.8,5.5a44.44,44.44,0,0,1,2.15,5.08c.68,2.39,2.22,4.39,3.15,6.65a68.26,68.26,0,0,1,3.28,10c.67,2.8,1.68,5.52,2.4,8.32a60.79,60.79,0,0,1,1.24,6.29c.46,3,.72,6,1.23,8.91a24.71,24.71,0,0,1,.67,5.14,3.93,3.93,0,0,1-.4,1.78c-.67,1.28-.69,2.74-1.07,4.09-.59,2.14-.42,4.54-2.07,6.37-.95,1-2,1.16-2.95.09a6.44,6.44,0,0,1-.89-1.35,7.37,7.37,0,0,0-3.94-3.26c-.83-.38-1.41-1.2-2.34-1.44-3.2-.81-6.25-2.15-9.58-2.49a6.11,6.11,0,0,1-5-9c.64-1.31-.15-2.41-.34-3.58A9.08,9.08,0,0,0,192,107.4a9.77,9.77,0,0,1-1.45-2.5,1.6,1.6,0,0,0-1.64-1c-1,.1-1.9-.57-2.88-.78-2.12-.45-5.32.74-6.4,2.56a2.65,2.65,0,0,0,.32,2.94,3.78,3.78,0,0,1,.59,2.54,1.56,1.56,0,0,1-2.44,1.34,3.6,3.6,0,0,0-1.4-.49c-2.54-.25-3.34-2.31-4.32-4.19-1.11-2.11-.94-4.48-1.31-6.72a18.7,18.7,0,0,0-2.33-5.83c-1.58-3-4.32-4.8-6.8-6.8a7.86,7.86,0,0,0-6.81-1.17c-3,.69-6,1.42-9.15,1a54.3,54.3,0,0,1-8.49-1.62c-2.51-.76-4.86-1.9-7.34-2.7a6.78,6.78,0,0,0-5.35.75c-1,.51-1.92,1.15-2.89,1.71A6.61,6.61,0,0,1,115,86a1.53,1.53,0,0,1-.72-1.26,9.75,9.75,0,0,1,1.37-5.08c.89-1.31,2.44-1.55,3.89-1.79a5.54,5.54,0,0,1,2.51.24,14.76,14.76,0,0,0,8.77-.41,4.36,4.36,0,0,0,1.54-1c2.29-2.06,4.31-4.44,5-7.41.61-2.43,2.05-3,4.13-3.4,1.22-.2,2.46.06,3.68-.34,2.36-.78,4.78-1.41,7.13-2.23a30.67,30.67,0,0,0,5.49-2.83.53.53,0,0,0,.1-.06c1-.84,2.19-1.65,1.87-3.19s-1.56-2.08-2.87-2.59c-2.07-.8-4.33-.64-6.43-1.33-.74-.24-1.45-.52-2.17-.78-3-1.07-2.56-4.76-1.11-6.4A5.41,5.41,0,0,1,152.51,44.14Z" transform="translate(0)"/><path class="cls-2" d="M42.79,193.07c-.6-2.11-.1-4.27.14-6.45.17-1.5-.5-2.87-.74-4.3a7,7,0,0,1,1.22-4.92,33.12,33.12,0,0,0,3.26-6.21c1.22-3.49,1.82-7.07.81-10.64a18.47,18.47,0,0,0-3.11-6.26,5.52,5.52,0,0,1-.9-3.8c0-.34.13-.68.16-1A1.23,1.23,0,0,1,45,148.2a7,7,0,0,1,5.82,2.49,69,69,0,0,0,6.07,6.14,18.19,18.19,0,0,0,6.63,3.22,44.69,44.69,0,0,1,10.11,5,26.83,26.83,0,0,1,6.26,5.54,29,29,0,0,1,4.55,6.21,10.39,10.39,0,0,1,.44,7.87c-.8,2.39-1.9,4.7-2.19,7.28a4.77,4.77,0,0,1-2.11,3.7,7.58,7.58,0,0,0-1.47,1.47c-.89,1-.81,1.95-.21,3.16.91,1.86,1.33,5.15-.44,7.06a64.86,64.86,0,0,0-4.79,6.33A5.83,5.83,0,0,0,73,216.1c-.26,1.2-.59,1.44-1.64.93a68.57,68.57,0,0,1-8.49-4.92c-3.73-2.52-6.7-5.78-9.87-8.85a49.36,49.36,0,0,0-7.5-5.77A17.28,17.28,0,0,1,44,196.36,2.83,2.83,0,0,1,42.79,193.07Z" transform="translate(0)"/><path class="cls-2" d="M37.12,147.08c.76-1.17,1.05-.45,1.11.2a30.69,30.69,0,0,1,.07,3.59c0,.84-.7.6-1.13.49-.67-.16-.81-.84-1.13-1.36s-.7-1.05.16-1.48c.19-.09.15-.28,0-.48A11.46,11.46,0,0,0,33,144.6c-1.77-1.08-3.52-2.23-5.26-3.36A10.45,10.45,0,0,1,23.92,137a15.44,15.44,0,0,0-4.55-5.72,19.43,19.43,0,0,0-2.67-2c-.82-.42-.56-1.43-.69-2.16a40,40,0,0,1-.07-13c.13-1,.09-1.93.15-2.89.23-3.74,1.19-7.36,1.79-11a38.11,38.11,0,0,1,1.62-6A131.32,131.32,0,0,1,25.74,78.5a86.46,86.46,0,0,1,4.68-8,54.31,54.31,0,0,0,4.37-7.55c.57-1.33,1.71-2.25,2.45-3.57-.25,2.32,1.82,2.59,3,3.56a22.66,22.66,0,0,1,2.91,2.62,2.42,2.42,0,0,1,.18,3.17,22,22,0,0,1-3.07,3.11c-1.07,1-2.45,1.61-3.09,3a1.71,1.71,0,0,0-.11,1.67c1.39,2.06.84,4-.13,6a9.58,9.58,0,0,0-.88,4,2.44,2.44,0,0,0,1.41,2.58A3.67,3.67,0,0,0,41,88.85a27.84,27.84,0,0,0,4.88-4.57c1.59-1.68,2.24-3.87,3.13-5.93a8,8,0,0,1,2.62-3.87,3,3,0,0,1,4.08.35c1.09,1.1,1.86,2.45,2.8,3.6a12.62,12.62,0,0,1,2.21,4.31A3.85,3.85,0,0,1,59.46,87,29.62,29.62,0,0,0,54,93.49c-.95,1.59-.68,3.21-.43,4.82.34,2.23-.25,3.44-2.29,4.32a27.84,27.84,0,0,0-4.13,2.47c-2.48,1.6-2.57,4.09-2.13,6.61.54,3,.2,6.09.34,9.14,0,.33-.09.63-.49.67s-.88.09-1.13-.36a4,4,0,0,1-.53-1.16,14.92,14.92,0,0,0-1.79-4.37,1.82,1.82,0,0,0-3.08-.45,8.54,8.54,0,0,0-1.45,1.94,16.8,16.8,0,0,1-6.46,6.68,15.24,15.24,0,0,0-4,2.83,4.06,4.06,0,0,0-.92,4.12A19,19,0,0,0,30,138.07a20.51,20.51,0,0,0,2.79,2.23A11.83,11.83,0,0,1,37.12,147.08Zm-.31.75,0-.13-.07,0S36.8,147.77,36.81,147.83Z" transform="translate(0)"/><path class="cls-2" d="M99,30.43a3.3,3.3,0,0,1-.86,2.17c-2.13,2.34-5,3.54-7.66,5.07a38.94,38.94,0,0,1-6.89,3.15,5.17,5.17,0,0,0-1.85,1.34,31.53,31.53,0,0,1-2.45,2.59c-1.26,1-1.6,2.51-1.89,4a70,70,0,0,1-2,8.08c-.7,2.2-2,2.95-4,2.5a1.74,1.74,0,0,1-1.15-.87A15.57,15.57,0,0,1,67.61,50a43.24,43.24,0,0,0-.6-7.13,13.41,13.41,0,0,0-1.37-4.79A4.26,4.26,0,0,0,64,36.52c-1-.55-1-1.17,0-1.73a55.64,55.64,0,0,0,8.18-5.4c2.6-2.11,5.73-2.89,8.58-4.35,3.26-1.67,6.78-2.74,10.14-4.18,1.22-.53,2.51-.9,3.78-1.31.56-.18,1.08-.06,1.08.63,0,3.13,1.31,5.81,2.77,8.46A7.24,7.24,0,0,1,99,30.43Z" transform="translate(0)"/><path class="cls-2" d="M193.47,148.48c-1.6.2-2.81-.85-4-1.62a9.86,9.86,0,0,1-2.16-1.7c-.92-1.06-.77-2.09.5-2.7.55-.27,1.14-.47,1.7-.73a2.52,2.52,0,0,1,2.63.16c.65.42,1.32.8,2,1.17a1.42,1.42,0,0,1,.87,1.47,1.66,1.66,0,0,0,.49,1.26c.47.54.93,1.13.54,1.86s-1.11.77-1.81.83C194,148.5,193.74,148.48,193.47,148.48Z" transform="translate(0)"/><path class="cls-2" d="M193.8,131a2.27,2.27,0,0,1-.27,1.16.93.93,0,0,1-1.64.38,3.34,3.34,0,0,1-.79-.85c-.93-1.75-2.51-2.86-3.94-4.13-.11-.11-.23-.21-.33-.33-.27-.32-.61-.65-.44-1.11s.61-.36.91-.36C190.56,125.73,193.57,127.25,193.8,131Z" transform="translate(0)"/><path class="cls-2" d="M56.17,42.29a6.18,6.18,0,0,1,2.49.17,1.2,1.2,0,0,1,.86,1.22,1.14,1.14,0,0,1-.78,1.15c-.7.32-1.41.6-2.08,1-1.57.91-3.09.26-4.57-.19-.91-.28-.92-1-.24-1.7C53,42.7,54.31,41.78,56.17,42.29Z" transform="translate(0)"/><path class="cls-2" d="M61,54.81a15.62,15.62,0,0,1-5.22-2.12c-.23-.16-.54-.39-.45-.75s.52-.42.86-.4a29.15,29.15,0,0,1,4,1,8.15,8.15,0,0,1,1.95.71c.34.16.92.33.75.87a1.17,1.17,0,0,1-1,.68A6,6,0,0,1,61,54.81Z" transform="translate(0)"/><path class="cls-2" d="M50.32,59.24a2.48,2.48,0,0,1-3-1.44c-.36-.79-.09-1.2.76-1.11,1.26.13,2.45.58,3.72.69a.93.93,0,1,1-.06,1.85C51.23,59.27,50.77,59.24,50.32,59.24Z" transform="translate(0)"/><path class="cls-3" d="M36.81,147.83c0-.06,0-.09,0-.11l.07,0Z" transform="translate(0)"/><path class="cls-4" d="M264.66,50.16q9.72,0,14.76,5.52t5,15.24v2.64a23.71,23.71,0,0,1-2.28,10.92,13.12,13.12,0,0,1-7.32,6.36,12.91,12.91,0,0,1,7.44,6.72,26.14,26.14,0,0,1,2.16,11v6.24q0,9.72-5,15.36t-14.82,5.64q-9.84,0-14.82-5.64t-5-15.36V108.6a25.63,25.63,0,0,1,2.16-11,13.44,13.44,0,0,1,7.56-6.72,13.66,13.66,0,0,1-7.44-6.42,23.34,23.34,0,0,1-2.28-10.86V70.92q0-9.72,5-15.24T264.66,50.16Zm0,8.4q-5,0-7.8,3.06t-2.76,9.54v4.08q0,6.12,2.76,8.94t7.8,2.82q5,0,7.8-2.82t2.76-8.94V71.16q0-6.48-2.76-9.54T264.66,58.56Zm0,36.84q-10.56,0-10.56,12.12v7.08q0,6.48,2.76,9.6t7.8,3.12q5,0,7.74-3.12t2.82-9.6v-7.08Q275.22,95.4,264.66,95.4Z" transform="translate(0)"/><path class="cls-4" d="M292.26,71.28q0-9.72,4.74-15.42t14.46-5.7q9.72,0,14.52,5.7t4.8,15.42V114.6q0,9.72-4.8,15.48t-14.52,5.76q-9.72,0-14.46-5.76t-4.74-15.48Zm9.24,43.92q0,5.76,2.46,8.94t7.5,3.18q5.16,0,7.56-3.18t2.4-8.94V70.8q0-5.76-2.4-9t-7.56-3.24q-5,0-7.5,3.24t-2.46,9Z" transform="translate(0)"/><path class="cls-4" d="M257.54,25.51a6.68,6.68,0,0,1,4.84,1.58q1.64,1.57,1.63,5v3.08a7.44,7.44,0,0,1-1.53,5A6,6,0,0,1,257.7,42h-6.39V14h11.56v2.84h-8.54v8.72Zm.16,13.6a3.11,3.11,0,0,0,2.47-.9,4.31,4.31,0,0,0,.78-2.86V31.87a3.62,3.62,0,0,0-.86-2.8,3.72,3.72,0,0,0-2.55-.76h-3.21v10.8Z" transform="translate(0)"/><path class="cls-4" d="M266.75,20.71a7.92,7.92,0,0,1,1.55-5.14,5.73,5.73,0,0,1,4.73-1.9,5.79,5.79,0,0,1,4.74,1.9,7.87,7.87,0,0,1,1.57,5.14V35.19a7.88,7.88,0,0,1-1.57,5.12A5.77,5.77,0,0,1,273,42.23a5.71,5.71,0,0,1-4.73-1.92,7.94,7.94,0,0,1-1.55-5.12Zm3,14.64a4.82,4.82,0,0,0,.81,3,3.38,3.38,0,0,0,4.92,0,5,5,0,0,0,.78-3V20.55a5,5,0,0,0-.78-3,3.38,3.38,0,0,0-4.92,0,4.82,4.82,0,0,0-.81,3Z" transform="translate(0)"/><path class="cls-4" d="M288.08,16.79,287.45,35a18.37,18.37,0,0,1-.35,3,5.89,5.89,0,0,1-.9,2.18,4.11,4.11,0,0,1-1.67,1.38,6.21,6.21,0,0,1-2.61.48h-.5V39.15a4.07,4.07,0,0,0,1.52-.24,1.94,1.94,0,0,0,.92-.74,3,3,0,0,0,.46-1.26,16.34,16.34,0,0,0,.15-1.76l.75-21.2h11.17V42h-3.06V16.79Z" transform="translate(0)"/><path class="cls-4" d="M309.4,26.35v2.8h-6.7v10h8.23V42H299.64V14h11.29v2.84H302.7v9.56Z" transform="translate(0)"/><path class="cls-4" d="M323.51,26.35v2.8h-6.7v10H325V42H313.75V14H325v2.84h-8.23v9.56Z" transform="translate(0)"/><path class="cls-4" d="M352.77,41.91h-2.58l-4-22.28V42h-2.34V14h3.75l4,22.36L355.39,14h3.75V42h-2.55V19.43Z" transform="translate(0)"/><path class="cls-4" d="M368.22,29,364.67,42h-2.78V14h2.37V34.83l2.13-7.72L370.25,14h3V42h-2.41V19.67Z" transform="translate(0)"/><path class="cls-4" d="M381.08,16.79,380.53,35a20,20,0,0,1-.31,3,6.38,6.38,0,0,1-.79,2.18A3.72,3.72,0,0,1,378,41.51a4.89,4.89,0,0,1-2.29.48h-.45V39.15a3.23,3.23,0,0,0,1.35-.24,1.79,1.79,0,0,0,.8-.74,3.28,3.28,0,0,0,.4-1.26c.07-.51.11-1.09.14-1.76l.65-21.2h9.81V42h-2.69V16.79Z" transform="translate(0)"/><path class="cls-4" d="M396.36,16.79,395.81,35a21.41,21.41,0,0,1-.31,3,6.82,6.82,0,0,1-.79,2.18,3.75,3.75,0,0,1-1.47,1.38A4.87,4.87,0,0,1,391,42h-.45V39.15a3.18,3.18,0,0,0,1.34-.24,1.87,1.87,0,0,0,.81-.74,3.28,3.28,0,0,0,.39-1.26,16.56,16.56,0,0,0,.14-1.76l.65-21.2h9.81V42H401V16.79Z" transform="translate(0)"/><path class="cls-4" d="M412.83,29,409.29,42H406.5V14h2.38V34.83L411,27.11,414.86,14h3V42h-2.41V19.67Z" transform="translate(0)"/><path class="cls-4" d="M420.37,20.71a8.65,8.65,0,0,1,1.36-5.14,4.73,4.73,0,0,1,4.14-1.9,4.78,4.78,0,0,1,4.16,1.9,8.58,8.58,0,0,1,1.38,5.14V35.19A8.6,8.6,0,0,1,430,40.31a4.77,4.77,0,0,1-4.16,1.92,4.72,4.72,0,0,1-4.14-1.92,8.67,8.67,0,0,1-1.36-5.12ZM423,35.35a5.36,5.36,0,0,0,.7,3,2.73,2.73,0,0,0,4.32,0,5.45,5.45,0,0,0,.69-3V20.55a5.45,5.45,0,0,0-.69-3,2.73,2.73,0,0,0-4.32,0,5.36,5.36,0,0,0-.7,3Z" transform="translate(0)"/><path class="cls-4" d="M436.64,29.35V42H434V14h2.69v12.6h5.91V14h2.69V42h-2.69V29.35Z" transform="translate(0)"/><path class="cls-4" d="M447.78,20.71a8.73,8.73,0,0,1,1.36-5.14,5.49,5.49,0,0,1,8.31,0,8.58,8.58,0,0,1,1.38,5.14V35.19a8.6,8.6,0,0,1-1.38,5.12,5.46,5.46,0,0,1-8.31,0,8.74,8.74,0,0,1-1.36-5.12Zm2.65,14.64a5.36,5.36,0,0,0,.71,3,2.72,2.72,0,0,0,4.31,0,5.45,5.45,0,0,0,.69-3V20.55a5.45,5.45,0,0,0-.69-3,2.72,2.72,0,0,0-4.31,0,5.36,5.36,0,0,0-.71,3Z" transform="translate(0)"/><path class="cls-4" d="M466.77,14a4.82,4.82,0,0,1,4,1.54,7.53,7.53,0,0,1,1.2,4.66v1.32a9,9,0,0,1-.62,3.62,3.59,3.59,0,0,1-2.2,1.94,3.93,3.93,0,0,1,2.49,2.12,8.92,8.92,0,0,1,.74,3.88v2.36a7.64,7.64,0,0,1-1.34,4.86,5,5,0,0,1-4.16,1.7h-5.54V14Zm-.65,11.88a3.39,3.39,0,0,0,2.42-.76,4.06,4.06,0,0,0,.81-3V20.47a5.1,5.1,0,0,0-.6-2.78,2.28,2.28,0,0,0-2.05-.9h-2.65v9Zm.79,13.28q2.85,0,2.85-3.8V32.83a5,5,0,0,0-.8-3.26,3.3,3.3,0,0,0-2.57-.9h-2.34V39.11Z" transform="translate(0)"/><path class="cls-4" d="M347,57.72a3.08,3.08,0,0,1,2.92,1.92,11.85,11.85,0,0,1,.94,5.12v.72a11.14,11.14,0,0,1-.53,3.66,3.89,3.89,0,0,1-1.57,2.14,3.58,3.58,0,0,1,1.6,2.12,11.81,11.81,0,0,1,.5,3.64v2.2a11.85,11.85,0,0,1-.94,5.12,3.16,3.16,0,0,1-5.81,0,11.7,11.7,0,0,1-.94-5.12V76.52H345V79.4a7.24,7.24,0,0,0,.49,3,1.61,1.61,0,0,0,3,0,8.46,8.46,0,0,0,.47-3.2V77q0-4.15-2.19-4.16H346V70h.9a1.71,1.71,0,0,0,1.53-1,5.8,5.8,0,0,0,.57-2.84V64.88a8.59,8.59,0,0,0-.47-3.24,1.61,1.61,0,0,0-3,0,7.24,7.24,0,0,0-.49,3v1.88h-1.76V64.72a11.84,11.84,0,0,1,.92-5.12A3,3,0,0,1,347,57.72Z" transform="translate(0)"/><path class="cls-4" d="M354.64,80.36,354,86h-1.76l3.27-28h2.76l3.27,28h-1.9L359,80.36Zm.24-2.68h3.81l-1.93-16.16Z" transform="translate(0)"/><path class="cls-4" d="M364.91,73.4V86H363V58h1.9V70.6h4.2V58H371V86h-1.9V73.4Z" transform="translate(0)"/><path class="cls-4" d="M377.45,73.08,374.94,86h-2V58h1.69V78.88l1.51-7.72L378.89,58H381V86h-1.7V63.72Z" transform="translate(0)"/><path class="cls-4" d="M389.24,86h-1.83l-2.83-22.28V86h-1.66V58h2.66l2.8,22.36L391.09,58h2.66V86H392V63.48Z" transform="translate(0)"/><path class="cls-4" d="M397.63,80.36,397,86h-1.76l3.27-28h2.76l3.27,28h-1.9L402,80.36Zm.24-2.68h3.81l-1.93-16.16Z" transform="translate(0)"/><path class="cls-4" d="M414.3,57.72a3.13,3.13,0,0,1,2.94,1.9,11.52,11.52,0,0,1,1,5.14V79.24a11.54,11.54,0,0,1-1,5.12,3.23,3.23,0,0,1-5.9,0,11.39,11.39,0,0,1-1-5.12V73.4H407.9V86H406V58h1.9V70.6h2.47V64.76a11.37,11.37,0,0,1,1-5.14A3.15,3.15,0,0,1,414.3,57.72Zm0,2.84a1.6,1.6,0,0,0-1.54,1.06,7.24,7.24,0,0,0-.49,3V79.4a7.24,7.24,0,0,0,.49,3,1.63,1.63,0,0,0,3.06,0,7.22,7.22,0,0,0,.5-3V64.6a7.22,7.22,0,0,0-.5-3A1.61,1.61,0,0,0,414.3,60.56Z" transform="translate(0)"/><path class="cls-4" d="M431.74,89.76V86H420V58h1.9V83.16h3.27V58h1.88V83.16h3.3V58h1.87V83.24h1.32v6.52Z" transform="translate(0)"/><path class="cls-4" d="M439.7,73.08,437.18,86h-2V58h1.68V78.88l1.51-7.72L441.14,58h2.12V86h-1.71V63.72Z" transform="translate(0)"/><path class="cls-4" d="M449.43,73.92,446.58,86h-1.81l3.44-14.44L445,58h2l2.63,11.2L452.26,58H454l-3.19,13.56L454.26,86h-2Z" transform="translate(0)"/><path class="cls-4" d="M459.48,57.72a3.08,3.08,0,0,1,2.92,1.92,11.7,11.7,0,0,1,.94,5.12v2.52h-1.81V64.6a7.45,7.45,0,0,0-.47-3,1.62,1.62,0,0,0-3,0,7.41,7.41,0,0,0-.49,3V79.4a7.41,7.41,0,0,0,.49,3,1.62,1.62,0,0,0,3,0,7.45,7.45,0,0,0,.47-3V75.76h1.81v3.48a11.7,11.7,0,0,1-.94,5.12,3.16,3.16,0,0,1-5.81,0,11.85,11.85,0,0,1-.94-5.12V64.76a16,16,0,0,1,.24-2.9,7.84,7.84,0,0,1,.7-2.22,3.85,3.85,0,0,1,1.2-1.42A2.91,2.91,0,0,1,459.48,57.72Z" transform="translate(0)"/><path class="cls-4" d="M469.49,74a2.12,2.12,0,0,0-1.84.9A5.83,5.83,0,0,0,467,78.2v4.4c0,.93,0,1.63-.07,2.1a7.14,7.14,0,0,1-.25,1.3h-1.93a7.52,7.52,0,0,0,.29-1.58c0-.57.06-1.17.06-1.78V78.28a12.63,12.63,0,0,1,.47-3.78,3.22,3.22,0,0,1,1.65-2.06q-2.1-1.12-2.1-5.76V64.4a10.22,10.22,0,0,1,.89-4.76A3.07,3.07,0,0,1,468.93,58h3.8V86h-1.9V74ZM469,60.84a1.56,1.56,0,0,0-1.53,1,7.08,7.08,0,0,0-.45,2.88v2.68a5.19,5.19,0,0,0,.63,3.06,2.15,2.15,0,0,0,1.76.78h1.44V60.84Z" transform="translate(0)"/><path class="cls-4" d="M349.27,102a5.33,5.33,0,0,1,4.51,1.82,8.07,8.07,0,0,1,1.39,5v3.36a7.49,7.49,0,0,1-1.48,5.06A5.87,5.87,0,0,1,349,119h-2.59v11h-2.93V102ZM349,116.16a3.19,3.19,0,0,0,2.45-.86,4.23,4.23,0,0,0,.79-2.9v-3.72a4.85,4.85,0,0,0-.7-2.88,2.65,2.65,0,0,0-2.31-1h-2.82v11.32Z" transform="translate(0)"/><path class="cls-4" d="M366.83,114.4v2.8H360.4v10h7.9V130H357.47V102H368.3v2.84h-7.9v9.56Z" transform="translate(0)"/><path class="cls-4" d="M373.93,104.84V130H371V102h10.49v2.84Z" transform="translate(0)"/><path class="cls-4" d="M392.28,123.84a16.85,16.85,0,0,1-.81,2.76,5.7,5.7,0,0,1-1.26,2,4.57,4.57,0,0,1-2,1.16,9.14,9.14,0,0,1-3,.28v-2.8a4,4,0,0,0,2.54-.54,3.68,3.68,0,0,0,1.22-2.22l.6-1.84L383.56,102h2.93l2.67,9.72,1.81,7,1.54-7,2.37-9.72h3Z" transform="translate(0)"/><path class="cls-4" d="M405.67,104.84l-.6,18.2a19.67,19.67,0,0,1-.34,3,6.23,6.23,0,0,1-.87,2.18,3.9,3.9,0,0,1-1.6,1.38,5.71,5.71,0,0,1-2.5.48h-.48V127.2a3.74,3.74,0,0,0,1.46-.24,2,2,0,0,0,.89-.74,3.28,3.28,0,0,0,.43-1.26c.07-.51.12-1.09.15-1.76l.71-21.2h10.72v28h-2.93V104.84Z" transform="translate(0)"/><path class="cls-4" d="M423.56,118a4.07,4.07,0,0,0-2.83.9,4.26,4.26,0,0,0-1,3.26v4.4a15.29,15.29,0,0,1-.11,2.1,5.31,5.31,0,0,1-.38,1.3h-3a4.8,4.8,0,0,0,.43-1.58,17.05,17.05,0,0,0,.1-1.78v-4.36a8.58,8.58,0,0,1,.73-3.78,4,4,0,0,1,2.54-2.06q-3.24-1.12-3.24-5.76V108.4a7.21,7.21,0,0,1,1.38-4.76q1.37-1.64,4.49-1.64h5.87v28h-2.94V118Zm-.79-13.2a2.72,2.72,0,0,0-2.35,1,4.93,4.93,0,0,0-.69,2.88v2.68c0,1.52.32,2.54,1,3.06a4.21,4.21,0,0,0,2.7.78h2.22V104.84Z" transform="translate(0)"/><path class="cls-4" d="M437.33,102a5.33,5.33,0,0,1,4.51,1.82,8.07,8.07,0,0,1,1.39,5v3.36a7.49,7.49,0,0,1-1.49,5.06,5.85,5.85,0,0,1-4.64,1.7h-2.59v11h-2.94V102Zm-.23,14.16a3.16,3.16,0,0,0,2.44-.86,4.23,4.23,0,0,0,.79-2.9v-3.72a4.93,4.93,0,0,0-.69-2.88,2.67,2.67,0,0,0-2.31-1h-2.82v11.32Z" transform="translate(0)"/><path class="cls-4" d="M448.46,117.4V130h-2.94V102h2.94v12.6h6.46V102h2.94v28h-2.94V117.4Z" transform="translate(0)"/><path class="cls-4" d="M460.64,108.76a8.14,8.14,0,0,1,1.48-5.14,6.37,6.37,0,0,1,9.08,0,8,8,0,0,1,1.51,5.14v14.48a8,8,0,0,1-1.51,5.12,6.33,6.33,0,0,1-9.08,0,8.15,8.15,0,0,1-1.48-5.12Zm2.89,14.64a5,5,0,0,0,.77,3,3.16,3.16,0,0,0,4.72,0,5.11,5.11,0,0,0,.75-3V108.6a5.11,5.11,0,0,0-.75-3,3.16,3.16,0,0,0-4.72,0,5,5,0,0,0-.77,3Z" transform="translate(0)"/><path class="cls-4" d="M247.46,158c2,0,3.41.51,4.26,1.54a7.2,7.2,0,0,1,1.28,4.66v1.32a8.46,8.46,0,0,1-.66,3.62A3.7,3.7,0,0,1,250,171a4.11,4.11,0,0,1,2.64,2.12,8.62,8.62,0,0,1,.78,3.88v2.36a7.36,7.36,0,0,1-1.42,4.86,5.41,5.41,0,0,1-4.4,1.7h-5.86V158Zm-.69,11.88a3.76,3.76,0,0,0,2.57-.76,3.92,3.92,0,0,0,.85-3v-1.64a4.9,4.9,0,0,0-.63-2.78,2.48,2.48,0,0,0-2.17-.9h-2.8v9Zm.84,13.28q3,0,3-3.8v-2.48a4.76,4.76,0,0,0-.85-3.26,3.61,3.61,0,0,0-2.72-.9h-2.47v10.44Z" transform="translate(0)"/><path class="cls-4" d="M267.48,169.51a6,6,0,0,1,4.5,1.58q1.51,1.57,1.51,5v3.08a7.82,7.82,0,0,1-1.42,5,5.39,5.39,0,0,1-4.44,1.76H261.7V158h10.73v2.84H264.5v8.72Zm.15,13.6a2.77,2.77,0,0,0,2.29-.9,4.5,4.5,0,0,0,.73-2.86v-3.48a3.84,3.84,0,0,0-.8-2.8,3.29,3.29,0,0,0-2.37-.76h-3v10.8Z" transform="translate(0)"/><path class="cls-4" d="M276,164.71a8.32,8.32,0,0,1,1.44-5.14,5.12,5.12,0,0,1,4.38-1.9,5.21,5.21,0,0,1,4.41,1.9,8.26,8.26,0,0,1,1.45,5.14v14.48a8.27,8.27,0,0,1-1.45,5.12,5.19,5.19,0,0,1-4.41,1.92,5.11,5.11,0,0,1-4.38-1.92,8.34,8.34,0,0,1-1.44-5.12Zm2.8,14.64a5.11,5.11,0,0,0,.75,3,3,3,0,0,0,4.56,0,5.19,5.19,0,0,0,.73-3v-14.8a5.19,5.19,0,0,0-.73-3,3,3,0,0,0-4.56,0,5.11,5.11,0,0,0-.75,3Z" transform="translate(0)"/><path class="cls-4" d="M295.84,160.79l-.58,18.2a19.77,19.77,0,0,1-.33,3,6.2,6.2,0,0,1-.84,2.18,3.83,3.83,0,0,1-1.55,1.38,5.4,5.4,0,0,1-2.42.48h-.47v-2.84a3.56,3.56,0,0,0,1.42-.24,1.94,1.94,0,0,0,.86-.74,3.28,3.28,0,0,0,.41-1.26,16.34,16.34,0,0,0,.15-1.76l.69-21.2h10.38v28h-2.84V160.79Z" transform="translate(0)"/><path class="cls-4" d="M315.64,170.35v2.8h-6.22v10h7.64V186H306.58V158h10.48v2.84h-7.64v9.56Z" transform="translate(0)"/><path class="cls-4" d="M328.74,170.35v2.8h-6.22v10h7.64V186H319.68V158h10.48v2.84h-7.64v9.56Z" transform="translate(0)"/><path class="cls-4" d="M347.27,173.55a4.58,4.58,0,0,1-1.75,1.64,4.69,4.69,0,0,1-2.22.56,4.86,4.86,0,0,1-2.24-.5,4.26,4.26,0,0,1-1.58-1.4,6.72,6.72,0,0,1-.93-2.12,10.94,10.94,0,0,1-.31-2.62V158h2.84v10.92a4.94,4.94,0,0,0,.8,2.92,2.68,2.68,0,0,0,2.33,1.12q2.63,0,3.06-3.28V158h2.8v28h-2.8Z" transform="translate(0)"/><path class="cls-4" d="M362.08,170.35v2.8h-6.22v10h7.64V186H353V158H363.5v2.84h-7.64v9.56Z" transform="translate(0)"/><path class="cls-4" d="M375.52,185.91h-2.73l-4.23-22.28V186h-2.47V158h4l4.19,22.36,4-22.36h4v28h-2.69V163.43Z" transform="translate(0)"/><path class="cls-4" d="M246.52,197.72a4,4,0,0,1,3.63,1.92,9.78,9.78,0,0,1,1.17,5.12v2.52h-2.25V204.6a6.13,6.13,0,0,0-.59-3,2.21,2.21,0,0,0-3.78,0,6,6,0,0,0-.61,3v14.8a6,6,0,0,0,.61,3,2.21,2.21,0,0,0,3.78,0,6.13,6.13,0,0,0,.59-3v-3.64h2.25v3.48a9.78,9.78,0,0,1-1.17,5.12,4.36,4.36,0,0,1-7.23,0,9.78,9.78,0,0,1-1.17-5.12V204.76a13,13,0,0,1,.29-2.9,6.57,6.57,0,0,1,.88-2.22,4.13,4.13,0,0,1,1.49-1.42A4.28,4.28,0,0,1,246.52,197.72Z" transform="translate(0)"/><path class="cls-4" d="M256.73,226V200.84h-3.92V198H263v2.84H259.1V226Z" transform="translate(0)"/><path class="cls-4" d="M269.44,198a4,4,0,0,1,3.65,1.82,9.53,9.53,0,0,1,1.12,5v3.36a8.77,8.77,0,0,1-1.2,5.06,4.28,4.28,0,0,1-3.75,1.7h-2.1v11h-2.37V198Zm-.18,14.16a2.29,2.29,0,0,0,2-.86,5,5,0,0,0,.64-2.9v-3.72a5.89,5.89,0,0,0-.56-2.88,2,2,0,0,0-1.87-1h-2.28v11.32Z" transform="translate(0)"/><path class="cls-4" d="M278.47,220.36l-.82,5.64h-2.19l4.07-28H283L287,226h-2.37l-.82-5.64Zm.3-2.68h4.75l-2.41-16.16Z" transform="translate(0)"/><path class="cls-4" d="M291.27,213.4V226H288.9V198h2.37v12.6h5.23V198h2.37v28H296.5V213.4Z" transform="translate(0)"/><path class="cls-4" d="M303.7,220.36l-.82,5.64h-2.19l4.08-28h3.43l4.07,28H309.9l-.82-5.64Zm.31-2.68h4.74l-2.4-16.16Z" transform="translate(0)"/><path class="cls-4" d="M319.42,213.92,315.86,226h-2.25l4.29-14.44-4-13.56h2.46l3.28,11.2L323,198h2.21l-4,13.56L325.44,226H323Z" transform="translate(0)"/><path class="cls-4" d="M339.91,226h-2.28l-3.53-22.28V226H332V198h3.32l3.49,22.36L342.22,198h3.31v28h-2.25V203.48Z" transform="translate(0)"/><path class="cls-4" d="M353.56,213.08,350.43,226H348V198h2.1v20.88l1.89-7.72,3.4-13.16H358v28h-2.13V203.72Z" transform="translate(0)"/><path class="cls-4" d="M365.05,198a4,4,0,0,1,3.65,1.82,9.53,9.53,0,0,1,1.12,5v3.36a8.77,8.77,0,0,1-1.2,5.06,4.28,4.28,0,0,1-3.75,1.7h-2.1v11H360.4V198Zm-.18,14.16a2.29,2.29,0,0,0,2-.86,5,5,0,0,0,.64-2.9v-3.72a5.89,5.89,0,0,0-.56-2.88,2,2,0,0,0-1.87-1h-2.28v11.32Z" transform="translate(0)"/><path class="cls-4" d="M374.08,220.36l-.82,5.64h-2.19l4.07-28h3.44l4.07,28h-2.37l-.82-5.64Zm.3-2.68h4.74l-2.4-16.16Z" transform="translate(0)"/><path class="cls-4" d="M404.24,158.08q5.92,0,8.66,4.57t2.75,12.25a30,30,0,0,1-1.27,9.07,40.52,40.52,0,0,1-3.17,7.51,62.57,62.57,0,0,1-4.12,6.5q-2.2,3-4.11,6.08a38.77,38.77,0,0,0-3.22,6.32,19.2,19.2,0,0,0-1.3,7.08v1h16.61v6.75H392.9v-5.7a31.86,31.86,0,0,1,1.27-9.4,37.62,37.62,0,0,1,3.17-7.46,65,65,0,0,1,4.12-6.37q2.21-3,4.12-6.13a35.3,35.3,0,0,0,3.17-6.74,25,25,0,0,0,1.27-8.26q0-5.13-1.38-7.79a5.18,5.18,0,0,0-9.06,0,15.23,15.23,0,0,0-1.41,7.12v5.89H392.9V175q0-7.69,2.75-12.31T404.24,158.08Z" transform="translate(0)"/><path class="cls-4" d="M420.41,174.81c0-5.14.95-9.2,2.85-12.21a10.67,10.67,0,0,1,17.44,0c1.92,3,2.89,7.07,2.89,12.21V209.1q0,7.69-2.89,12.25a10.6,10.6,0,0,1-17.44,0q-2.85-4.56-2.85-12.25ZM426,209.58a14,14,0,0,0,1.48,7.07,5.33,5.33,0,0,0,9.06,0,14.31,14.31,0,0,0,1.45-7.07V174.42a14.63,14.63,0,0,0-1.45-7.12,5.28,5.28,0,0,0-9.06,0,14.27,14.27,0,0,0-1.48,7.12Z" transform="translate(0)"/><path class="cls-4" d="M454.56,185.83q2.46-5.52,7.51-5.52a7.51,7.51,0,0,1,7.15,4.33q2.23,4.32,2.24,11.44v13q0,7.6-2.82,12.21a10.28,10.28,0,0,1-17.15,0q-2.78-4.6-2.78-12.21v-4.47H454v5a14.2,14.2,0,0,0,1.45,7.07,5.23,5.23,0,0,0,8.95,0,14.31,14.31,0,0,0,1.45-7.07V196.65a14.37,14.37,0,0,0-1.45-7.07,5.14,5.14,0,0,0-8.3-.76,9.58,9.58,0,0,0-1.88,5.37v1.52h-5.27l1.37-37h19.93v6.65H455.36Z" transform="translate(0)"/><path class="cls-5" d="M311.54,283.57a12.61,12.61,0,0,0,.41-2.12,28.86,28.86,0,0,0,.34-5.17,31.59,31.59,0,0,0-.51-4.94A25.58,25.58,0,0,0,311,268a34.48,34.48,0,0,0-2.16-5.23A32.87,32.87,0,0,0,303,255c-.88-.81-1.8-1.57-2.75-2.3a26.21,26.21,0,0,0-3.28-2.17,31.88,31.88,0,0,0-4.82-2.23c-1.07-.37-2.13-.71-3.22-1a22.68,22.68,0,0,0-3.36-.57c-1-.11-2.07-.18-3.11-.21a35.22,35.22,0,0,0-4.82.26,23.8,23.8,0,0,0-4.27.88,32.38,32.38,0,0,0-8.4,3.9,36.08,36.08,0,0,0-4.24,3.35,30.58,30.58,0,0,0-2.12,2.28c-.86,1-1.61,2.1-2.37,3.18a22.92,22.92,0,0,0-2.07,3.8c-.27.61-.6,1.21-.83,1.85a39.15,39.15,0,0,0-1.25,4.08,26.37,26.37,0,0,0-.57,3.41,29.57,29.57,0,0,0-.07,5.95c.11,1,.16,2.05.36,3.05A30.92,30.92,0,0,0,253,287.1a36.22,36.22,0,0,0,1.62,3.73c.47.93,1,1.81,1.54,2.7a11.12,11.12,0,0,0,.69,1,34.22,34.22,0,0,0,2.69,3.32,23.39,23.39,0,0,0,2.63,2.44c1.06.83,2.11,1.66,3.24,2.38a31.16,31.16,0,0,0,5.6,2.8,27.46,27.46,0,0,0,4.51,1.34,30.26,30.26,0,0,0,5.28.58c1,0,2.05,0,3.07,0H284c.44,0,.46,0,.36.43-.21.84-.43,1.67-.62,2.52a18.13,18.13,0,0,0-.37,1.95c-.05.43-.05.44-.46.45a23.34,23.34,0,0,1-3.24-.06c-.43-.05-.87,0-1.3-.05a25.13,25.13,0,0,1-3-.4,36.78,36.78,0,0,1-4.73-1.19,36.12,36.12,0,0,1-5.1-2.13,34.17,34.17,0,0,1-5.06-3.14,30.41,30.41,0,0,1-2.5-2c-1-1-2.07-2-3-3a35.26,35.26,0,0,1-3.58-4.76,39.65,39.65,0,0,1-2.29-4.32,27.37,27.37,0,0,1-1.89-5.27c-.31-1.23-.63-2.46-.82-3.72-.15-1.05-.23-2.11-.32-3.18a37.71,37.71,0,0,1,.79-10.56c.29-1.14.55-2.29.94-3.41a40.33,40.33,0,0,1,1.91-4.49,37.3,37.3,0,0,1,3.29-5.37,40.78,40.78,0,0,1,4.88-5.37,34,34,0,0,1,3.68-2.87,32.57,32.57,0,0,1,4.75-2.75,29.15,29.15,0,0,1,5.39-2.08,34.7,34.7,0,0,1,4.73-1c1-.12,2-.19,3-.27a33.71,33.71,0,0,1,4-.06c.85,0,1.69.14,2.54.2a30.16,30.16,0,0,1,4.63.84c.91.21,1.8.5,2.7.79a35.63,35.63,0,0,1,5.71,2.55,33,33,0,0,1,5.54,3.77,24.63,24.63,0,0,1,2.35,2.1,40.57,40.57,0,0,1,4.3,5.13,29.23,29.23,0,0,1,2,3.18,51,51,0,0,1,2.16,4.76,37.23,37.23,0,0,1,1.44,5,32.23,32.23,0,0,1,.63,4.28,42.24,42.24,0,0,1,.1,4.36,25.52,25.52,0,0,1-.35,4c0,.11,0,.23,0,.34-.11.62-.2,1.25-.34,1.87-.27,1.23-.59,2.45-.95,3.67a6.67,6.67,0,0,0-.49,1.24,23.54,23.54,0,0,1-1.25,3,31.32,31.32,0,0,1-1.78,3.27,37.48,37.48,0,0,1-3,4.2c-.83,1-1.68,1.9-2.58,2.8a33.2,33.2,0,0,1-4.92,4,26.18,26.18,0,0,1-3.32,2c-1.13.55-2.23,1.15-3.4,1.61-.5.19-1,.36-1.56.56a4.58,4.58,0,0,1,.3-1.08,30,30,0,0,1,1.19-3c.45-.88.84-1.79,1.33-2.66a1.83,1.83,0,0,1,.68-.7,28.77,28.77,0,0,0,3.88-2.68,25.57,25.57,0,0,0,3.65-3.48c.5-.62,1-1.21,1.51-1.84a28.57,28.57,0,0,0,3.08-5,.86.86,0,0,0,0-.17.84.84,0,0,0,.22-.36A31.88,31.88,0,0,0,311.54,283.57Z" transform="translate(0)"/><path class="cls-6" d="M404.79,290.45a8,8,0,0,1,1.4.32,30.37,30.37,0,0,1,5,1.91,3,3,0,0,1,1.3,1.13,30.19,30.19,0,0,0,2.91,3.76,25.34,25.34,0,0,0,2.59,2.48c.79.65,1.61,1.25,2.44,1.86A22.54,22.54,0,0,0,423.9,304c.88.42,1.75.88,2.66,1.24a28.73,28.73,0,0,0,5.11,1.57,24.68,24.68,0,0,0,5.28.57,3.42,3.42,0,0,1,.78.06.53.53,0,0,0,.25,0c.88-.14,1.76-.05,2.64-.13s1.95-.22,2.91-.4a24.56,24.56,0,0,0,3.48-.86,31.58,31.58,0,0,0,6.6-3,35.74,35.74,0,0,0,4.43-3.22,28.52,28.52,0,0,0,3.17-3.24,34.39,34.39,0,0,0,2.73-3.74c.26-.39.49-.81.72-1.23a31.61,31.61,0,0,0,2.55-6.13,27.82,27.82,0,0,0,.91-4.26c.13-.93.2-1.86.27-2.79a12.09,12.09,0,0,0,.07-1.59c-.06-1.38-.14-2.76-.32-4.13a26.7,26.7,0,0,0-.92-4.35,33.91,33.91,0,0,0-2.06-5.22A29.78,29.78,0,0,0,461.8,258a23.9,23.9,0,0,0-3.16-3.43,33.8,33.8,0,0,0-3.11-2.48c-.74-.5-1.47-1-2.25-1.45a30.16,30.16,0,0,0-4.51-2.17,33.13,33.13,0,0,0-4-1.25,35,35,0,0,0-3.67-.57c-1-.12-2-.1-3.06-.18a7,7,0,0,0-1.12,0,32.67,32.67,0,0,0-5,.56,29.1,29.1,0,0,0-6.66,2.21,29.91,29.91,0,0,0-4.08,2.24c-1.15.8-2.27,1.64-3.34,2.53-.74.62-1.39,1.31-2.07,2-.31.31-.56.66-.85,1-.62.7-1.13,1.49-1.71,2.23A28.34,28.34,0,0,0,410,264.6a27.94,27.94,0,0,0-2.46,9.7c-.06.83-.13,1.66-.15,2.5a20.18,20.18,0,0,0,.13,2.58c.06.52,0,1,.15,1.55,0,.17,0,.25-.21.22a1.09,1.09,0,0,1-.25,0,25.2,25.2,0,0,0-4.48-.72.75.75,0,0,0-.21,0c-.24,0-.3-.12-.3-.32,0-.55-.05-1.1-.08-1.64a27.76,27.76,0,0,1,0-3.16,34.72,34.72,0,0,1,.67-5.57,46.39,46.39,0,0,1,1.42-5,43.13,43.13,0,0,1,2.17-4.74,26.32,26.32,0,0,1,2.41-3.84c.73-1,1.47-2,2.28-2.88.5-.58,1.07-1.09,1.6-1.65a27.88,27.88,0,0,1,2.85-2.58c.7-.57,1.45-1.08,2.19-1.61a31.58,31.58,0,0,1,5.23-2.94c.5-.23,1-.5,1.49-.7a37.29,37.29,0,0,1,5.26-1.65c1-.23,2.09-.46,3.14-.6.76-.1,1.52-.15,2.29-.21a33,33,0,0,1,4.1-.08c.89,0,1.78.13,2.67.19a31.3,31.3,0,0,1,6.22,1.24,31.87,31.87,0,0,1,5.73,2.29c1,.51,2,1,2.95,1.62a32.08,32.08,0,0,1,3.68,2.65c.72.6,1.46,1.18,2.12,1.84a35.79,35.79,0,0,1,2.46,2.62c.56.68,1.14,1.33,1.66,2A37.75,37.75,0,0,1,470,261a39.33,39.33,0,0,1,2.05,5,33.87,33.87,0,0,1,1.1,4.44,30.08,30.08,0,0,1,.47,3.9c.1,1.56.08,3.11,0,4.67a25,25,0,0,1-.3,3.22,35.76,35.76,0,0,1-1.24,5.42,30.54,30.54,0,0,1-2.29,5.59c-.34.62-.64,1.26-1,1.87a21.63,21.63,0,0,1-1.24,1.87c-.44.6-.78,1.25-1.26,1.81-.8.91-1.53,1.88-2.4,2.73-.59.59-1.13,1.22-1.76,1.78a41.38,41.38,0,0,1-4.1,3.24,36.65,36.65,0,0,1-4.86,2.8,37.42,37.42,0,0,1-4.49,1.78,32.67,32.67,0,0,1-4.15,1,21.19,21.19,0,0,1-2.73.42,41.27,41.27,0,0,1-5,.16l-2.64-.14c-.31,0-.63-.07-.94-.11a35.37,35.37,0,0,1-6.2-1.37,25.41,25.41,0,0,1-4.44-1.78q-.25-.14-.51-.24a29.85,29.85,0,0,1-4.9-2.91,35.12,35.12,0,0,1-3.12-2.46c-.76-.67-1.45-1.41-2.16-2.13a32.51,32.51,0,0,1-3.67-4.52,37.44,37.44,0,0,1-3-5.43A3.61,3.61,0,0,1,404.79,290.45Z" transform="translate(0)"/><path class="cls-7" d="M311.54,283.57a31.88,31.88,0,0,1-2.07,6.16.84.84,0,0,1-.22.36,12.85,12.85,0,0,0-1.9.83,20.66,20.66,0,0,0-3.3,1.88,31.13,31.13,0,0,0-5.38,4.53,28.19,28.19,0,0,0-2.09,2.54c-.27.39-.55.77-.83,1.16a27.49,27.49,0,0,0-2.48,4.39,26.08,26.08,0,0,0-1.78,4.82,23.31,23.31,0,0,0-.73,3.72c-.11,1.12-.21,2.24-.27,3.36a26.29,26.29,0,0,0,.12,3.66,24.85,24.85,0,0,0,.53,3.76,28.75,28.75,0,0,0,2,6,30.65,30.65,0,0,0,2.19,4,26.22,26.22,0,0,0,2.34,3.1l.22.27a23.37,23.37,0,0,0,3.14,3.15,37,37,0,0,0,3.11,2.33,23.41,23.41,0,0,0,2.95,1.72c1.24.58,2.48,1.16,3.77,1.62.89.31,1.78.56,2.69.81s2,.42,3,.58a11,11,0,0,0,1.5.18c1.14,0,2.28.16,3.42.12a32.29,32.29,0,0,0,5.88-.66,27.07,27.07,0,0,0,3.64-1.06,30.89,30.89,0,0,0,4.73-2.12,30.5,30.5,0,0,0,3.05-2c.61-.43,1.2-.9,1.77-1.39s1-.82,1.47-1.27a17.6,17.6,0,0,0,1.57-1.66c.53-.66,1.14-1.27,1.64-2a30.9,30.9,0,0,0,2.59-4.08,31.65,31.65,0,0,0,1.34-2.9,32.24,32.24,0,0,0,1.39-4.27,30.14,30.14,0,0,0,.76-5.34,15.53,15.53,0,0,0,.1-2.46c-.09-1-.15-1.95-.22-2.93a1.07,1.07,0,0,0,0-.25c-.07-.41,0-.46.4-.37.67.14,1.34.32,2,.42a23,23,0,0,0,2.61.33c.26,0,.35.11.38.37a27.43,27.43,0,0,1,.12,4.88,38.12,38.12,0,0,1-.44,4.12,34.47,34.47,0,0,1-1.22,5,32.17,32.17,0,0,1-1.87,4.7,44.6,44.6,0,0,1-2.8,4.76,32.72,32.72,0,0,1-2.68,3.39,34.46,34.46,0,0,1-3.89,3.75c-1.09.88-2.2,1.72-3.37,2.49a29.45,29.45,0,0,1-3.17,1.85,40.14,40.14,0,0,1-5.46,2.29,34.59,34.59,0,0,1-3.89,1c-.81.17-1.62.28-2.43.42a13.17,13.17,0,0,1-1.77.13A26.2,26.2,0,0,1,320,354c-.71-.06-1.44-.06-2.16-.09a26.54,26.54,0,0,1-3.55-.47,28.82,28.82,0,0,1-4.19-1,34.7,34.7,0,0,1-4.49-1.79c-1.37-.68-2.71-1.41-4-2.21-.71-.44-1.36-1-2-1.46-.52-.38-1-.78-1.54-1.18a39.72,39.72,0,0,1-3.68-3.54,28.15,28.15,0,0,1-3.1-3.94,30.48,30.48,0,0,1-2.28-4c-.41-.9-.91-1.76-1.28-2.69a34.62,34.62,0,0,1-1.26-3.72c-.26-1-.52-2-.7-2.94-.13-.74-.25-1.48-.33-2.22-.12-1.19-.2-2.38-.25-3.58a23.39,23.39,0,0,1,.08-3c.05-.68.07-1.35.14-2a36.37,36.37,0,0,1,.71-4.13,32.55,32.55,0,0,1,1.66-5.27c.47-1.14,1.05-2.24,1.61-3.35a33.45,33.45,0,0,1,3.05-4.76c.53-.7,1.08-1.39,1.67-2a40.32,40.32,0,0,1,3.6-3.56,36.83,36.83,0,0,1,4.28-3.15,43.7,43.7,0,0,1,4.11-2.2,38.71,38.71,0,0,1,4.1-1.61C310.59,283.82,311.07,283.71,311.54,283.57Z" transform="translate(0)"/><path class="cls-8" d="M387.15,284.38a1.47,1.47,0,0,1-.14.71c-.48,1.21-.85,2.45-1.4,3.63-.42.9-.9,1.77-1.37,2.65a1.06,1.06,0,0,1-.44.4,17.3,17.3,0,0,0-1.8,1.1c-1,.74-2,1.42-2.89,2.2a28.41,28.41,0,0,0-2.67,2.59,34,34,0,0,0-2.18,2.74,29.47,29.47,0,0,0-3.07,5.3,27.75,27.75,0,0,0-1.71,4.75,22.45,22.45,0,0,0-.77,4.33c-.07,1-.17,2-.22,3a13.65,13.65,0,0,0,0,1.43c.07,1.36.22,2.72.39,4.08a10.16,10.16,0,0,0,.21,1.1,30,30,0,0,0,2.63,7.44c.49,1,1,1.91,1.58,2.82a24.11,24.11,0,0,0,1.79,2.49,35.87,35.87,0,0,0,2.53,2.84,34.54,34.54,0,0,0,3.81,3.12,31.85,31.85,0,0,0,9.06,4.39,20.25,20.25,0,0,0,3.45.77c.89.12,1.77.24,2.66.34.26,0,.52,0,.78,0,1.12.05,2.25,0,3.37,0a22.42,22.42,0,0,0,2.71-.28c.42-.08.85-.12,1.28-.2a30.7,30.7,0,0,0,6.62-2.09,27.73,27.73,0,0,0,4.53-2.5,35.13,35.13,0,0,0,3.16-2.41,31.15,31.15,0,0,0,3.26-3.34,37.58,37.58,0,0,0,2.84-3.92c.38-.58.66-1.21,1-1.82a28.13,28.13,0,0,0,2.08-5.16,27.19,27.19,0,0,0,1.19-6.88c0-.6.11-1.2.09-1.81,0-1.31-.11-2.62-.27-3.92,0-.39,0-.42.33-.33.69.17,1.38.31,2.08.43.89.16,1.79.28,2.69.37.28,0,.33.08.35.39.08,1.44.15,2.88.09,4.32a39.28,39.28,0,0,1-.46,4.72,34.81,34.81,0,0,1-1.23,5,34.07,34.07,0,0,1-3.71,7.92,33.65,33.65,0,0,1-2.92,4c-.89,1-1.78,2-2.75,2.94a34.7,34.7,0,0,1-3.34,2.81,43.52,43.52,0,0,1-3.9,2.55c-.68.41-1.41.73-2.12,1.08a35.51,35.51,0,0,1-5.9,2.21,47,47,0,0,1-5.51,1.07,2.55,2.55,0,0,1-.39,0c-.9,0-1.81.08-2.72.13a11,11,0,0,1-1.9,0,11.28,11.28,0,0,0-1.42-.09,21.21,21.21,0,0,1-4.2-.48,32.73,32.73,0,0,1-4.36-1.1,29.72,29.72,0,0,1-4.78-2c-.66-.36-1.35-.64-2-1a39.57,39.57,0,0,1-4.11-2.79,20.11,20.11,0,0,1-2.52-2.18c-.39-.42-.82-.8-1.24-1.2-.61-.59-1.17-1.23-1.73-1.87a34.46,34.46,0,0,1-2.36-3.15,25,25,0,0,1-1.89-3.19c-.47-.94-1-1.87-1.38-2.84a33.68,33.68,0,0,1-1.75-5.37,30.32,30.32,0,0,1-.71-3.78c-.09-.78-.18-1.57-.2-2.36s-.13-1.52-.11-2.29c.05-1.61.14-3.22.32-4.82a35.27,35.27,0,0,1,1.5-6.6,27.25,27.25,0,0,1,1.59-3.88c.66-1.33,1.33-2.65,2.12-3.91.4-.64.86-1.23,1.29-1.84.69-1,1.43-1.88,2.19-2.78.45-.53,1-1,1.45-1.49a24.36,24.36,0,0,1,3.11-2.81,44.11,44.11,0,0,1,4-2.77c1.45-.84,3-1.54,4.47-2.26C385.84,284.81,386.48,284.63,387.15,284.38Z" transform="translate(0)"/><path class="cls-9" d="M371.66,310.66c.11-.34.2-.66.3-1a34.88,34.88,0,0,1,2.1-4.87c.19-.37.41-.73.61-1.09a1.06,1.06,0,0,1,.44-.4,26.54,26.54,0,0,0,3.2-2.13,31.88,31.88,0,0,0,3.45-3,30.44,30.44,0,0,0,5.22-7.27,32.75,32.75,0,0,0,2.17-5.45,27.88,27.88,0,0,0,.9-4.17c.17-1.13.22-2.26.32-3.4a10.79,10.79,0,0,0,0-2.2c-.1-.86-.11-1.72-.21-2.58a30.23,30.23,0,0,0-2.08-7.82,30.7,30.7,0,0,0-2-4.06,31.78,31.78,0,0,0-2.64-3.69c-.72-.86-1.47-1.7-2.25-2.5-.44-.44-.93-.82-1.4-1.22a29.14,29.14,0,0,0-3.46-2.59,31.26,31.26,0,0,0-5.18-2.66,30.68,30.68,0,0,0-4.86-1.5,24.61,24.61,0,0,0-2.69-.41c-1.22-.11-2.45-.2-3.67-.26a9.73,9.73,0,0,0-1.07.06c-1.05.07-2.1.15-3.15.27a25.33,25.33,0,0,0-5,1.1,22.12,22.12,0,0,0-3.14,1.21c-.43.23-.89.42-1.33.63a23.24,23.24,0,0,0-3.21,1.85,39.52,39.52,0,0,0-3.26,2.49c-.51.45-1,.91-1.49,1.38a22.49,22.49,0,0,0-1.54,1.7,35.52,35.52,0,0,0-2.45,3.29,25.48,25.48,0,0,0-1.94,3.51c-.48,1-.9,2.05-1.29,3.11a31.45,31.45,0,0,0-.91,3.15,28.53,28.53,0,0,0-.63,4.31c-.05.62,0,1.24-.09,1.85a25.65,25.65,0,0,0,.05,2.63,19.54,19.54,0,0,0,.2,2c0,.22,0,.26-.22.2-1-.22-1.94-.42-2.93-.56-.64-.09-1.29-.16-1.93-.21-.33,0-.33,0-.35-.33,0-.61-.06-1.23-.1-1.85a14.25,14.25,0,0,1-.05-1.6c.08-1.12.09-2.24.22-3.36.09-.75.15-1.51.26-2.27.17-1.17.48-2.31.76-3.45a26.17,26.17,0,0,1,1.58-4.56,40,40,0,0,1,2.84-5.38c.48-.73,1-1.4,1.51-2.11a32.27,32.27,0,0,1,4.08-4.58,25.08,25.08,0,0,1,3.33-2.75c.35-.25.69-.52,1-.78a35,35,0,0,1,4.91-2.8,29.27,29.27,0,0,1,5.27-2,32.42,32.42,0,0,1,5.71-1.13,43.59,43.59,0,0,1,4.57-.25c1.3,0,2.59.12,3.89.23a32.08,32.08,0,0,1,6.58,1.37A30.84,30.84,0,0,1,376,245a36.85,36.85,0,0,1,3.3,1.87c1.28.86,2.51,1.78,3.71,2.76a36.07,36.07,0,0,1,10,13.67,28.37,28.37,0,0,1,1.24,3.45,37.79,37.79,0,0,1,1.07,4.94c.12.9.18,1.8.27,2.7a29.68,29.68,0,0,1,.07,4.11,35.24,35.24,0,0,1-1.06,7.29,35.62,35.62,0,0,1-2.1,6,37.18,37.18,0,0,1-3.14,5.52,35.15,35.15,0,0,1-2.74,3.45,35.63,35.63,0,0,1-3.45,3.39,43.52,43.52,0,0,1-4,2.93,32.19,32.19,0,0,1-4.23,2.33c-.9.41-1.79.81-2.71,1.14A1.6,1.6,0,0,1,371.66,310.66Z" transform="translate(0)"/><path class="cls-7" d="M315.92,288c.36-1.22.68-2.44.95-3.67.14-.62.23-1.25.34-1.87a3.83,3.83,0,0,0,1.07,0c.84,0,1.67-.13,2.51-.11,1.31,0,2.62.08,3.92.21a33,33,0,0,1,3.59.52,40.69,40.69,0,0,1,5.07,1.45,42.39,42.39,0,0,1,5,2.32,31.68,31.68,0,0,1,4.34,2.83c.92.69,1.77,1.47,2.65,2.22a12.79,12.79,0,0,1,1,1A41.31,41.31,0,0,1,349.1,296a34.22,34.22,0,0,1,3.29,5c.53,1,1.08,2,1.51,3.1,0,.1.09.19.12.28.08.26,0,.34-.23.28a24.33,24.33,0,0,1-2.65-.77c-.8-.31-1.61-.54-2.39-.9-.59-.26-1.15-.59-1.74-.86a1.34,1.34,0,0,1-.51-.52,25.25,25.25,0,0,0-1.72-2.38,26,26,0,0,0-3-3.29,41.31,41.31,0,0,0-3.76-3,42.5,42.5,0,0,0-4.21-2.38,27.87,27.87,0,0,0-3.7-1.46,20.42,20.42,0,0,0-3.38-.86,31.36,31.36,0,0,0-7-.51,25.24,25.24,0,0,0-3.57.35A.3.3,0,0,1,315.92,288Z" transform="translate(0)"/><path class="cls-8" d="M396.31,287.76c.1-.45.19-.87.3-1.29.27-1.06.54-2.12.72-3.2a4.43,4.43,0,0,0,.06-.51c0-.23.13-.32.37-.33a35.89,35.89,0,0,1,3.59.06c1.16.09,2.32.16,3.48.35s2.36.5,3.54.78a36.23,36.23,0,0,1,3.78,1.23,32.08,32.08,0,0,1,3.2,1.5,27.54,27.54,0,0,1,3.29,1.9,44.34,44.34,0,0,1,3.79,2.87,36.77,36.77,0,0,1,3.16,3.08,23.9,23.9,0,0,1,2.29,2.82c.55.81,1.13,1.59,1.66,2.42.62,1,1.14,2,1.66,3.08l.75,1.55a1.78,1.78,0,0,1,.12.29c.08.26,0,.31-.23.26a12.62,12.62,0,0,1-1.71-.44,28.9,28.9,0,0,1-5-2,1.14,1.14,0,0,1-.38-.34c-.56-.77-1.07-1.58-1.66-2.32s-1.3-1.59-2-2.34a29.34,29.34,0,0,0-3.27-2.94,24.17,24.17,0,0,0-3.58-2.42,34.71,34.71,0,0,0-5.33-2.45,28.62,28.62,0,0,0-4.34-1.15,20.27,20.27,0,0,0-2.57-.32c-.61,0-1.21-.11-1.81-.15a19.38,19.38,0,0,0-2.64,0C397.17,287.79,396.76,287.76,396.31,287.76Z" transform="translate(0)"/><path class="cls-9" d="M362.54,307.36l-.6,2.5c-.2.82-.38,1.63-.5,2.46-.05.34-.05.34-.4.36a15.92,15.92,0,0,1-2.29,0c-.73-.06-1.47-.05-2.2-.1a28.26,28.26,0,0,1-3.77-.53,33.21,33.21,0,0,1-7.23-2.28,37.49,37.49,0,0,1-4.85-2.57c-.77-.5-1.5-1.06-2.25-1.59s-1.64-1.28-2.43-2c-.43-.36-.8-.79-1.21-1.18a32.12,32.12,0,0,1-3.55-4,34.58,34.58,0,0,1-3.84-6.4,14.68,14.68,0,0,1-.67-1.45s0-.08,0-.13a1.46,1.46,0,0,1,.72.11,28.21,28.21,0,0,1,6.28,2.38,1,1,0,0,1,.41.36,36.38,36.38,0,0,0,2.87,3.8,26.79,26.79,0,0,0,3.25,3.14,32.66,32.66,0,0,0,4.68,3.26,27.83,27.83,0,0,0,3.91,1.83c.79.3,1.59.6,2.4.83a30.53,30.53,0,0,0,4.22.92c1.25.17,2.49.2,3.74.28S361.4,307.28,362.54,307.36Z" transform="translate(0)"/><path class="cls-4" d="M13.49,237.72a5.58,5.58,0,0,1,4.68,1.92,8,8,0,0,1,1.51,5.12v2.52h-2.9V244.6a5,5,0,0,0-.76-3,2.81,2.81,0,0,0-2.45-1.06,2.84,2.84,0,0,0-2.44,1.06,5,5,0,0,0-.78,3v14.8a5,5,0,0,0,.78,3,2.84,2.84,0,0,0,2.44,1.06A2.81,2.81,0,0,0,16,262.38a5,5,0,0,0,.76-3v-3.64h2.9v3.48a8,8,0,0,1-1.51,5.12,5.58,5.58,0,0,1-4.68,1.92,5.56,5.56,0,0,1-4.65-1.92,8.1,8.1,0,0,1-1.51-5.12V244.76a10.44,10.44,0,0,1,.38-2.9,5.83,5.83,0,0,1,1.13-2.22,5.08,5.08,0,0,1,1.92-1.42A6.89,6.89,0,0,1,13.49,237.72Z" transform="translate(0)"/><path class="cls-4" d="M22.23,244.76a7.86,7.86,0,0,1,1.55-5.14,5.71,5.71,0,0,1,4.72-1.9,5.77,5.77,0,0,1,4.74,1.9,7.81,7.81,0,0,1,1.57,5.14v14.48a7.83,7.83,0,0,1-1.57,5.12,5.75,5.75,0,0,1-4.74,1.92,5.69,5.69,0,0,1-4.72-1.92,7.88,7.88,0,0,1-1.55-5.12Zm3,14.64a4.82,4.82,0,0,0,.8,3,2.87,2.87,0,0,0,2.45,1.06A2.86,2.86,0,0,0,31,262.38a5,5,0,0,0,.78-3V244.6a5,5,0,0,0-.78-3,2.86,2.86,0,0,0-2.47-1.06,2.87,2.87,0,0,0-2.45,1.06,4.82,4.82,0,0,0-.8,3Z" transform="translate(0)"/><path class="cls-4" d="M43.71,238q3.26,0,4.7,1.82a7.83,7.83,0,0,1,1.45,5v3.36a7.29,7.29,0,0,1-1.54,5.06,6.28,6.28,0,0,1-4.85,1.7h-2.7v11H37.71V238Zm-.24,14.16A3.4,3.4,0,0,0,46,251.3a4.12,4.12,0,0,0,.82-2.9v-3.72a4.77,4.77,0,0,0-.72-2.88,2.83,2.83,0,0,0-2.41-1H40.77v11.32Z" transform="translate(0)"/><path class="cls-4" d="M62,250.4v2.8H55.31v10h8.23V266H52.25V238H63.54v2.84H55.31v9.56Z" transform="translate(0)"/><path class="cls-4" d="M72.52,238q3.21,0,4.59,1.54a6.86,6.86,0,0,1,1.37,4.66v1.32a8,8,0,0,1-.71,3.62,3.93,3.93,0,0,1-2.51,1.94,4.4,4.4,0,0,1,2.85,2.12,8.1,8.1,0,0,1,.84,3.88v2.36a7,7,0,0,1-1.53,4.86,6.08,6.08,0,0,1-4.74,1.7H66.37V238Zm-.74,11.88a4.27,4.27,0,0,0,2.76-.76,3.75,3.75,0,0,0,.92-3v-1.64a4.57,4.57,0,0,0-.69-2.78,2.74,2.74,0,0,0-2.33-.9h-3v9Zm.9,13.28q3.25,0,3.25-3.8v-2.48a4.54,4.54,0,0,0-.92-3.26,4.05,4.05,0,0,0-2.92-.9H69.42v10.44Z" transform="translate(0)"/><path class="cls-4" d="M84.79,253.4V266H81.73V238h3.06v12.6h6.74V238h3.06v28H91.53V253.4Z" transform="translate(0)"/><path class="cls-4" d="M97.49,244.76A7.92,7.92,0,0,1,99,239.62a6.84,6.84,0,0,1,9.46,0,7.81,7.81,0,0,1,1.57,5.14v14.48a7.83,7.83,0,0,1-1.57,5.12,6.79,6.79,0,0,1-9.46,0,7.94,7.94,0,0,1-1.55-5.12Zm3,14.64a4.89,4.89,0,0,0,.8,3,3.38,3.38,0,0,0,4.92,0,5,5,0,0,0,.79-3V244.6a5,5,0,0,0-.79-3,3.38,3.38,0,0,0-4.92,0,4.89,4.89,0,0,0-.8,3Z" transform="translate(0)"/><path class="cls-4" d="M119.13,238q3.21,0,4.58,1.54a6.81,6.81,0,0,1,1.38,4.66v1.32a8,8,0,0,1-.71,3.62,4,4,0,0,1-2.51,1.94,4.38,4.38,0,0,1,2.84,2.12,8,8,0,0,1,.85,3.88v2.36A7,7,0,0,1,124,264.3a6.09,6.09,0,0,1-4.75,1.7H113V238Zm-.75,11.88a4.28,4.28,0,0,0,2.77-.76,3.75,3.75,0,0,0,.92-3v-1.64a4.57,4.57,0,0,0-.69-2.78,2.75,2.75,0,0,0-2.33-.9h-3v9Zm.9,13.28q3.25,0,3.26-3.8v-2.48a4.54,4.54,0,0,0-.92-3.26,4.07,4.07,0,0,0-2.92-.9H116v10.44Z" transform="translate(0)"/><path class="cls-4" d="M131.44,260.36,130.38,266h-2.82l5.25-28h4.43l5.25,28h-3.06l-1.05-5.64Zm.39-2.68h6.11l-3.09-16.16Z" transform="translate(0)"/><path class="cls-4" d="M147.94,253.4V266h-3.06V238h3.06v12.6h6.74V238h3.06v28h-3.06V253.4Z" transform="translate(0)"/><path class="cls-4" d="M168.09,253.08l-4,12.92h-3.17V238h2.7v20.88l2.43-7.72L170.4,238h3.41v28h-2.74V243.72Z" transform="translate(0)"/><path class="cls-4" d="M184,254a4.38,4.38,0,0,0-3,.9,4.19,4.19,0,0,0-1,3.26v4.4a15.29,15.29,0,0,1-.11,2.1,4.93,4.93,0,0,1-.4,1.3H176.4a5.07,5.07,0,0,0,.45-1.58,17.05,17.05,0,0,0,.1-1.78v-4.36a8.29,8.29,0,0,1,.76-3.78,4.09,4.09,0,0,1,2.65-2.06q-3.37-1.12-3.37-5.76V244.4a7,7,0,0,1,1.43-4.76q1.43-1.63,4.68-1.64h6.12v28h-3.06V254Zm-.82-13.2a2.87,2.87,0,0,0-2.45,1,4.77,4.77,0,0,0-.73,2.88v2.68q0,2.28,1,3.06a4.56,4.56,0,0,0,2.83.78h2.31V240.84Z" transform="translate(0)"/><path class="cls-4" d="M201.49,240.84V266h-3.06V238h12.86v28h-3.06V240.84Z" transform="translate(0)"/><path class="cls-4" d="M214.19,244.76a7.92,7.92,0,0,1,1.54-5.14,6.85,6.85,0,0,1,9.47,0,7.81,7.81,0,0,1,1.57,5.14v14.48a7.83,7.83,0,0,1-1.57,5.12,6.8,6.8,0,0,1-9.47,0,7.93,7.93,0,0,1-1.54-5.12Zm3,14.64a4.82,4.82,0,0,0,.81,3,3.38,3.38,0,0,0,4.92,0,5,5,0,0,0,.78-3V244.6a5,5,0,0,0-.78-3,3.38,3.38,0,0,0-4.92,0,4.82,4.82,0,0,0-.81,3Z" transform="translate(0)"/><path class="cls-4" d="M10.7,308V282.84H6.58V280H17.33v2.84H13.2V308Z" transform="translate(0)"/><path class="cls-4" d="M24.75,295.92,21,308H18.64l4.51-14.44L18.93,280h2.59L25,291.2,28.46,280H30.8l-4.19,13.56L31.09,308H28.46Z" transform="translate(0)"/><path class="cls-4" d="M37.84,279.72a4.72,4.72,0,0,1,2.22.5,4.27,4.27,0,0,1,1.57,1.42,6.41,6.41,0,0,1,.93,2.22,12.92,12.92,0,0,1,.3,2.9v14.48a9.39,9.39,0,0,1-1.23,5.12,4.18,4.18,0,0,1-3.79,1.92,4.18,4.18,0,0,1-3.79-1.92,9.39,9.39,0,0,1-1.23-5.12v-3h2.33v3.2a5.86,5.86,0,0,0,.64,3,2.39,2.39,0,0,0,4,0,5.76,5.76,0,0,0,.64-3v-6.48H36.5v-2.8h3.9V286.6a5.76,5.76,0,0,0-.64-3,2.39,2.39,0,0,0-4,0,5.86,5.86,0,0,0-.64,3v2.24h-2.3v-2.08a12.92,12.92,0,0,1,.3-2.9,6.8,6.8,0,0,1,.91-2.22,4.24,4.24,0,0,1,1.56-1.42A4.72,4.72,0,0,1,37.84,279.72Z" transform="translate(0)"/><path class="cls-4" d="M49.07,295.84l-1.31,2.76V308h-2.5V280h2.5v13.52l6-13.52h2.53l-5.66,12.76L56.43,308H53.87Z" transform="translate(0)"/><path class="cls-4" d="M63.38,280a4.32,4.32,0,0,1,3.74,1.54,7.91,7.91,0,0,1,1.12,4.66v1.32a9.42,9.42,0,0,1-.58,3.62,3.4,3.4,0,0,1-2,1.94,3.78,3.78,0,0,1,2.32,2.12,9.77,9.77,0,0,1,.68,3.88v2.36a8.11,8.11,0,0,1-1.24,4.86A4.52,4.52,0,0,1,63.5,308H58.35V280Zm-.61,11.88a3,3,0,0,0,2.25-.76,4.23,4.23,0,0,0,.76-3v-1.64a5.43,5.43,0,0,0-.56-2.78,2.08,2.08,0,0,0-1.91-.9H60.85v9Zm.73,13.28q2.66,0,2.66-3.8v-2.48a5.25,5.25,0,0,0-.75-3.26,2.94,2.94,0,0,0-2.39-.9H60.85v10.44Z" transform="translate(0)"/><path class="cls-4" d="M70.7,286.76A9.12,9.12,0,0,1,72,281.62a4.3,4.3,0,0,1,3.85-1.9,4.36,4.36,0,0,1,3.88,1.9A9.11,9.11,0,0,1,81,286.76v14.48a9.13,9.13,0,0,1-1.28,5.12,4.36,4.36,0,0,1-3.88,1.92A4.29,4.29,0,0,1,72,306.36a9.13,9.13,0,0,1-1.27-5.12Zm2.47,14.64a5.75,5.75,0,0,0,.65,3,2.44,2.44,0,0,0,4,0,5.76,5.76,0,0,0,.64-3V286.6a5.76,5.76,0,0,0-.64-3,2.44,2.44,0,0,0-4,0,5.75,5.75,0,0,0-.65,3Z" transform="translate(0)"/><path class="cls-4" d="M85.84,295.4V308h-2.5V280h2.5v12.6h5.5V280h2.5v28h-2.5V295.4Z" transform="translate(0)"/><path class="cls-4" d="M107.44,311.84V308H98.29v3.84h-2.4v-6.6h1.44a4.37,4.37,0,0,0,.75-1.8,17.77,17.77,0,0,0,.24-2.28L99.18,280h9v25.24h1.69v6.6Zm-6.69-10.72a14.73,14.73,0,0,1-.27,2.48,3.93,3.93,0,0,1-.75,1.64h5.92v-22.4h-4.16Z" transform="translate(0)"/><path class="cls-4" d="M111.86,286.76a9.2,9.2,0,0,1,1.26-5.14,4.31,4.31,0,0,1,3.86-1.9,4.36,4.36,0,0,1,3.87,1.9,9.11,9.11,0,0,1,1.28,5.14v14.48a9.13,9.13,0,0,1-1.28,5.12,4.35,4.35,0,0,1-3.87,1.92,4.3,4.3,0,0,1-3.86-1.92,9.22,9.22,0,0,1-1.26-5.12Zm2.46,14.64a5.65,5.65,0,0,0,.66,3,2.43,2.43,0,0,0,4,0,5.76,5.76,0,0,0,.64-3V286.6a5.76,5.76,0,0,0-.64-3,2.43,2.43,0,0,0-4,0,5.65,5.65,0,0,0-.66,3Z" transform="translate(0)"/><path class="cls-4" d="M132,295.4V308h-2.49V280H132v12.6h5.51V280H140v28h-2.49V295.4Z" transform="translate(0)"/><path class="cls-4" d="M145,302.36l-.87,5.64h-2.3l4.29-28h3.61l4.29,28h-2.49l-.87-5.64Zm.32-2.68h5l-2.53-16.16Z" transform="translate(0)"/><path class="cls-4" d="M165.74,282.84l-.51,18.2a21.65,21.65,0,0,1-.29,3,6.81,6.81,0,0,1-.73,2.18,3.61,3.61,0,0,1-1.36,1.38,4.3,4.3,0,0,1-2.13.48h-.42V305.2a2.81,2.81,0,0,0,1.25-.24,1.73,1.73,0,0,0,.75-.74,3.48,3.48,0,0,0,.37-1.26c.06-.51.11-1.09.13-1.76l.61-21.2h9.12v28H170V282.84Z" transform="translate(0)"/><path class="cls-4" d="M183.15,292.4v2.8h-5.47v10h6.72V308h-9.22V280h9.22v2.84h-6.72v9.56Z" transform="translate(0)"/><path class="cls-4" d="M190.13,308V282.84H186V280h10.75v2.84h-4.13V308Z" transform="translate(0)"/><path class="cls-4" d="M201.1,295.4V308h-2.49V280h2.49v12.6h5.51V280h2.49v28h-2.49V295.4Z" transform="translate(0)"/><path class="cls-4" d="M217.55,295.08,214.25,308h-2.59V280h2.21v20.88l2-7.72L219.44,280h2.78v28H220V285.72Z" transform="translate(0)"/><path class="cls-4" d="M230.32,295.92,226.57,308h-2.36l4.51-14.44L224.49,280h2.6l3.45,11.2L234,280h2.34l-4.2,13.56L236.65,308H234Z" transform="translate(0)"/><path class="cls-4" d="M7.33,328.76a7.92,7.92,0,0,1,1.55-5.14,5.72,5.72,0,0,1,4.72-1.9,5.8,5.8,0,0,1,4.75,1.9,7.87,7.87,0,0,1,1.57,5.14v14.48a7.88,7.88,0,0,1-1.57,5.12,5.78,5.78,0,0,1-4.75,1.92,5.7,5.7,0,0,1-4.72-1.92,7.94,7.94,0,0,1-1.55-5.12Zm3,14.64a4.82,4.82,0,0,0,.81,3,2.85,2.85,0,0,0,2.44,1.06,2.85,2.85,0,0,0,2.47-1.06,4.89,4.89,0,0,0,.79-3V328.6a4.89,4.89,0,0,0-.79-3,2.85,2.85,0,0,0-2.47-1.06,2.85,2.85,0,0,0-2.44,1.06,4.82,4.82,0,0,0-.81,3Z" transform="translate(0)"/><path class="cls-4" d="M28.66,324.84,28,343a18.37,18.37,0,0,1-.35,3,6.25,6.25,0,0,1-.9,2.18,4.11,4.11,0,0,1-1.67,1.38,6.21,6.21,0,0,1-2.61.48H22V347.2a4.09,4.09,0,0,0,1.53-.24,2,2,0,0,0,.92-.74,2.85,2.85,0,0,0,.45-1.26,16.14,16.14,0,0,0,.16-1.76l.74-21.2H37v28H33.91V324.84Z" transform="translate(0)"/><path class="cls-4" d="M47.43,337.08,43.4,350H40.22V322h2.7v20.88l2.44-7.72L49.75,322h3.41v28H50.41V327.72Z" transform="translate(0)"/><path class="cls-4" d="M66.37,350H63.43l-4.55-22.28V350H56.21V322h4.28L65,344.36,69.35,322h4.27v28h-2.9V327.48Z" transform="translate(0)"/><path class="cls-4" d="M79.81,324.84V350H76.75V322H89.61v28H86.55V324.84Z" transform="translate(0)"/><path class="cls-4" d="M100,337.08l-4,12.92H92.75V322h2.7v20.88l2.43-7.72L102.27,322h3.41v28h-2.74V327.72Z" transform="translate(0)"/><path class="cls-4" d="M116.23,336.52,112,350h-3.17V322h2.7v20.88L114,334.8,118.3,322h3.41v28H119V327.72Zm3.41-20.24a3.75,3.75,0,0,1-1.12,2.88,4.4,4.4,0,0,1-3.12,1,4.24,4.24,0,0,1-3.07-1,4,4,0,0,1-1.16-2.88h1.92a2,2,0,0,0,.71,1.6,2.73,2.73,0,0,0,1.6.44,2.85,2.85,0,0,0,1.63-.44,2,2,0,0,0,.73-1.6Z" transform="translate(0)"/><path class="cls-4" d="M130.77,321.72a5.57,5.57,0,0,1,4.68,1.92,8,8,0,0,1,1.51,5.12v2.52h-2.9V328.6a5,5,0,0,0-.76-3,3.34,3.34,0,0,0-4.88,0,4.89,4.89,0,0,0-.79,3v14.8a4.89,4.89,0,0,0,.79,3,3.34,3.34,0,0,0,4.88,0,5,5,0,0,0,.76-3v-3.64H137v3.48a8,8,0,0,1-1.51,5.12,6.63,6.63,0,0,1-9.33,0,8.1,8.1,0,0,1-1.5-5.12V328.76a10.46,10.46,0,0,1,.37-2.9,6,6,0,0,1,1.13-2.22,5.08,5.08,0,0,1,1.92-1.42A6.93,6.93,0,0,1,130.77,321.72Z" transform="translate(0)"/><path class="cls-4" d="M144.41,337.84l-1.61,2.76V350h-3.05V322h3.05v13.52L150.09,322h3.1l-6.94,12.76L153.43,350h-3.14Z" transform="translate(0)"/><path class="cls-4" d="M163,337.08,159,350h-3.17V322h2.7v20.88l2.43-7.72L165.3,322h3.41v28H166V327.72Z" transform="translate(0)"/><path class="cls-4" d="M178.63,337.92,174,350h-2.9l5.53-14.44L171.5,322h3.17l4.24,11.2,4.27-11.2H186l-5.14,13.56L186.39,350h-3.21Z" transform="translate(0)"/><path class="cls-4" d="M202.15,337.08l-4,12.92h-3.17V322h2.7v20.88l2.43-7.72L204.46,322h3.41v28h-2.74V327.72Z" transform="translate(0)"/><path class="cls-4" d="M214,324.84V350h-3V322H222v2.84Z" transform="translate(0)"/><path class="cls-4" d="M230.92,322q3.26,0,4.71,1.82a7.89,7.89,0,0,1,1.45,5v3.36a7.3,7.3,0,0,1-1.55,5.06,6.26,6.26,0,0,1-4.84,1.7H228v11h-3V322Zm-.23,14.16a3.4,3.4,0,0,0,2.55-.86,4.17,4.17,0,0,0,.82-2.9v-3.72a4.7,4.7,0,0,0-.73-2.88,2.82,2.82,0,0,0-2.41-1H228v11.32Z" transform="translate(0)"/><path class="cls-4" d="M242.57,344.36,241.51,350h-2.83l5.26-28h4.43l5.25,28h-3.06l-1.06-5.64Zm.39-2.68h6.11L246,325.52Z" transform="translate(0)"/><path class="cls-4" d="M262.83,337.92,258.25,350h-2.91l5.53-14.44L255.7,322h3.17l4.24,11.2,4.27-11.2h2.86l-5.14,13.56L270.59,350h-3.21Z" transform="translate(0)"/><path class="cls-4" d="M12.54,364a4.53,4.53,0,0,1,3.88,1.54,7.67,7.67,0,0,1,1.17,4.66v1.32a9.2,9.2,0,0,1-.6,3.62,3.51,3.51,0,0,1-2.13,1.94,3.86,3.86,0,0,1,2.41,2.12,9.24,9.24,0,0,1,.72,3.88v2.36a7.9,7.9,0,0,1-1.3,4.86,4.73,4.73,0,0,1-4,1.7H7.33V364Zm-.63,11.88a3.22,3.22,0,0,0,2.34-.76,4.17,4.17,0,0,0,.78-3v-1.64a5.21,5.21,0,0,0-.58-2.78,2.18,2.18,0,0,0-2-.9H9.92v9Zm.76,13.28q2.76,0,2.76-3.8v-2.48a5.09,5.09,0,0,0-.78-3.26,3.12,3.12,0,0,0-2.48-.9H9.92v10.44Z" transform="translate(0)"/><path class="cls-4" d="M22.93,366.84V392H20.34V364H31.23v28H28.64V366.84Z" transform="translate(0)"/><path class="cls-4" d="M42.15,376.4v2.8H36.48v10h7V392H33.89V364h9.56v2.84h-7v9.56Z" transform="translate(0)"/><path class="cls-4" d="M50.92,364a4.47,4.47,0,0,1,4,1.82,8.87,8.87,0,0,1,1.23,5v3.36a8.22,8.22,0,0,1-1.31,5.06,4.87,4.87,0,0,1-4.1,1.7H48.43v11H45.84V364Zm-.2,14.16a2.64,2.64,0,0,0,2.16-.86,4.69,4.69,0,0,0,.69-2.9v-3.72A5.41,5.41,0,0,0,53,367.8a2.24,2.24,0,0,0-2-1H48.43v11.32Z" transform="translate(0)"/><path class="cls-4" d="M63.37,364a4.54,4.54,0,0,1,3.88,1.54,7.67,7.67,0,0,1,1.16,4.66v1.32a9.4,9.4,0,0,1-.59,3.62,3.51,3.51,0,0,1-2.13,1.94,3.86,3.86,0,0,1,2.41,2.12,9.41,9.41,0,0,1,.71,3.88v2.36a7.9,7.9,0,0,1-1.29,4.86,4.76,4.76,0,0,1-4,1.7H58.16V364Zm-.63,11.88a3.22,3.22,0,0,0,2.34-.76,4.17,4.17,0,0,0,.78-3v-1.64a5.31,5.31,0,0,0-.58-2.78,2.18,2.18,0,0,0-2-.9H60.75v9Zm.76,13.28q2.76,0,2.76-3.8v-2.48a5.09,5.09,0,0,0-.78-3.26,3.12,3.12,0,0,0-2.48-.9H60.75v10.44Z" transform="translate(0)"/><path class="cls-4" d="M76.05,375a4.85,4.85,0,0,1,4.1,1.7,8.22,8.22,0,0,1,1.31,5.06v3.36a8.79,8.79,0,0,1-1.24,5,4.48,4.48,0,0,1-4,1.82H71.17V364h2.59v11Zm.2,14.12a2.24,2.24,0,0,0,2-1,5.4,5.4,0,0,0,.62-2.88V381.6a4.69,4.69,0,0,0-.7-2.9,2.64,2.64,0,0,0-2.16-.86H73.76v11.32ZM86.18,364v28H83.62V364Z" transform="translate(0)"/><path class="cls-4" d="M97.1,376.4v2.8H91.42v10h7V392H88.83V364h9.56v2.84h-7v9.56Z" transform="translate(0)"/><path class="cls-4" d="M108.52,366.84V392h-2.59V364h10.89v28h-2.59V366.84Z" transform="translate(0)"/><path class="cls-4" d="M119.27,370.76a8.88,8.88,0,0,1,1.32-5.14,5.17,5.17,0,0,1,8,0,8.8,8.8,0,0,1,1.33,5.14v14.48a8.82,8.82,0,0,1-1.33,5.12,5.14,5.14,0,0,1-8,0,8.89,8.89,0,0,1-1.32-5.12Zm2.56,14.64a5.55,5.55,0,0,0,.68,3,2.58,2.58,0,0,0,4.17,0,5.65,5.65,0,0,0,.66-3V370.6a5.65,5.65,0,0,0-.66-3,2.58,2.58,0,0,0-4.17,0,5.55,5.55,0,0,0-.68,3Z" transform="translate(0)"/><path class="cls-4" d="M138.4,380a3.35,3.35,0,0,0-2.51.9,4.65,4.65,0,0,0-.88,3.26v4.4a15.64,15.64,0,0,1-.1,2.1,6.34,6.34,0,0,1-.33,1.3H132a5.63,5.63,0,0,0,.38-1.58c0-.57.08-1.17.08-1.78v-4.36a9.61,9.61,0,0,1,.65-3.78,3.63,3.63,0,0,1,2.24-2.06c-1.9-.75-2.86-2.67-2.86-5.76V370.4a7.9,7.9,0,0,1,1.22-4.76,4.6,4.6,0,0,1,4-1.64h5.18v28h-2.59V380Zm-.7-13.2a2.29,2.29,0,0,0-2.08,1,5.41,5.41,0,0,0-.61,2.88v2.68a4.13,4.13,0,0,0,.86,3.06,3.46,3.46,0,0,0,2.39.78h2V366.84Z" transform="translate(0)"/><path class="cls-4" d="M150.68,364a4.56,4.56,0,0,1,3.89,1.54,7.74,7.74,0,0,1,1.16,4.66v1.32a9.2,9.2,0,0,1-.6,3.62,3.51,3.51,0,0,1-2.13,1.94,3.83,3.83,0,0,1,2.41,2.12,9.24,9.24,0,0,1,.72,3.88v2.36a7.9,7.9,0,0,1-1.3,4.86,4.73,4.73,0,0,1-4,1.7h-5.34V364Zm-.63,11.88a3.22,3.22,0,0,0,2.34-.76,4.17,4.17,0,0,0,.78-3v-1.64a5.21,5.21,0,0,0-.58-2.78,2.18,2.18,0,0,0-2-.9h-2.55v9Zm.76,13.28q2.76,0,2.76-3.8v-2.48a5.09,5.09,0,0,0-.78-3.26,3.11,3.11,0,0,0-2.47-.9h-2.26v10.44Z" transform="translate(0)"/><path class="cls-4" d="M164.59,379.08,161.17,392h-2.69V364h2.29v20.88l2.06-7.72L166.55,364h2.89v28h-2.32V369.72Z" transform="translate(0)"/><path class="cls-4" d="M177,366.84l-.53,18.2a23.21,23.21,0,0,1-.3,3,6.82,6.82,0,0,1-.76,2.18,3.69,3.69,0,0,1-1.42,1.38,4.53,4.53,0,0,1-2.2.48h-.43V389.2a3,3,0,0,0,1.29-.24,1.8,1.8,0,0,0,.78-.74,3.29,3.29,0,0,0,.38-1.26c.07-.51.11-1.09.14-1.76l.63-21.2h9.46v28h-2.59V366.84Z" transform="translate(0)"/><path class="cls-4" d="M192.91,379.08,189.49,392H186.8V364h2.29v20.88l2.06-7.72L194.87,364h2.89v28h-2.33V369.72Z" transform="translate(0)"/><path class="cls-4" d="M205.39,363.72a4.42,4.42,0,0,1,4,1.92,9.13,9.13,0,0,1,1.28,5.12v2.52h-2.46V370.6a5.76,5.76,0,0,0-.64-3,2.55,2.55,0,0,0-4.14,0,5.65,5.65,0,0,0-.66,3v14.8a5.65,5.65,0,0,0,.66,3,2.55,2.55,0,0,0,4.14,0,5.76,5.76,0,0,0,.64-3v-3.64h2.46v3.48a9.13,9.13,0,0,1-1.28,5.12,5,5,0,0,1-7.9,0,9.13,9.13,0,0,1-1.28-5.12V370.76a12.32,12.32,0,0,1,.32-2.9,6.43,6.43,0,0,1,1-2.22,4.37,4.37,0,0,1,1.63-1.42A5,5,0,0,1,205.39,363.72Z" transform="translate(0)"/><path class="cls-4" d="M217.88,375a4.87,4.87,0,0,1,4.1,1.7,8.22,8.22,0,0,1,1.31,5.06v3.36a8.79,8.79,0,0,1-1.25,5,4.46,4.46,0,0,1-4,1.82H213V364h2.59v11Zm.2,14.12a2.24,2.24,0,0,0,2-1,5.41,5.41,0,0,0,.61-2.88V381.6a4.69,4.69,0,0,0-.69-2.9,2.64,2.64,0,0,0-2.16-.86h-2.29v11.32Z" transform="translate(0)"/><path class="cls-4" d="M233.38,379.4V392h-2.59V364h2.59v12.6h5.71V364h2.59v28h-2.59V379.4Z" transform="translate(0)"/><path class="cls-4" d="M247,386.36l-.9,5.64h-2.39l4.45-28h3.75l4.45,28h-2.59l-.89-5.64Zm.33-2.68h5.18l-2.62-16.16Z" transform="translate(0)"/><path class="cls-4" d="M268.44,366.84l-.53,18.2a23.21,23.21,0,0,1-.3,3,6.58,6.58,0,0,1-.76,2.18,3.73,3.73,0,0,1-1.41,1.38,4.6,4.6,0,0,1-2.21.48h-.43V389.2a3,3,0,0,0,1.29-.24,1.8,1.8,0,0,0,.78-.74,3.29,3.29,0,0,0,.38-1.26c.07-.51.11-1.09.14-1.76L266,364h9.46v28h-2.59V366.84Z" transform="translate(0)"/><path class="cls-4" d="M286.5,376.4v2.8h-5.68v10h7V392h-9.56V364h9.56v2.84h-7v9.56Z" transform="translate(0)"/><path class="cls-4" d="M293.74,392V366.84h-4.29V364h11.16v2.84h-4.28V392Z" transform="translate(0)"/><path class="cls-4" d="M305.12,379.4V392h-2.58V364h2.58v12.6h5.71V364h2.59v28h-2.59V379.4Z" transform="translate(0)"/><path class="cls-4" d="M324.35,376.4v2.8h-5.68v10h7V392h-9.56V364h9.56v2.84h-7v9.56Z" transform="translate(0)"/><path class="cls-4" d="M334.34,378.52,330.72,392H328V364h2.29v20.88l2.16-8.08L336.1,364H339v28h-2.33V369.72Zm2.89-20.24a4.12,4.12,0,0,1-1,2.88,3.4,3.4,0,0,1-2.64,1,3.27,3.27,0,0,1-2.6-1,4.43,4.43,0,0,1-1-2.88h1.62a2.2,2.2,0,0,0,.6,1.6,2.08,2.08,0,0,0,1.36.44,2.15,2.15,0,0,0,1.38-.44,2.13,2.13,0,0,0,.61-1.6Z" transform="translate(0)"/><path class="cls-4" d="M346.59,370.76a9,9,0,0,1,1.31-5.14,4.52,4.52,0,0,1,4-1.9,4.58,4.58,0,0,1,4,1.9,8.87,8.87,0,0,1,1.33,5.14v14.48a8.89,8.89,0,0,1-1.33,5.12,4.57,4.57,0,0,1-4,1.92,4.51,4.51,0,0,1-4-1.92,9,9,0,0,1-1.31-5.12Zm2.56,14.64a5.46,5.46,0,0,0,.68,3,2.57,2.57,0,0,0,4.16,0,5.65,5.65,0,0,0,.67-3V370.6a5.65,5.65,0,0,0-.67-3,2.57,2.57,0,0,0-4.16,0,5.46,5.46,0,0,0-.68,3Z" transform="translate(0)"/><path class="cls-4" d="M364.65,366.84l-.53,18.2a23.21,23.21,0,0,1-.3,3,6.82,6.82,0,0,1-.76,2.18,3.69,3.69,0,0,1-1.42,1.38,4.53,4.53,0,0,1-2.2.48H359V389.2a3,3,0,0,0,1.3-.24,1.8,1.8,0,0,0,.78-.74,3.29,3.29,0,0,0,.38-1.26,16.78,16.78,0,0,0,.13-1.76l.64-21.2h9.46v28H369.1V366.84Z" transform="translate(0)"/><path class="cls-4" d="M380.55,379.08,377.13,392h-2.69V364h2.29v20.88l2.06-7.72L382.51,364h2.89v28h-2.33V369.72Z" transform="translate(0)"/><path class="cls-4" d="M396.59,392H394.1l-3.85-22.28V392H388V364h3.62l3.81,22.36L399.11,364h3.62v28h-2.46V369.48Z" transform="translate(0)"/><path class="cls-4" d="M408,366.84V392h-2.59V364h10.89v28h-2.59V366.84Z" transform="translate(0)"/><path class="cls-4" d="M425,379.08,421.62,392h-2.69V364h2.29v20.88l2.06-7.72L427,364h2.89v28h-2.33V369.72Z" transform="translate(0)"/><path class="cls-4" d="M435.13,386.36l-.89,5.64h-2.4l4.45-28H440l4.45,28H441.9l-.89-5.64Zm.33-2.68h5.18L438,367.52Z" transform="translate(0)"/><path class="cls-4" d="M458,395.84V392h-9.49v3.84H446v-6.6h1.49a4.16,4.16,0,0,0,.78-1.8,17.65,17.65,0,0,0,.25-2.28l.9-21.16h9.33v25.24h1.76v6.6ZM451,385.12a13.64,13.64,0,0,1-.28,2.48,3.74,3.74,0,0,1-.78,1.64h6.14v-22.4H451.8Z" transform="translate(0)"/><path class="cls-4" d="M471,376.4v2.8h-5.68v10h7V392h-9.57V364h9.57v2.84h-7v9.56Z" transform="translate(0)"/><path class="cls-4" d="M12.07,406a4.08,4.08,0,0,1,3.6,1.54,8.16,8.16,0,0,1,1.08,4.66v1.32a9.86,9.86,0,0,1-.56,3.62,3.31,3.31,0,0,1-2,1.94,3.7,3.7,0,0,1,2.24,2.12,10,10,0,0,1,.66,3.88v2.36a8.35,8.35,0,0,1-1.2,4.86,4.27,4.27,0,0,1-3.73,1.7h-5V406Zm-.59,11.88a2.84,2.84,0,0,0,2.17-.76,4.36,4.36,0,0,0,.73-3v-1.64a5.57,5.57,0,0,0-.54-2.78,2,2,0,0,0-1.83-.9H9.63v9Zm.71,13.28c1.7,0,2.56-1.27,2.56-3.8v-2.48a5.34,5.34,0,0,0-.73-3.26,2.75,2.75,0,0,0-2.29-.9H9.63v10.44Z" transform="translate(0)"/><path class="cls-4" d="M28.92,405.72a4,4,0,0,1,3.69,1.92,9.86,9.86,0,0,1,1.17,5.16,12.59,12.59,0,0,1-.54,3.82,17.27,17.27,0,0,1-1.35,3.16,26.77,26.77,0,0,1-1.76,2.74c-.63.85-1.21,1.71-1.75,2.56A15.57,15.57,0,0,0,27,427.74a7.9,7.9,0,0,0-.56,3v.44h7.09V434H24.08v-2.4a13.26,13.26,0,0,1,.54-4A16,16,0,0,1,26,424.5a27,27,0,0,1,1.76-2.68c.63-.84,1.21-1.7,1.76-2.58a15.13,15.13,0,0,0,1.35-2.84,10.34,10.34,0,0,0,.54-3.48,7.28,7.28,0,0,0-.59-3.28,2.22,2.22,0,0,0-3.86,0,6.39,6.39,0,0,0-.6,3v2.48H24.08v-2.28a10,10,0,0,1,1.17-5.18A4,4,0,0,1,28.92,405.72Z" transform="translate(0)"/><path class="cls-4" d="M35.81,412.76A9.46,9.46,0,0,1,37,407.62a4.1,4.1,0,0,1,3.71-1.9,4.13,4.13,0,0,1,3.73,1.9,9.37,9.37,0,0,1,1.23,5.14V427.2a9.47,9.47,0,0,1-1.23,5.16,4.12,4.12,0,0,1-3.73,1.92A4.09,4.09,0,0,1,37,432.36a9.56,9.56,0,0,1-1.22-5.16Zm2.38,14.64a5.87,5.87,0,0,0,.63,3,2.29,2.29,0,0,0,3.86,0,6,6,0,0,0,.62-3V412.6a6.1,6.1,0,0,0-.62-3,2.26,2.26,0,0,0-3.86,0,6,6,0,0,0-.63,3Z" transform="translate(0)"/><path class="cls-4" d="M47.79,412.76A9.46,9.46,0,0,1,49,407.62a4.59,4.59,0,0,1,7.44,0,9.37,9.37,0,0,1,1.23,5.14V427.2a9.47,9.47,0,0,1-1.23,5.16,4.56,4.56,0,0,1-7.44,0,9.56,9.56,0,0,1-1.22-5.16Zm2.38,14.64a5.87,5.87,0,0,0,.63,3,2.29,2.29,0,0,0,3.86,0,6,6,0,0,0,.62-3V412.6a6.1,6.1,0,0,0-.62-3,2.26,2.26,0,0,0-3.86,0,6,6,0,0,0-.63,3Z" transform="translate(0)"/><path class="cls-4" d="M59.78,412.76A9.47,9.47,0,0,1,61,407.62a4.59,4.59,0,0,1,7.44,0,9.37,9.37,0,0,1,1.23,5.14V427.2a9.47,9.47,0,0,1-1.23,5.16,4.56,4.56,0,0,1-7.44,0,9.57,9.57,0,0,1-1.21-5.16Zm2.37,14.64a5.87,5.87,0,0,0,.63,3,2.29,2.29,0,0,0,3.86,0,6,6,0,0,0,.62-3V412.6a6.1,6.1,0,0,0-.62-3,2.26,2.26,0,0,0-3.86,0,6,6,0,0,0-.63,3Z" transform="translate(0)"/><path class="cls-4" d="M79.12,408.84V434H76.75V406h8.59v2.84Z" transform="translate(0)"/><path class="cls-4" d="M87.5,412.76a9.47,9.47,0,0,1,1.21-5.14,4.59,4.59,0,0,1,7.44,0,9.37,9.37,0,0,1,1.23,5.14v14.48a9.39,9.39,0,0,1-1.23,5.12,4.56,4.56,0,0,1-7.44,0,9.49,9.49,0,0,1-1.21-5.12Zm2.37,14.64a5.87,5.87,0,0,0,.63,3,2.29,2.29,0,0,0,3.86,0,6,6,0,0,0,.62-3V412.6a6,6,0,0,0-.62-3,2.29,2.29,0,0,0-3.86,0,5.87,5.87,0,0,0-.63,3Z" transform="translate(0)"/><path class="cls-4" d="M110.29,437.84V434h-8.81v3.84H99.17v-6.6h1.38a4.34,4.34,0,0,0,.73-1.8,19.91,19.91,0,0,0,.23-2.28l.83-21.16H111v25.24h1.63v6.6Zm-6.44-10.72a16,16,0,0,1-.26,2.48,4,4,0,0,1-.72,1.64h5.69v-22.4h-4Z" transform="translate(0)"/><path class="cls-4" d="M121.19,427.84a20,20,0,0,1-.66,2.76,6.17,6.17,0,0,1-1,2,3.71,3.71,0,0,1-1.62,1.16,6.21,6.21,0,0,1-2.45.28v-2.8a2.8,2.8,0,0,0,2.08-.54,3.9,3.9,0,0,0,1-2.22l.49-1.84-5-20.64h2.4l2.18,9.72,1.48,7,1.27-7,1.94-9.72h2.49Z" transform="translate(0)"/><path class="cls-4" d="M137.18,406a4.08,4.08,0,0,1,3.6,1.54,8.16,8.16,0,0,1,1.08,4.66v1.32a9.86,9.86,0,0,1-.56,3.62,3.34,3.34,0,0,1-2,1.94,3.7,3.7,0,0,1,2.24,2.12,10,10,0,0,1,.66,3.88v2.36a8.35,8.35,0,0,1-1.2,4.86,4.27,4.27,0,0,1-3.73,1.7h-5V406Zm-.59,11.88a2.84,2.84,0,0,0,2.17-.76,4.36,4.36,0,0,0,.73-3v-1.64a5.57,5.57,0,0,0-.54-2.78,2,2,0,0,0-1.83-.9h-2.38v9Zm.71,13.28c1.7,0,2.56-1.27,2.56-3.8v-2.48a5.34,5.34,0,0,0-.73-3.26,2.75,2.75,0,0,0-2.29-.9h-2.1v10.44Z" transform="translate(0)"/><path class="cls-4" d="M153.84,405.72a4,4,0,0,1,3.68,1.92,9.68,9.68,0,0,1,1.19,5.12v2.52h-2.28V412.6a6.12,6.12,0,0,0-.6-3,2.27,2.27,0,0,0-3.84,0,6,6,0,0,0-.61,3v14.8a6,6,0,0,0,.61,3,2.27,2.27,0,0,0,3.84,0,6.12,6.12,0,0,0,.6-3v-3.64h2.28v3.48a9.68,9.68,0,0,1-1.19,5.12,4.46,4.46,0,0,1-7.33,0,9.68,9.68,0,0,1-1.19-5.12V412.76a12.92,12.92,0,0,1,.3-2.9,6.58,6.58,0,0,1,.89-2.22,4.18,4.18,0,0,1,1.51-1.42A4.39,4.39,0,0,1,153.84,405.72Z" transform="translate(0)"/><path class="cls-4" d="M166.56,421.08,163.39,434h-2.5V406H163v20.88l1.91-7.72L168.38,406h2.68v28H168.9V411.72Z" transform="translate(0)"/><path class="cls-4" d="M184.12,437.84V434h-8.81v3.84H173v-6.6h1.38a4.48,4.48,0,0,0,.73-1.8,19.91,19.91,0,0,0,.23-2.28l.83-21.16h8.65v25.24h1.64v6.6Zm-6.44-10.72a16,16,0,0,1-.26,2.48,4,4,0,0,1-.73,1.64h5.7v-22.4h-4Z" transform="translate(0)"/><path class="cls-4" d="M191,421.4V434h-2.4V406H191v12.6h5.3V406h2.4v28h-2.4V421.4Z" transform="translate(0)"/><path class="cls-4" d="M208.79,418.4v2.8h-5.27v10H210V434h-8.87V406H210v2.84h-6.47v9.56Z" transform="translate(0)"/><path class="cls-4" d="M219.88,418.4v2.8h-5.27v10h6.47V434h-8.87V406h8.87v2.84h-6.47v9.56Z" transform="translate(0)"/><path class="cls-4" d="M233.74,421.08,230.56,434h-2.49V406h2.12v20.88l1.91-7.72L235.55,406h2.68v28h-2.15V411.72Z" transform="translate(0)"/><path class="cls-4" d="M250.09,405.72a4,4,0,0,1,3.68,1.92,9.68,9.68,0,0,1,1.19,5.12v2.52h-2.28V412.6a6.12,6.12,0,0,0-.6-3,2.27,2.27,0,0,0-3.84,0,6,6,0,0,0-.61,3v14.8a6,6,0,0,0,.61,3,2.27,2.27,0,0,0,3.84,0,6.12,6.12,0,0,0,.6-3v-3.64H255v3.48a9.68,9.68,0,0,1-1.19,5.12,4.46,4.46,0,0,1-7.33,0,9.68,9.68,0,0,1-1.19-5.12V412.76a12.92,12.92,0,0,1,.3-2.9,6.58,6.58,0,0,1,.89-2.22,4.18,4.18,0,0,1,1.51-1.42A4.39,4.39,0,0,1,250.09,405.72Z" transform="translate(0)"/><path class="cls-4" d="M265.21,434V408.84h-4V406h10.35v2.84h-4V434Z" transform="translate(0)"/><path class="cls-4" d="M281,418.4v2.8h-5.26v10h6.47V434h-8.87V406h8.87v2.84h-6.47v9.56Z" transform="translate(0)"/><path class="cls-4" d="M289.82,421.92,286.22,434h-2.28l4.34-14.44L284.22,406h2.49L290,417.2l3.35-11.2h2.25l-4,13.56L295.92,434h-2.53Z" transform="translate(0)"/><path class="cls-4" d="M305,408.84V434h-2.41V406h10.11v28h-2.41V408.84Z" transform="translate(0)"/><path class="cls-4" d="M315,412.76a9.47,9.47,0,0,1,1.21-5.14,4.59,4.59,0,0,1,7.44,0,9.37,9.37,0,0,1,1.23,5.14v14.48a9.39,9.39,0,0,1-1.23,5.12,4.56,4.56,0,0,1-7.44,0,9.49,9.49,0,0,1-1.21-5.12Zm2.37,14.64a5.87,5.87,0,0,0,.63,3,2.29,2.29,0,0,0,3.86,0,6,6,0,0,0,.62-3V412.6a6,6,0,0,0-.62-3,2.29,2.29,0,0,0-3.86,0,5.87,5.87,0,0,0-.63,3Z" transform="translate(0)"/><path class="cls-4" d="M331.89,406a4,4,0,0,1,3.7,1.82,9.42,9.42,0,0,1,1.14,5v3.36a8.68,8.68,0,0,1-1.22,5.06,4.36,4.36,0,0,1-3.8,1.7h-2.13v11h-2.4V406Zm-.18,14.16a2.35,2.35,0,0,0,2-.86,4.94,4.94,0,0,0,.65-2.9v-3.72a5.76,5.76,0,0,0-.57-2.88,2,2,0,0,0-1.9-1h-2.31v11.32Z" transform="translate(0)"/><path class="cls-4" d="M348.22,406a4.08,4.08,0,0,1,3.6,1.54,8.16,8.16,0,0,1,1.08,4.66v1.32a9.86,9.86,0,0,1-.56,3.62,3.31,3.31,0,0,1-2,1.94,3.67,3.67,0,0,1,2.24,2.12,10,10,0,0,1,.66,3.88v2.36a8.35,8.35,0,0,1-1.2,4.86,4.27,4.27,0,0,1-3.73,1.7h-5V406Zm-.59,11.88a2.84,2.84,0,0,0,2.17-.76,4.36,4.36,0,0,0,.73-3v-1.64a5.57,5.57,0,0,0-.54-2.78,2,2,0,0,0-1.83-.9h-2.37v9Zm.71,13.28c1.7,0,2.56-1.27,2.56-3.8v-2.48a5.34,5.34,0,0,0-.73-3.26,2.75,2.75,0,0,0-2.29-.9h-2.09v10.44Z" transform="translate(0)"/><path class="cls-4" d="M359.12,421.84l-1.26,2.76V434h-2.4V406h2.4v13.52L363.59,406H366l-5.45,12.76L366.21,434h-2.47Z" transform="translate(0)"/><path class="cls-4" d="M372.64,408.84l-.49,18.2a23.5,23.5,0,0,1-.28,3,6.81,6.81,0,0,1-.71,2.18,3.49,3.49,0,0,1-1.31,1.38,4,4,0,0,1-2,.48h-.4V431.2a2.61,2.61,0,0,0,1.2-.24,1.66,1.66,0,0,0,.72-.74,3.7,3.7,0,0,0,.35-1.26,16.78,16.78,0,0,0,.13-1.76l.58-21.2h8.78v28h-2.4V408.84Z" transform="translate(0)"/><path class="cls-4" d="M392.2,405.72a4.1,4.1,0,0,1,3.71,1.9,9.46,9.46,0,0,1,1.22,5.14v14.48a9.49,9.49,0,0,1-1.22,5.12,4.09,4.09,0,0,1-3.71,1.92,4.14,4.14,0,0,1-3.73-1.92,9.39,9.39,0,0,1-1.23-5.12V421.4h-3.11V434h-2.4V406h2.4v12.6h3.11v-5.84a9.37,9.37,0,0,1,1.23-5.14A4.14,4.14,0,0,1,392.2,405.72Zm0,2.84a2.08,2.08,0,0,0-1.94,1.06,6,6,0,0,0-.62,3v14.8a6,6,0,0,0,.62,3,2.29,2.29,0,0,0,3.86,0,5.86,5.86,0,0,0,.64-3V412.6a5.86,5.86,0,0,0-.64-3A2.08,2.08,0,0,0,392.2,408.56Z" transform="translate(0)"/><path class="cls-4" d="M406.92,421.6a4.23,4.23,0,0,1-1.48,1.64,3.49,3.49,0,0,1-1.88.56,3.58,3.58,0,0,1-1.89-.5,3.92,3.92,0,0,1-1.34-1.4,7.36,7.36,0,0,1-.79-2.12,12.79,12.79,0,0,1-.26-2.62V406h2.41v10.92a5.61,5.61,0,0,0,.67,2.92,2.16,2.16,0,0,0,2,1.12c1.48,0,2.34-1.09,2.59-3.28V406h2.37v28h-2.37Z" transform="translate(0)"/><path class="cls-4" d="M414.22,428.36l-.83,5.64h-2.22l4.13-28h3.48l4.13,28H420.5l-.83-5.64Zm.31-2.68h4.8l-2.43-16.16Z" transform="translate(0)"/><path class="cls-4" d="M429.37,408.84l-.49,18.2a21.77,21.77,0,0,1-.28,3,7.07,7.07,0,0,1-.7,2.18,3.56,3.56,0,0,1-1.31,1.38,4,4,0,0,1-2,.48h-.4V431.2a2.61,2.61,0,0,0,1.2-.24,1.66,1.66,0,0,0,.72-.74,3.48,3.48,0,0,0,.36-1.26c.06-.51.1-1.09.12-1.76l.59-21.2h8.77v28h-2.4V408.84Z" transform="translate(0)"/><path class="cls-4" d="M444.13,421.08,441,434h-2.49V406h2.12v20.88l1.91-7.72L445.94,406h2.68v28h-2.15V411.72Z" transform="translate(0)"/><path class="cls-4" d="M455.71,405.72a4,4,0,0,1,3.68,1.92,9.68,9.68,0,0,1,1.18,5.12v2.52h-2.28V412.6a6.12,6.12,0,0,0-.6-3,2.26,2.26,0,0,0-3.83,0,6,6,0,0,0-.62,3v14.8a6,6,0,0,0,.62,3,2.26,2.26,0,0,0,3.83,0,6.12,6.12,0,0,0,.6-3v-3.64h2.28v3.48a9.68,9.68,0,0,1-1.18,5.12,4.46,4.46,0,0,1-7.33,0,9.68,9.68,0,0,1-1.19-5.12V412.76a13.56,13.56,0,0,1,.29-2.9,6.79,6.79,0,0,1,.9-2.22,4.18,4.18,0,0,1,1.51-1.42A4.39,4.39,0,0,1,455.71,405.72Z" transform="translate(0)"/><path class="cls-4" d="M467.29,417a4.36,4.36,0,0,1,3.8,1.7,8.68,8.68,0,0,1,1.22,5.06v3.36a9.32,9.32,0,0,1-1.16,5,4,4,0,0,1-3.68,1.82h-4.71V406h2.4v11Zm.18,14.12a2,2,0,0,0,1.9-1,5.76,5.76,0,0,0,.57-2.88V423.6a4.94,4.94,0,0,0-.65-2.9,2.35,2.35,0,0,0-2-.86h-2.13v11.32Z" transform="translate(0)"/><path class="cls-4" d="M13,448a4.71,4.71,0,0,1,4,1.54,7.6,7.6,0,0,1,1.19,4.66v1.32a9,9,0,0,1-.61,3.62,3.57,3.57,0,0,1-2.18,1.94,3.91,3.91,0,0,1,2.47,2.12,9.23,9.23,0,0,1,.73,3.88v2.36a7.71,7.71,0,0,1-1.33,4.86,4.89,4.89,0,0,1-4.11,1.7H7.63V448Zm-.64,11.88a3.33,3.33,0,0,0,2.39-.76,4.11,4.11,0,0,0,.8-3v-1.64a5.2,5.2,0,0,0-.59-2.78,2.25,2.25,0,0,0-2-.9H10.29v9Zm.78,13.28q2.82,0,2.82-3.8v-2.48a5,5,0,0,0-.8-3.26,3.22,3.22,0,0,0-2.53-.9H10.29v10.44Z" transform="translate(0)"/><path class="cls-4" d="M28.88,450.84V476H26.23V448H37.38v28H34.73V450.84Z" transform="translate(0)"/><path class="cls-4" d="M45.3,448a4.59,4.59,0,0,1,4.08,1.82,8.71,8.71,0,0,1,1.26,5v3.36a8,8,0,0,1-1.34,5.06,5,5,0,0,1-4.2,1.7H42.75v11H40.1V448Zm-.2,14.16a2.72,2.72,0,0,0,2.21-.86,4.54,4.54,0,0,0,.72-2.9v-3.72a5.3,5.3,0,0,0-.63-2.88,2.32,2.32,0,0,0-2.1-1H42.75v11.32Z" transform="translate(0)"/><path class="cls-4" d="M52.51,454.76a8.73,8.73,0,0,1,1.35-5.14,4.66,4.66,0,0,1,4.09-1.9,4.73,4.73,0,0,1,4.12,1.9,8.73,8.73,0,0,1,1.36,5.14v14.48a8.74,8.74,0,0,1-1.36,5.12A4.72,4.72,0,0,1,58,476.28a4.65,4.65,0,0,1-4.09-1.92,8.74,8.74,0,0,1-1.35-5.12Zm2.62,14.64a5.36,5.36,0,0,0,.7,3,2.67,2.67,0,0,0,4.26,0,5.46,5.46,0,0,0,.68-3V454.6a5.46,5.46,0,0,0-.68-3,2.67,2.67,0,0,0-4.26,0,5.36,5.36,0,0,0-.7,3Z" transform="translate(0)"/><path class="cls-4" d="M68.59,450.84V476H66V448h9.48v2.84Z" transform="translate(0)"/><path class="cls-4" d="M83.25,448a4.62,4.62,0,0,1,4.08,1.82,8.71,8.71,0,0,1,1.26,5v3.36a8,8,0,0,1-1.35,5.06A5,5,0,0,1,83,465H80.7v11H78.05V448ZM83,462.16a2.71,2.71,0,0,0,2.21-.86,4.54,4.54,0,0,0,.72-2.9v-3.72a5.3,5.3,0,0,0-.63-2.88,2.31,2.31,0,0,0-2.09-1H80.7v11.32Z" transform="translate(0)"/><path class="cls-4" d="M93.34,470.36,92.43,476H90l4.56-28h3.84l4.55,28h-2.65l-.92-5.64Zm.34-2.68H99L96.3,451.52Z" transform="translate(0)"/><path class="cls-4" d="M113.78,476h-2.55l-4-22.28V476H105V448h3.71l3.91,22.36L116.36,448h3.71v28h-2.52V453.48Z" transform="translate(0)"/><path class="cls-4" d="M131.56,476H129l-3.94-22.28V476h-2.32V448h3.71l3.91,22.36L134.14,448h3.71v28h-2.52V453.48Z" transform="translate(0)"/><path class="cls-4" d="M147.71,469.84a19.55,19.55,0,0,1-.73,2.76,5.79,5.79,0,0,1-1.14,2,4.09,4.09,0,0,1-1.78,1.16,7.57,7.57,0,0,1-2.71.28v-2.8a3.35,3.35,0,0,0,2.3-.54,3.74,3.74,0,0,0,1.1-2.22l.55-1.84L139.82,448h2.65l2.42,9.72,1.63,7,1.4-7,2.14-9.72h2.75Z" transform="translate(0)"/><path class="cls-4" d="M164.06,463.84l-1.39,2.76V476H160V448h2.65v13.52L169,448h2.69l-6,12.76L171.88,476h-2.72Z" transform="translate(0)"/><path class="cls-4" d="M176.61,470.36l-.92,5.64h-2.45l4.56-28h3.84l4.56,28h-2.65l-.92-5.64Zm.34-2.68h5.3l-2.68-16.16Z" transform="translate(0)"/><path class="cls-4" d="M199.9,462.8l-1.26,2.64V476H196V465.44l-1.22-2.68L190.24,476h-2.72L193,459.88,187.66,448h2.65L196,460.88V448h2.62v12.88L204.39,448H207l-5.27,11.8,5.41,16.2h-2.72Z" transform="translate(0)"/><path class="cls-4" d="M220.84,479.84V476h-9.72v3.84h-2.55v-6.6h1.53a4.19,4.19,0,0,0,.8-1.8,17.65,17.65,0,0,0,.25-2.28l.92-21.16h9.56v25.24h1.8v6.6Zm-7.1-10.72a14.46,14.46,0,0,1-.29,2.48,3.77,3.77,0,0,1-.8,1.64h6.29v-22.4h-4.42Z" transform="translate(0)"/><path class="cls-4" d="M230.74,459a5,5,0,0,1,4.2,1.7,8.08,8.08,0,0,1,1.34,5.06v3.36a8.63,8.63,0,0,1-1.28,5,4.6,4.6,0,0,1-4.06,1.82h-5.2V448h2.65v11Zm.2,14.12a2.3,2.3,0,0,0,2.09-1,5.3,5.3,0,0,0,.63-2.88V465.6a4.61,4.61,0,0,0-.71-2.9,2.72,2.72,0,0,0-2.21-.86h-2.35v11.32ZM241.11,448v28h-2.62V448Z" transform="translate(0)"/><path class="cls-4" d="M249.74,463.92l-4,12.08h-2.52L248,461.56,243.56,448h2.75L250,459.2l3.71-11.2h2.48l-4.45,13.56L256.48,476h-2.79Z" transform="translate(0)"/><path class="cls-4" d="M266.54,450.84V476h-2.65V448H275v28h-2.65V450.84Z" transform="translate(0)"/><path class="cls-4" d="M277.56,454.76a8.73,8.73,0,0,1,1.34-5.14,4.67,4.67,0,0,1,4.1-1.9,4.72,4.72,0,0,1,4.11,1.9,8.65,8.65,0,0,1,1.36,5.14v14.48a8.67,8.67,0,0,1-1.36,5.12,4.71,4.71,0,0,1-4.11,1.92,4.66,4.66,0,0,1-4.1-1.92,8.74,8.74,0,0,1-1.34-5.12Zm2.61,14.64a5.45,5.45,0,0,0,.7,3,2.68,2.68,0,0,0,4.27,0,5.55,5.55,0,0,0,.68-3V454.6a5.55,5.55,0,0,0-.68-3,2.68,2.68,0,0,0-4.27,0,5.45,5.45,0,0,0-.7,3Z" transform="translate(0)"/><path class="cls-4" d="M296.12,447.72a4.56,4.56,0,0,1,4.06,1.92,9,9,0,0,1,1.31,5.12v2.52H299V454.6a5.65,5.65,0,0,0-.66-3,2.64,2.64,0,0,0-4.23,0,5.46,5.46,0,0,0-.68,3v14.8a5.46,5.46,0,0,0,.68,3,2.64,2.64,0,0,0,4.23,0,5.65,5.65,0,0,0,.66-3v-3.64h2.52v3.48a9,9,0,0,1-1.31,5.12,5.22,5.22,0,0,1-8.09,0,9,9,0,0,1-1.31-5.12V454.76a12.32,12.32,0,0,1,.32-2.9,6.46,6.46,0,0,1,1-2.22,4.49,4.49,0,0,1,1.67-1.42A5.23,5.23,0,0,1,296.12,447.72Z" transform="translate(0)"/><path class="cls-4" d="M309,450.84l-.54,18.2a21.41,21.41,0,0,1-.31,3,6.59,6.59,0,0,1-.78,2.18,3.7,3.7,0,0,1-1.45,1.38,4.76,4.76,0,0,1-2.26.48h-.44V473.2a3.13,3.13,0,0,0,1.33-.24,1.84,1.84,0,0,0,.8-.74,3.47,3.47,0,0,0,.39-1.26,16.78,16.78,0,0,0,.13-1.76l.65-21.2h9.69v28h-2.65V450.84Z" transform="translate(0)"/><path class="cls-4" d="M327.47,460.4v2.8h-5.82v10h7.14V476H319V448h9.79v2.84h-7.14v9.56Z" transform="translate(0)"/><path class="cls-4" d="M343,479.84V476h-9.72v3.84H330.7v-6.6h1.53a4.18,4.18,0,0,0,.79-1.8,17.54,17.54,0,0,0,.26-2.28L334.2,448h9.55v25.24h1.8v6.6Zm-7.11-10.72a14.6,14.6,0,0,1-.28,2.48,3.88,3.88,0,0,1-.8,1.64h6.29v-22.4h-4.42Z" transform="translate(0)"/><path class="cls-4" d="M355,469.84a19.49,19.49,0,0,1-.74,2.76,5.94,5.94,0,0,1-1.13,2,4.18,4.18,0,0,1-1.79,1.16,7.49,7.49,0,0,1-2.7.28v-2.8a3.33,3.33,0,0,0,2.29-.54,3.8,3.8,0,0,0,1.11-2.22l.54-1.84L347.12,448h2.65l2.41,9.72,1.64,7,1.39-7,2.14-9.72h2.76Z" transform="translate(0)"/><path class="cls-4" d="M373.6,447.72a4.68,4.68,0,0,1,4.1,1.9,8.73,8.73,0,0,1,1.34,5.14v14.48a8.74,8.74,0,0,1-1.34,5.12,5.35,5.35,0,0,1-8.21,0,8.67,8.67,0,0,1-1.36-5.12V463.4H364.7V476H362V448h2.66v12.6h3.43v-5.84a8.65,8.65,0,0,1,1.36-5.14A4.72,4.72,0,0,1,373.6,447.72Zm0,2.84a2.36,2.36,0,0,0-2.14,1.06,5.55,5.55,0,0,0-.68,3v14.8a5.55,5.55,0,0,0,.68,3,2.68,2.68,0,0,0,4.27,0,5.45,5.45,0,0,0,.7-3V454.6a5.45,5.45,0,0,0-.7-3A2.37,2.37,0,0,0,373.6,450.56Z" transform="translate(0)"/><path class="cls-4" d="M397.91,479.76V476H381.59V448h2.66v25.16h4.55V448h2.62v25.16H396V448h2.62v25.24h1.83v6.52Z" transform="translate(0)"/><path class="cls-4" d="M409,463.08,405.5,476h-2.76V448h2.35v20.88l2.11-7.72L411,448h3v28h-2.38V453.72Z" transform="translate(0)"/><path class="cls-4" d="M422.56,463.92l-4,12.08h-2.51l4.79-14.44L416.38,448h2.75l3.67,11.2,3.71-11.2H429l-4.45,13.56L429.29,476h-2.78Z" transform="translate(0)"/><path class="cls-4" d="M443,463.08,439.46,476h-2.75V448h2.34v20.88l2.11-7.72L445,448h3v28h-2.38V453.72Z" transform="translate(0)"/><path class="cls-4" d="M453.26,450.84V476h-2.61V448h9.48v2.84Z" transform="translate(0)"/><path class="cls-4" d="M467.92,448a4.62,4.62,0,0,1,4.08,1.82,8.71,8.71,0,0,1,1.26,5v3.36a8,8,0,0,1-1.35,5.06,5,5,0,0,1-4.2,1.7h-2.34v11h-2.65V448Zm-.21,14.16a2.71,2.71,0,0,0,2.21-.86,4.54,4.54,0,0,0,.72-2.9v-3.72a5.3,5.3,0,0,0-.63-2.88,2.31,2.31,0,0,0-2.09-1h-2.55v11.32Z" transform="translate(0)"/></svg>