<svg xmlns="http://www.w3.org/2000/svg" viewBox="0 0 64 64"><defs><style>.cls-1{fill:#fff;stroke:#fff;stroke-miterlimit:10;}.cls-2{fill:none;}</style></defs><g id="Layer_2" data-name="Layer 2"><g id="Layer_1-2" data-name="Layer 1"><path class="cls-1" d="M53.16,38.8l-5.72-5.14A15.25,15.25,0,0,0,47.53,32a14.93,14.93,0,0,0-.09-1.65l5.71-5.17a1,1,0,0,0,.2-1.24l-3.69-6.39a1,1,0,0,0-1.17-.46l-7.34,2.38a15.84,15.84,0,0,0-2.82-1.64l-1.62-7.54a1,1,0,0,0-1-.79H28.35a1,1,0,0,0-1,.79l-1.62,7.54a15.92,15.92,0,0,0-2.83,1.64l-7.34-2.38a1,1,0,0,0-1.17.45l-3.69,6.4a1,1,0,0,0,.19,1.25l5.72,5.17A14.88,14.88,0,0,0,16.55,32a15.43,15.43,0,0,0,.09,1.67l-5.71,5.14a1,1,0,0,0-.19,1.25l3.68,6.38a1,1,0,0,0,1.18.46l7.31-2.38a15.43,15.43,0,0,0,2.87,1.66l1.6,7.52a1,1,0,0,0,1,.8h7.38a1,1,0,0,0,1-.8l1.6-7.52a14.93,14.93,0,0,0,2.87-1.67l7.31,2.38a1,1,0,0,0,1.17-.45l3.7-6.39A1,1,0,0,0,53.16,38.8ZM32,40.5a8.51,8.51,0,1,1,8.5-8.5A8.51,8.51,0,0,1,32,40.5Z"/><rect class="cls-2" width="64" height="64"/></g></g></svg>