<svg xmlns="http://www.w3.org/2000/svg" viewBox="0 0 64 64"><defs><style>.cls-1,.cls-2{fill:none;}.cls-1{stroke:#fff;stroke-miterlimit:10;}</style></defs><g id="Layer_2" data-name="Layer 2"><g id="Layer_1-2" data-name="Layer 1"><path class="cls-1" d="M47.41,33.66A15.25,15.25,0,0,0,47.5,32a14.93,14.93,0,0,0-.09-1.65l5.72-5.17a1,1,0,0,0,.2-1.24l-3.7-6.39a1,1,0,0,0-1.17-.45l-7.34,2.37a15.92,15.92,0,0,0-2.83-1.64l-1.62-7.54a1,1,0,0,0-1-.79H28.31a1,1,0,0,0-1,.79l-1.62,7.54a15.92,15.92,0,0,0-2.83,1.64L15.54,17.1a1,1,0,0,0-1.17.45L10.67,24a1,1,0,0,0,.19,1.24l5.73,5.17A14.88,14.88,0,0,0,16.5,32a15.43,15.43,0,0,0,.09,1.67l-5.72,5.15a1,1,0,0,0-.19,1.24l3.68,6.39a1,1,0,0,0,1.18.45l7.32-2.38a15.43,15.43,0,0,0,2.87,1.66l1.6,7.53a1,1,0,0,0,1,.79h7.38a1,1,0,0,0,1-.79l1.6-7.53a15,15,0,0,0,2.88-1.67l7.31,2.39a1,1,0,0,0,1.18-.45l3.69-6.4a1,1,0,0,0-.19-1.24Z"/><circle class="cls-1" cx="32" cy="32" r="7.5"/><rect class="cls-2" width="64" height="64"/></g></g></svg>