<?xml version="1.0" standalone="no"?>
<!DOCTYPE svg PUBLIC "-//W3C//DTD SVG 1.1//EN" "http://www.w3.org/Graphics/SVG/1.1/DTD/svg11.dtd" >
<svg xmlns="http://www.w3.org/2000/svg">
<metadata></metadata>
<defs>
<font id="exo_2regular_condensed" horiz-adv-x="933" >
<font-face units-per-em="2048" ascent="1638" descent="-410" />
<missing-glyph horiz-adv-x="366" />
<glyph unicode="fi" horiz-adv-x="1032" d="M43 860v127l147 10v158q0 157 56 235t186 78q117 0 197 -14v-129h-135q-73 0 -102.5 -42t-29.5 -146v-140h545v-997h-172v860h-373v-860h-172v860h-147zM729 1251v117q0 53 49 53h82q49 0 49 -53v-117q0 -28 -11.5 -40.5t-37.5 -12.5h-82q-26 0 -37.5 12.5t-11.5 40.5z " />
<glyph unicode="fl" horiz-adv-x="1134" d="M43 860v127l145 10v158q0 156 57 234.5t187 78.5q357 0 494 -24v-1190q0 -135 100 -135h74l18 -111q-22 -12 -71.5 -19t-88.5 -7q-96 0 -151 61.5t-55 171.5v1112h-260q-72 1 -101 -41.5t-29 -148.5v-140h228v-137h-228v-860h-174v860h-145z" />
<glyph unicode=" "  horiz-adv-x="366" />
<glyph unicode="&#x09;" horiz-adv-x="366" />
<glyph unicode="&#xa0;" horiz-adv-x="366" />
<glyph unicode="!" horiz-adv-x="462" d="M145 797v626h172v-626l-16 -365h-139zM147 66v110q0 37 14.5 51.5t49.5 14.5h43q34 0 47.5 -14.5t13.5 -51.5v-110q0 -37 -13.5 -51.5t-47.5 -14.5h-43q-35 0 -49.5 14.5t-14.5 51.5z" />
<glyph unicode="&#x22;" horiz-adv-x="598" d="M106 1413h140l-13 -440h-116zM352 1413h140l-11 -440h-116z" />
<glyph unicode="#" horiz-adv-x="1142" d="M63 436l23 113h188l52 369h-193l23 112h186l53 383h135l-53 -383h279l53 383h137l-53 -383h182l-20 -112h-178l-52 -369h181l-21 -113h-176l-61 -436h-136l62 436h-281l-61 -436h-135l61 436h-195zM410 549h280l51 369h-280z" />
<glyph unicode="$" horiz-adv-x="935" d="M88 1065q0 82 9.5 142t31.5 101.5t50 67t74 39.5t94.5 18.5t119.5 4.5h16l13 198h88l-13 -202q135 -10 244 -37l-12 -131q-127 7 -242 10l-31 -488l95 -30q129 -38 180 -132.5t51 -265.5q0 -82 -9 -142t-30.5 -103t-51 -70t-75.5 -42.5t-98.5 -21.5t-126.5 -6l-16 -235 h-91l17 237q-138 8 -273 37l13 138q67 -2 154.5 -5.5t117.5 -3.5l33 496l-105 33q-123 37 -175 132t-52 261zM268 1061q0 -77 15.5 -123t43 -69t76.5 -40l41 -12l29 459q-44 0 -67 -1.5t-51 -8t-40.5 -19.5t-25 -37t-17 -60.5t-4.5 -88.5zM475 143q82 1 122.5 18.5t58.5 64 t18 139.5q0 116 -28.5 162t-100.5 71l-39 12z" />
<glyph unicode="%" horiz-adv-x="1484" d="M72 1020q0 228 60.5 324t209.5 96q150 0 210 -95.5t60 -324.5q0 -228 -60 -324t-210 -96q-149 0 -209.5 96.5t-60.5 323.5zM201 1020q0 -173 30 -241t109 -68q81 0 111 67.5t30 241.5q0 173 -30 241t-111 68q-79 0 -109 -68.5t-30 -240.5zM319 0l721 1413h119l-721 -1413 h-119zM870 401q0 225 61 321.5t210 96.5q150 0 210 -96t60 -322q0 -229 -60 -324t-210 -95t-210.5 95.5t-60.5 323.5zM1001 401q0 -176 29.5 -243.5t110.5 -67.5q79 0 110 68.5t31 242.5q0 172 -31 240t-110 68q-81 0 -110.5 -67t-29.5 -241z" />
<glyph unicode="&#x26;" horiz-adv-x="1271" d="M104 358q0 170 51.5 264t172.5 107v8q-102 12 -146.5 93t-44.5 237q0 70 8.5 123.5t23.5 92.5t42.5 66t59 44t80 26t98 12t120.5 3q151 0 265 -21l-21 -133q-70 6 -248 6q-75 0 -118 -8.5t-74 -34.5t-42.5 -73.5t-11.5 -127.5q0 -143 41.5 -192t155.5 -49h291l14 262h146 v-262h198v-137h-198v-396q0 -73 21.5 -103t74.5 -30h115l20 -127q-77 -26 -186 -26q-86 0 -138.5 44.5t-66.5 127.5q-70 -95 -155 -134.5t-214 -39.5q-182 0 -258 83.5t-76 294.5zM293 387q0 -146 40 -199t152 -53q197 0 318 160v369h-295q-122 0 -168.5 -58.5t-46.5 -218.5 z" />
<glyph unicode="'" horiz-adv-x="350" d="M106 1413h140l-13 -440h-116z" />
<glyph unicode="(" horiz-adv-x="598" d="M80 639q0 398 108.5 635.5t339.5 343.5l23 -84q-157 -98 -229 -318t-72 -575q0 -350 72 -570.5t229 -324.5l-23 -84q-231 107 -339.5 344.5t-108.5 632.5z" />
<glyph unicode=")" horiz-adv-x="598" d="M47 -254q156 104 228.5 325.5t72.5 569.5q0 354 -72.5 574.5t-228.5 318.5l21 84q231 -106 339.5 -343.5t108.5 -635.5q0 -395 -108.5 -632.5t-339.5 -344.5z" />
<glyph unicode="*" horiz-adv-x="743" d="M78 1130l33 101l196 -94l-2 -45l-22 -29zM164 823l172 262l-17 330h103l-16 -330l169 -264l-81 -61l-123 252l-123 -250zM434 1092v45l197 94l33 -103l-205 -65z" />
<glyph unicode="+" horiz-adv-x="907" d="M86 547v131h301v360h131v-360h303v-131h-303v-363h-129v363h-303z" />
<glyph unicode="," horiz-adv-x="387" d="M104 57v119q1 36 16.5 51t49.5 15h51q35 0 47.5 -14.5t12.5 -51.5v-131q-3 -174 -66 -315l-82 24q21 147 21 246q-24 0 -37.5 15.5t-12.5 41.5z" />
<glyph unicode="-" horiz-adv-x="724" d="M113 451v133h499v-133h-499z" />
<glyph unicode="." horiz-adv-x="391" d="M104 66v110q0 37 14.5 51.5t49.5 14.5h55q35 0 49.5 -14.5t14.5 -51.5v-110q0 -37 -14.5 -51.5t-49.5 -14.5h-55q-35 0 -49.5 14.5t-14.5 51.5z" />
<glyph unicode="/" horiz-adv-x="866" d="M39 -135l649 1548h139l-647 -1548h-141z" />
<glyph unicode="0" horiz-adv-x="1007" d="M98 707q0 392 91.5 562.5t314.5 170.5t314 -170t91 -563t-91 -563.5t-314 -170.5t-314.5 170.5t-91.5 563.5zM272 707q0 -317 50.5 -446.5t179.5 -129.5q132 0 182.5 129t50.5 447t-50.5 446.5t-182.5 128.5q-129 0 -179.5 -129t-50.5 -446z" />
<glyph unicode="1" horiz-adv-x="696" d="M55 1268l285 145h178v-1413h-178v1120q0 68 8 123l-270 -108z" />
<glyph unicode="2" horiz-adv-x="931" d="M88 0v113q0 35 25 77l311 463q109 155 158.5 264.5t46.5 206.5q-1 50 -13 81.5t-39.5 47t-58.5 20.5t-82 5q-165 0 -330 -33l-10 139q187 54 357 54q70 0 121.5 -7t98 -26.5t75 -53.5t45 -88.5t16.5 -129.5q0 -135 -42.5 -247t-154.5 -268l-309 -452q73 8 182 8h363v-174 h-760z" />
<glyph unicode="3" horiz-adv-x="923" d="M82 10l10 146q208 -21 314 -21q131 0 184 61t53 216q0 128 -44.5 194t-164.5 66h-209v141h209q49 1 83.5 16t53.5 37.5t30 58.5t13.5 68.5t1.5 77.5q-1 68 -10.5 108t-35.5 63t-63 30.5t-101 7.5q-137 0 -293 -16l-13 139q173 37 332 37q192 0 274 -72t82 -256 q0 -72 -7.5 -128.5t-25.5 -105t-50.5 -79.5t-79.5 -43v-8q71 -15 114.5 -63.5t60.5 -118.5t19 -173q3 -219 -81 -319.5t-285 -100.5q-155 0 -371 37z" />
<glyph unicode="4" horiz-adv-x="1028" d="M72 565l311 848h174l-299 -835q-13 -41 -1.5 -62.5t40.5 -21.5h344v415l31 234h139v-649h150v-129l-148 -19h-2v-346h-170v346h-448q-76 0 -114 70t-7 149z" />
<glyph unicode="5" horiz-adv-x="890" d="M80 27l18 145q164 -37 289 -37q74 0 122 18t74 57.5t35.5 89t10.5 124.5q1 66 -4.5 111.5t-26.5 77t-41 49.5t-68.5 30t-87 17t-118.5 12l-93 6q-29 3 -47 25.5t-18 54.5l27 606h620l-6 -153h-469l-14 -386l131 -12q219 -20 306 -115.5t87 -322.5q0 -74 -9 -134.5 t-34 -121t-65.5 -101.5t-108.5 -66.5t-158 -25.5q-166 0 -352 52z" />
<glyph unicode="6" horiz-adv-x="950" d="M102 672q0 124 7 223.5t21.5 176.5t34.5 134.5t50 98t63 66.5t78 41t91 20.5t106 5.5q144 0 240 -31l-13 -131q-76 8 -227 8q-61 0 -101 -11t-74 -40.5t-53.5 -85t-31 -142t-14.5 -214.5q56 73 118 102t154 29q179 0 247 -102.5t68 -362.5q0 -94 -8.5 -162.5t-32 -132 t-63.5 -102.5t-106.5 -62t-157.5 -23q-84 0 -143.5 14t-104.5 48.5t-73 84.5t-45 132t-23.5 180t-6.5 238zM276 659q0 -85 1 -140.5t5 -113.5t10.5 -93.5t18 -70t27.5 -53t39.5 -33.5t53.5 -20.5t69 -5.5q43 0 75 9t53.5 29.5t34.5 45.5t20 65.5t9 80t2 98.5 q0 178 -39.5 248.5t-150.5 70.5q-64 0 -114.5 -25.5t-113.5 -91.5z" />
<glyph unicode="7" horiz-adv-x="841" d="M37 1413h653q54 0 76.5 -33.5t5.5 -91.5l-348 -1288h-180l309 1155q10 44 39 105h-547z" />
<glyph unicode="8" horiz-adv-x="1001" d="M104 352q0 176 43 270t148 107v8q-164 22 -164 324q0 101 16.5 168t58.5 114.5t114 69t182 21.5t182 -21t113 -69.5t57 -115t16 -167.5q0 -302 -161 -324v-8q104 -13 146 -107t42 -270q0 -101 -17 -167t-61 -113.5t-121 -69t-196 -22.5q-118 -1 -195 20t-122 69t-63 115 t-18 168zM274 389q0 -146 46.5 -200t181.5 -54t179 53.5t44 200.5q0 168 -42.5 220.5t-178.5 52.5q-58 -1 -95.5 -8.5t-65.5 -25t-42 -50t-20.5 -77t-6.5 -112.5zM295 1044q0 -146 40.5 -192.5t168.5 -46.5q67 0 105.5 10t61 39t29.5 71.5t7 118.5q0 142 -39.5 193 t-165.5 51q-124 0 -165.5 -51.5t-41.5 -192.5z" />
<glyph unicode="9" horiz-adv-x="950" d="M86 952q-2 249 85 367.5t288 118.5q85 0 145 -14t104 -51t70 -87t41 -136.5t20 -183.5t5 -243q0 -159 -10.5 -275t-34.5 -200t-57.5 -136.5t-86 -83t-113 -42t-145.5 -11.5q-154 0 -260 31l15 133q80 -8 243 -8q106 0 162 40t83.5 145.5t31.5 310.5q-57 -75 -120.5 -105 t-156.5 -30q-70 0 -123.5 22.5t-88.5 62.5t-57 98.5t-31 126t-9 150.5zM254 952q0 -163 41.5 -240t148.5 -77q64 0 114 26.5t114 94.5q0 87 -1 141t-4 113.5t-9 93.5t-17 69t-26.5 52.5t-38.5 33t-51.5 20.5t-67.5 5q-120 0 -161.5 -79t-41.5 -253z" />
<glyph unicode=":" horiz-adv-x="405" d="M106 66v110q0 37 14 51.5t50 14.5h55q35 0 49.5 -14.5t14.5 -51.5v-110q0 -37 -14.5 -51.5t-49.5 -14.5h-55q-36 0 -50 14.5t-14 51.5zM106 725v113q0 36 14 49.5t50 13.5h55q35 0 49.5 -14t14.5 -49v-113q0 -37 -14.5 -51.5t-49.5 -14.5h-55q-36 0 -50 14.5t-14 51.5z " />
<glyph unicode=";" horiz-adv-x="407" d="M115 57v119q3 37 18 51.5t49 14.5h49q35 0 48.5 -14.5t11.5 -51.5l2 -131q-3 -166 -66 -315l-84 24q21 126 21 246q-23 0 -36 15.5t-13 41.5zM115 725v113q0 35 14 49t49 14h58q34 0 48.5 -14t14.5 -49v-113q0 -36 -14.5 -51t-48.5 -15h-58q-35 0 -49 14.5t-14 51.5z" />
<glyph unicode="&#x3c;" horiz-adv-x="870" d="M82 541v139l678 356v-139l-531 -287l531 -280v-140z" />
<glyph unicode="=" horiz-adv-x="964" d="M115 317v132h735v-132h-735zM115 752v129h735v-129h-735z" />
<glyph unicode="&#x3e;" horiz-adv-x="870" d="M111 190v140l530 280l-530 287v139l677 -356v-139z" />
<glyph unicode="?" horiz-adv-x="833" d="M61 1415q14 3 46 10t44.5 9.5t40.5 7.5t47.5 7t50.5 4.5t65.5 3.5t76.5 1q170 0 254 -77.5t84 -239.5q0 -62 -15.5 -116.5t-41 -97t-56 -82.5t-61.5 -82.5t-57 -88.5t-44 -108t-20 -134h-147q-1 77 12 144.5t35.5 117t50 93.5t55.5 82t51.5 74t39 79t16.5 88 q5 103 -42.5 152t-152.5 49q-39 0 -73 -1t-57 -2t-52 -3.5t-43 -4t-47.5 -5t-50.5 -5.5zM315 66v110q0 37 14.5 51.5t49.5 14.5h45q34 0 47.5 -14.5t13.5 -51.5v-110q0 -37 -13.5 -51.5t-47.5 -14.5h-45q-35 0 -49.5 14.5t-14.5 51.5z" />
<glyph unicode="@" horiz-adv-x="1198" d="M113 545q0 115 2.5 193t12 150t23 115t41 81.5t59.5 57t84.5 33t111 18.5t143.5 5h237q130 0 195 -68.5t65 -222.5v-637h-129l-16 154q-50 -66 -134.5 -118t-176.5 -52q-100 0 -159.5 63t-59.5 181v104q0 100 47.5 155.5t140.5 55.5h324v88q0 83 -28.5 117.5t-100.5 34.5 h-207q-59 0 -92.5 -1.5t-70.5 -10t-55.5 -21t-38 -40t-27.5 -61t-15 -91t-8.5 -122t-1.5 -161.5q0 -135 3 -213.5t20.5 -142.5t35.5 -91t69 -45.5t98 -21t144 -2.5h436v-131q-246 -17 -434 -17q-77 -1 -133 1t-108.5 10t-88 19t-68 32.5t-52.5 46.5t-37.5 66t-26 84.5 t-14.5 109t-8 133t-2 162.5zM571 528q0 -71 24 -103t71 -32q64 0 136.5 36.5t121.5 98.5v179l-258 -9q-54 -3 -74.5 -29t-20.5 -87v-54z" />
<glyph unicode="A" horiz-adv-x="1038" d="M12 0l353 1364q6 23 23.5 36t41.5 13h180q22 0 40 -13t24 -36l352 -1364h-184l-105 442h-436l-104 -442h-185zM338 598h362l-133 561q-2 9 -12.5 51t-13.5 64h-43l-27 -115z" />
<glyph unicode="B" horiz-adv-x="1030" d="M135 0v1413q145 17 387 17q111 0 181 -16.5t117.5 -59t67 -113t19.5 -180.5q0 -155 -45.5 -233.5t-148.5 -90.5v-8q124 -13 176.5 -106.5t52.5 -270.5q0 -110 -20 -180.5t-66.5 -112.5t-113 -58.5t-169.5 -16.5q-284 0 -438 16zM311 139l234 -2q126 0 171.5 49t45.5 197 q0 162 -48.5 220t-176.5 61h-226v-525zM311 801h224q78 1 119.5 21t61 71t19.5 147q0 141 -47 188.5t-174 47.5h-203v-475z" />
<glyph unicode="C" horiz-adv-x="952" d="M94 707q0 273 44.5 430.5t143 229t267.5 71.5q109 0 176.5 -9t142.5 -32l-18 -137q-150 18 -301 18q-103 0 -160 -54.5t-81.5 -176t-24.5 -340.5q0 -324 57 -448t209 -124q191 0 323 23l19 -135q-143 -48 -342 -48q-169 0 -267.5 71.5t-143 229.5t-44.5 431z" />
<glyph unicode="D" horiz-adv-x="1101" d="M135 0v1413q234 19 416 19q171 0 269 -68t143 -224.5t45 -432.5t-45 -432.5t-143 -224.5t-269 -68q-195 0 -416 18zM315 143q136 -4 236 -4q102 0 159 54t82 175t25 339t-25 339.5t-82 175.5t-159 54q-96 0 -236 -4v-1129z" />
<glyph unicode="E" d="M125 244v925q2 114 65 180t172 66q340 0 490 -12l-6 -141h-453q-48 0 -67 -31.5t-19 -104.5v-307h475v-145h-475v-387q0 -74 19 -105.5t67 -31.5h453l6 -140q-150 -12 -490 -12q-110 0 -172.5 66t-64.5 180z" />
<glyph unicode="F" horiz-adv-x="894" d="M131 0v1161q0 120 64 187t174 67q328 0 473 -14l-11 -139h-417q-56 0 -79.5 -32t-23.5 -104v-327h459v-146h-459v-653h-180z" />
<glyph unicode="G" horiz-adv-x="1040" d="M96 711q0 283 48 440t152.5 223t291.5 66q179 0 315 -43l-16 -135q-139 16 -289 16q-74 0 -122.5 -13.5t-88 -48.5t-60 -101t-31.5 -166.5t-11 -250.5q0 -315 47.5 -441t169.5 -126q70 0 129 34t131 99v553h174v-817h-131l-19 141q-55 -70 -141 -119t-194 -49 q-188 0 -271.5 177t-83.5 561z" />
<glyph unicode="H" horiz-adv-x="1112" d="M135 0v1413h180v-579h482v579h180v-1413h-180v678h-482v-678h-180z" />
<glyph unicode="I" horiz-adv-x="450" d="M135 0v1413h180v-1413h-180z" />
<glyph unicode="J" horiz-adv-x="571" d="M45 8l21 127h77q119 0 119 156v1122h178v-1116q0 -154 -58.5 -234.5t-168.5 -80.5q-38 0 -89 7.5t-79 18.5z" />
<glyph unicode="K" horiz-adv-x="993" d="M135 0v1413h180v-442q0 -83 -12 -162h113l338 604h194l-330 -584q-20 -44 -71 -92v-4q57 -51 84 -100l338 -633h-199l-352 664h-115q12 -76 12 -150v-514h-180z" />
<glyph unicode="L" horiz-adv-x="851" d="M131 264v1149h180v-1126q0 -72 22.5 -103.5t78.5 -31.5h399l10 -140q-143 -14 -438 -14q-252 0 -252 266z" />
<glyph unicode="M" horiz-adv-x="1460" d="M113 0l43 1337q3 76 71 76h199q59 0 74 -61l180 -863l37 -190h24q8 36 20.5 101t18.5 94l178 858q15 61 78 61h193q71 0 74 -76l47 -1337h-176l-39 1264h-37l-215 -1043q-16 -61 -76 -61h-154q-62 0 -78 61l-217 1043h-34l-37 -1264h-174z" />
<glyph unicode="N" horiz-adv-x="1175" d="M135 0v1341q0 72 68 72h182q64 0 78 -57l307 -977q3 -11 28.5 -87.5t37.5 -117.5h26v215v1024h178v-1341q0 -72 -65 -72h-189q-59 0 -73 57l-320 1002q-39 128 -59 186h-21v-186l2 -1059h-180z" />
<glyph unicode="O" horiz-adv-x="1107" d="M94 707q0 168 15.5 289t48.5 207.5t88 138t130 75t179 23.5q172 0 270.5 -68.5t143.5 -227t45 -437.5t-45 -437.5t-143.5 -227.5t-270.5 -69q-173 0 -272 69t-144 227.5t-45 437.5zM283 707q0 -220 25.5 -342t83.5 -176t163 -54q104 0 162 54t83 176t25 342t-25 342 t-83 175.5t-162 53.5q-79 0 -130 -28t-83.5 -96t-45.5 -174.5t-13 -272.5z" />
<glyph unicode="P" horiz-adv-x="980" d="M135 0v1413q153 19 402 19q146 0 226 -39t116 -134t36 -270t-35.5 -270.5t-110.5 -133.5t-210 -38q-121 0 -244 14v-561h-180zM315 702h217q117 0 160 59.5t43 227.5t-43 227.5t-160 59.5l-217 -2v-572z" />
<glyph unicode="Q" horiz-adv-x="1110" d="M96 707q0 211 23.5 348.5t79 225t141.5 123.5t217 36q172 0 270.5 -68.5t143.5 -227t45 -437.5t-45 -437.5t-143.5 -227.5t-270.5 -69q-131 0 -217 36.5t-141.5 124t-79 225t-23.5 348.5zM285 707q0 -220 25.5 -342t83.5 -176t163 -54q103 0 161 54t83.5 176.5 t25.5 341.5t-25.5 341.5t-83.5 176t-161 53.5q-79 0 -130 -28t-83.5 -96t-45.5 -174.5t-13 -272.5zM436 -197l47 109q192 -97 461 -143l-57 -181q-220 53 -451 215z" />
<glyph unicode="R" horiz-adv-x="1028" d="M135 0v1413q153 19 404 19q141 0 221.5 -36t120 -125t39.5 -247q0 -175 -47.5 -261t-161.5 -104v-10q46 -15 86.5 -67.5t58.5 -135.5l105 -446h-191l-94 442q-19 79 -52 113.5t-87 34.5q-165 0 -224 2v-592h-178zM313 745h222q117 2 160.5 58t43.5 211q0 153 -43.5 207.5 t-160.5 54.5q-161 0 -222 -2v-529z" />
<glyph unicode="S" d="M86 1065q0 82 9.5 142t31.5 101.5t50 67t74 39.5t94.5 18.5t119.5 4.5q205 -4 348 -41l-12 -131q-157 10 -328 10q-45 0 -68.5 -1.5t-52 -8t-41 -19.5t-25 -37t-16.5 -60t-4 -89q0 -77 15 -123t42 -69t76 -40l224 -71q129 -38 180 -132.5t51 -265.5q0 -82 -9 -142 t-30.5 -103t-51 -70t-76 -42.5t-99.5 -21.5t-127 -6q-183 0 -361 39l13 133q277 -10 342 -10h10q86 0 127.5 16.5t60.5 64.5t19 147q0 116 -28.5 162t-100.5 71l-232 74q-121 37 -173 132t-52 261z" />
<glyph unicode="T" horiz-adv-x="968" d="M39 1253v160h891v-160h-355v-1253h-182v1253h-354z" />
<glyph unicode="U" horiz-adv-x="1101" d="M127 541v872h180v-872q0 -227 53.5 -316.5t190.5 -89.5q135 0 189.5 89.5t54.5 316.5v872h180v-872q0 -308 -94.5 -438t-321.5 -130q-236 0 -334 130t-98 438z" />
<glyph unicode="V" horiz-adv-x="1015" d="M23 1413h186l248 -1120q18 -74 30 -154h43q7 47 33 156l246 1118h184l-331 -1362q-6 -22 -24.5 -36.5t-41.5 -14.5h-174q-24 0 -42.5 14.5t-23.5 36.5z" />
<glyph unicode="W" horiz-adv-x="1576" d="M51 1413h189l151 -1102q12 -79 21 -174h37q8 88 24 174l154 1043q5 27 22.5 43t44.5 16h189q27 0 44.5 -16t22.5 -43l154 -1043q15 -89 24 -174h37q11 100 21 172l151 1104h191l-209 -1360q-8 -24 -26 -38.5t-42 -14.5h-198q-26 0 -44.5 15t-23.5 40l-156 1063l-24 160 h-33q-4 -25 -11 -79t-11 -81l-156 -1063q-4 -25 -24 -40t-46 -15h-198q-25 0 -43.5 15t-24.5 38z" />
<glyph unicode="X" horiz-adv-x="1019" d="M35 0l307 731l-287 682h191l241 -610h43l242 610h193l-289 -682l309 -731h-194l-263 664h-39l-262 -664h-192z" />
<glyph unicode="Y" horiz-adv-x="954" d="M12 1413h191l219 -594q18 -44 49 -157h14q23 99 47 157l222 594h186l-375 -919v-494h-178v500z" />
<glyph unicode="Z" horiz-adv-x="940" d="M78 0v154l586 1106h-576v153h764v-153l-584 -1106h596v-154h-786z" />
<glyph unicode="[" horiz-adv-x="552" d="M143 -227v1689q0 49 28.5 80t72.5 31h245v-115h-157q-11 0 -19 -10t-8 -23v-1615q0 -13 8 -23t19 -10h157v-115h-245q-47 0 -74 27.5t-27 83.5z" />
<glyph unicode="\" horiz-adv-x="868" d="M39 1413h141l649 -1548h-141z" />
<glyph unicode="]" horiz-adv-x="552" d="M63 -223h156q12 0 19.5 9.5t7.5 23.5v1615q0 14 -7.5 23.5t-19.5 9.5h-156v115h244q45 0 74 -31t29 -80v-1689q0 -49 -29 -80t-74 -31h-244v115z" />
<glyph unicode="^" horiz-adv-x="722" d="M49 799l250 432h125l250 -432l-70 -45l-235 356h-13l-237 -356z" />
<glyph unicode="_" horiz-adv-x="727" d="M0 0h727v-133h-727v133z" />
<glyph unicode="`" horiz-adv-x="538" d="M37 1348l96 133l297 -299l-55 -80z" />
<glyph unicode="a" horiz-adv-x="913" d="M78 260v109q0 117 60.5 181t172.5 64h316v88q-2 95 -35 133.5t-123 38.5q-104 0 -340 -26l-14 129q89 18 202.5 31.5t188.5 13.5q152 0 223.5 -72t71.5 -248v-702h-137l-19 152q-56 -70 -137.5 -120t-179.5 -50q-113 0 -181.5 73t-68.5 205zM254 281q0 -78 26.5 -114 t84.5 -36h6q52 0 119 34q71 36 137 105v213l-283 -2q-51 -3 -70.5 -36t-19.5 -101v-63z" />
<glyph unicode="b" horiz-adv-x="950" d="M117 47v1387h174v-373q0 -116 -17 -215q65 87 142.5 131.5t158.5 44.5q151 0 222 -122t71 -398q0 -134 -17 -227.5t-58 -163.5t-113 -103t-180 -33q-91 0 -200 19.5t-183 52.5zM291 154q87 -31 185 -31h22q104 2 147 85.5t43 293.5q0 213 -34.5 290.5t-141.5 77.5 q-54 0 -103 -33.5t-118 -107.5v-575z" />
<glyph unicode="c" horiz-adv-x="813" d="M82 500q0 288 88 405t301 117q165 0 272 -47l-22 -113q-114 12 -221 12q-134 0 -185 -79t-51 -295q0 -217 51 -297t185 -80q132 0 239 20l17 -116q-122 -52 -285 -52q-214 0 -301.5 118t-87.5 407z" />
<glyph unicode="d" horiz-adv-x="952" d="M84 502q0 192 36 308t102 164t171 48q152 0 273 -86q-7 110 -7 190v308h175v-1434h-138l-12 139q-139 -164 -317 -164q-149 0 -216 130t-67 397zM264 504q0 -147 17 -229.5t51.5 -115t95.5 -32.5q59 0 103.5 27.5t127.5 105.5v557q-132 53 -219 53q-67 0 -103.5 -30 t-54.5 -109t-18 -227z" />
<glyph unicode="e" horiz-adv-x="892" d="M82 502q0 195 40.5 309t122 162.5t216.5 48.5q187 0 272.5 -81t85.5 -245q0 -136 -50.5 -209t-150.5 -73h-354q7 -118 34 -181.5t73 -86.5t127 -23q130 0 284 24l17 -116q-57 -27 -150 -41.5t-174 -14.5q-214 0 -303.5 120t-89.5 407zM262 549h309q72 0 72 133v14v9 q0 91 -37 129q-39 40 -137 40q-116 0 -160 -68.5t-47 -256.5z" />
<glyph unicode="f" horiz-adv-x="643" d="M43 860v127l147 10v179q0 146 56 219t186 73q148 0 236 -14l-13 -129h-161q-73 0 -102.5 -38.5t-29.5 -129.5v-160h246v-137h-246v-860h-172v860h-147z" />
<glyph unicode="g" horiz-adv-x="929" d="M59 -119q0 91 30.5 142t109.5 104q-43 34 -56 95q-6 28 -6 54q0 34 9 68q17 59 55 94q-109 71 -109 267q0 170 79.5 243.5t277.5 73.5q111 0 188 -25h260l-10 -96l-119 -12q35 -66 35 -184q0 -169 -79 -243.5t-275 -74.5q-96 0 -156 14q-14 -31 -14 -65q0 -17 3 -36 q12 -54 60 -64l297 -60q116 -23 165.5 -89.5t49.5 -197.5q0 -170 -87 -236.5t-308 -66.5q-223 0 -311.5 65.5t-88.5 229.5zM229 -100q0 -101 43.5 -133.5t176.5 -32.5q145 0 190 32.5t45 133.5q0 78 -26 105t-111 42l-238 43q-49 -52 -64.5 -91t-15.5 -99zM252 705 q0 -100 44 -142.5t153 -42.5q108 0 150 42.5t42 142.5q0 101 -41.5 142.5t-150.5 41.5t-153 -41.5t-44 -142.5z" />
<glyph unicode="h" horiz-adv-x="964" d="M119 0v1434h174l2 -396q0 -84 -12 -190q189 174 348 174q107 0 163 -69.5t56 -204.5v-748h-172v698q0 100 -21 138t-75 38q-62 0 -126 -36t-163 -117v-721h-174z" />
<glyph unicode="i" horiz-adv-x="428" d="M123 1251v117q0 53 49 53h82q51 0 51 -53v-117q0 -53 -51 -53h-82q-49 0 -49 53zM127 0v997h174v-997h-174z" />
<glyph unicode="j" horiz-adv-x="430" d="M37 -340q48 73 70 146.5t22 168.5v1022h172v-1022q0 -119 -44.5 -221.5t-123.5 -169.5zM125 1251v117q0 53 49 53h84q49 0 49 -53v-117q0 -53 -49 -53h-84q-49 0 -49 53z" />
<glyph unicode="k" horiz-adv-x="862" d="M119 0v1434h174l2 -637q0 -78 -10 -170h88l243 370h197l-235 -366q-21 -33 -62 -68v-4q43 -43 62 -80l262 -479h-195l-270 500h-90q8 -110 8 -160v-340h-174z" />
<glyph unicode="l" horiz-adv-x="505" d="M121 236v1198h174v-1160q0 -133 100 -133h72l22 -133q-24 -12 -73 -19t-86 -7q-97 0 -153 66.5t-56 187.5z" />
<glyph unicode="m" horiz-adv-x="1445" d="M121 0v997h141l10 -153q161 178 320 178q167 0 207 -172q159 172 313 172q106 0 162.5 -70t56.5 -204v-748h-172v698q-2 95 -25 135.5t-83 40.5q-53 0 -97 -30t-145 -121v-723h-166v698q0 95 -26.5 135.5t-84.5 40.5q-35 0 -71 -18t-66 -42.5t-102 -88.5v-725h-172z" />
<glyph unicode="n" horiz-adv-x="966" d="M121 0v997h147l11 -153q187 178 352 178q107 0 163 -69.5t56 -204.5v-748h-172v698q0 99 -20.5 137.5t-73.5 38.5q-61 0 -123 -35t-168 -118l2 -721h-174z" />
<glyph unicode="o" horiz-adv-x="942" d="M82 498q0 286 88.5 405t302.5 119q212 0 299.5 -119t87.5 -405q0 -287 -87.5 -406t-299.5 -119q-214 0 -302.5 119t-88.5 406zM264 498q0 -218 44.5 -297.5t164.5 -79.5t164.5 79.5t44.5 297.5q0 148 -19.5 228t-63.5 114t-126 34t-126 -34t-63.5 -114t-19.5 -228z" />
<glyph unicode="p" horiz-adv-x="970" d="M121 -412v1409h141l14 -155q59 82 152 131t184 49q142 0 207.5 -131.5t65.5 -396.5q0 -281 -75.5 -400t-234.5 -119q-157 0 -288 101q7 -75 7 -149q0 -25 -1 -50v-289h-172zM293 186q125 -46 175 -54q31 -5 60 -5q67 0 104.5 30.5t56 110.5t18.5 226q0 210 -35 293 t-121 83q-60 0 -119.5 -36.5t-138.5 -116.5v-531z" />
<glyph unicode="q" horiz-adv-x="948" d="M82 496q0 136 17 229t59 162.5t115.5 102t183.5 32.5q83 0 191.5 -19t182.5 -51v-1364h-172l-2 342q0 115 13 197q-144 -154 -308 -154q-141 0 -210.5 127t-69.5 396zM262 483q0 -194 32.5 -275t127.5 -81q61 0 113 31t124 100v586q-85 30 -183 30h-23q-73 -2 -113 -36 t-59 -118t-19 -237z" />
<glyph unicode="r" horiz-adv-x="671" d="M121 0v997h135l16 -155q174 180 336 180h39l-20 -164h-54q-57 0 -117 -28.5t-161 -94.5v-735h-174z" />
<glyph unicode="s" horiz-adv-x="845" d="M78 748q0 87 17 141t59 84q42 31 98 41q47 9 119 8h28q197 -4 349 -31l-15 -127q-255 10 -307 10h-62t-47 -4t-33.5 -11.5t-22 -22t-12 -35.5t-3.5 -53q0 -72 24 -98.5t88 -45.5l224 -65q102 -30 146 -90.5t44 -184.5q0 -74 -14 -124.5t-39.5 -82.5t-71.5 -49.5t-99 -24 t-132 -6.5q-173 0 -324 29l12 127q100 -9 213 -9q31 0 62 1q135 0 180 26t45 113q0 67 -27.5 93t-93.5 46l-221 66q-101 29 -142.5 92.5t-41.5 186.5z" />
<glyph unicode="t" horiz-adv-x="649" d="M39 860v127l149 10v295h170v-295h246v-137h-246v-586q0 -72 23 -102.5t80 -30.5h114l21 -133q-77 -26 -197 -26q-104 0 -157.5 69.5t-53.5 200.5v608h-149z" />
<glyph unicode="u" horiz-adv-x="948" d="M115 248v749h174v-700q0 -96 23.5 -134t84.5 -38q55 0 113.5 33t146.5 108v731h170v-997h-137l-14 139q-175 -166 -338 -166q-109 0 -166 70t-57 205z" />
<glyph unicode="v" horiz-adv-x="890" d="M25 997h184l180 -698q23 -81 43 -174h23l45 174l180 698h184l-284 -954q-16 -43 -60 -43h-153q-45 0 -58 43z" />
<glyph unicode="w" horiz-adv-x="1368" d="M35 997h178l149 -735q2 -10 11.5 -65t13.5 -84h21l26 149l105 680q3 25 20.5 40t42.5 15h164q27 0 44.5 -15.5t18.5 -41.5l103 -678q4 -23 14.5 -73t14.5 -76h22q12 103 23 149l147 735h180l-223 -948q-4 -23 -21.5 -36t-41.5 -13h-160q-24 0 -44.5 15.5t-23.5 39.5 l-100 678q-19 122 -27 158h-18l-25 -158l-102 -678q-3 -24 -22 -39.5t-46 -15.5h-155q-53 0 -66 49z" />
<glyph unicode="x" horiz-adv-x="884" d="M31 0l258 514l-240 483h184l193 -411h33l190 411h187l-242 -483l260 -514h-186l-211 451h-29l-211 -451h-186z" />
<glyph unicode="y" horiz-adv-x="886" d="M25 997h186l190 -743q16 -55 29 -121h21q7 23 18.5 65.5t15.5 55.5l189 743h186l-307 -1052q-21 -71 -52 -130.5t-76.5 -113.5t-110.5 -86.5t-144 -36.5l-16 115q94 37 149.5 101t87.5 163l15 43h-39q-22 0 -39 12t-23 33z" />
<glyph unicode="z" horiz-adv-x="849" d="M78 0v141l497 713h-491v143h682v-143l-496 -713h502v-141h-694z" />
<glyph unicode="{" horiz-adv-x="540" d="M72 608v127q55 22 67 34q23 22 25 97v27v407q0 149 73.5 217.5t233.5 55.5v-111q-81 0 -111 -39t-30 -135v-366q1 -126 -30.5 -177t-123.5 -73q93 -35 125.5 -84.5t34.5 -157.5v-485q0 -94 30.5 -133t110.5 -39v-111q-159 -13 -233 55.5t-74 216.5v525q0 31 -4.5 52.5 t-9 34t-21 25.5t-25.5 17.5t-38 19.5z" />
<glyph unicode="|" horiz-adv-x="413" d="M145 -346v1945h123v-1945h-123z" />
<glyph unicode="}" horiz-adv-x="540" d="M63 -227q80 0 111 39t31 133v485q2 108 34.5 157.5t125.5 84.5q-92 22 -123.5 73t-30.5 177v366q0 96 -30.5 135t-110.5 39v111q161 13 235 -56t74 -217v-407q0 -93 18 -117q13 -17 62 -36q9 -4 12 -5v-127q-35 -17 -48 -24t-28.5 -24t-19.5 -39.5t-4 -61.5v-525 q0 -148 -73.5 -216.5t-234.5 -55.5v111z" />
<glyph unicode="~" horiz-adv-x="862" d="M121 467q-13 121 25 185t104 61q59 -4 179 -60t159 -61q41 -6 55 18.5t14 91.5h86q13 -119 -23.5 -182.5t-105.5 -58.5q-65 4 -183 60t-155 61q-41 6 -54 -20t-13 -95h-88z" />
<glyph unicode="&#xa1;" horiz-adv-x="436" d="M131 213l19 365h137l18 -365v-614h-174v614zM135 831v113q0 37 14 51.5t50 14.5h41q35 0 48 -14.5t13 -51.5v-113q0 -36 -13 -49.5t-48 -13.5h-41q-37 0 -50.5 14t-13.5 49z" />
<glyph unicode="&#xa2;" horiz-adv-x="841" d="M80 715q0 287 88.5 405.5t302.5 118.5h12l17 174h88l-15 -180q109 -15 168 -43l-22 -117q-69 10 -160 14l-51 -749q118 0 231 22l15 -116q-103 -44 -256 -51l-19 -193h-86l15 195q-178 15 -253 134t-75 386zM254 715q0 -186 37.5 -269t130.5 -102l47 746 q-121 -8 -168 -89t-47 -286z" />
<glyph unicode="&#xa3;" horiz-adv-x="946" d="M88 795h123l-12 272q-4 95 8.5 162t36.5 107.5t67.5 63.5t91 30.5t117.5 7.5q126 0 307 -21l-8 -143q-109 8 -293 8q-90 0 -123.5 -47t-27.5 -170l14 -270h330l-4 -103h-322l8 -153q6 -142 -21.5 -232t-94.5 -160q43 7 112 7h469v-154h-770v154q80 50 107 145.5t20 239.5 l-6 153h-127z" />
<glyph unicode="&#xa4;" horiz-adv-x="976" d="M100 334l123 149q-63 101 -63 236q0 136 65 244l-121 147l74 78l115 -144q88 78 194 78q111 0 195 -78l117 144l75 -78l-124 -149q65 -108 65 -242q0 -135 -65 -240l124 -151l-77 -76l-115 143q-88 -78 -195 -78q-106 0 -192 76l-117 -141zM262 721q0 -123 66 -209 t159 -86q90 0 156 86.5t66 208.5q0 123 -65.5 210t-156.5 87q-92 0 -158.5 -87t-66.5 -210z" />
<glyph unicode="&#xa5;" horiz-adv-x="1030" d="M51 1413h185l223 -563q6 -15 51 -160h14q29 106 49 158l220 565h186l-322 -751h232v-107h-277l-8 -18v-107h285v-104h-285v-326h-178v326h-274l-2 104h276v107l-8 18h-266l-5 107h226z" />
<glyph unicode="&#xa6;" horiz-adv-x="417" d="M147 -346v819h123v-819h-123zM147 780v819h123v-819h-123z" />
<glyph unicode="&#xa7;" horiz-adv-x="903" d="M98 1178q0 81 21 133t66.5 80t103.5 38.5t145 10.5q198 -4 361 -25l-11 -135q-120 10 -303 10q-44 1 -68.5 0t-53 -7t-42.5 -18t-23.5 -34.5t-10.5 -56.5q-3 -68 23 -110t79 -81l252 -186q81 -52 120.5 -122t41 -158.5t-20.5 -201.5h-125q9 135 -15.5 212.5t-100.5 131.5 l-273 203q-55 42 -87.5 78.5t-55.5 97.5t-23 140zM109 -307l12 137q185 -14 303 -14q45 0 68 1t52.5 7.5t43.5 19.5t24 37t11 60q3 67 -23.5 109.5t-77.5 80.5l-252 184q-119 76 -150.5 194.5t5.5 285.5h125q-8 -137 15.5 -211.5t99.5 -128.5l276 -201q40 -32 66 -58.5 t51 -65t37 -87t12 -109.5q0 -70 -16.5 -119.5t-42.5 -78t-72 -44t-92 -20t-115 -4.5q-176 4 -360 25z" />
<glyph unicode="&#xa8;" horiz-adv-x="686" d="M123 1257v113q0 49 47 49h57q45 0 45 -49v-113q0 -49 -45 -49h-57q-47 0 -47 49zM416 1257v113q0 49 47 49h57q22 0 34.5 -13t12.5 -36v-113q0 -49 -47 -49h-57q-47 0 -47 49z" />
<glyph unicode="&#xa9;" horiz-adv-x="1372" d="M90 707q0 157 47 294t127 233t190 151t232 55q123 0 233 -55t190 -151t126.5 -233t46.5 -294t-46.5 -294t-126.5 -233t-190 -151.5t-233 -55.5q-122 0 -232 55.5t-190 151.5t-127 233t-47 294zM182 707q0 -135 40 -255t108 -203.5t161 -132t195 -48.5t194.5 48.5t160 132 t107.5 203t40 255.5t-40 255.5t-107.5 203t-160 132t-194.5 48.5t-195 -48.5t-161 -132t-108 -203.5t-40 -255zM371 711q0 249 73 350.5t250 101.5q132 0 224 -28l-15 -99q-105 6 -211 6q-107 0 -146.5 -70.5t-39.5 -260.5q0 -189 39.5 -260.5t146.5 -71.5q148 0 232 12 l10 -100q-105 -31 -240 -31q-177 0 -250 101t-73 350z" />
<glyph unicode="&#xaa;" horiz-adv-x="727" d="M96 723v78q0 77 43.5 121.5t118.5 44.5h229v57q0 53 -22 81t-76 28q-69 0 -252 -17l-14 98q193 29 295 29q98 0 148 -50.5t50 -170.5v-465h-104l-14 117q-40 -53 -101 -91t-133 -38q-76 0 -122 46.5t-46 131.5zM223 752q0 -51 20.5 -73t63.5 -22q83 0 180 93v139 l-188 -15q-42 -3 -59 -24t-17 -62v-36z" />
<glyph unicode="&#xab;" horiz-adv-x="819" d="M70 494v41l264 405l90 -61l-197 -365l199 -373l-90 -61zM383 494v41l262 405l90 -61l-194 -365l196 -373l-90 -61z" />
<glyph unicode="&#xac;" horiz-adv-x="972" d="M115 543v133h735v-406h-129v273h-606z" />
<glyph unicode="&#xad;" horiz-adv-x="720" d="M113 451v133h499v-133h-499z" />
<glyph unicode="&#xae;" horiz-adv-x="899" d="M82 983q0 124 49 228.5t134 165.5t186 61q152 0 259 -133t107 -322q0 -190 -107 -323.5t-259 -133.5q-154 0 -261.5 133.5t-107.5 323.5zM139 983q0 -164 91.5 -279.5t220.5 -115.5q126 0 216.5 115.5t90.5 279.5q0 163 -90.5 279t-216.5 116q-129 0 -220.5 -116 t-91.5 -279zM285 719v530q57 6 178 6q93 0 132.5 -33t39.5 -120q0 -62 -21.5 -94t-72.5 -39v-4q20 -3 37 -23t26 -55l47 -168h-84l-41 164q-9 30 -23 42.5t-38 12.5h-103v-219h-77zM362 997h99q54 1 74 22t20 75q0 59 -19.5 77.5t-74.5 18.5h-99v-193z" />
<glyph unicode="&#xaf;" horiz-adv-x="661" d="M94 1247v129h473v-129h-473z" />
<glyph unicode="&#xb0;" horiz-adv-x="589" d="M78 1180q0 106 63.5 183t153.5 77q88 0 153.5 -76.5t65.5 -183.5t-65 -184.5t-154 -77.5t-153 77.5t-64 184.5zM186 1180q0 -65 32 -110.5t77 -45.5t78 45.5t33 110.5q0 66 -32 109.5t-79 43.5q-45 0 -77 -43.5t-32 -109.5z" />
<glyph unicode="&#xb1;" horiz-adv-x="966" d="M115 143v131h737v-131h-737zM115 670v131h303v272h133v-272h301v-131h-303v-275h-131v275h-303z" />
<glyph unicode="&#xb2;" horiz-adv-x="714" d="M94 737v78q0 24 23 57l196 256q130 165 133 265q3 57 -25 73.5t-93 16.5q-103 0 -222 -17l-6 103q118 30 236 30q138 0 198 -39t60 -155q0 -67 -31.5 -136.5t-99.5 -158.5l-199 -254q41 4 111 4l243 -2v-121h-524z" />
<glyph unicode="&#xb3;" horiz-adv-x="684" d="M92 743l6 103q102 -10 209 -10q85 0 118.5 33.5t33.5 119.5q0 66 -27.5 102.5t-103.5 36.5h-142v103h142q39 1 64 13t36 34.5t14.5 43t3.5 50.5q0 67 -28.5 91t-108.5 24q-127 0 -198 -8l-7 100q128 23 228 23q138 0 192 -42.5t54 -154.5q0 -92 -27.5 -147t-97.5 -68v-4 q78 -13 109.5 -65.5t33.5 -147.5q2 -133 -56 -192.5t-198 -59.5q-103 0 -250 22z" />
<glyph unicode="&#xb4;" horiz-adv-x="538" d="M88 1182l297 299l96 -133l-338 -246z" />
<glyph unicode="&#xb6;" horiz-adv-x="980" d="M59 922q0 283 116.5 399.5t393.5 116.5q154 0 258 -35v-1403h-131v1317q-70 6 -133 6v-1753h-127v842q-201 23 -289 141.5t-88 368.5z" />
<glyph unicode="&#xb7;" horiz-adv-x="405" d="M113 471v113q0 36 13.5 50.5t49.5 14.5h55q35 0 49.5 -15t14.5 -50v-113q0 -35 -14.5 -49t-49.5 -14h-55q-36 0 -49.5 13.5t-13.5 49.5z" />
<glyph unicode="&#xb8;" horiz-adv-x="395" d="M53 -469l27 92q60 -3 99.5 37.5t41.5 103.5q2 37 -17.5 51t-80.5 15l18 82q112 11 159 -16.5t44 -116.5q-3 -130 -86 -199t-205 -49z" />
<glyph unicode="&#xb9;" horiz-adv-x="489" d="M49 1497l191 88h133v-848h-133v645q0 53 4 80l-178 -59z" />
<glyph unicode="&#xba;" horiz-adv-x="731" d="M88 891q0 195 62 273.5t215 78.5q154 0 216 -78.5t62 -273.5q0 -192 -62.5 -271t-215.5 -79q-152 0 -214.5 79t-62.5 271zM223 891q0 -138 31 -189t111 -51q82 0 112.5 50.5t30.5 189.5q0 141 -30.5 192.5t-112.5 51.5q-80 0 -111 -52t-31 -192z" />
<glyph unicode="&#xbb;" horiz-adv-x="819" d="M82 141l197 373l-195 365l90 61l264 -405v-41l-266 -414zM393 141l199 373l-197 365l92 61l263 -405v-41l-265 -414z" />
<glyph unicode="&#xbc;" horiz-adv-x="1437" d="M53 1325l191 88h133v-848h-133v645q0 40 6 80l-180 -59zM233 0l721 1413h121l-723 -1413h-119zM793 234.5q-22 35.5 2 97.5l198 516h129l-188 -496q-6 -19 2 -32t27 -13h204v240l25 139h102v-379h80v-96l-80 -10v-201h-127v199h-305q-47 0 -69 35.5z" />
<glyph unicode="&#xbd;" horiz-adv-x="1474" d="M53 1325l191 88h133v-848h-133v645q0 40 6 80l-180 -59zM217 0l721 1413h123l-721 -1413h-123zM872 0v78q0 33 21 57l199 256q130 165 133 264q3 57 -25.5 73.5t-93.5 16.5q-109 0 -221 -16l-6 102q122 31 235 31q138 0 198 -39t60 -155q0 -67 -31.5 -136.5t-99.5 -158.5 l-197 -254q41 4 109 4l246 -2l-2 -121h-525z" />
<glyph unicode="&#xbe;" horiz-adv-x="1589" d="M86 567l6 103q113 -11 211 -11q85 0 117.5 34t32.5 120q0 67 -26.5 103t-102.5 36l-142 4v93l142 6q39 1 64 13t36 34.5t14.5 42.5t3.5 49q0 68 -29 92.5t-108 24.5q-128 0 -199 -8l-6 100q111 20 226 20q138 0 191.5 -42t53.5 -152q0 -93 -27.5 -147.5t-97.5 -67.5v-4 q79 -13 111.5 -65.5t34.5 -147.5q2 -133 -57 -192.5t-199 -59.5q-103 0 -250 22zM397 0l721 1413h123l-723 -1413h-121zM944.5 234.5q-22.5 35.5 1.5 97.5l197 516h129l-187 -496q-6 -19 2 -32t25 -13h207v240l22 139h105v-379h80v-96l-80 -10v-201h-127v199h-305 q-47 0 -69.5 35.5z" />
<glyph unicode="&#xbf;" horiz-adv-x="825" d="M59 -119q0 63 15.5 117.5t41 97t56 83t62 82.5t58 88t45 108t21.5 133h146q2 -105 -23 -192.5t-63 -146.5t-76.5 -110.5t-67 -110t-30.5 -120.5q-3 -100 43.5 -148.5t148.5 -48.5q150 0 326 19l8 -125q-13 -3 -45.5 -10t-45 -9.5t-40.5 -7.5t-48 -7t-51 -4.5t-65.5 -3.5 t-77.5 -1q-170 0 -254 77.5t-84 239.5zM348 844v114q0 35 14.5 49.5t49.5 14.5h41q35 0 49 -14.5t14 -49.5v-114q0 -35 -14 -49.5t-49 -14.5h-41q-35 0 -49.5 14.5t-14.5 49.5z" />
<glyph unicode="&#xc0;" horiz-adv-x="1038" d="M12 0l353 1364q6 23 23.5 36t41.5 13h180q22 0 40 -13t24 -36l352 -1364h-184l-105 442h-436l-104 -442h-185zM217 1737l96 133l297 -299l-55 -80zM338 598h362l-133 561q-2 9 -12.5 51t-13.5 64h-43l-27 -115z" />
<glyph unicode="&#xc1;" horiz-adv-x="1038" d="M12 0l353 1364q6 23 23.5 36t41.5 13h180q22 0 40 -13t24 -36l352 -1364h-184l-105 442h-436l-104 -442h-185zM338 598h362l-133 561q-2 9 -12.5 51t-13.5 64h-43l-27 -115zM403 1571l297 299l97 -133l-338 -246z" />
<glyph unicode="&#xc2;" horiz-adv-x="1038" d="M12 0l353 1364q6 23 23.5 36t41.5 13h180q22 0 40 -13t24 -36l352 -1364h-184l-105 442h-436l-104 -442h-185zM244 1575l215 260h125l217 -260l-60 -76l-213 199h-14l-213 -199zM338 598h362l-133 561q-2 9 -12.5 51t-13.5 64h-43l-27 -115z" />
<glyph unicode="&#xc3;" horiz-adv-x="1038" d="M12 0l353 1364q6 23 23.5 36t41.5 13h180q22 0 40 -13t24 -36l352 -1364h-184l-105 442h-436l-104 -442h-185zM252 1567q-13 117 26 178t105 55q44 -4 87 -29.5t84.5 -51.5t80.5 -31q43 -7 58.5 17t15.5 85h77q13 -113 -24 -174t-107 -55q-60 5 -138.5 58.5t-115.5 57.5 q-42 7 -56.5 -18.5t-14.5 -91.5h-78zM338 598h362l-133 561q-2 9 -12.5 51t-13.5 64h-43l-27 -115z" />
<glyph unicode="&#xc4;" horiz-adv-x="1038" d="M12 0l353 1364q6 23 23.5 36t41.5 13h180q22 0 40 -13t24 -36l352 -1364h-184l-105 442h-436l-104 -442h-185zM299 1620v113q0 49 47 49h57q46 0 46 -49v-113q0 -49 -46 -49h-57q-47 0 -47 49zM338 598h362l-133 561q-2 9 -12.5 51t-13.5 64h-43l-27 -115zM592 1620v113 q0 49 47 49h57q22 0 34.5 -13t12.5 -36v-113q0 -49 -47 -49h-57q-47 0 -47 49z" />
<glyph unicode="&#xc5;" horiz-adv-x="1038" d="M12 0l353 1364q6 23 23.5 36t41.5 13h180q22 0 40 -13t24 -36l352 -1364h-184l-105 442h-436l-104 -442h-185zM338 598h362l-133 561q-2 9 -12.5 51t-13.5 64h-43l-27 -115zM338 1679q0 90 53.5 152.5t128.5 62.5q76 0 130.5 -62.5t54.5 -152.5q0 -91 -54 -153t-131 -62 q-76 0 -129 62t-53 153zM430 1679q0 -57 26 -91t64 -34q39 0 64.5 34t25.5 91q0 56 -25.5 90.5t-64.5 34.5t-64.5 -34.5t-25.5 -90.5z" />
<glyph unicode="&#xc6;" horiz-adv-x="1513" d="M-10 0l538 1192q59 131 144.5 177t259.5 46q317 0 502 -12l-9 -143h-415q-46 0 -74.5 -38.5t-28.5 -103.5v-297l455 -2v-145l-455 -2v-383q0 -71 24 -104t79 -33h415l9 -142q-158 -12 -496 -12q-89 0 -144 69t-55 177v217h-360l-201 -461h-188zM444 610h295v533 q0 43 13.5 85.5t33.5 61.5h-14q-45 -33 -86 -129z" />
<glyph unicode="&#xc7;" horiz-adv-x="952" d="M94 707q0 273 44.5 430.5t143 229t267.5 71.5q109 0 176.5 -9t142.5 -32l-18 -137q-150 18 -301 18q-103 0 -160 -54.5t-81.5 -176t-24.5 -340.5q0 -324 57 -448t209 -124q191 0 323 23l19 -135q-143 -48 -342 -48q-169 0 -267.5 71.5t-143 229.5t-44.5 431zM367 -494 l26 93q60 -3 100 37.5t42 103.5q2 37 -18 50.5t-81 14.5l19 82q112 11 158.5 -16.5t43.5 -116.5q-3 -130 -85.5 -199t-204.5 -49z" />
<glyph unicode="&#xc8;" d="M125 244v925q2 114 65 180t172 66q340 0 490 -12l-6 -141h-453q-48 0 -67 -31.5t-19 -104.5v-307h475v-145h-475v-387q0 -74 19 -105.5t67 -31.5h453l6 -140q-150 -12 -490 -12q-110 0 -172.5 66t-64.5 180zM213 1780l96 133l297 -299l-55 -80z" />
<glyph unicode="&#xc9;" d="M125 244v925q2 114 65 180t172 66q340 0 490 -12l-6 -141h-453q-48 0 -67 -31.5t-19 -104.5v-307h475v-145h-475v-387q0 -74 19 -105.5t67 -31.5h453l6 -140q-150 -12 -490 -12q-110 0 -172.5 66t-64.5 180zM401 1614l297 299l97 -133l-338 -246z" />
<glyph unicode="&#xca;" d="M125 244v925q2 114 65 180t172 66q340 0 490 -12l-6 -141h-453q-48 0 -67 -31.5t-19 -104.5v-307h475v-145h-475v-387q0 -74 19 -105.5t67 -31.5h453l6 -140q-150 -12 -490 -12q-110 0 -172.5 66t-64.5 180zM240 1618l215 260h125l217 -260l-60 -76l-213 199h-14 l-213 -199z" />
<glyph unicode="&#xcb;" d="M125 244v925q2 114 65 180t172 66q340 0 490 -12l-6 -141h-453q-48 0 -67 -31.5t-19 -104.5v-307h475v-145h-475v-387q0 -74 19 -105.5t67 -31.5h453l6 -140q-150 -12 -490 -12q-110 0 -172.5 66t-64.5 180zM297 1663v113q0 49 47 49h57q45 0 45 -49v-113q0 -49 -45 -49 h-57q-47 0 -47 49zM590 1663v113q0 49 47 49h57q22 0 34.5 -13t12.5 -36v-113q0 -49 -47 -49h-57q-47 0 -47 49z" />
<glyph unicode="&#xcc;" horiz-adv-x="450" d="M-80 1737l96 133l297 -299l-55 -80zM135 0v1413h180v-1413h-180z" />
<glyph unicode="&#xcd;" horiz-adv-x="450" d="M109 1571l297 299l96 -133l-338 -246zM135 0v1413h180v-1413h-180z" />
<glyph unicode="&#xce;" horiz-adv-x="450" d="M-53 1575l215 260h125l217 -260l-60 -76l-213 199h-14l-213 -199zM135 0v1413h180v-1413h-180z" />
<glyph unicode="&#xcf;" horiz-adv-x="450" d="M4 1620v113q0 49 47 49h58q45 0 45 -49v-113q0 -49 -45 -49h-58q-47 0 -47 49zM135 0v1413h180v-1413h-180zM297 1620v113q0 49 47 49h57q22 0 35 -13t13 -36v-113q0 -49 -48 -49h-57q-47 0 -47 49z" />
<glyph unicode="&#xd0;" horiz-adv-x="1110" d="M35 700v101h110v612q230 19 414 19q171 0 269 -68t143 -224.5t45 -432.5t-45 -432.5t-143 -224.5t-269 -68q-193 0 -414 18v700h-110zM324 143q140 -4 235 -4q103 0 160.5 54t82.5 175t25 339t-25 339.5t-82.5 175.5t-160.5 54q-95 0 -235 -4v-471h233v-101h-233v-557z " />
<glyph unicode="&#xd1;" horiz-adv-x="1175" d="M135 0v1341q0 72 68 72h182q64 0 78 -57l307 -977q3 -11 28.5 -87.5t37.5 -117.5h26v215v1024h178v-1341q0 -72 -65 -72h-189q-59 0 -73 57l-320 1002q-39 128 -59 186h-21v-186l2 -1059h-180zM322 1567q-13 117 26 178t105 55q44 -4 87 -29.5t84.5 -51.5t80.5 -31 q43 -7 58 16.5t15 85.5h78q13 -113 -24 -174t-107 -55q-60 5 -138.5 58.5t-115.5 57.5q-42 7 -57 -19t-15 -91h-77z" />
<glyph unicode="&#xd2;" horiz-adv-x="1107" d="M94 707q0 168 15.5 289t48.5 207.5t88 138t130 75t179 23.5q172 0 270.5 -68.5t143.5 -227t45 -437.5t-45 -437.5t-143.5 -227.5t-270.5 -69q-173 0 -272 69t-144 227.5t-45 437.5zM248 1737l96 133l297 -299l-55 -80zM283 707q0 -220 25.5 -342t83.5 -176t163 -54 q104 0 162 54t83 176t25 342t-25 342t-83 175.5t-162 53.5q-79 0 -130 -28t-83.5 -96t-45.5 -174.5t-13 -272.5z" />
<glyph unicode="&#xd3;" horiz-adv-x="1107" d="M94 707q0 168 15.5 289t48.5 207.5t88 138t130 75t179 23.5q172 0 270.5 -68.5t143.5 -227t45 -437.5t-45 -437.5t-143.5 -227.5t-270.5 -69q-173 0 -272 69t-144 227.5t-45 437.5zM283 707q0 -220 25.5 -342t83.5 -176t163 -54q104 0 162 54t83 176t25 342t-25 342 t-83 175.5t-162 53.5q-79 0 -130 -28t-83.5 -96t-45.5 -174.5t-13 -272.5zM436 1571l297 299l96 -133l-337 -246z" />
<glyph unicode="&#xd4;" horiz-adv-x="1107" d="M94 707q0 168 15.5 289t48.5 207.5t88 138t130 75t179 23.5q172 0 270.5 -68.5t143.5 -227t45 -437.5t-45 -437.5t-143.5 -227.5t-270.5 -69q-173 0 -272 69t-144 227.5t-45 437.5zM274 1575l215 260h125l217 -260l-59 -76l-213 199h-14l-213 -199zM283 707 q0 -220 25.5 -342t83.5 -176t163 -54q104 0 162 54t83 176t25 342t-25 342t-83 175.5t-162 53.5q-79 0 -130 -28t-83.5 -96t-45.5 -174.5t-13 -272.5z" />
<glyph unicode="&#xd5;" horiz-adv-x="1107" d="M94 707q0 168 15.5 289t48.5 207.5t88 138t130 75t179 23.5q172 0 270.5 -68.5t143.5 -227t45 -437.5t-45 -437.5t-143.5 -227.5t-270.5 -69q-173 0 -272 69t-144 227.5t-45 437.5zM283 707q0 -220 25.5 -342t83.5 -176t163 -54q104 0 162 54t83 176t25 342t-25 342 t-83 175.5t-162 53.5q-79 0 -130 -28t-83.5 -96t-45.5 -174.5t-13 -272.5zM285 1567q-13 117 26 178t105 55q44 -4 87 -29.5t84.5 -51.5t80.5 -31q43 -7 58 16.5t15 85.5h78q13 -113 -24 -174t-107 -55q-60 5 -138.5 58.5t-115.5 57.5q-42 7 -57 -19t-15 -91h-77z" />
<glyph unicode="&#xd6;" horiz-adv-x="1107" d="M94 707q0 168 15.5 289t48.5 207.5t88 138t130 75t179 23.5q172 0 270.5 -68.5t143.5 -227t45 -437.5t-45 -437.5t-143.5 -227.5t-270.5 -69q-173 0 -272 69t-144 227.5t-45 437.5zM283 707q0 -220 25.5 -342t83.5 -176t163 -54q104 0 162 54t83 176t25 342t-25 342 t-83 175.5t-162 53.5q-79 0 -130 -28t-83.5 -96t-45.5 -174.5t-13 -272.5zM330 1620v113q0 49 47 49h57q45 0 45 -49v-113q0 -49 -45 -49h-57q-47 0 -47 49zM623 1620v113q0 49 47 49h57q22 0 34.5 -13t12.5 -36v-113q0 -49 -47 -49h-57q-47 0 -47 49z" />
<glyph unicode="&#xd7;" horiz-adv-x="800" d="M66 317l249 277l-249 274l86 105l254 -281l253 281l84 -103l-249 -276l249 -277l-84 -104l-253 281l-254 -281z" />
<glyph unicode="&#xd8;" horiz-adv-x="1105" d="M94 707q0 168 15.5 289t48.5 207.5t88 138t130 75t179 23.5q129 0 209 -35l49 131l90 -39l-55 -143q88 -76 127 -230t39 -417q0 -279 -45 -437.5t-143.5 -227.5t-270.5 -69q-134 0 -215 37l-49 -129l-90 41l53 141q-85 77 -122.5 231t-37.5 413zM283 707q0 -309 51 -433 l366 965q-56 39 -145 39q-79 0 -130 -28t-83.5 -96t-45.5 -174.5t-13 -272.5zM403 178q54 -43 152 -43q104 0 162 54t83 176t25 342q0 313 -55 440z" />
<glyph unicode="&#xd9;" horiz-adv-x="1101" d="M127 541v872h180v-872q0 -227 53.5 -316.5t190.5 -89.5q135 0 189.5 89.5t54.5 316.5v872h180v-872q0 -308 -94.5 -438t-321.5 -130q-236 0 -334 130t-98 438zM248 1737l96 133l297 -299l-55 -80z" />
<glyph unicode="&#xda;" horiz-adv-x="1101" d="M127 541v872h180v-872q0 -227 53.5 -316.5t190.5 -89.5q135 0 189.5 89.5t54.5 316.5v872h180v-872q0 -308 -94.5 -438t-321.5 -130q-236 0 -334 130t-98 438zM436 1571l297 299l96 -133l-337 -246z" />
<glyph unicode="&#xdb;" horiz-adv-x="1101" d="M127 541v872h180v-872q0 -227 53.5 -316.5t190.5 -89.5q135 0 189.5 89.5t54.5 316.5v872h180v-872q0 -308 -94.5 -438t-321.5 -130q-236 0 -334 130t-98 438zM276 1575l216 260h124l218 -260l-60 -76l-213 199h-14l-213 -199z" />
<glyph unicode="&#xdc;" horiz-adv-x="1101" d="M127 541v872h180v-872q0 -227 53.5 -316.5t190.5 -89.5q135 0 189.5 89.5t54.5 316.5v872h180v-872q0 -308 -94.5 -438t-321.5 -130q-236 0 -334 130t-98 438zM332 1620v113q0 49 47 49h57q45 0 45 -49v-113q0 -49 -45 -49h-57q-47 0 -47 49zM625 1620v113q0 49 47 49h57 q22 0 34.5 -13t12.5 -36v-113q0 -49 -47 -49h-57q-47 0 -47 49z" />
<glyph unicode="&#xdd;" horiz-adv-x="954" d="M12 1413h191l219 -594q18 -44 49 -157h14q23 99 47 157l222 594h186l-375 -919v-494h-178v500zM358 1571l297 299l97 -133l-338 -246z" />
<glyph unicode="&#xde;" horiz-adv-x="985" d="M135 0v1413h180v-254q61 2 224 2q146 0 225 -39t115 -134.5t36 -272.5t-35.5 -273.5t-110.5 -135t-210 -38.5q-113 0 -244 15v-283h-180zM315 424h217q80 0 122 24.5t61.5 86.5t19.5 180q0 119 -19.5 181.5t-61.5 87t-122 24.5l-217 -2v-582z" />
<glyph unicode="&#xdf;" horiz-adv-x="1128" d="M43 858v135l145 4v115q0 94 17 160t45.5 106t79 62t105.5 29.5t136 7.5q214 0 298.5 -58.5t84.5 -212.5q0 -89 -27 -147.5t-108 -122.5q-15 -11 -43.5 -30.5t-38 -27t-26 -23.5t-22 -28t-10.5 -31.5t-5 -43.5q0 -50 23 -76.5t81 -57.5l158 -94q77 -44 108 -100.5 t31 -165.5q0 -86 -17.5 -142t-57.5 -86t-92.5 -41.5t-133.5 -11.5q-132 0 -262 23l10 131q98 -10 215 -10q52 1 79.5 5t50.5 19t31.5 43.5t8.5 77.5q0 64 -22 93t-82 63l-164 96q-131 77 -131 230q0 38 8 70t17.5 52.5t32.5 44.5t36 35t45.5 35t46.5 35q55 42 76 79.5 t21 100.5q0 49 -13.5 75t-60.5 42t-137 16q-88 0 -133 -19.5t-65 -70t-20 -149.5v-1094h-174v858h-145z" />
<glyph unicode="&#xe0;" horiz-adv-x="913" d="M78 260v109q0 117 60.5 181t172.5 64h316v88q-2 95 -35 133.5t-123 38.5q-104 0 -340 -26l-14 129q89 18 202.5 31.5t188.5 13.5q152 0 223.5 -72t71.5 -248v-702h-137l-19 152q-56 -70 -137.5 -120t-179.5 -50q-113 0 -181.5 73t-68.5 205zM141 1370l97 133l297 -299 l-56 -80zM254 281q0 -78 26.5 -114t84.5 -36q54 -2 125 34t137 105v213l-283 -2q-51 -3 -70.5 -36t-19.5 -101v-63z" />
<glyph unicode="&#xe1;" horiz-adv-x="913" d="M78 260v109q0 117 60.5 181t172.5 64h316v88q-2 95 -35 133.5t-123 38.5q-104 0 -340 -26l-14 129q89 18 202.5 31.5t188.5 13.5q152 0 223.5 -72t71.5 -248v-702h-137l-19 152q-56 -70 -137.5 -120t-179.5 -50q-113 0 -181.5 73t-68.5 205zM254 281q0 -78 26.5 -114 t84.5 -36q54 -2 125 34t137 105v213l-283 -2q-51 -3 -70.5 -36t-19.5 -101v-63zM330 1204l297 299l96 -133l-338 -246z" />
<glyph unicode="&#xe2;" horiz-adv-x="913" d="M78 260v109q0 117 60.5 181t172.5 64h316v88q-2 95 -35 133.5t-123 38.5q-104 0 -340 -26l-14 129q89 18 202.5 31.5t188.5 13.5q152 0 223.5 -72t71.5 -248v-702h-137l-19 152q-56 -70 -137.5 -120t-179.5 -50q-113 0 -181.5 73t-68.5 205zM170 1206l215 260h125 l217 -260l-59 -76l-213 199h-15l-213 -199zM254 281q0 -78 26.5 -114t84.5 -36q54 -2 125 34t137 105v213l-283 -2q-51 -3 -70.5 -36t-19.5 -101v-63z" />
<glyph unicode="&#xe3;" horiz-adv-x="913" d="M78 260v109q0 117 60.5 181t172.5 64h316v88q-2 95 -35 133.5t-123 38.5q-104 0 -340 -26l-14 129q89 18 202.5 31.5t188.5 13.5q152 0 223.5 -72t71.5 -248v-702h-137l-19 152q-56 -70 -137.5 -120t-179.5 -50q-113 0 -181.5 73t-68.5 205zM178 1200q-13 117 26 178.5 t105 55.5q44 -4 87 -30t84.5 -52t80.5 -31q43 -7 58.5 17t15.5 85h78q13 -113 -24 -174t-107 -55q-60 5 -138.5 59t-115.5 58q-42 7 -57 -19t-15 -92h-78zM254 281q0 -78 26.5 -114t84.5 -36q54 -2 125 34t137 105v213l-283 -2q-51 -3 -70.5 -36t-19.5 -101v-63z" />
<glyph unicode="&#xe4;" horiz-adv-x="913" d="M78 260v109q0 117 60.5 181t172.5 64h316v88q-2 95 -35 133.5t-123 38.5q-104 0 -340 -26l-14 129q89 18 202.5 31.5t188.5 13.5q152 0 223.5 -72t71.5 -248v-702h-137l-19 152q-56 -70 -137.5 -120t-179.5 -50q-113 0 -181.5 73t-68.5 205zM225 1251v113q0 49 47 49h58 q45 0 45 -49v-113q0 -49 -45 -49h-58q-47 0 -47 49zM254 281q0 -78 26.5 -114t84.5 -36q54 -2 125 34t137 105v213l-283 -2q-51 -3 -70.5 -36t-19.5 -101v-63zM518 1251v113q0 49 47 49h58q22 0 34.5 -13t12.5 -36v-113q0 -49 -47 -49h-58q-47 0 -47 49z" />
<glyph unicode="&#xe5;" horiz-adv-x="913" d="M78 260v109q0 117 60.5 181t172.5 64h316v88q-2 95 -35 133.5t-123 38.5q-104 0 -340 -26l-14 129q89 18 202.5 31.5t188.5 13.5q152 0 223.5 -72t71.5 -248v-702h-137l-19 152q-56 -70 -137.5 -120t-179.5 -50q-113 0 -181.5 73t-68.5 205zM254 281q0 -78 26.5 -114 t84.5 -36q54 -2 125 34t137 105v213l-283 -2q-51 -3 -70.5 -36t-19.5 -101v-63zM264 1311q0 90 53.5 152.5t128.5 62.5q76 0 130.5 -62.5t54.5 -152.5q0 -91 -54 -153t-131 -62q-76 0 -129 62t-53 153zM356 1311q0 -57 26 -91t64 -34q39 0 65 34t26 91q0 56 -26 90.5 t-65 34.5t-64.5 -34.5t-25.5 -90.5z" />
<glyph unicode="&#xe6;" horiz-adv-x="1437" d="M78 260v109q0 117 60.5 181t172.5 64h316v88q0 94 -34 133t-124 39q-104 0 -340 -26l-14 129q89 18 202.5 31.5t188.5 13.5q166 0 235 -86q86 86 263 86q187 0 272.5 -81t83.5 -245q3 -282 -201 -282h-352q7 -118 33.5 -181.5t72.5 -86.5t127 -23q131 0 285 24l16 -116 q-57 -27 -149.5 -41.5t-173.5 -14.5q-141 0 -226 50t-126 161q-50 -79 -138 -141.5t-200 -62.5q-113 0 -181.5 73t-68.5 205zM254 281q0 -78 26.5 -114t84.5 -36q58 -2 132.5 39t141.5 119q-14 100 -14 194l-281 -2q-51 -3 -70.5 -36t-19.5 -101v-63zM805 549h307 q45 0 60.5 38t15.5 109q0 96 -39 137t-137 41q-116 0 -160 -68.5t-47 -256.5z" />
<glyph unicode="&#xe7;" horiz-adv-x="813" d="M82 500q0 288 88 405t301 117q165 0 272 -47l-22 -113q-114 12 -221 12q-134 0 -185 -79t-51 -295q0 -217 51 -297t185 -80q132 0 239 20l17 -116q-122 -52 -285 -52q-214 0 -301.5 118t-87.5 407zM289 -494l26 93q60 -3 100 37.5t42 103.5q2 37 -18 50.5t-81 14.5l19 82 q112 11 159 -16.5t44 -116.5q-3 -130 -86 -199t-205 -49z" />
<glyph unicode="&#xe8;" horiz-adv-x="892" d="M82 502q0 195 40.5 309t122 162.5t216.5 48.5q187 0 272.5 -81t85.5 -245q0 -136 -50.5 -209t-150.5 -73h-354q7 -118 34 -181.5t73 -86.5t127 -23q130 0 284 24l17 -116q-57 -27 -150 -41.5t-174 -14.5q-214 0 -303.5 120t-89.5 407zM150 1370l96 133l297 -299l-56 -80z M262 549h309q76 0 72 147q2 97 -37 137.5t-137 40.5q-116 0 -160 -68.5t-47 -256.5z" />
<glyph unicode="&#xe9;" horiz-adv-x="892" d="M82 502q0 195 40.5 309t122 162.5t216.5 48.5q187 0 272.5 -81t85.5 -245q0 -136 -50.5 -209t-150.5 -73h-354q7 -118 34 -181.5t73 -86.5t127 -23q130 0 284 24l17 -116q-57 -27 -150 -41.5t-174 -14.5q-214 0 -303.5 120t-89.5 407zM262 549h309q76 0 72 147 q2 97 -37 137.5t-137 40.5q-116 0 -160 -68.5t-47 -256.5zM338 1204l297 299l96 -133l-338 -246z" />
<glyph unicode="&#xea;" horiz-adv-x="892" d="M82 502q0 195 40.5 309t122 162.5t216.5 48.5q187 0 272.5 -81t85.5 -245q0 -136 -50.5 -209t-150.5 -73h-354q7 -118 34 -181.5t73 -86.5t127 -23q130 0 284 24l17 -116q-57 -27 -150 -41.5t-174 -14.5q-214 0 -303.5 120t-89.5 407zM178 1206l215 260h125l217 -260 l-59 -76l-213 199h-14l-213 -199zM262 549h309q76 0 72 147q2 97 -37 137.5t-137 40.5q-116 0 -160 -68.5t-47 -256.5z" />
<glyph unicode="&#xeb;" horiz-adv-x="892" d="M82 502q0 195 40.5 309t122 162.5t216.5 48.5q187 0 272.5 -81t85.5 -245q0 -136 -50.5 -209t-150.5 -73h-354q7 -118 34 -181.5t73 -86.5t127 -23q130 0 284 24l17 -116q-57 -27 -150 -41.5t-174 -14.5q-214 0 -303.5 120t-89.5 407zM233 1251v113q0 49 48 49h57 q45 0 45 -49v-113q0 -49 -45 -49h-57q-48 0 -48 49zM262 549h309q76 0 72 147q2 97 -37 137.5t-137 40.5q-116 0 -160 -68.5t-47 -256.5zM526 1251v113q0 49 47 49h58q22 0 34.5 -13t12.5 -36v-113q0 -49 -47 -49h-58q-47 0 -47 49z" />
<glyph unicode="&#xec;" horiz-adv-x="430" d="M-90 1370l96 133l297 -299l-55 -80zM127 0v997h174v-997h-174z" />
<glyph unicode="&#xed;" horiz-adv-x="430" d="M98 1204l297 299l97 -133l-338 -246zM127 0v997h174v-997h-174z" />
<glyph unicode="&#xee;" horiz-adv-x="430" d="M-63 1206l215 260h124l218 -260l-60 -76l-213 199h-14l-213 -199zM127 0v997h174v-997h-174z" />
<glyph unicode="&#xef;" horiz-adv-x="430" d="M-6 1251v113q0 49 47 49h57q45 0 45 -49v-113q0 -49 -45 -49h-57q-47 0 -47 49zM127 0v997h174v-997h-174zM287 1251v113q0 49 47 49h57q22 0 34.5 -13t12.5 -36v-113q0 -49 -47 -49h-57q-47 0 -47 49z" />
<glyph unicode="&#xf0;" horiz-adv-x="929" d="M84 449q0 234 78.5 351.5t261.5 117.5q120 0 213 -66q-28 215 -113 324l-127 -119l-61 78l117 110q-98 65 -254 58l16 127q208 10 346 -84l119 112l61 -80l-104 -98q197 -210 197 -700q0 -114 -10 -202t-36 -166.5t-68 -129.5t-108.5 -80t-154.5 -29q-192 0 -282.5 114 t-90.5 362zM266 449q0 -179 45 -253.5t148 -74.5q43 0 74.5 13t52.5 42t34.5 65t20.5 93t9.5 114.5t2.5 139.5q0 53 -4 143q-86 41 -194 41q-103 0 -146 -80.5t-43 -242.5z" />
<glyph unicode="&#xf1;" horiz-adv-x="966" d="M121 0v997h147l11 -153q187 178 352 178q107 0 163 -69.5t56 -204.5v-748h-172v698q0 99 -20.5 137.5t-73.5 38.5q-61 0 -123 -35t-168 -118l2 -721h-174zM227 1200q-13 117 26 178.5t105 55.5q44 -4 87 -30t84.5 -52t80.5 -31q43 -7 58.5 17t15.5 85h78 q13 -113 -24 -174t-107 -55q-60 5 -138.5 59t-115.5 58q-42 7 -57 -19t-15 -92h-78z" />
<glyph unicode="&#xf2;" horiz-adv-x="942" d="M82 498q0 286 88.5 405t302.5 119q212 0 299.5 -119t87.5 -405q0 -287 -87.5 -406t-299.5 -119q-214 0 -302.5 119t-88.5 406zM166 1370l96 133l297 -299l-55 -80zM264 498q0 -218 44.5 -297.5t164.5 -79.5t164.5 79.5t44.5 297.5q0 148 -19.5 228t-63.5 114t-126 34 t-126 -34t-63.5 -114t-19.5 -228z" />
<glyph unicode="&#xf3;" horiz-adv-x="942" d="M82 498q0 286 88.5 405t302.5 119q212 0 299.5 -119t87.5 -405q0 -287 -87.5 -406t-299.5 -119q-214 0 -302.5 119t-88.5 406zM264 498q0 -218 44.5 -297.5t164.5 -79.5t164.5 79.5t44.5 297.5q0 148 -19.5 228t-63.5 114t-126 34t-126 -34t-63.5 -114t-19.5 -228z M354 1204l297 299l97 -133l-338 -246z" />
<glyph unicode="&#xf4;" horiz-adv-x="942" d="M82 498q0 286 88.5 405t302.5 119q212 0 299.5 -119t87.5 -405q0 -287 -87.5 -406t-299.5 -119q-214 0 -302.5 119t-88.5 406zM193 1206l215 260h124l218 -260l-60 -76l-213 199h-14l-213 -199zM264 498q0 -218 44.5 -297.5t164.5 -79.5t164.5 79.5t44.5 297.5 q0 148 -19.5 228t-63.5 114t-126 34t-126 -34t-63.5 -114t-19.5 -228z" />
<glyph unicode="&#xf5;" horiz-adv-x="942" d="M82 498q0 286 88.5 405t302.5 119q212 0 299.5 -119t87.5 -405q0 -287 -87.5 -406t-299.5 -119q-214 0 -302.5 119t-88.5 406zM203 1200q-13 117 26 178.5t105 55.5q44 -4 87 -30t84.5 -52t80.5 -31q43 -7 58 16.5t15 85.5h78q13 -113 -24 -174t-107 -55q-60 5 -138.5 59 t-115.5 58q-42 7 -56.5 -19t-14.5 -92h-78zM264 498q0 -218 44.5 -297.5t164.5 -79.5t164.5 79.5t44.5 297.5q0 148 -19.5 228t-63.5 114t-126 34t-126 -34t-63.5 -114t-19.5 -228z" />
<glyph unicode="&#xf6;" horiz-adv-x="942" d="M82 498q0 286 88.5 405t302.5 119q212 0 299.5 -119t87.5 -405q0 -287 -87.5 -406t-299.5 -119q-214 0 -302.5 119t-88.5 406zM248 1251v113q0 49 47 49h57q45 0 45 -49v-113q0 -49 -45 -49h-57q-47 0 -47 49zM264 498q0 -218 44.5 -297.5t164.5 -79.5t164.5 79.5 t44.5 297.5q0 148 -19.5 228t-63.5 114t-126 34t-126 -34t-63.5 -114t-19.5 -228zM541 1251v113q0 49 47 49h57q22 0 34.5 -13t12.5 -36v-113q0 -49 -47 -49h-57q-47 0 -47 49z" />
<glyph unicode="&#xf7;" horiz-adv-x="935" d="M100 539v131h736v-131h-736zM381 197v98q0 37 14 51t49 14h43q35 0 48.5 -14t13.5 -51v-98q0 -37 -13.5 -51.5t-48.5 -14.5h-43q-35 0 -49 14.5t-14 51.5zM381 909v101q0 36 14 50.5t49 14.5h43q35 0 48.5 -14.5t13.5 -50.5v-101q0 -35 -13.5 -49t-48.5 -14h-43 q-35 0 -49 14t-14 49z" />
<glyph unicode="&#xf8;" horiz-adv-x="944" d="M82 498q0 286 88.5 405t302.5 119q74 0 143 -16l54 141l75 -39l-51 -135q88 -52 127 -165.5t39 -309.5q0 -287 -87.5 -406t-299.5 -119q-83 0 -151 19l-56 -146l-78 39l54 142q-84 52 -122 165.5t-38 305.5zM264 498q0 -219 45 -297l252 661q-38 12 -88 12 q-82 0 -126 -34t-63.5 -114t-19.5 -228zM377 137q36 -16 96 -16q120 0 164.5 79.5t44.5 297.5q0 230 -51 309z" />
<glyph unicode="&#xf9;" horiz-adv-x="948" d="M115 248v749h174v-700q0 -96 23.5 -134t84.5 -38q55 0 113.5 33t146.5 108v731h170v-997h-137l-14 139q-175 -166 -338 -166q-109 0 -166 70t-57 205zM172 1376l96 133l297 -299l-55 -80z" />
<glyph unicode="&#xfa;" horiz-adv-x="948" d="M115 248v749h174v-700q0 -96 23.5 -134t84.5 -38q55 0 113.5 33t146.5 108v731h170v-997h-137l-14 139q-175 -166 -338 -166q-109 0 -166 70t-57 205zM360 1210l297 299l97 -133l-338 -246z" />
<glyph unicode="&#xfb;" horiz-adv-x="948" d="M115 248v749h174v-700q0 -96 23.5 -134t84.5 -38q55 0 113.5 33t146.5 108v731h170v-997h-137l-14 139q-175 -166 -338 -166q-109 0 -166 70t-57 205zM199 1214l215 261h125l217 -261l-60 -75l-213 198h-14l-213 -198z" />
<glyph unicode="&#xfc;" horiz-adv-x="948" d="M115 248v749h174v-700q0 -96 23.5 -134t84.5 -38q55 0 113.5 33t146.5 108v731h170v-997h-137l-14 139q-175 -166 -338 -166q-109 0 -166 70t-57 205zM256 1260v112q0 49 47 49h57q46 0 46 -49v-112q0 -50 -46 -50h-57q-47 0 -47 50zM549 1260v112q0 49 47 49h57 q22 0 34.5 -13t12.5 -36v-112q0 -50 -47 -50h-57q-47 0 -47 50z" />
<glyph unicode="&#xfd;" horiz-adv-x="886" d="M25 997h186l190 -743q16 -55 29 -121h21q7 23 18.5 65.5t15.5 55.5l189 743h186l-307 -1052q-21 -71 -52 -130.5t-76.5 -113.5t-110.5 -86.5t-144 -36.5l-16 115q94 37 149.5 101t87.5 163l15 43h-39q-22 0 -39 12t-23 33zM330 1204l297 299l96 -133l-338 -246z" />
<glyph unicode="&#xfe;" horiz-adv-x="950" d="M121 -412v1846h174v-349q0 -108 -8 -192q129 129 291 129q157 0 223.5 -124.5t66.5 -405.5q0 -285 -70 -402t-227 -117q-151 0 -282 82q6 -89 6 -178v-289h-174zM295 188q135 -69 219 -69q97 0 136.5 81.5t39.5 293.5q0 144 -18 227t-54.5 117t-97.5 34q-94 0 -225 -137 v-547z" />
<glyph unicode="&#xff;" horiz-adv-x="886" d="M25 997h186l190 -743q16 -55 29 -121h21q7 23 18.5 65.5t15.5 55.5l189 743h186l-307 -1052q-21 -71 -52 -130.5t-76.5 -113.5t-110.5 -86.5t-144 -36.5l-16 115q94 37 149.5 101t87.5 163l15 43h-39q-22 0 -39 12t-23 33zM223 1251v113q0 49 47 49h58q45 0 45 -49v-113 q0 -49 -45 -49h-58q-47 0 -47 49zM516 1251v113q0 49 47 49h58q22 0 34.5 -13t12.5 -36v-113q0 -49 -47 -49h-58q-47 0 -47 49z" />
<glyph unicode="&#x100;" horiz-adv-x="1038" d="M12 0l353 1364q6 23 23.5 36t41.5 13h180q22 0 40 -13t24 -36l352 -1364h-184l-105 442h-436l-104 -442h-185zM285 1610v129h473v-129h-473zM338 598h362l-133 561q-2 9 -12.5 51t-13.5 64h-43l-27 -115z" />
<glyph unicode="&#x101;" horiz-adv-x="913" d="M78 260v109q0 117 60.5 181t172.5 64h316v88q-2 95 -35 133.5t-123 38.5q-104 0 -340 -26l-14 129q89 18 202.5 31.5t188.5 13.5q152 0 223.5 -72t71.5 -248v-702h-137l-19 152q-56 -70 -137.5 -120t-179.5 -50q-113 0 -181.5 73t-68.5 205zM211 1241v129h473v-129h-473z M254 281q0 -78 26.5 -114t84.5 -36q54 -2 125 34t137 105v213l-283 -2q-51 -3 -70.5 -36t-19.5 -101v-63z" />
<glyph unicode="&#x102;" horiz-adv-x="1038" d="M12 0l353 1364q6 23 23.5 36t41.5 13h180q22 0 40 -13t24 -36l352 -1364h-184l-105 442h-436l-104 -442h-185zM264 1796l86 12q0 -73 43 -113t127 -40q81 0 124.5 40t43.5 113l86 -12q8 -121 -61 -195.5t-193 -74.5q-125 0 -194.5 74.5t-61.5 195.5zM338 598h362 l-133 561q-2 9 -12.5 51t-13.5 64h-43l-27 -115z" />
<glyph unicode="&#x103;" horiz-adv-x="913" d="M78 260v109q0 117 60.5 181t172.5 64h316v88q-2 95 -35 133.5t-123 38.5q-104 0 -340 -26l-14 129q89 18 202.5 31.5t188.5 13.5q152 0 223.5 -72t71.5 -248v-702h-137l-19 152q-56 -70 -137.5 -120t-179.5 -50q-113 0 -181.5 73t-68.5 205zM190 1430l86 12 q0 -73 43.5 -113.5t126.5 -40.5q81 0 124.5 40.5t43.5 113.5l86 -12q8 -121 -61.5 -196t-192.5 -75q-125 0 -194.5 75t-61.5 196zM254 281q0 -78 26.5 -114t84.5 -36q54 -2 125 34t137 105v213l-283 -2q-51 -3 -70.5 -36t-19.5 -101v-63z" />
<glyph unicode="&#x104;" horiz-adv-x="1038" d="M12 0l353 1364q6 23 23.5 36t41.5 13h180q22 0 40 -13t24 -36l352 -1364q-82 -127 -115 -233q-24 -74 11.5 -98.5t109.5 7.5l21 -71q-111 -53 -175.5 -40t-86 67t-0.5 128q37 125 157 240h-106l-105 442h-436l-104 -442h-185zM338 598h362l-133 561q-2 9 -12.5 51 t-13.5 64h-43l-27 -115z" />
<glyph unicode="&#x105;" horiz-adv-x="913" d="M78 260v109q0 117 60.5 181t172.5 64h316v88q-2 95 -35 133.5t-123 38.5q-104 0 -340 -26l-14 129q89 18 202.5 31.5t188.5 13.5q152 0 223.5 -72t71.5 -248v-702q-82 -127 -115 -233q-24 -74 11.5 -98.5t109.5 7.5l20 -71q-111 -53 -175.5 -40t-86 67t-0.5 128 q36 124 158 240h-59l-19 152q-56 -70 -137.5 -120t-179.5 -50q-113 0 -181.5 73t-68.5 205zM254 281q0 -78 26.5 -114t84.5 -36q54 -2 125 34t137 105v213l-283 -2q-51 -3 -70.5 -36t-19.5 -101v-63z" />
<glyph unicode="&#x106;" horiz-adv-x="952" d="M94 707q0 273 44.5 430.5t143 229t267.5 71.5q109 0 176.5 -9t142.5 -32l-18 -137q-150 18 -301 18q-103 0 -160 -54.5t-81.5 -176t-24.5 -340.5q0 -324 57 -448t209 -124q191 0 323 23l19 -135q-143 -48 -342 -48q-169 0 -267.5 71.5t-143 229.5t-44.5 431zM420 1571 l297 299l96 -133l-338 -246z" />
<glyph unicode="&#x107;" horiz-adv-x="813" d="M82 500q0 288 88 405t301 117q165 0 272 -47l-22 -113q-114 12 -221 12q-134 0 -185 -79t-51 -295q0 -217 51 -297t185 -80q132 0 239 20l17 -116q-122 -52 -285 -52q-214 0 -301.5 118t-87.5 407zM324 1204l297 299l96 -133l-338 -246z" />
<glyph unicode="&#x10a;" horiz-adv-x="952" d="M94 707q0 273 44.5 430.5t143 229t267.5 71.5q109 0 176.5 -9t142.5 -32l-18 -137q-150 18 -301 18q-103 0 -160 -54.5t-81.5 -176t-24.5 -340.5q0 -324 57 -448t209 -124q191 0 323 23l19 -135q-143 -48 -342 -48q-169 0 -267.5 71.5t-143 229.5t-44.5 431zM459 1608 v116q0 52 49 52h57q49 0 49 -52v-116q0 -54 -49 -54h-57q-49 0 -49 54z" />
<glyph unicode="&#x10b;" horiz-adv-x="813" d="M82 500q0 288 88 405t301 117q165 0 272 -47l-22 -113q-114 12 -221 12q-134 0 -185 -79t-51 -295q0 -217 51 -297t185 -80q132 0 239 20l17 -116q-122 -52 -285 -52q-214 0 -301.5 118t-87.5 407zM362 1239v117q0 51 50 51h57q49 0 49 -51v-117q0 -53 -49 -53h-57 q-50 0 -50 53z" />
<glyph unicode="&#x10c;" horiz-adv-x="952" d="M94 707q0 273 44.5 430.5t143 229t267.5 71.5q109 0 176.5 -9t142.5 -32l-18 -137q-150 18 -301 18q-103 0 -160 -54.5t-81.5 -176t-24.5 -340.5q0 -324 57 -448t209 -124q191 0 323 23l19 -135q-143 -48 -342 -48q-169 0 -267.5 71.5t-143 229.5t-44.5 431zM262 1784 l55 74l215 -179h15l213 179l59 -74l-239 -262h-80z" />
<glyph unicode="&#x10d;" horiz-adv-x="813" d="M82 500q0 288 88 405t301 117q165 0 272 -47l-22 -113q-114 12 -221 12q-134 0 -185 -79t-51 -295q0 -217 51 -297t185 -80q132 0 239 20l17 -116q-122 -52 -285 -52q-214 0 -301.5 118t-87.5 407zM164 1415l55 74l215 -178h15l213 178l59 -74l-240 -262h-80z" />
<glyph unicode="&#x10e;" horiz-adv-x="1101" d="M135 0v1413q234 19 416 19q171 0 269 -68t143 -224.5t45 -432.5t-45 -432.5t-143 -224.5t-269 -68q-195 0 -416 18zM285 1784l55 74l215 -179h14l213 179l60 -74l-240 -262h-80zM315 143q136 -4 236 -4q102 0 159 54t82 175t25 339t-25 339.5t-82 175.5t-159 54 q-96 0 -236 -4v-1129z" />
<glyph unicode="&#x10f;" horiz-adv-x="952" d="M84 502q0 192 36 308t102 164t171 48q152 0 273 -86q-7 110 -7 190v308h175v-1434h-138l-12 139q-139 -164 -317 -164q-149 0 -216 130t-67 397zM264 504q0 -147 17 -229.5t51.5 -115t95.5 -32.5q59 0 103.5 27.5t127.5 105.5v557q-132 53 -219 53q-67 0 -103.5 -30 t-54.5 -109t-18 -227zM909 1292v97q1 28 15 39.5t45 11.5h45q32 0 43.5 -11.5t9.5 -39.5l2 -105q-3 -133 -59 -252l-76 21q18 99 18 194q-21 0 -32.5 12t-10.5 33z" />
<glyph unicode="&#x110;" horiz-adv-x="1110" d="M35 700v101h110v612q230 19 414 19q171 0 269 -68t143 -224.5t45 -432.5t-45 -432.5t-143 -224.5t-269 -68q-193 0 -414 18v700h-110zM324 143q140 -4 235 -4q103 0 160.5 54t82.5 175t25 339t-25 339.5t-82.5 175.5t-160.5 54q-95 0 -235 -4v-471h233v-101h-233v-557z " />
<glyph unicode="&#x111;" horiz-adv-x="946" d="M84 502q0 192 36 308t102 164t171 48q152 0 273 -86q-7 110 -7 190v48h-241v100h241v160h175v-160h108v-100h-108v-1174h-138l-12 139q-139 -164 -317 -164q-149 0 -216 130t-67 397zM264 504q0 -147 17 -229.5t51.5 -115t95.5 -32.5q59 0 103.5 27.5t127.5 105.5v557 q-132 53 -219 53q-67 0 -103.5 -30t-54.5 -109t-18 -227z" />
<glyph unicode="&#x112;" d="M125 244v925q2 114 65 180t172 66q340 0 490 -12l-6 -141h-453q-48 0 -67 -31.5t-19 -104.5v-307h475v-145h-475v-387q0 -74 19 -105.5t67 -31.5h453l6 -140q-150 -12 -490 -12q-110 0 -172.5 66t-64.5 180zM281 1651v129h473v-129h-473z" />
<glyph unicode="&#x113;" horiz-adv-x="892" d="M82 502q0 195 40.5 309t122 162.5t216.5 48.5q187 0 272.5 -81t85.5 -245q0 -136 -50.5 -209t-150.5 -73h-354q7 -118 34 -181.5t73 -86.5t127 -23q130 0 284 24l17 -116q-57 -27 -150 -41.5t-174 -14.5q-214 0 -303.5 120t-89.5 407zM219 1241v129h473v-129h-473z M262 549h309q76 0 72 147q2 97 -37 137.5t-137 40.5q-116 0 -160 -68.5t-47 -256.5z" />
<glyph unicode="&#x116;" d="M125 244v925q2 114 65 180t172 66q340 0 490 -12l-6 -141h-453q-48 0 -67 -31.5t-19 -104.5v-307h475v-145h-475v-387q0 -74 19 -105.5t67 -31.5h453l6 -140q-150 -12 -490 -12q-110 0 -172.5 66t-64.5 180zM440 1649v116q0 52 49 52h58q49 0 49 -52v-116q0 -54 -49 -54 h-58q-49 0 -49 54z" />
<glyph unicode="&#x117;" horiz-adv-x="892" d="M82 502q0 195 40.5 309t122 162.5t216.5 48.5q187 0 272.5 -81t85.5 -245q0 -136 -50.5 -209t-150.5 -73h-354q7 -118 34 -181.5t73 -86.5t127 -23q130 0 284 24l17 -116q-57 -27 -150 -41.5t-174 -14.5q-214 0 -303.5 120t-89.5 407zM262 549h309q76 0 72 147 q2 97 -37 137.5t-137 40.5q-116 0 -160 -68.5t-47 -256.5zM377 1239v117q0 51 49 51h57q49 0 49 -51v-117q0 -53 -49 -53h-57q-49 0 -49 53z" />
<glyph unicode="&#x118;" d="M125 244v925q2 114 65 180t172 66q340 0 490 -12l-6 -141h-453q-48 0 -67 -31.5t-19 -104.5v-307h475v-145h-475v-387q0 -74 19 -105.5t67 -31.5h453l6 -140q-82 -127 -115 -233q-24 -74 11.5 -98t109.5 8l21 -72q-111 -53 -175.5 -39.5t-86.5 67.5t-1 128 q36 120 152 233q-129 -6 -406 -6q-110 0 -172.5 66t-64.5 180z" />
<glyph unicode="&#x119;" horiz-adv-x="892" d="M82 502q0 195 40.5 309t122 162.5t216.5 48.5q187 0 272.5 -81t85.5 -245q0 -136 -50.5 -209t-150.5 -73h-354q7 -118 34 -181.5t73 -86.5t127 -23q130 0 284 24l17 -116q-81 -126 -115 -234q-24 -74 11.5 -98t109.5 8l20 -72q-111 -53 -175.5 -39.5t-86 67.5t-0.5 128 q35 110 125 205q-108 -21 -213 -21q-214 0 -303.5 120t-89.5 407zM262 549h309q76 0 72 147q2 97 -37 137.5t-137 40.5q-116 0 -160 -68.5t-47 -256.5z" />
<glyph unicode="&#x11a;" d="M125 244v925q2 114 65 180t172 66q340 0 490 -12l-6 -141h-453q-48 0 -67 -31.5t-19 -104.5v-307h475v-145h-475v-387q0 -74 19 -105.5t67 -31.5h453l6 -140q-150 -12 -490 -12q-110 0 -172.5 66t-64.5 180zM242 1827l55 74l215 -179h14l213 179l60 -74l-240 -262h-80z " />
<glyph unicode="&#x11b;" horiz-adv-x="892" d="M82 502q0 195 40.5 309t122 162.5t216.5 48.5q187 0 272.5 -81t85.5 -245q0 -136 -50.5 -209t-150.5 -73h-354q7 -118 34 -181.5t73 -86.5t127 -23q130 0 284 24l17 -116q-57 -27 -150 -41.5t-174 -14.5q-214 0 -303.5 120t-89.5 407zM180 1415l56 74l215 -178h14 l213 178l59 -74l-239 -262h-80zM262 549h309q76 0 72 147q2 97 -37 137.5t-137 40.5q-116 0 -160 -68.5t-47 -256.5z" />
<glyph unicode="&#x11e;" horiz-adv-x="1040" d="M96 711q0 283 48 440t152.5 223t291.5 66q179 0 315 -43l-16 -135q-139 16 -289 16q-74 0 -122.5 -13.5t-88 -48.5t-60 -101t-31.5 -166.5t-11 -250.5q0 -315 47.5 -441t169.5 -126q70 0 129 34t131 99v553h174v-817h-131l-19 141q-55 -70 -141 -119t-194 -49 q-188 0 -271.5 177t-83.5 561zM293 1796l86 12q0 -73 43 -113t127 -40q81 0 124.5 40t43.5 113l86 -12q8 -121 -61 -195.5t-193 -74.5q-125 0 -194.5 74.5t-61.5 195.5z" />
<glyph unicode="&#x11f;" horiz-adv-x="929" d="M59 -119q0 91 30.5 142t109.5 104q-43 34 -56 95.5t3.5 121t54.5 94.5q-109 71 -109 267q0 170 79.5 243.5t277.5 73.5q111 0 188 -25h260l-10 -96l-119 -12q35 -66 35 -184q0 -169 -79 -243.5t-275 -74.5q-96 0 -156 14q-22 -47 -10.5 -101t59.5 -64l297 -60 q116 -23 165.5 -89.5t49.5 -197.5q0 -170 -87 -236.5t-308 -66.5q-223 0 -311.5 65.5t-88.5 229.5zM197 1430l86 12q0 -73 43.5 -113.5t126.5 -40.5q81 0 124.5 40.5t43.5 113.5l86 -12q8 -121 -61.5 -196t-192.5 -75q-125 0 -194.5 75t-61.5 196zM229 -100 q0 -101 43.5 -133.5t176.5 -32.5q145 0 190 32.5t45 133.5q0 78 -26 105t-111 42l-238 43q-49 -52 -64.5 -91t-15.5 -99zM252 705q0 -100 44 -142.5t153 -42.5q108 0 150 42.5t42 142.5q0 101 -41.5 142.5t-150.5 41.5t-153 -41.5t-44 -142.5z" />
<glyph unicode="&#x120;" horiz-adv-x="1040" d="M96 711q0 283 48 440t152.5 223t291.5 66q179 0 315 -43l-16 -135q-139 16 -289 16q-74 0 -122.5 -13.5t-88 -48.5t-60 -101t-31.5 -166.5t-11 -250.5q0 -315 47.5 -441t169.5 -126q70 0 129 34t131 99v553h174v-817h-131l-19 141q-55 -70 -141 -119t-194 -49 q-188 0 -271.5 177t-83.5 561zM473 1608v116q0 52 49 52h58q49 0 49 -52v-116q0 -54 -49 -54h-58q-49 0 -49 54z" />
<glyph unicode="&#x121;" horiz-adv-x="929" d="M59 -119q0 91 30.5 142t109.5 104q-43 34 -56 95.5t3.5 121t54.5 94.5q-109 71 -109 267q0 170 79.5 243.5t277.5 73.5q111 0 188 -25h260l-10 -96l-119 -12q35 -66 35 -184q0 -169 -79 -243.5t-275 -74.5q-96 0 -156 14q-22 -47 -10.5 -101t59.5 -64l297 -60 q116 -23 165.5 -89.5t49.5 -197.5q0 -170 -87 -236.5t-308 -66.5q-223 0 -311.5 65.5t-88.5 229.5zM229 -100q0 -101 43.5 -133.5t176.5 -32.5q145 0 190 32.5t45 133.5q0 78 -26 105t-111 42l-238 43q-49 -52 -64.5 -91t-15.5 -99zM252 705q0 -100 44 -142.5t153 -42.5 q108 0 150 42.5t42 142.5q0 101 -41.5 142.5t-150.5 41.5t-153 -41.5t-44 -142.5zM375 1239v117q0 51 49 51h57q49 0 49 -51v-117q0 -53 -49 -53h-57q-49 0 -49 53z" />
<glyph unicode="&#x122;" horiz-adv-x="1040" d="M96 711q0 283 48 440t152.5 223t291.5 66q179 0 315 -43l-16 -135q-139 16 -289 16q-74 0 -122.5 -13.5t-88 -48.5t-60 -101t-31.5 -166.5t-11 -250.5q0 -315 47.5 -441t169.5 -126q70 0 129 34t131 99v553h174v-817h-131l-19 141q-55 -70 -141 -119t-194 -49 q-188 0 -271.5 177t-83.5 561zM461 -176q1 30 15.5 42.5t45.5 12.5h45q32 0 44 -12t12 -43v-113q-3 -147 -60 -270l-76 20q19 114 19 211q-45 0 -45 49v103z" />
<glyph unicode="&#x123;" horiz-adv-x="929" d="M59 -119q0 91 30.5 142t109.5 104q-43 34 -56 95.5t3.5 121t54.5 94.5q-109 71 -109 267q0 170 79.5 243.5t277.5 73.5q111 0 188 -25h260l-10 -96l-119 -12q35 -66 35 -184q0 -169 -79 -243.5t-275 -74.5q-96 0 -156 14q-22 -47 -10.5 -101t59.5 -64l297 -60 q116 -23 165.5 -89.5t49.5 -197.5q0 -170 -87 -236.5t-308 -66.5q-223 0 -311.5 65.5t-88.5 229.5zM229 -100q0 -101 43.5 -133.5t176.5 -32.5q145 0 190 32.5t45 133.5q0 78 -26 105t-111 42l-238 43q-49 -52 -64.5 -91t-15.5 -99zM252 705q0 -100 44 -142.5t153 -42.5 q108 0 150 42.5t42 142.5q0 101 -41.5 142.5t-150.5 41.5t-153 -41.5t-44 -142.5zM395 1198v113q3 147 60 270l75 -20q-18 -108 -18 -211q45 0 45 -50v-102q-1 -30 -15.5 -42.5t-45.5 -12.5h-45q-32 0 -44 12t-12 43z" />
<glyph unicode="&#x126;" horiz-adv-x="1122" d="M29 1063v96h112v254h181v-254h481v254h180v-254h107v-96h-107v-1063h-180v678h-481v-678h-181v1063h-112zM322 834h481v229h-481v-229z" />
<glyph unicode="&#x127;" horiz-adv-x="972" d="M6 1174v100h119v160h174v-160h231v-100h-229v-136q0 -84 -12 -190q189 174 348 174q107 0 163 -69.5t56 -204.5v-748h-172v698q0 100 -21 138t-75 38q-62 0 -126 -36t-163 -117v-721h-174v1174h-119z" />
<glyph unicode="&#x12a;" horiz-adv-x="450" d="M-10 1610v129h473v-129h-473zM135 0v1413h180v-1413h-180z" />
<glyph unicode="&#x12b;" horiz-adv-x="430" d="M-20 1241v129h473v-129h-473zM127 0v997h174v-997h-174z" />
<glyph unicode="&#x12e;" horiz-adv-x="450" d="M59 -240q36 124 158 240h-82v1413h180v-1413h-20q-82 -127 -115 -233q-24 -74 11.5 -98.5t109.5 7.5l21 -71q-111 -53 -175.5 -40t-86.5 67t-1 128z" />
<glyph unicode="&#x12f;" horiz-adv-x="430" d="M49 -240q36 124 158 240h-80v997h174v-997h-16q-82 -127 -115 -233q-24 -74 11.5 -98.5t109.5 7.5l20 -71q-111 -53 -175.5 -40t-86 67t-0.5 128zM137 1239v117q0 51 49 51h58q49 0 49 -51v-117q0 -53 -49 -53h-58q-49 0 -49 53z" />
<glyph unicode="&#x130;" horiz-adv-x="450" d="M135 0v1413h180v-1413h-180zM147 1608v116q0 25 13.5 38.5t36.5 13.5h57q49 0 49 -52v-116q0 -54 -49 -54h-57q-50 0 -50 54z" />
<glyph unicode="&#x131;" horiz-adv-x="430" d="M127 0v997h174v-997h-174z" />
<glyph unicode="&#x132;" horiz-adv-x="1021" d="M135 0v1413h180v-1413h-180zM496 8l20 127h78q119 0 119 156v1122h178v-1116q0 -154 -58.5 -234.5t-168.5 -80.5q-38 0 -89 7.5t-79 18.5z" />
<glyph unicode="&#x133;" horiz-adv-x="858" d="M123 1251v117q0 53 49 53h82q51 0 51 -53v-117q0 -53 -51 -53h-82q-49 0 -49 53zM127 0v997h174v-997h-174zM465 -340q48 73 70 146.5t22 168.5v1022h172v-1022q0 -119 -44.5 -221.5t-123.5 -169.5zM553 1251v117q0 53 49 53h84q49 0 49 -53v-117q0 -53 -49 -53h-84 q-49 0 -49 53z" />
<glyph unicode="&#x136;" horiz-adv-x="993" d="M135 0v1413h180v-442q0 -83 -12 -162h113l338 604h194l-330 -584q-20 -44 -71 -92v-4q57 -51 84 -100l338 -633h-199l-352 664h-115q12 -76 12 -150v-514h-180zM442 -176q1 30 16 42.5t46 12.5h45q32 0 43.5 -12t11.5 -43v-113q-3 -149 -59 -270l-76 20q18 108 18 211 q-45 0 -45 49v103z" />
<glyph unicode="&#x137;" horiz-adv-x="862" d="M119 0v1434h174l2 -637q0 -78 -10 -170h88l243 370h197l-235 -366q-21 -33 -62 -68v-4q43 -43 62 -80l262 -479h-195l-270 500h-90q8 -110 8 -160v-340h-174zM383 -176q1 30 15.5 42.5t45.5 12.5h45q32 0 44 -12t12 -43v-113q-3 -147 -60 -270l-75 20q18 108 18 211 q-45 0 -45 49v103z" />
<glyph unicode="&#x139;" horiz-adv-x="851" d="M106 1571l297 299l97 -133l-338 -246zM131 264v1149h180v-1126q0 -72 22.5 -103.5t78.5 -31.5h399l10 -140q-143 -14 -438 -14q-252 0 -252 266z" />
<glyph unicode="&#x13a;" horiz-adv-x="505" d="M94 1616l297 299l96 -133l-337 -246zM121 236v1198h174v-1160q0 -133 100 -133h72l22 -133q-24 -12 -73 -19t-86 -7q-97 0 -153 66.5t-56 187.5z" />
<glyph unicode="&#x13b;" horiz-adv-x="851" d="M131 264v1149h180v-1126q0 -72 22.5 -103.5t78.5 -31.5h399l10 -140q-143 -14 -438 -14q-252 0 -252 266zM403 -180q1 30 16 42.5t46 12.5h45q32 0 43.5 -12t11.5 -43v-113q-3 -149 -59 -270l-76 20q19 114 19 211q-46 0 -46 49v103z" />
<glyph unicode="&#x13c;" horiz-adv-x="505" d="M121 236v1198h174v-1160q0 -133 100 -133h72l22 -133q-24 -12 -73 -19t-86 -7q-97 0 -153 66.5t-56 187.5zM207 -180q1 30 15.5 42.5t45.5 12.5h45q32 0 44 -12t12 -43v-113q-3 -147 -60 -270l-76 20q19 114 19 211q-45 0 -45 49v103z" />
<glyph unicode="&#x13d;" horiz-adv-x="851" d="M131 264v1149h180v-1126q0 -72 22.5 -103.5t78.5 -31.5h399l10 -140q-143 -14 -438 -14q-252 0 -252 266zM487 1257v103q1 30 16 42.5t46 12.5h45q32 0 43.5 -12t11.5 -43v-113q-3 -149 -59 -270l-76 20q18 108 18 211q-45 0 -45 49z" />
<glyph unicode="&#x13e;" horiz-adv-x="505" d="M121 236v1198h174v-1160q0 -133 100 -133h72l22 -133q-24 -12 -73 -19t-86 -7q-97 0 -153 66.5t-56 187.5zM373 1292v97q2 28 15 39.5t44 11.5h45q32 0 43.5 -11.5t9.5 -39.5l2 -105q-3 -133 -59 -252l-76 21q19 105 19 194q-21 0 -32.5 12t-10.5 33z" />
<glyph unicode="&#x13f;" horiz-adv-x="851" d="M131 264v1149h180v-1126q0 -72 22.5 -103.5t78.5 -31.5h399l10 -140q-143 -14 -438 -14q-252 0 -252 266zM578 745v117q0 53 49 53h57q49 0 49 -53v-117q0 -51 -49 -51h-57q-49 0 -49 51z" />
<glyph unicode="&#x140;" horiz-adv-x="546" d="M121 236v1198h174v-1160q0 -133 100 -133h72l22 -133q-24 -12 -73 -19t-86 -7q-97 0 -153 66.5t-56 187.5zM401 739v117q0 53 50 53h57q49 0 49 -53v-117q0 -53 -49 -53h-57q-50 0 -50 53z" />
<glyph unicode="&#x141;" horiz-adv-x="862" d="M29 625v112l112 56v620h181v-532l184 90v-111l-184 -90v-483q0 -72 22 -103.5t78 -31.5h401l8 -140q-141 -14 -436 -14q-254 0 -254 266v416z" />
<glyph unicode="&#x142;" horiz-adv-x="555" d="M31 616v113l127 64v641h174v-557l172 86v-113l-174 -86v-490q0 -133 102 -133h72l20 -133q-51 -26 -159 -26q-95 0 -151 66.5t-56 187.5v444z" />
<glyph unicode="&#x143;" horiz-adv-x="1175" d="M135 0v1341q0 72 68 72h182q64 0 78 -57l307 -977q3 -11 28.5 -87.5t37.5 -117.5h26v215v1024h178v-1341q0 -72 -65 -72h-189q-59 0 -73 57l-320 1002q-39 128 -59 186h-21v-186l2 -1059h-180zM473 1571l297 299l96 -133l-338 -246z" />
<glyph unicode="&#x144;" horiz-adv-x="966" d="M121 0v997h147l11 -153q187 178 352 178q107 0 163 -69.5t56 -204.5v-748h-172v698q0 99 -20.5 137.5t-73.5 38.5q-61 0 -123 -35t-168 -118l2 -721h-174zM379 1204l297 299l96 -133l-338 -246z" />
<glyph unicode="&#x145;" horiz-adv-x="1175" d="M135 0v1341q0 72 68 72h182q64 0 78 -57l307 -977q3 -11 28.5 -87.5t37.5 -117.5h26v215v1024h178v-1341q0 -72 -65 -72h-189q-59 0 -73 57l-320 1002q-39 128 -59 186h-21v-186l2 -1059h-180zM483 -176q1 30 16 42.5t46 12.5h45q32 0 43.5 -12t11.5 -43v-113 q-3 -149 -59 -270l-76 20q18 108 18 211q-45 0 -45 49v103z" />
<glyph unicode="&#x146;" horiz-adv-x="966" d="M121 0v997h147l11 -153q187 178 352 178q107 0 163 -69.5t56 -204.5v-748h-172v698q0 99 -20.5 137.5t-73.5 38.5q-61 0 -123 -35t-168 -118l2 -721h-174zM399 -176q3 31 17 44t45 13h45q32 0 43.5 -13t11.5 -44v-113q-3 -149 -59 -270l-76 20q18 108 18 211 q-45 0 -45 49v103z" />
<glyph unicode="&#x147;" horiz-adv-x="1175" d="M135 0v1341q0 72 68 72h182q64 0 78 -57l307 -977q3 -11 28.5 -87.5t37.5 -117.5h26v215v1024h178v-1341q0 -72 -65 -72h-189q-59 0 -73 57l-320 1002q-39 128 -59 186h-21v-186l2 -1059h-180zM315 1784l56 74l215 -179h14l213 179l59 -74l-239 -262h-80z" />
<glyph unicode="&#x148;" horiz-adv-x="966" d="M121 0v997h147l11 -153q187 178 352 178q107 0 163 -69.5t56 -204.5v-748h-172v698q0 99 -20.5 137.5t-73.5 38.5q-61 0 -123 -35t-168 -118l2 -721h-174zM219 1415l55 74l215 -178h15l213 178l59 -74l-239 -262h-80z" />
<glyph unicode="&#x14a;" horiz-adv-x="1175" d="M135 0v1341q0 72 68 72h159q59 0 78 -57l328 -942q6 -18 20.5 -61t28 -81t25.5 -69h22q-4 48 -4 217v993h180v-1575q0 -134 -62 -207t-167 -73q-95 0 -160 24l19 115h78q124 0 124 156v147h-88q-35 0 -49 51l-342 987q-10 28 -31 97.5t-30 97.5h-21q4 -42 4 -197v-1036 h-180z" />
<glyph unicode="&#x14b;" horiz-adv-x="966" d="M121 0v997h135l14 -163q188 188 361 188q219 0 219 -274v-887q0 -137 -53.5 -209t-157.5 -72q-81 0 -160 27l21 110h69q109 0 109 158v823q0 90 -21 127t-77 37q-107 0 -287 -145l2 -717h-174z" />
<glyph unicode="&#x14c;" horiz-adv-x="1107" d="M94 707q0 168 15.5 289t48.5 207.5t88 138t130 75t179 23.5q172 0 270.5 -68.5t143.5 -227t45 -437.5t-45 -437.5t-143.5 -227.5t-270.5 -69q-173 0 -272 69t-144 227.5t-45 437.5zM283 707q0 -220 25.5 -342t83.5 -176t163 -54q104 0 162 54t83 176t25 342t-25 342 t-83 175.5t-162 53.5q-79 0 -130 -28t-83.5 -96t-45.5 -174.5t-13 -272.5zM315 1610v129h473v-129h-473z" />
<glyph unicode="&#x14d;" horiz-adv-x="942" d="M82 498q0 286 88.5 405t302.5 119q212 0 299.5 -119t87.5 -405q0 -287 -87.5 -406t-299.5 -119q-214 0 -302.5 119t-88.5 406zM233 1241v129h474v-129h-474zM264 498q0 -218 44.5 -297.5t164.5 -79.5t164.5 79.5t44.5 297.5q0 148 -19.5 228t-63.5 114t-126 34t-126 -34 t-63.5 -114t-19.5 -228z" />
<glyph unicode="&#x150;" horiz-adv-x="1107" d="M94 707q0 168 15.5 289t48.5 207.5t88 138t130 75t179 23.5q172 0 270.5 -68.5t143.5 -227t45 -437.5t-45 -437.5t-143.5 -227.5t-270.5 -69q-173 0 -272 69t-144 227.5t-45 437.5zM283 707q0 -220 25.5 -342t83.5 -176t163 -54q104 0 162 54t83 176t25 342t-25 342 t-83 175.5t-162 53.5q-79 0 -130 -28t-83.5 -96t-45.5 -174.5t-13 -272.5zM317 1536l183 356l123 -88l-232 -325zM604 1536l180 356l123 -88l-231 -325z" />
<glyph unicode="&#x151;" horiz-adv-x="942" d="M82 498q0 286 88.5 405t302.5 119q212 0 299.5 -119t87.5 -405q0 -287 -87.5 -406t-299.5 -119q-214 0 -302.5 119t-88.5 406zM236 1169l182 357l123 -88l-232 -326zM264 498q0 -218 44.5 -297.5t164.5 -79.5t164.5 79.5t44.5 297.5q0 148 -19.5 228t-63.5 114t-126 34 t-126 -34t-63.5 -114t-19.5 -228zM522 1169l180 357l123 -88l-231 -326z" />
<glyph unicode="&#x152;" horiz-adv-x="1523" d="M94 707q0 168 15.5 289t48.5 207.5t88 138t130 75t179 23.5q88 0 148.5 -15t130.5 -51q53 41 122 41q339 0 486 -12l-6 -141h-418q-56 0 -79.5 -32t-23.5 -104v-305l457 -2v-145l-457 -2v-385q0 -73 23.5 -105t79.5 -32h418l6 -140q-154 -12 -502 -12q-64 0 -117 43 q-64 -37 -123 -52.5t-145 -15.5q-173 0 -272 69t-144 227.5t-45 437.5zM283 707q0 -220 25.5 -342t83.5 -176t163 -54q117 0 193 33q-13 47 -13 96v885q0 49 13 96q-87 33 -193 33t-163.5 -53t-83 -174.5t-25.5 -343.5z" />
<glyph unicode="&#x153;" horiz-adv-x="1492" d="M82 498q0 286 88.5 405t302.5 119q207 0 295 -113q83 113 279 113q370 0 370 -307q0 -166 -58.5 -229.5t-197.5 -63.5h-299q4 -92 18 -150t44.5 -91t71 -45.5t104.5 -12.5q122 0 280 24l17 -116q-57 -27 -150.5 -41.5t-173.5 -14.5q-213 0 -301 115q-87 -117 -299 -117 q-214 0 -302.5 119t-88.5 406zM264 498q0 -218 44.5 -297.5t164.5 -79.5q111 0 157 67.5t52 247.5l-2 70v61q-4 175 -50.5 241t-156.5 66q-82 0 -126 -34t-63.5 -114t-19.5 -228zM860 551h291q53 0 74.5 37.5t17.5 128.5q-5 81 -48.5 119t-141.5 38q-106 0 -148 -69.5 t-45 -253.5z" />
<glyph unicode="&#x154;" horiz-adv-x="1028" d="M135 0v1413q153 19 404 19q141 0 221.5 -36t120 -125t39.5 -247q0 -175 -47.5 -261t-161.5 -104v-10q46 -15 86.5 -67.5t58.5 -135.5l105 -446h-191l-94 442q-19 79 -52 113.5t-87 34.5q-165 0 -224 2v-592h-178zM313 745h222q117 2 160.5 58t43.5 211q0 153 -43.5 207.5 t-160.5 54.5q-161 0 -222 -2v-529zM420 1571l297 299l96 -133l-338 -246z" />
<glyph unicode="&#x155;" horiz-adv-x="671" d="M121 0v997h135l16 -155q174 180 336 180h39l-20 -164h-54q-57 0 -117 -28.5t-161 -94.5v-735h-174zM264 1204l297 299l96 -133l-338 -246z" />
<glyph unicode="&#x156;" horiz-adv-x="1028" d="M135 0v1413q153 19 404 19q141 0 221.5 -36t120 -125t39.5 -247q0 -175 -47.5 -261t-161.5 -104v-10q46 -15 86.5 -67.5t58.5 -135.5l105 -446h-191l-94 442q-19 79 -52 113.5t-87 34.5q-165 0 -224 2v-592h-178zM313 745h222q117 2 160.5 58t43.5 211q0 153 -43.5 207.5 t-160.5 54.5q-161 0 -222 -2v-529zM459 -176q1 30 15.5 42.5t45.5 12.5h45q32 0 44 -12t12 -43v-113q-3 -147 -60 -270l-76 20q19 114 19 211q-45 0 -45 49v103z" />
<glyph unicode="&#x157;" horiz-adv-x="671" d="M111 -176q1 30 15.5 42.5t45.5 12.5h45q32 0 43.5 -12t11.5 -43v-113q-3 -149 -59 -270l-76 20q19 114 19 211q-45 0 -45 49v103zM121 0v997h135l16 -155q174 180 336 180h39l-20 -164h-54q-57 0 -117 -28.5t-161 -94.5v-735h-174z" />
<glyph unicode="&#x158;" horiz-adv-x="1028" d="M135 0v1413q153 19 404 19q141 0 221.5 -36t120 -125t39.5 -247q0 -175 -47.5 -261t-161.5 -104v-10q46 -15 86.5 -67.5t58.5 -135.5l105 -446h-191l-94 442q-19 79 -52 113.5t-87 34.5q-165 0 -224 2v-592h-178zM262 1784l55 74l215 -179h15l213 179l59 -74l-239 -262 h-80zM313 745h222q117 2 160.5 58t43.5 211q0 153 -43.5 207.5t-160.5 54.5q-161 0 -222 -2v-529z" />
<glyph unicode="&#x159;" horiz-adv-x="671" d="M106 1415l56 74l215 -178h14l213 178l60 -74l-240 -262h-80zM121 0v997h135l16 -155q174 180 336 180h39l-20 -164h-54q-57 0 -117 -28.5t-161 -94.5v-735h-174z" />
<glyph unicode="&#x15a;" d="M86 1065q0 82 9.5 142t31.5 101.5t50 67t74 39.5t94.5 18.5t119.5 4.5q205 -4 348 -41l-12 -131q-157 10 -328 10q-45 0 -68.5 -1.5t-52 -8t-41 -19.5t-25 -37t-16.5 -60t-4 -89q0 -77 15 -123t42 -69t76 -40l224 -71q129 -38 180 -132.5t51 -265.5q0 -82 -9 -142 t-30.5 -103t-51 -70t-76 -42.5t-99.5 -21.5t-127 -6q-183 0 -361 39l13 133q302 -11 352 -10q86 0 127.5 16.5t60.5 64.5t19 147q0 116 -28.5 162t-100.5 71l-232 74q-121 37 -173 132t-52 261zM360 1571l297 299l97 -133l-338 -246z" />
<glyph unicode="&#x15b;" horiz-adv-x="845" d="M78 748q0 87 17 141t58.5 84t98 40.5t147.5 8.5q197 -4 349 -31l-15 -127q-255 10 -307 10h-62t-47 -4t-33.5 -11.5t-22 -22t-12 -35.5t-3.5 -53q0 -72 24 -98.5t88 -45.5l224 -65q102 -30 146 -90.5t44 -184.5q0 -74 -14 -124.5t-39.5 -82.5t-71.5 -49.5t-99 -24 t-132 -6.5q-173 0 -324 29l12 127q127 -11 275 -8q135 0 180 26t45 113q0 67 -27.5 93t-93.5 46l-221 66q-101 29 -142.5 92.5t-41.5 186.5zM324 1204l297 299l96 -133l-338 -246z" />
<glyph unicode="&#x15e;" d="M86 1065q0 82 9.5 142t31.5 101.5t50 67t74 39.5t94.5 18.5t119.5 4.5q205 -4 348 -41l-12 -131q-157 10 -328 10q-45 0 -68.5 -1.5t-52 -8t-41 -19.5t-25 -37t-16.5 -60t-4 -89q0 -77 15 -123t42 -69t76 -40l224 -71q129 -38 180 -132.5t51 -265.5q0 -82 -9 -142 t-30.5 -103t-51 -70t-76 -42.5t-99.5 -21.5t-127 -6q-183 0 -361 39l13 133q302 -11 352 -10q86 0 127.5 16.5t60.5 64.5t19 147q0 116 -28.5 162t-100.5 71l-232 74q-121 37 -173 132t-52 261zM303 -494l27 93q60 -3 99.5 37.5t41.5 103.5q2 37 -17.5 50.5t-80.5 14.5 l18 82q112 11 159 -16.5t44 -116.5q-3 -130 -86 -199t-205 -49z" />
<glyph unicode="&#x15f;" horiz-adv-x="845" d="M78 748q0 87 17 141t58.5 84t98 40.5t147.5 8.5q197 -4 349 -31l-15 -127q-255 10 -307 10h-62t-47 -4t-33.5 -11.5t-22 -22t-12 -35.5t-3.5 -53q0 -72 24 -98.5t88 -45.5l224 -65q102 -30 146 -90.5t44 -184.5q0 -74 -14 -124.5t-39.5 -82.5t-71.5 -49.5t-99 -24 t-132 -6.5q-173 0 -324 29l12 127q127 -11 275 -8q135 0 180 26t45 113q0 67 -27.5 93t-93.5 46l-221 66q-101 29 -142.5 92.5t-41.5 186.5zM244 -492l26 93q60 -3 100 37.5t42 103.5q2 37 -18 50.5t-81 14.5l19 82q112 11 159 -16.5t44 -116.5q-3 -130 -86 -199t-205 -49z " />
<glyph unicode="&#x160;" d="M86 1065q0 82 9.5 142t31.5 101.5t50 67t74 39.5t94.5 18.5t119.5 4.5q205 -4 348 -41l-12 -131q-157 10 -328 10q-45 0 -68.5 -1.5t-52 -8t-41 -19.5t-25 -37t-16.5 -60t-4 -89q0 -77 15 -123t42 -69t76 -40l224 -71q129 -38 180 -132.5t51 -265.5q0 -82 -9 -142 t-30.5 -103t-51 -70t-76 -42.5t-99.5 -21.5t-127 -6q-183 0 -361 39l13 133q302 -11 352 -10q86 0 127.5 16.5t60.5 64.5t19 147q0 116 -28.5 162t-100.5 71l-232 74q-121 37 -173 132t-52 261zM201 1784l55 74l215 -179h14l213 179l60 -74l-240 -262h-80z" />
<glyph unicode="&#x161;" horiz-adv-x="845" d="M78 748q0 87 17 141t58.5 84t98 40.5t147.5 8.5q197 -4 349 -31l-15 -127q-255 10 -307 10h-62t-47 -4t-33.5 -11.5t-22 -22t-12 -35.5t-3.5 -53q0 -72 24 -98.5t88 -45.5l224 -65q102 -30 146 -90.5t44 -184.5q0 -74 -14 -124.5t-39.5 -82.5t-71.5 -49.5t-99 -24 t-132 -6.5q-173 0 -324 29l12 127q127 -11 275 -8q135 0 180 26t45 113q0 67 -27.5 93t-93.5 46l-221 66q-101 29 -142.5 92.5t-41.5 186.5zM166 1415l55 74l215 -178h15l213 178l59 -74l-240 -262h-80z" />
<glyph unicode="&#x162;" horiz-adv-x="968" d="M39 1253v160h891v-160h-355v-1253h-182v1253h-354zM328 -469l26 92q60 -3 100 37.5t42 103.5q2 37 -18 51t-81 15l19 82q112 11 158.5 -16.5t43.5 -116.5q-3 -130 -85.5 -199t-204.5 -49z" />
<glyph unicode="&#x163;" horiz-adv-x="649" d="M39 860v127l149 10v295h170v-295h246v-137h-246v-586q0 -72 23 -102.5t80 -30.5h114l21 -133q-77 -26 -197 -26q-104 0 -157.5 69.5t-53.5 200.5v608h-149zM254 -487l27 92q60 -3 99.5 37.5t41.5 103.5q2 37 -17.5 51t-80.5 15l18 82q112 11 159 -17t44 -117 q-3 -129 -85.5 -198t-205.5 -49z" />
<glyph unicode="&#x164;" horiz-adv-x="968" d="M39 1253v160h891v-160h-355v-1253h-182v1253h-354zM209 1784l55 74l215 -179h15l213 179l59 -74l-240 -262h-80z" />
<glyph unicode="&#x165;" horiz-adv-x="649" d="M39 860v127l149 10v295h170v-295h246v-137h-246v-586q0 -72 23 -102.5t80 -30.5h114l21 -133q-77 -26 -197 -26q-104 0 -157.5 69.5t-53.5 200.5v608h-149zM451 1419v103q1 30 15.5 42.5t45.5 12.5h45q32 0 43.5 -12t11.5 -43v-113q-3 -149 -59 -270l-76 20 q19 114 19 211q-45 0 -45 49z" />
<glyph unicode="&#x166;" horiz-adv-x="968" d="M39 1253v160h891v-160h-355v-391h224v-102h-224v-760h-182v760h-225v102h225v391h-354z" />
<glyph unicode="&#x167;" horiz-adv-x="649" d="M39 860v127l149 10v295h170v-295h246v-137h-246v-194h203v-99h-203v-293q0 -72 23 -102.5t80 -30.5h114l21 -133q-77 -26 -197 -26q-104 0 -157.5 69.5t-53.5 200.5v315h-104v99h104v194h-149z" />
<glyph unicode="&#x16a;" horiz-adv-x="1101" d="M127 541v872h180v-872q0 -227 53.5 -316.5t190.5 -89.5q135 0 189.5 89.5t54.5 316.5v872h180v-872q0 -308 -94.5 -438t-321.5 -130q-236 0 -334 130t-98 438zM317 1610v129h474v-129h-474z" />
<glyph unicode="&#x16b;" horiz-adv-x="948" d="M115 248v749h174v-700q0 -96 23.5 -134t84.5 -38q55 0 113.5 33t146.5 108v731h170v-997h-137l-14 139q-175 -166 -338 -166q-109 0 -166 70t-57 205zM242 1249v129h473v-129h-473z" />
<glyph unicode="&#x16e;" horiz-adv-x="1101" d="M127 541v872h180v-872q0 -227 53.5 -316.5t190.5 -89.5q135 0 189.5 89.5t54.5 316.5v872h180v-872q0 -308 -94.5 -438t-321.5 -130q-236 0 -334 130t-98 438zM371 1679q0 90 53.5 152.5t128.5 62.5q76 0 130 -62.5t54 -152.5q0 -92 -53.5 -153.5t-130.5 -61.5 q-76 0 -129 62t-53 153zM463 1679q0 -57 26 -91t64 -34q39 0 64.5 34t25.5 91q0 56 -25.5 90.5t-64.5 34.5t-64.5 -34.5t-25.5 -90.5z" />
<glyph unicode="&#x16f;" horiz-adv-x="948" d="M115 248v749h174v-700q0 -96 23.5 -134t84.5 -38q55 0 113.5 33t146.5 108v731h170v-997h-137l-14 139q-175 -166 -338 -166q-109 0 -166 70t-57 205zM295 1317q0 90 53.5 152.5t128.5 62.5q76 0 130.5 -62.5t54.5 -152.5q0 -91 -54 -153t-131 -62q-76 0 -129 62t-53 153 zM387 1317q0 -57 26 -91t64 -34q39 0 64.5 34t25.5 91q0 56 -25.5 90.5t-64.5 34.5t-64.5 -34.5t-25.5 -90.5z" />
<glyph unicode="&#x170;" horiz-adv-x="1101" d="M127 541v872h180v-872q0 -227 53.5 -316.5t190.5 -89.5q135 0 189.5 89.5t54.5 316.5v872h180v-872q0 -308 -94.5 -438t-321.5 -130q-236 0 -334 130t-98 438zM317 1536l183 356l123 -88l-232 -325zM604 1536l180 356l123 -88l-231 -325z" />
<glyph unicode="&#x171;" horiz-adv-x="948" d="M115 248v749h174v-700q0 -96 23.5 -134t84.5 -38q55 0 113.5 33t146.5 108v731h170v-997h-137l-14 139q-175 -166 -338 -166q-109 0 -166 70t-57 205zM242 1176l182 356l123 -88l-232 -326zM528 1176l181 356l122 -88l-231 -326z" />
<glyph unicode="&#x172;" horiz-adv-x="1101" d="M127 541v872h180v-872q0 -227 53.5 -316.5t190.5 -89.5q135 0 189.5 89.5t54.5 316.5v872h180v-872q0 -289 -83 -421t-278 -145q-75 -119 -110 -227q-24 -74 11.5 -98t109.5 8l20 -72q-111 -53 -175.5 -39.5t-86 67.5t-0.5 128q36 118 149 231q-220 6 -312.5 137.5 t-92.5 430.5z" />
<glyph unicode="&#x173;" horiz-adv-x="948" d="M115 248v749h174v-700q0 -96 23.5 -134t84.5 -38q55 0 113.5 33t146.5 108v731h170v-997h4q-80 -124 -114 -233q-24 -74 11.5 -98.5t109.5 7.5l20 -71q-111 -53 -175.5 -40t-86 67t-0.5 128q36 124 158 240h-64l-14 139q-175 -166 -338 -166q-109 0 -166 70t-57 205z" />
<glyph unicode="&#x174;" horiz-adv-x="1576" d="M51 1413h189l151 -1102q12 -79 21 -174h37q8 88 24 174l154 1043q5 27 22.5 43t44.5 16h189q27 0 44.5 -16t22.5 -43l154 -1043q15 -89 24 -174h37q11 100 21 172l151 1104h191l-209 -1360q-8 -24 -26 -38.5t-42 -14.5h-198q-26 0 -44.5 15t-23.5 40l-156 1063l-24 160 h-33q-4 -25 -11 -79t-11 -81l-156 -1063q-4 -25 -24 -40t-46 -15h-198q-25 0 -43.5 15t-24.5 38zM512 1575l215 260h125l217 -260l-59 -76l-213 199h-15l-213 -199z" />
<glyph unicode="&#x175;" horiz-adv-x="1368" d="M35 997h178l149 -735q2 -10 11.5 -65t13.5 -84h21l26 149l105 680q3 25 20.5 40t42.5 15h164q27 0 44.5 -15.5t18.5 -41.5l103 -678q4 -23 14.5 -73t14.5 -76h22q12 103 23 149l147 735h180l-223 -948q-4 -23 -21.5 -36t-41.5 -13h-160q-24 0 -44.5 15.5t-23.5 39.5 l-100 678q-19 122 -27 158h-18l-25 -158l-102 -678q-3 -24 -22 -39.5t-46 -15.5h-155q-53 0 -66 49zM408 1206l215 260h125l217 -260l-60 -76l-213 199h-14l-213 -199z" />
<glyph unicode="&#x176;" horiz-adv-x="954" d="M12 1413h191l219 -594q18 -44 49 -157h14q23 99 47 157l222 594h186l-375 -919v-494h-178v500zM199 1575l215 260h125l217 -260l-60 -76l-213 199h-14l-213 -199z" />
<glyph unicode="&#x177;" horiz-adv-x="886" d="M25 997h186l190 -743q16 -55 29 -121h21q7 23 18.5 65.5t15.5 55.5l189 743h186l-307 -1052q-21 -71 -52 -130.5t-76.5 -113.5t-110.5 -86.5t-144 -36.5l-16 115q94 37 149.5 101t87.5 163l15 43h-39q-22 0 -39 12t-23 33zM168 1206l215 260h125l217 -260l-59 -76 l-213 199h-15l-213 -199z" />
<glyph unicode="&#x178;" horiz-adv-x="954" d="M12 1413h191l219 -594q18 -44 49 -157h14q23 99 47 157l222 594h186l-375 -919v-494h-178v500zM254 1620v113q0 49 47 49h57q45 0 45 -49v-113q0 -49 -45 -49h-57q-47 0 -47 49zM547 1620v113q0 49 47 49h57q22 0 34.5 -13t12.5 -36v-113q0 -49 -47 -49h-57q-47 0 -47 49 z" />
<glyph unicode="&#x179;" horiz-adv-x="940" d="M78 0v154l586 1106h-576v153h764v-153l-584 -1106h596v-154h-786zM356 1571l297 299l97 -133l-338 -246z" />
<glyph unicode="&#x17a;" horiz-adv-x="849" d="M78 0v141l497 713h-491v143h682v-143l-496 -713h502v-141h-694zM311 1204l297 299l97 -133l-338 -246z" />
<glyph unicode="&#x17b;" horiz-adv-x="940" d="M78 0v154l586 1106h-576v153h764v-153l-584 -1106h596v-154h-786zM397 1608v116q0 52 49 52h58q49 0 49 -52v-116q0 -54 -49 -54h-58q-49 0 -49 54z" />
<glyph unicode="&#x17c;" horiz-adv-x="849" d="M78 0v141l497 713h-491v143h682v-143l-496 -713h502v-141h-694zM350 1239v117q0 51 49 51h58q49 0 49 -51v-117q0 -53 -49 -53h-58q-49 0 -49 53z" />
<glyph unicode="&#x17d;" horiz-adv-x="940" d="M78 0v154l586 1106h-576v153h764v-153l-584 -1106h596v-154h-786zM199 1784l55 74l215 -179h14l213 179l60 -74l-240 -262h-80z" />
<glyph unicode="&#x17e;" horiz-adv-x="849" d="M78 0v141l497 713h-491v143h682v-143l-496 -713h502v-141h-694zM154 1415l55 74l215 -178h14l213 178l60 -74l-240 -262h-80z" />
<glyph unicode="&#x192;" horiz-adv-x="749" d="M-68 -285l23 131h111q66 0 96.5 38t36.5 128l49 666h-164l8 129l166 8l25 328q11 141 77.5 216t188.5 75q118 0 182 -13l-24 -131h-119q-68 0 -97 -34.5t-36 -133.5l-23 -307h225l-14 -137h-221l-51 -686q-9 -144 -69.5 -217.5t-186.5 -73.5q-114 0 -183 14z" />
<glyph unicode="&#x218;" d="M86 1065q0 82 9.5 142t31.5 101.5t50 67t74 39.5t94.5 18.5t119.5 4.5q205 -4 348 -41l-12 -131q-157 10 -328 10q-45 0 -68.5 -1.5t-52 -8t-41 -19.5t-25 -37t-16.5 -60t-4 -89q0 -77 15 -123t42 -69t76 -40l224 -71q129 -38 180 -132.5t51 -265.5q0 -82 -9 -142 t-30.5 -103t-51 -70t-76 -42.5t-99.5 -21.5t-127 -6q-183 0 -361 39l13 133q302 -11 352 -10q86 0 127.5 16.5t60.5 64.5t19 147q0 116 -28.5 162t-100.5 71l-232 74q-121 37 -173 132t-52 261zM387 -176q1 30 16 42.5t46 12.5h45q32 0 43.5 -12t11.5 -43v-113 q-3 -147 -60 -270l-75 20q18 108 18 211q-45 0 -45 49v103z" />
<glyph unicode="&#x219;" horiz-adv-x="845" d="M78 748q0 87 17 141t58.5 84t98 40.5t147.5 8.5q197 -4 349 -31l-15 -127q-255 10 -307 10h-62t-47 -4t-33.5 -11.5t-22 -22t-12 -35.5t-3.5 -53q0 -72 24 -98.5t88 -45.5l224 -65q102 -30 146 -90.5t44 -184.5q0 -74 -14 -124.5t-39.5 -82.5t-71.5 -49.5t-99 -24 t-132 -6.5q-173 0 -324 29l12 127q127 -11 275 -8q135 0 180 26t45 113q0 67 -27.5 93t-93.5 46l-221 66q-101 29 -142.5 92.5t-41.5 186.5zM348 -176q1 30 16 42.5t46 12.5h45q32 0 43.5 -12t11.5 -43v-113q-3 -149 -59 -270l-76 20q18 108 18 211q-45 0 -45 49v103z" />
<glyph unicode="&#x21a;" horiz-adv-x="968" d="M39 1253v160h891v-160h-355v-1253h-182v1253h-354zM383 -176q1 30 15.5 42.5t45.5 12.5h45q32 0 44 -12t12 -43v-113q-3 -147 -60 -270l-75 20q18 108 18 211q-45 0 -45 49v103z" />
<glyph unicode="&#x21b;" horiz-adv-x="649" d="M39 860v127l149 10v295h170v-295h246v-137h-246v-586q0 -72 23 -102.5t80 -30.5h114l21 -133q-77 -26 -197 -26q-104 0 -157.5 69.5t-53.5 200.5v608h-149zM297 -176q1 30 15.5 42.5t45.5 12.5h45q32 0 44 -12t12 -43v-113q-3 -147 -60 -270l-75 20q18 108 18 211 q-45 0 -45 49v103z" />
<glyph unicode="&#x2c6;" horiz-adv-x="708" d="M78 1200l215 260h125l217 -260l-60 -76l-213 199h-14l-213 -199z" />
<glyph unicode="&#x2c7;" horiz-adv-x="706" d="M78 1409l55 74l215 -178h14l213 178l60 -74l-240 -262h-80z" />
<glyph unicode="&#x2d8;" horiz-adv-x="626" d="M59 1413l86 12q0 -73 43 -113t127 -40q81 0 124.5 40t43.5 113l86 -12q8 -121 -61 -195.5t-193 -74.5q-125 0 -194.5 74.5t-61.5 195.5z" />
<glyph unicode="&#x2d9;" horiz-adv-x="372" d="M109 1235v117q0 51 49 51h57q49 0 49 -51v-117q0 -53 -49 -53h-57q-49 0 -49 53z" />
<glyph unicode="&#x2da;" horiz-adv-x="501" d="M68 1305q0 90 53.5 152.5t128.5 62.5q76 0 130 -62.5t54 -152.5q0 -92 -53.5 -153.5t-130.5 -61.5q-76 0 -129 62t-53 153zM160 1305q0 -57 26 -91t64 -34q39 0 64.5 34t25.5 91q0 56 -25.5 90.5t-64.5 34.5t-64.5 -34.5t-25.5 -90.5z" />
<glyph unicode="&#x2db;" horiz-adv-x="415" d="M76 -240q36 124 162 244l73 -4q-80 -124 -114 -233q-24 -74 11 -98.5t109 7.5l21 -71q-111 -53 -175.5 -40t-86 67t-0.5 128z" />
<glyph unicode="&#x2dc;" horiz-adv-x="702" d="M84 1198q-13 117 26 178.5t105 55.5q44 -4 87 -30t84.5 -52t80.5 -31q43 -7 58.5 17t15.5 85h77q13 -113 -24 -174t-107 -55q-60 5 -138.5 59t-115.5 58q-42 7 -56.5 -19t-14.5 -92h-78z" />
<glyph unicode="&#x2dd;" horiz-adv-x="776" d="M88 1147l182 356l123 -88l-231 -325zM375 1147l180 356l123 -88l-232 -325z" />
<glyph unicode="&#x394;" horiz-adv-x="1040" d="M35 0v76l397 1337h178l396 -1337v-76h-971zM242 147h553l-236 932q-15 41 -37 160q-6 -25 -19 -79.5t-20 -82.5z" />
<glyph unicode="&#x3a9;" horiz-adv-x="1187" d="M84 0v158h158q57 0 108 -13q-124 116 -176.5 256.5t-52.5 360.5q0 345 111 511.5t362 166.5q250 0 361.5 -167t111.5 -511q0 -225 -53 -363t-178 -254q67 13 110 13h156l2 -158h-426l-2 152q114 108 159.5 240t45.5 347q0 288 -66.5 414.5t-222.5 126.5 q-157 0 -222 -126.5t-65 -418.5q0 -152 22.5 -257t64.5 -177t118 -149v-152h-426z" />
<glyph unicode="&#x3bc;" horiz-adv-x="991" d="M135 -412v1409h174v-700q-1 -82 28.5 -120t94.5 -38q55 0 110.5 28.5t135.5 92.5v737h174v-997h-135l-19 147q-142 -174 -305 -174q-64 0 -117 29q9 -92 9 -125v-289h-150z" />
<glyph unicode="&#x3c0;" horiz-adv-x="1064" d="M43 856v141h979l-2 -141h-146v-856h-174v856h-338v-856h-172v856h-147z" />
<glyph unicode="&#x401;" horiz-adv-x="931" d="M125 244v925q0 114 63 180t172 66q340 0 492 -12l-8 -141h-453q-48 0 -67 -31.5t-19 -104.5v-307h475v-145h-475v-387q0 -74 19 -105.5t67 -31.5h453l8 -140q-152 -12 -492 -12q-110 0 -172.5 66t-62.5 180zM291 1663v111q0 49 45 49h57q45 0 45 -49v-111q0 -49 -45 -49 h-57q-45 0 -45 49zM582 1663v111q0 49 47 49h57q22 0 34.5 -13t12.5 -36v-111q0 -49 -47 -49h-57q-47 0 -47 49z" />
<glyph unicode="&#x402;" horiz-adv-x="1245" d="M39 1253v160h891v-160h-355v-460q151 112 318 112q50 0 90 -10.5t78 -39.5t64 -76t41.5 -124.5t15.5 -179.5q0 -136 -29.5 -233t-86.5 -152.5t-133.5 -79t-176.5 -18.5l-17 131q71 6 117 23t81.5 54t51 100t15.5 159q0 93 -9 151t-31.5 88.5t-51.5 41t-76 10.5 q-113 0 -261 -105v-645h-182v1253h-354z" />
<glyph unicode="&#x403;" horiz-adv-x="858" d="M131 0v1149q0 118 62.5 192t158.5 74q328 0 475 -14l-8 -139h-405q-58 0 -80.5 -33.5t-22.5 -112.5v-1116h-180zM373 1571l297 299l96 -133l-338 -246z" />
<glyph unicode="&#x404;" horiz-adv-x="956" d="M94 707q0 205 24 342t80.5 225t143.5 126t217 38q107 0 177.5 -9.5t146.5 -31.5l-19 -140q-136 19 -307 19q-143 0 -205 -101.5t-71 -353.5l477 -2v-139l-479 -2q2 -207 28.5 -322.5t85.5 -167t164 -51.5q185 0 317 23l19 -137q-140 -48 -334 -48q-173 0 -273.5 71.5 t-146 229.5t-45.5 431z" />
<glyph unicode="&#x405;" d="M86 1065q0 82 9.5 142t31.5 101.5t50 67t74 39.5t94.5 18.5t119.5 4.5q205 -4 348 -41l-12 -131q-157 10 -328 10q-45 0 -68.5 -1.5t-52 -8t-41 -19.5t-25 -37t-16.5 -60t-4 -89q0 -77 15 -123t42 -69t76 -40l224 -71q129 -38 180 -132.5t51 -265.5q0 -82 -9 -142 t-30.5 -103t-51 -70t-76 -42.5t-99.5 -21.5t-127 -6q-183 0 -361 39l13 133q302 -11 352 -10q86 0 127.5 16.5t60.5 64.5t19 147q0 116 -28.5 162t-100.5 71l-232 74q-121 37 -173 132t-52 261z" />
<glyph unicode="&#x406;" horiz-adv-x="450" d="M135 0v1413h180v-1413h-180z" />
<glyph unicode="&#x407;" horiz-adv-x="448" d="M4 1618v113q0 49 45 49h60q45 0 45 -49v-113q0 -49 -45 -49h-60q-45 0 -45 49zM135 0v1413h180v-1413h-180zM297 1618v113q0 49 47 49h55q47 0 47 -49v-113q0 -49 -47 -49h-55q-47 0 -47 49z" />
<glyph unicode="&#x408;" horiz-adv-x="571" d="M45 8l21 127h77q119 0 119 156v1122h178v-1116q0 -154 -58.5 -234.5t-168.5 -80.5q-38 0 -89 7.5t-79 18.5z" />
<glyph unicode="&#x409;" horiz-adv-x="1605" d="M33 121q49 23 87.5 66.5t72.5 129.5q47 121 63.5 264.5t33.5 470.5q1 20 1.5 32t1.5 30.5t2 34.5q15 264 256 264h387v-569h213q216 0 300.5 -96t84.5 -336q0 -126 -19.5 -208.5t-64 -131.5t-109 -68.5t-163.5 -19.5q-271 0 -418 16v1266h-195q-50 0 -72 -35t-28 -109 q-28 -422 -46 -573.5t-65 -280.5q-44 -134 -116.5 -197.5t-192.5 -72.5zM938 143l213 -2q126 0 165.5 53.5t39.5 221.5q0 81 -7.5 129.5t-30 84t-62 49t-105.5 13.5h-213v-549z" />
<glyph unicode="&#x40a;" horiz-adv-x="1615" d="M135 0v1413h180v-573h455v573h178v-573h211q218 0 302.5 -94t84.5 -336q0 -126 -19 -207.5t-63.5 -130.5t-109.5 -68.5t-164 -19.5q-273 0 -420 16v692h-455v-692h-180zM948 143l211 -2q128 0 167.5 52.5t39.5 218.5q0 82 -7.5 131t-30 85t-63 50t-106.5 14h-211v-549z " />
<glyph unicode="&#x40b;" horiz-adv-x="1275" d="M39 1253v160h891v-160h-355v-465q86 58 178 87.5t169 29.5q137 0 202.5 -78t65.5 -241v-586h-178v551q0 108 -33.5 152.5t-118.5 44.5q-75 0 -138.5 -23.5t-146.5 -83.5v-641h-182v1253h-354z" />
<glyph unicode="&#x40c;" horiz-adv-x="1007" d="M135 0v1413h180v-442q0 -85 -12 -162h109q50 0 91 26.5t71.5 72t57.5 113.5t50.5 145.5t49.5 172.5q13 49 20 74h180q-12 -40 -31 -107.5t-29.5 -103.5t-28 -92.5t-29 -87.5t-29.5 -74t-33.5 -67t-37 -52.5t-43.5 -44t-49 -27.5t-57 -16v-8q32 -4 60 -15.5t51 -27 t45 -43.5t38.5 -54t35 -70t31.5 -80t31.5 -94.5t32 -103.5t35 -118t38.5 -127h-191q-14 50 -40 142q-30 107 -44.5 157t-40 125t-45 107.5t-49 69.5t-64 50t-77.5 13h-109q12 -76 12 -150v-514h-180zM403 1571l297 299l97 -133l-338 -246z" />
<glyph unicode="&#x40d;" horiz-adv-x="1153" d="M135 0v1413h174v-985q0 -80 -10 -182h10q28 89 62 170l424 997h221v-1413h-174v993q0 119 8 178h-10q-16 -58 -58 -167l-428 -1004h-219zM289 1737l96 133l297 -299l-55 -80z" />
<glyph unicode="&#x40e;" horiz-adv-x="942" d="M27 1413h184l217 -817q7 -33 31 -33h59l227 850h185l-299 -1065q-25 -81 -47.5 -136.5t-55 -109t-74.5 -82.5t-94 -34q-44 -3 -112 5.5t-111 22.5l23 133q46 -5 73 -7.5t56 -1t43.5 4.5t32 16t25.5 25t20 40t19 53t20 71l22 64h-63q-52 0 -81 23t-44 73zM217 1796l86 12 q0 -73 43 -113t127 -40q81 0 124.5 40t43.5 113l86 -12q8 -121 -61 -195.5t-193 -74.5q-125 0 -194.5 74.5t-61.5 195.5z" />
<glyph unicode="&#x40f;" horiz-adv-x="1120" d="M135 0v1413h180v-1266h488v1266h182v-1413h-350l-8 -309h-121l-10 309h-361z" />
<glyph unicode="&#x410;" horiz-adv-x="1038" d="M12 0l353 1364q6 23 23.5 36t41.5 13h180q22 0 40 -13t24 -36l352 -1364h-184l-105 442h-436l-104 -442h-185zM338 598h362l-133 561q-2 9 -12.5 51t-13.5 64h-43l-27 -115z" />
<glyph unicode="&#x411;" horiz-adv-x="993" d="M135 0v1413q185 12 363 12t356 -12l-16 -149h-521v-459h213q218 0 303 -92t85 -324q0 -68 -6.5 -122t-20.5 -95.5t-32.5 -72t-47.5 -51t-58.5 -34t-72.5 -20.5t-84.5 -9.5t-97.5 -2.5q-191 0 -357 18h-6zM315 139l215 -2q66 0 104 10t62 40.5t31.5 78.5t7.5 131 q0 63 -4.5 104.5t-17 75t-36 51.5t-59 27t-88.5 9h-215v-525z" />
<glyph unicode="&#x412;" horiz-adv-x="1030" d="M135 0v1413q145 17 387 17q111 0 181 -16.5t117.5 -59t67 -113t19.5 -180.5q0 -155 -45.5 -233.5t-148.5 -90.5v-8q124 -13 176.5 -106.5t52.5 -270.5q0 -110 -20 -180.5t-66.5 -112.5t-113 -58.5t-169.5 -16.5q-284 0 -438 16zM311 139l234 -2q126 0 171.5 49t45.5 197 q0 162 -48.5 220t-176.5 61h-226v-525zM311 801h224q78 1 119.5 21t61 71t19.5 147q0 141 -47 188.5t-174 47.5h-203v-475z" />
<glyph unicode="&#x413;" horiz-adv-x="858" d="M131 0v1149q0 118 62.5 192t158.5 74q328 0 475 -14l-8 -139h-405q-58 0 -80.5 -33.5t-22.5 -112.5v-1116h-180z" />
<glyph unicode="&#x414;" horiz-adv-x="1165" d="M35 147h104q139 370 168 1002q6 125 72.5 194.5t181.5 69.5h412v-1266h143v-456h-123l-16 309h-801l-16 -309h-125v456zM307 147h488v1119h-201q-59 0 -84 -32.5t-31 -111.5q-19 -324 -56.5 -552.5t-115.5 -422.5z" />
<glyph unicode="&#x415;" horiz-adv-x="931" d="M125 244v925q0 114 63 180t172 66q340 0 492 -12l-8 -141h-453q-48 0 -67 -31.5t-19 -104.5v-307h475v-145h-475v-387q0 -74 19 -105.5t67 -31.5h453l8 -140q-152 -12 -492 -12q-110 0 -172.5 66t-62.5 180z" />
<glyph unicode="&#x416;" horiz-adv-x="1515" d="M45 0q13 44 36 126q33 119 49.5 174t45 139t51 122.5t55.5 83t71.5 63.5t86.5 25v8q-44 6 -80 24.5t-67 62t-51 76t-47 112t-39.5 120.5t-42.5 148q-24 84 -37 129h180q86 -288 95 -316q67 -198 138 -256q41 -32 89 -32h110q-12 80 -12 162v442h170v-442q0 -98 -12 -162 h102q27 0 51 8.5t45.5 30t38.5 42.5t36 62.5t31.5 71t31 87.5t29.5 94t31 106q20 67 30 102h182q-12 -40 -31 -107.5t-29.5 -103.5t-28 -92.5t-29 -87.5t-29.5 -74t-33.5 -67t-37 -52.5t-43.5 -44t-49 -27.5t-57 -16v-8q120 -14 195 -137q58 -96 129 -344q11 -38 33 -119 q25 -87 38 -133h-188q-15 51 -42 144q-31 107 -46 157t-40.5 124t-44 106.5t-46 69.5t-58.5 50t-69 13h-102q12 -76 12 -150v-514h-170v514q0 61 14 150h-110q-28 0 -52.5 -8t-46 -26t-39 -40t-35 -57.5t-32 -71t-31.5 -88t-31.5 -100t-34.5 -115.5q-30 -102 -47 -158h-186z " />
<glyph unicode="&#x417;" horiz-adv-x="911" d="M55 29l15 131q221 -27 358 -27q83 0 126 20t63 73.5t20 156.5q0 161 -47.5 220t-171.5 59h-199v141h199q109 0 150.5 49t41.5 188q0 99 -21 151t-64.5 71.5t-125.5 19.5q-43 0 -89.5 -2.5t-74.5 -5t-74.5 -7.5t-62.5 -7l-14 137q146 33 326 33q109 0 178 -16.5t115.5 -59 t65.5 -112.5t19 -181q0 -154 -46 -233t-146 -91v-8q123 -13 174 -106.5t51 -270.5q0 -109 -19.5 -180t-65 -113t-110.5 -58.5t-165 -16.5q-244 0 -406 45z" />
<glyph unicode="&#x418;" horiz-adv-x="1153" d="M135 0v1413h174v-985q0 -80 -10 -182h10q28 89 62 170l424 997h221v-1413h-174v993q0 119 8 178h-10q-16 -58 -58 -167l-428 -1004h-219z" />
<glyph unicode="&#x419;" horiz-adv-x="1153" d="M135 0v1413h174v-985q0 -80 -10 -182h10q28 89 62 170l424 997h221v-1413h-174v993q0 119 8 178h-10q-16 -58 -58 -167l-428 -1004h-219zM338 1806h129q0 -184 127 -184q61 0 93 47t32 137h129q8 -121 -61.5 -200.5t-192.5 -79.5q-124 0 -194 79.5t-62 200.5z" />
<glyph unicode="&#x41a;" horiz-adv-x="1007" d="M135 0v1413h180v-442q0 -85 -12 -162h109q50 0 91 26.5t71.5 72t57.5 113.5t50.5 145.5t49.5 172.5q13 49 20 74h180q-12 -40 -31 -107.5t-29.5 -103.5t-28 -92.5t-29 -87.5t-29.5 -74t-33.5 -67t-37 -52.5t-43.5 -44t-49 -27.5t-57 -16v-8q32 -4 60 -15.5t51 -27 t45 -43.5t38.5 -54t35 -70t31.5 -80t31.5 -94.5t32 -103.5t35 -118t38.5 -127h-191q-14 50 -40 142q-30 107 -44.5 157t-40 125t-45 107.5t-49 69.5t-64 50t-77.5 13h-109q12 -76 12 -150v-514h-180z" />
<glyph unicode="&#x41b;" horiz-adv-x="1087" d="M14 137q62 21 101 61.5t63 116.5q41 130 60.5 289.5t44.5 550.5q7 127 68.5 192.5t174.5 65.5h424v-1413h-178v1266h-201q-54 0 -80.5 -35t-31.5 -109q-26 -410 -45 -569t-68 -287q-95 -268 -317 -268z" />
<glyph unicode="&#x41c;" horiz-adv-x="1460" d="M113 0l43 1337q3 76 71 76h199q59 0 74 -61l180 -863l37 -190h24q8 36 20.5 101t18.5 94l178 858q15 61 78 61h193q71 0 74 -76l47 -1337h-181l-39 1264h-32l-215 -1043q-16 -61 -76 -61h-154q-62 0 -78 61l-217 1043h-28l-37 -1264h-180z" />
<glyph unicode="&#x41d;" horiz-adv-x="1112" d="M135 0v1413h180v-579h482v579h180v-1413h-180v678h-482v-678h-180z" />
<glyph unicode="&#x41e;" horiz-adv-x="1107" d="M94 707q0 168 15.5 289t48.5 207.5t88 138t130 75t179 23.5q172 0 270.5 -68.5t143.5 -227t45 -437.5t-45 -437.5t-143.5 -227.5t-270.5 -69q-173 0 -272 69t-144 227.5t-45 437.5zM283 707q0 -220 25.5 -342t83.5 -176t163 -54q104 0 162 54t83 176t25 342t-25 342 t-83 175.5t-162 53.5q-79 0 -130 -28t-83.5 -96t-45.5 -174.5t-13 -272.5z" />
<glyph unicode="&#x41f;" horiz-adv-x="1112" d="M135 0v1413h842v-1413h-180v1266h-482v-1266h-180z" />
<glyph unicode="&#x420;" horiz-adv-x="980" d="M135 0v1413q153 19 404 19q145 0 224.5 -39t115.5 -134t36 -270t-35.5 -270.5t-110.5 -133.5t-210 -38q-119 0 -242 14v-561h-182zM317 702h215q117 0 160 59.5t43 227.5t-43 227.5t-160 59.5l-215 -2v-572z" />
<glyph unicode="&#x421;" horiz-adv-x="948" d="M94 707q0 273 44.5 430.5t143 229t267.5 71.5q109 0 176.5 -9t142.5 -32l-18 -137q-150 18 -301 18q-103 0 -160 -54.5t-81.5 -176t-24.5 -340.5q0 -324 57 -448t209 -124q191 0 323 23l19 -135q-143 -48 -342 -48q-169 0 -267.5 71.5t-143 229.5t-44.5 431z" />
<glyph unicode="&#x422;" horiz-adv-x="968" d="M39 1253v160h891v-160h-355v-1253h-182v1253h-354z" />
<glyph unicode="&#x423;" horiz-adv-x="942" d="M27 1413h184l217 -817q7 -33 31 -33h59l227 850h185l-299 -1065q-25 -81 -47.5 -136.5t-55 -109t-74.5 -82.5t-94 -34q-44 -3 -112 5.5t-111 22.5l23 133q46 -5 73 -7.5t56 -1t43.5 4.5t32 16t25.5 25t20 40t19 53t20 71l22 64h-63q-52 0 -81 23t-44 73z" />
<glyph unicode="&#x424;" horiz-adv-x="1357" d="M70 721q0 218 51 346t162.5 190t304.5 72v199h180l2 -199q285 -15 400.5 -150.5t115.5 -457.5q0 -315 -116 -449t-400 -149v-199h-182v199q-286 15 -402 148.5t-116 449.5zM254 721q0 -243 72.5 -339t269.5 -108v904q-197 -12 -269.5 -110t-72.5 -347zM762 274 q194 13 267 110t73 337q0 248 -72.5 346t-267.5 111v-904z" />
<glyph unicode="&#x425;" horiz-adv-x="1015" d="M33 0l307 731l-285 682h189l250 -610h30l246 610h195l-289 -682l309 -731h-194l-269 664h-26l-271 -664h-192z" />
<glyph unicode="&#x426;" horiz-adv-x="1153" d="M135 0v1413h180v-1266h467v1266h181v-1266h141v-456h-123l-16 309h-830z" />
<glyph unicode="&#x427;" horiz-adv-x="1046" d="M94 834v579h178v-543q0 -104 34.5 -149t115.5 -45q79 0 148 23.5t161 84.5v629h180v-1413h-180v641q-92 -63 -193 -95t-180 -32q-135 0 -199.5 78.5t-64.5 241.5z" />
<glyph unicode="&#x428;" horiz-adv-x="1554" d="M135 0v1413h176v-1266h379v1266h174v-1266h379v1266h174v-1413h-1282z" />
<glyph unicode="&#x429;" horiz-adv-x="1597" d="M135 0v1413h176v-1266h373v1266h174v-1266h375v1266h174v-1266h141v-456h-123l-16 309h-1274z" />
<glyph unicode="&#x42a;" horiz-adv-x="1236" d="M37 1253v160h536v-569h209q216 0 300.5 -96t84.5 -338q0 -126 -19 -207.5t-63 -130.5t-109 -68.5t-165 -19.5q-270 0 -420 16v1253h-354zM573 143l209 -2q127 0 166 53t39 218q0 82 -7.5 131t-30 85t-62 50t-105.5 14h-209v-549z" />
<glyph unicode="&#x42b;" horiz-adv-x="1421" d="M135 0v1413h180v-569h215q216 0 300.5 -96t84.5 -338q0 -126 -19 -207.5t-63.5 -130.5t-109.5 -68.5t-164 -19.5q-271 0 -418 16h-6zM315 143l215 -2q127 0 166 53t39 218q0 82 -7.5 131t-30 85t-62 50t-105.5 14h-215v-549zM1106 0v1413h178v-1413h-178z" />
<glyph unicode="&#x42c;" horiz-adv-x="985" d="M135 0v1413h180v-569h215q216 0 300.5 -96t84.5 -338q0 -126 -19 -207.5t-63.5 -130.5t-109.5 -68.5t-164 -19.5q-271 0 -418 16h-6zM315 143l215 -2q127 0 166 53t39 218q0 82 -7.5 131t-30 85t-62 50t-105.5 14h-215v-549z" />
<glyph unicode="&#x42d;" horiz-adv-x="956" d="M66 23l16 137q132 -23 317 -23q105 0 164 51.5t86 167t29 322.5l-477 2v139l475 2q-9 252 -71.5 353.5t-205.5 101.5q-171 0 -307 -19l-18 140q76 23 146 32t177 9q174 0 274.5 -71.5t145.5 -229t45 -430.5t-45 -431t-145.5 -229.5t-274.5 -71.5q-194 0 -331 48z" />
<glyph unicode="&#x42e;" horiz-adv-x="1548" d="M135 0v1413h180v-606h244q6 239 52 376.5t136.5 197t243.5 59.5q105 0 180 -23.5t130.5 -75t88.5 -138t48.5 -207.5t15.5 -289t-15.5 -289t-48.5 -208t-88.5 -138.5t-130.5 -75t-180 -23.5q-159 0 -251 65t-136 214t-47 410h-242v-662h-180zM733 707q0 -220 24 -342 t79 -176t155 -54q105 0 164 54t85 176.5t26 341.5t-26 341.5t-85 176t-164 53.5q-100 0 -155 -54t-79 -175.5t-24 -341.5z" />
<glyph unicode="&#x42f;" horiz-adv-x="1019" d="M66 0l98 432q20 85 65 134.5t99 64.5l-2 10q-114 20 -164.5 114.5t-50.5 262.5q0 225 85 319.5t285 94.5q253 0 404 -19v-1413h-180v575q-57 -2 -220 -2q-55 0 -88 -34.5t-51 -114.5l-90 -424h-190zM289 1008q0 -142 44.5 -210.5t151.5 -68.5h220v545l-220 2 q-110 0 -153 -56.5t-43 -211.5z" />
<glyph unicode="&#x430;" horiz-adv-x="919" d="M80 260v109q0 117 61.5 181t171.5 64h316v88q-2 95 -35 133.5t-123 38.5q-106 0 -338 -26l-16 129q225 45 393 45q150 0 221.5 -72t71.5 -248v-702h-135l-21 154q-53 -70 -134.5 -121t-180.5 -51q-113 0 -182.5 73t-69.5 205zM256 281q0 -78 27 -114t86 -36 q53 -2 123.5 34t136.5 105v213l-281 -2q-52 -3 -72 -36.5t-20 -100.5v-63z" />
<glyph unicode="&#x431;" horiz-adv-x="958" d="M109 602q0 140 6.5 238t24.5 190.5t51 154t86.5 110t130.5 77.5q47 17 123.5 32.5t137.5 37.5t122 67l43 -135q-61 -45 -119 -67t-130.5 -38t-117.5 -32q-55 -20 -94.5 -55t-62.5 -82t-35.5 -93.5t-20.5 -105.5q-10 -62 -16 -145h4q14 35 27.5 61t38.5 56t56 49t78 32 t105 13q177 0 250 -111.5t73 -370.5q0 -125 -17.5 -214t-59 -158t-117.5 -103.5t-187 -34.5q-59 0 -107.5 10t-85 27t-65 46t-48.5 59.5t-33.5 75.5t-21.5 86t-12.5 99.5t-5.5 107t-1 116.5zM289 485q0 -206 43.5 -284t156.5 -78q112 0 155.5 77.5t43.5 284.5 q0 193 -40.5 263.5t-149.5 70.5q-52 0 -89 -14.5t-60.5 -40.5t-36.5 -69t-18 -92t-5 -118z" />
<glyph unicode="&#x432;" horiz-adv-x="917" d="M121 -2v997q138 13 344 13q193 0 267.5 -56t74.5 -211q0 -107 -41 -161.5t-133 -63.5v-6q110 -10 157.5 -75t47.5 -189q0 -150 -74 -205t-254 -55q-246 0 -389 12zM285 125l196 -2q102 0 141.5 33t39.5 127t-41.5 131t-145.5 37h-190v-326zM285 575h190q96 0 133 31.5 t37 120.5q0 84 -41 113.5t-147 29.5q-36 0 -93 1t-79 1v-297z" />
<glyph unicode="&#x433;" horiz-adv-x="778" d="M119 0v784q0 106 47 161.5t139 55.5q307 0 440 -16l-6 -123h-358q-47 0 -68.5 -29t-21.5 -94v-739h-172z" />
<glyph unicode="&#x434;" horiz-adv-x="989" d="M47 139h86q103 262 123 629q12 229 221 229h342v-858h117v-434h-113l-14 295h-635l-14 -295h-113v434zM283 139h370v721h-147q-88 0 -94 -121q-29 -371 -129 -600z" />
<glyph unicode="&#x435;" horiz-adv-x="899" d="M86 502q0 195 40 309t121.5 162.5t217.5 48.5q187 0 271.5 -80.5t84.5 -245.5q0 -136 -49.5 -209t-148.5 -73h-355q6 -118 32.5 -181.5t73 -86.5t128.5 -23q130 0 284 24l15 -116q-57 -27 -149 -41.5t-173 -14.5q-214 0 -303.5 120t-89.5 407zM266 549h309q23 0 38 12 t22 34.5t9.5 45.5t2.5 55q0 97 -38 137.5t-136 40.5q-117 0 -160.5 -68t-46.5 -257z" />
<glyph unicode="&#x436;" horiz-adv-x="1320" d="M51 0q76 255 103 323q52 125 123 167q37 21 88 28v4q-38 5 -68 19.5t-54 41.5t-42.5 58t-37 80.5t-33.5 96.5t-36 118q-12 40 -18 61h172q68 -220 93 -277q48 -110 111 -130q17 -6 37 -6h107q-8 49 -8 116v297h151v-297q0 -67 -8 -116h100q77 0 128 94q35 64 98 268 q13 40 16 51h174q-8 -25 -22 -72q-16 -54 -24 -79.5t-22 -68t-23 -63t-23 -52t-26 -46t-29 -34.5t-35 -30t-40 -18.5t-47 -11.5v-4q51 -7 89.5 -32t63.5 -52t54.5 -101.5t45 -123.5t51.5 -175q7 -23 10 -34h-174q-11 34 -31 96q-25 78 -36.5 113t-31 86.5t-33 72t-33.5 45 t-41.5 32.5t-49.5 8h-109q8 -70 8 -99v-354h-151v354q0 41 10 99h-117q-70 -1 -115 -75q-36 -58 -99 -254q-4 -12 -11 -36q-19 -57 -29 -88h-176z" />
<glyph unicode="&#x437;" horiz-adv-x="833" d="M59 12l13 133q172 -16 311 -16q110 0 149 31.5t39 122.5q0 93 -40 127t-146 34h-205v127l203 2q97 0 131.5 31.5t34.5 120.5q0 86 -40.5 113.5t-158.5 27.5q-141 0 -250 -16l-12 133q108 31 260 31q106 0 172 -11t113 -40.5t66.5 -81t19.5 -133.5q0 -110 -39 -166 t-129 -66v-6q105 -10 152 -73.5t47 -190.5q0 -153 -80.5 -208.5t-272.5 -55.5q-196 0 -338 30z" />
<glyph unicode="&#x438;" horiz-adv-x="972" d="M123 0v997h153v-630q0 -101 -4 -150h4q11 35 58 131l346 649h170v-997h-156v631q0 67 6 149h-6q-6 -22 -15 -43.5t-24.5 -53t-17.5 -36.5l-346 -647h-168z" />
<glyph unicode="&#x439;" horiz-adv-x="972" d="M123 0v997h153v-630q0 -101 -4 -150h4q11 35 58 131l346 649h170v-997h-156v631q0 67 6 149h-6q-6 -22 -15 -43.5t-24.5 -53t-17.5 -36.5l-346 -647h-168zM231 1440h129q0 -90 32 -137.5t95 -47.5q61 0 93 47.5t32 137.5h129q8 -121 -61.5 -201t-192.5 -80 q-124 0 -194 80t-62 201z" />
<glyph unicode="&#x43a;" horiz-adv-x="897" d="M123 0v997h172v-297q0 -65 -8 -114h94q68 0 115 50.5t69.5 111t66.5 206.5q9 28 13 43h176q-71 -228 -89 -275q-50 -126 -118 -169q-39 -24 -90 -31v-6q37 -4 66.5 -16.5t53 -30t45 -49t38 -64t35 -85.5t34.5 -102.5t39 -125.5q8 -28 13 -43h-182q-73 242 -101 306 q-46 105 -109 132q-30 12 -67 13h-104q10 -55 10 -97v-354h-172z" />
<glyph unicode="&#x43b;" horiz-adv-x="942" d="M29 123q66 19 94.5 50t44.5 89q8 26 14.5 58.5t12.5 73.5t10 73t9 82t7 74.5t6.5 77t5.5 63.5q11 117 64.5 175t159.5 58h362v-997h-176v860h-149q-49 0 -70 -27.5t-29 -97.5q-2 -19 -9 -89.5t-9.5 -98t-9.5 -87t-13 -94t-14.5 -78.5t-17.5 -77q-53 -218 -275 -221z" />
<glyph unicode="&#x43c;" horiz-adv-x="1249" d="M106 0l29 932q0 65 66 65h174q50 0 65 -57l142 -573q2 -10 13.5 -62.5t16.5 -81.5h23q6 30 17.5 82t13.5 62l141 573q15 57 65 57h177q63 0 63 -65l31 -932h-160l-29 864h-24l-176 -698q-15 -57 -68 -57h-127q-52 0 -67 57l-175 698h-26l-27 -864h-158z" />
<glyph unicode="&#x43d;" horiz-adv-x="970" d="M123 0v997h172v-401h381v401h172v-997h-172v463h-381v-463h-172z" />
<glyph unicode="&#x43e;" horiz-adv-x="948" d="M86 498q0 286 88.5 405t300.5 119t300.5 -119t88.5 -405q0 -287 -88.5 -406t-300.5 -119t-300.5 119t-88.5 406zM268 498q0 -218 43.5 -297.5t163.5 -79.5t164.5 79.5t44.5 297.5q0 148 -19.5 228t-63.5 114t-126 34q-120 0 -163.5 -79t-43.5 -297z" />
<glyph unicode="&#x43f;" horiz-adv-x="956" d="M123 0v997h711v-997h-170v856h-371v-856h-170z" />
<glyph unicode="&#x440;" horiz-adv-x="976" d="M123 -412v1409h143l15 -153q59 82 150.5 130t182.5 48q144 0 209.5 -131.5t65.5 -396.5q0 -281 -76 -400t-235 -119t-287 101q7 -83 4 -199v-289h-172zM295 188q59 -23 86.5 -32.5t69.5 -19t81 -9.5q67 0 104 30.5t55 110t18 226.5q0 210 -35 293t-119 83 q-60 0 -119.5 -36t-140.5 -117v-529z" />
<glyph unicode="&#x441;" horiz-adv-x="819" d="M86 500q0 288 87.5 405t301.5 117q166 0 270 -47l-20 -113q-117 12 -221 12q-134 0 -185 -79t-51 -295q0 -217 51 -297t185 -80q132 0 239 20l15 -116q-119 -52 -285 -52q-212 0 -299.5 118t-87.5 407z" />
<glyph unicode="&#x442;" horiz-adv-x="823" d="M41 854v143h739v-143h-282v-854h-172v854h-285z" />
<glyph unicode="&#x443;" horiz-adv-x="890" d="M29 997h184l190 -743q23 -77 29 -121h23q7 23 18.5 65.5t15.5 55.5l189 743h184l-305 -1052q-67 -212 -156 -291q-64 -54 -148 -69t-179 3l16 121q135 -8 195 45q62 59 108 203l17 43h-41q-46 0 -62 45z" />
<glyph unicode="&#x444;" horiz-adv-x="1198" d="M84 498q0 264 100 385.5t336 136.5v414h160v-414q235 -15 335.5 -136.5t100.5 -385.5t-100.5 -385t-335.5 -136v-389h-160v389q-236 15 -336 136t-100 385zM250 498q0 -196 60.5 -278.5t215.5 -94.5v747q-155 -12 -215.5 -94.5t-60.5 -279.5zM674 125q155 13 214.5 95 t59.5 278q0 197 -59.5 279t-214.5 95v-747z" />
<glyph unicode="&#x445;" horiz-adv-x="892" d="M35 0l260 514l-242 483h187l196 -411h23l194 411h187l-240 -483l258 -514h-184l-219 451h-15l-217 -451h-188z" />
<glyph unicode="&#x446;" horiz-adv-x="997" d="M123 0v997h172v-858h358v858h172l-2 -858h119v-434h-115l-16 295h-688z" />
<glyph unicode="&#x447;" horiz-adv-x="892" d="M86 565v432h170v-374q0 -74 22.5 -104t77.5 -30q117 0 240 68v440h174l-2 -997h-172v418q-75 -35 -157.5 -53.5t-139.5 -18.5q-213 0 -213 219z" />
<glyph unicode="&#x448;" horiz-adv-x="1343" d="M123 0v997h168v-858h303v858h156v-858h305v858h166v-997h-1098z" />
<glyph unicode="&#x449;" horiz-adv-x="1394" d="M123 0v997h168v-858h303v858h154v-858h305v858h168v-858h118v-434h-114l-15 295h-1087z" />
<glyph unicode="&#x44a;" horiz-adv-x="1050" d="M41 858v139h444v-387h164q191 0 263.5 -67.5t72.5 -243.5q0 -178 -70.5 -244.5t-238.5 -66.5q-228 0 -359 12v858h-276zM485 125h164q92 0 126 36t34 144q0 100 -33.5 138t-126.5 38h-164v-356z" />
<glyph unicode="&#x44b;" horiz-adv-x="1216" d="M123 0v997h168v-387h166q191 0 263.5 -67.5t72.5 -243.5q0 -178 -70.5 -244.5t-235.5 -66.5q-229 0 -360 12h-4zM291 127l166 -2q93 0 126 36t33 144q0 100 -33.5 138t-125.5 38h-166v-354zM920 0v997h174v-997h-174z" />
<glyph unicode="&#x44c;" horiz-adv-x="858" d="M123 0v997h168v-387h166q192 0 264 -67.5t72 -243.5q0 -92 -17 -152t-56 -95t-94 -49.5t-139 -14.5q-229 0 -360 12h-4zM291 127l166 -2q92 0 125.5 36t33.5 144q0 100 -32.5 138t-126.5 38h-166v-354z" />
<glyph unicode="&#x44d;" horiz-adv-x="849" d="M66 18l16 123q144 -14 276 -14q86 0 134 28t71.5 95.5t26.5 191.5h-408v131h406q-7 165 -58.5 228t-171.5 63q-118 0 -268 -10l-16 121q63 21 122 28t162 7q114 0 190 -26t125.5 -88t71 -159t21.5 -243q0 -284 -91.5 -399t-316.5 -115q-182 0 -292 38z" />
<glyph unicode="&#x44e;" horiz-adv-x="1331" d="M123 0v997h172v-415h190q6 170 45.5 265.5t115.5 135t208 39.5q111 0 182.5 -24.5t119 -85.5t67.5 -160t20 -252q0 -200 -38.5 -312t-121 -159t-229.5 -47q-135 0 -213 42.5t-116 143t-42 278.5h-188v-446h-172zM647 502q0 -215 42.5 -294t160.5 -79q123 0 168 79.5 t45 293.5q0 215 -45 293.5t-168 78.5q-118 0 -160.5 -78t-42.5 -294z" />
<glyph unicode="&#x44f;" horiz-adv-x="907" d="M57 0l72 299q14 58 59 89t97 38v8q-97 17 -138 85.5t-41 193.5q0 148 69.5 221.5t244.5 73.5q236 0 366 -15v-993h-170v369h-202q-100 0 -119 -103l-59 -266h-179zM276 688q0 -106 28.5 -147t119.5 -41h192v366l-194 2q-91 0 -118.5 -39t-27.5 -141z" />
<glyph unicode="&#x451;" horiz-adv-x="899" d="M86 502q0 195 40 309t121.5 162.5t217.5 48.5q187 0 271.5 -80.5t84.5 -245.5q0 -136 -49.5 -209t-148.5 -73h-355q6 -118 32.5 -181.5t73 -86.5t128.5 -23q130 0 284 24l15 -116q-57 -27 -149 -41.5t-173 -14.5q-214 0 -303.5 120t-89.5 407zM246 1251v113q0 49 45 49 h59q45 0 45 -49v-113q0 -49 -45 -49h-59q-45 0 -45 49zM266 549h309q23 0 38 12t22 34.5t9.5 45.5t2.5 55q0 97 -38 137.5t-136 40.5q-117 0 -160.5 -68t-46.5 -257zM539 1251v113q0 49 47 49h55q22 0 34.5 -13t12.5 -36v-113q0 -49 -47 -49h-55q-47 0 -47 49z" />
<glyph unicode="&#x452;" horiz-adv-x="976" d="M41 1012v100h121v322h172l2 -322h291v-100h-291l2 -172q0 -96 -12 -172q178 155 344 155q110 0 166.5 -69.5t56.5 -204.5v-574q0 -118 -45.5 -221t-124.5 -170l-96 76q49 72 70.5 145t21.5 170v527q0 90 -27.5 128t-97.5 38q-56 0 -115 -31t-145 -100v-537h-172v1012 h-121z" />
<glyph unicode="&#x453;" horiz-adv-x="778" d="M119 0v784q0 106 47 161.5t139 55.5q307 0 440 -16l-6 -123h-358q-47 0 -68.5 -29t-21.5 -94v-739h-172zM332 1204l297 299l96 -133l-338 -246z" />
<glyph unicode="&#x454;" horiz-adv-x="851" d="M86 494q0 288 90.5 402t315.5 114q103 0 163 -7t121 -28l-16 -121q-147 10 -268 10q-120 0 -170.5 -63t-57.5 -228h406v-131h-408q6 -182 55.5 -248.5t174.5 -66.5q131 0 278 14l16 -123q-110 -38 -294 -38q-224 0 -315 115t-91 399z" />
<glyph unicode="&#x455;" horiz-adv-x="851" d="M80 748q0 87 17 141t58.5 84t98 40.5t147.5 8.5q201 -4 349 -31l-15 -127q-250 10 -305 10h-62.5t-47.5 -4t-34 -11.5t-22.5 -22t-12 -35.5t-3.5 -53q0 -72 24 -98.5t88 -45.5l224 -65q102 -30 146 -90.5t44 -184.5q0 -74 -14 -124.5t-39 -82.5t-70.5 -49.5t-98.5 -24 t-132 -6.5q-173 0 -324 29l10 127q128 -11 275 -8q136 0 180.5 26t44.5 113q0 67 -27 93t-94 46l-219 66q-102 29 -144 92.5t-42 186.5z" />
<glyph unicode="&#x456;" horiz-adv-x="434" d="M125 1251v117q0 53 49 53h84q51 0 51 -53v-117q0 -53 -51 -53h-84q-49 0 -49 53zM131 0v997h172v-997h-172z" />
<glyph unicode="&#x457;" horiz-adv-x="432" d="M-4 1251v113q0 49 45 49h59q45 0 45 -49v-113q0 -49 -45 -49h-59q-45 0 -45 49zM131 0v997h172v-997h-172zM289 1251v113q0 49 45 49h57q22 0 34.5 -13t12.5 -36v-113q0 -49 -47 -49h-57q-45 0 -45 49z" />
<glyph unicode="&#x458;" horiz-adv-x="434" d="M39 -340q49 72 70.5 145t21.5 170v1022h172v-1022q0 -119 -45 -222t-125 -169zM127 1251v117q0 53 49 53h84q49 0 49 -53v-117q0 -53 -49 -53h-84q-49 0 -49 53z" />
<glyph unicode="&#x459;" horiz-adv-x="1345" d="M43 113q35 18 50 26.5t41.5 37t41.5 67.5q32 84 46 186.5t34 366.5q18 200 199 200h325v-381h166q191 0 262.5 -68.5t71.5 -246.5q0 -96 -17 -157t-56.5 -95.5t-94.5 -47.5t-141 -13q-224 0 -357 12v864h-110q-46 0 -65.5 -22t-24.5 -76q-21 -256 -36 -365.5t-46 -199.5 q-30 -104 -106.5 -155.5t-168.5 -51.5zM780 125h162q95 0 128.5 34.5t33.5 147.5q0 103 -33 142.5t-125 39.5h-166v-364z" />
<glyph unicode="&#x45a;" horiz-adv-x="1353" d="M123 0v997h160v-385h340v385h161v-383h168q193 0 264.5 -67.5t71.5 -245.5q0 -180 -69.5 -246.5t-237.5 -66.5q-225 0 -358 12v487h-340v-487h-160zM784 127l168 -2q93 0 126.5 36t33.5 146q0 103 -33 141.5t-127 38.5h-168v-360z" />
<glyph unicode="&#x45b;" horiz-adv-x="976" d="M41 1012v100h121v322h172l2 -322h291v-100h-291l2 -172q0 -96 -12 -172q178 155 344 155q110 0 166.5 -69.5t56.5 -204.5v-549h-174v502q0 92 -27.5 129t-97.5 37q-56 0 -115 -31t-145 -100v-537h-172v1012h-121z" />
<glyph unicode="&#x45c;" horiz-adv-x="897" d="M123 0v997h172v-297q0 -65 -8 -114h94q68 0 115 50.5t69.5 111t66.5 206.5q9 28 13 43h176q-71 -228 -89 -275q-50 -126 -118 -169q-39 -24 -90 -31v-6q37 -4 66.5 -16.5t53 -30t45 -49t38 -64t35 -85.5t34.5 -102.5t39 -125.5q8 -28 13 -43h-182q-73 242 -101 306 q-46 105 -109 132q-30 12 -67 13h-104q10 -55 10 -97v-354h-172zM346 1204l297 299l96 -133l-338 -246z" />
<glyph unicode="&#x45d;" horiz-adv-x="972" d="M123 0v997h153v-630q0 -101 -4 -150h4q11 35 58 131l346 649h170v-997h-156v631q0 67 6 149h-6q-6 -22 -15 -43.5t-24.5 -53t-17.5 -36.5l-346 -647h-168zM180 1370l96 133l297 -299l-55 -80z" />
<glyph unicode="&#x45e;" horiz-adv-x="890" d="M29 997h184l190 -743q23 -77 29 -121h23q7 23 18.5 65.5t15.5 55.5l189 743h184l-305 -1052q-67 -212 -156 -291q-64 -54 -148 -69t-179 3l16 121q135 -8 195 45q62 59 108 203l17 43h-41q-46 0 -62 45zM186 1440h129q0 -90 32 -137.5t95 -47.5q61 0 93 47.5t32 137.5 h129q8 -123 -61 -202t-193 -79t-194 79.5t-62 201.5z" />
<glyph unicode="&#x45f;" horiz-adv-x="964" d="M123 0v997h170l4 -858h371l2 858h172v-997h-289l-12 -338h-117l-14 338h-287z" />
<glyph unicode="&#x490;" horiz-adv-x="870" d="M131 0v1149q0 118 62.5 192t158.5 74q235 0 350 -10l19 319h117v-338l-9 -124h-415q-58 0 -80.5 -33.5t-22.5 -112.5v-1116h-180z" />
<glyph unicode="&#x491;" horiz-adv-x="782" d="M121 0v784q0 106 47 161.5t139 55.5q209 0 311 -6l17 301h113l2 -311l-11 -123h-358q-46 1 -67 -28.5t-21 -94.5v-739h-172z" />
<glyph unicode="&#x4b0;" horiz-adv-x="972" d="M23 1413h190l221 -596q17 -43 49 -160h13q20 84 47 158l221 598h186l-344 -850h213v-106h-241v-457h-179v457h-241v106h215z" />
<glyph unicode="&#x4b1;" horiz-adv-x="976" d="M25 997h188l221 -589q17 -42 49 -158h13q20 84 47 158l221 589h188l-346 -845h213v-111h-241v-453h-179v453h-241v111h213z" />
<glyph unicode="&#x4b6;" horiz-adv-x="1095" d="M94 834v579h180v-543q-2 -105 33.5 -151.5t118.5 -46.5q79 0 147.5 23.5t159.5 84.5v633h180v-1288h136v-434h-121l-19 309h-176v631q-92 -59 -191.5 -88t-179.5 -29q-138 0 -203 78.5t-65 241.5z" />
<glyph unicode="&#x4b7;" horiz-adv-x="942" d="M86 565v432h170v-374q0 -74 22.5 -104t77.5 -30q117 0 240 68v440h174l-2 -858h119v-434h-115l-16 295h-160v418q-75 -35 -157.5 -53.5t-139.5 -18.5q-213 0 -213 219z" />
<glyph unicode="&#x4ba;" horiz-adv-x="1048" d="M135 0v1413h180v-631q89 58 191.5 87.5t177.5 29.5q138 0 204 -78t66 -241v-580h-180v543q2 105 -33 151.5t-118 46.5q-78 0 -149.5 -24t-158.5 -82v-635h-180z" />
<glyph unicode="&#x4c0;" horiz-adv-x="454" d="M137 0v1413h180v-1413h-180z" />
<glyph unicode="&#x1e80;" horiz-adv-x="1576" d="M51 1413h189l151 -1102q12 -79 21 -174h37q8 88 24 174l154 1043q5 27 22.5 43t44.5 16h189q27 0 44.5 -16t22.5 -43l154 -1043q15 -89 24 -174h37q11 100 21 172l151 1104h191l-209 -1360q-8 -24 -26 -38.5t-42 -14.5h-198q-26 0 -44.5 15t-23.5 40l-156 1063l-24 160 h-33q-4 -25 -11 -79t-11 -81l-156 -1063q-4 -25 -24 -40t-46 -15h-198q-25 0 -43.5 15t-24.5 38zM485 1737l97 133l297 -299l-56 -80z" />
<glyph unicode="&#x1e81;" horiz-adv-x="1368" d="M35 997h178l149 -735q2 -10 11.5 -65t13.5 -84h21l26 149l105 680q3 25 20.5 40t42.5 15h164q27 0 44.5 -15.5t18.5 -41.5l103 -678q4 -23 14.5 -73t14.5 -76h22q12 103 23 149l147 735h180l-223 -948q-4 -23 -21.5 -36t-41.5 -13h-160q-24 0 -44.5 15.5t-23.5 39.5 l-100 678q-19 122 -27 158h-18l-25 -158l-102 -678q-3 -24 -22 -39.5t-46 -15.5h-155q-53 0 -66 49zM381 1370l96 133l297 -299l-55 -80z" />
<glyph unicode="&#x1e82;" horiz-adv-x="1576" d="M51 1413h189l151 -1102q12 -79 21 -174h37q8 88 24 174l154 1043q5 27 22.5 43t44.5 16h189q27 0 44.5 -16t22.5 -43l154 -1043q15 -89 24 -174h37q11 100 21 172l151 1104h191l-209 -1360q-8 -24 -26 -38.5t-42 -14.5h-198q-26 0 -44.5 15t-23.5 40l-156 1063l-24 160 h-33q-4 -25 -11 -79t-11 -81l-156 -1063q-4 -25 -24 -40t-46 -15h-198q-25 0 -43.5 15t-24.5 38zM674 1571l297 299l96 -133l-338 -246z" />
<glyph unicode="&#x1e83;" horiz-adv-x="1368" d="M35 997h178l149 -735q2 -10 11.5 -65t13.5 -84h21l26 149l105 680q3 25 20.5 40t42.5 15h164q27 0 44.5 -15.5t18.5 -41.5l103 -678q4 -23 14.5 -73t14.5 -76h22q12 103 23 149l147 735h180l-223 -948q-4 -23 -21.5 -36t-41.5 -13h-160q-24 0 -44.5 15.5t-23.5 39.5 l-100 678q-19 122 -27 158h-18l-25 -158l-102 -678q-3 -24 -22 -39.5t-46 -15.5h-155q-53 0 -66 49zM567 1204l297 299l97 -133l-338 -246z" />
<glyph unicode="&#x1e84;" horiz-adv-x="1576" d="M51 1413h189l151 -1102q12 -79 21 -174h37q8 88 24 174l154 1043q5 27 22.5 43t44.5 16h189q27 0 44.5 -16t22.5 -43l154 -1043q15 -89 24 -174h37q11 100 21 172l151 1104h191l-209 -1360q-8 -24 -26 -38.5t-42 -14.5h-198q-26 0 -44.5 15t-23.5 40l-156 1063l-24 160 h-33q-4 -25 -11 -79t-11 -81l-156 -1063q-4 -25 -24 -40t-46 -15h-198q-25 0 -43.5 15t-24.5 38zM569 1618v113q0 49 47 49h58q45 0 45 -49v-113q0 -49 -45 -49h-58q-47 0 -47 49zM862 1618v113q0 49 47 49h58q22 0 34.5 -13t12.5 -36v-113q0 -49 -47 -49h-58q-47 0 -47 49z " />
<glyph unicode="&#x1e85;" horiz-adv-x="1368" d="M35 997h178l149 -735q2 -10 11.5 -65t13.5 -84h21l26 149l105 680q3 25 20.5 40t42.5 15h164q27 0 44.5 -15.5t18.5 -41.5l103 -678q4 -23 14.5 -73t14.5 -76h22q12 103 23 149l147 735h180l-223 -948q-4 -23 -21.5 -36t-41.5 -13h-160q-24 0 -44.5 15.5t-23.5 39.5 l-100 678q-19 122 -27 158h-18l-25 -158l-102 -678q-3 -24 -22 -39.5t-46 -15.5h-155q-53 0 -66 49zM463 1251v113q0 49 47 49h57q45 0 45 -49v-113q0 -49 -45 -49h-57q-47 0 -47 49zM756 1251v113q0 49 47 49h57q22 0 34.5 -13t12.5 -36v-113q0 -49 -47 -49h-57 q-47 0 -47 49z" />
<glyph unicode="&#x1ef2;" horiz-adv-x="954" d="M12 1413h191l219 -594q18 -44 49 -157h14q23 99 47 157l222 594h186l-375 -919v-494h-178v500zM172 1737l96 133l297 -299l-55 -80z" />
<glyph unicode="&#x1ef3;" horiz-adv-x="886" d="M25 997h186l190 -743q16 -55 29 -121h21q7 23 18.5 65.5t15.5 55.5l189 743h186l-307 -1052q-21 -71 -52 -130.5t-76.5 -113.5t-110.5 -86.5t-144 -36.5l-16 115q94 37 149.5 101t87.5 163l15 43h-39q-22 0 -39 12t-23 33zM141 1370l97 133l297 -299l-56 -80z" />
<glyph unicode="&#x2000;" horiz-adv-x="957" />
<glyph unicode="&#x2001;" horiz-adv-x="1915" />
<glyph unicode="&#x2002;" horiz-adv-x="957" />
<glyph unicode="&#x2003;" horiz-adv-x="1915" />
<glyph unicode="&#x2004;" horiz-adv-x="638" />
<glyph unicode="&#x2005;" horiz-adv-x="478" />
<glyph unicode="&#x2006;" horiz-adv-x="319" />
<glyph unicode="&#x2007;" horiz-adv-x="319" />
<glyph unicode="&#x2008;" horiz-adv-x="239" />
<glyph unicode="&#x2009;" horiz-adv-x="383" />
<glyph unicode="&#x200a;" horiz-adv-x="106" />
<glyph unicode="&#x2010;" horiz-adv-x="724" d="M113 451v133h499v-133h-499z" />
<glyph unicode="&#x2011;" horiz-adv-x="724" d="M113 451v133h499v-133h-499z" />
<glyph unicode="&#x2012;" horiz-adv-x="724" d="M113 451v133h499v-133h-499z" />
<glyph unicode="&#x2013;" horiz-adv-x="962" d="M113 451v133h737v-133h-737z" />
<glyph unicode="&#x2014;" horiz-adv-x="1462" d="M113 451v133h1237v-133h-1237z" />
<glyph unicode="&#x2018;" horiz-adv-x="368" d="M102 1077v123q3 160 64 295l84 -22q-21 -117 -21 -230q23 0 36.5 -14t13.5 -39v-113q-3 -34 -18.5 -47.5t-49.5 -13.5h-49q-35 0 -47.5 13.5t-12.5 47.5z" />
<glyph unicode="&#x2019;" horiz-adv-x="364" d="M90 1307v112q3 34 18.5 48t47.5 14h49q35 0 48 -14t13 -48v-123q-3 -165 -65 -292l-82 20q20 111 20 229q-23 0 -36 14.5t-13 39.5z" />
<glyph unicode="&#x201a;" horiz-adv-x="389" d="M104 53v113q1 33 17 47t49 14h51q35 0 48.5 -13.5t13.5 -47.5v-121q-3 -156 -66 -295l-84 23q21 117 21 229q-23 0 -36.5 14t-13.5 37z" />
<glyph unicode="&#x201c;" horiz-adv-x="641" d="M100 1077v123q3 156 66 295l84 -22q-21 -137 -21 -230q23 0 36.5 -14t13.5 -39v-113q-3 -32 -17.5 -45.5t-48.5 -13.5h-51q-35 0 -48.5 13t-13.5 46zM373 1077v123q3 165 65 295l84 -22q-20 -111 -20 -230q23 0 36 -14t13 -39v-113q-3 -32 -18.5 -45.5t-47.5 -13.5h-51 q-35 0 -48 13t-13 46z" />
<glyph unicode="&#x201d;" horiz-adv-x="636" d="M90 1307v112q3 34 18.5 48t47.5 14h49q35 0 48 -14t13 -48v-123q-3 -165 -65 -292l-82 20q20 111 20 229q-23 0 -36 14.5t-13 39.5zM362 1307v112q3 34 18.5 48t47.5 14h49q35 0 48.5 -14t13.5 -48v-123q-3 -163 -66 -292l-82 20q21 117 21 229q-23 0 -36.5 14.5 t-13.5 39.5z" />
<glyph unicode="&#x201e;" horiz-adv-x="661" d="M102 53v113q3 33 18 47t48 14h51q35 0 47.5 -13.5t12.5 -47.5v-121q-3 -160 -64 -295l-84 23q21 117 21 229q-23 0 -36.5 14t-13.5 37zM375 53v113q3 34 18 47.5t47 13.5h52q35 0 47 -13.5t12 -47.5v-121q-3 -163 -66 -295l-82 23q21 117 21 229q-23 0 -36 14t-13 37z " />
<glyph unicode="&#x2020;" horiz-adv-x="761" d="M63 844v153h213v-133zM301 -225l10 1114v98l-8 428h156l-8 -428v-98l8 -1114h-158zM483 864v133h213v-153z" />
<glyph unicode="&#x2021;" horiz-adv-x="821" d="M94 193v153l213 -20v-133h-213zM94 844v153h213v-133zM334 -225l8 420v798l-8 422h155l-8 -422v-798l8 -420h-155zM514 193v133l213 20v-153h-213zM514 864v133h213v-153z" />
<glyph unicode="&#x2022;" horiz-adv-x="606" d="M141 539v24q0 96 33.5 133t120.5 37h22q82 0 115 -37.5t33 -132.5v-24q0 -99 -33 -138t-115 -39h-22q-87 0 -120.5 38.5t-33.5 138.5z" />
<glyph unicode="&#x2026;" horiz-adv-x="1439" d="M104 66v110q0 37 14.5 51.5t49.5 14.5h55q35 0 49.5 -14.5t14.5 -51.5v-110q0 -37 -14.5 -51.5t-49.5 -14.5h-55q-35 0 -49.5 14.5t-14.5 51.5zM629 66v110q0 37 13.5 51.5t49.5 14.5h56q35 0 49 -14.5t14 -51.5v-110q0 -37 -14 -51.5t-49 -14.5h-56q-36 0 -49.5 14.5 t-13.5 51.5zM1153 66v110q0 37 14 51.5t50 14.5h55q35 0 49 -14.5t14 -51.5v-110q0 -37 -14 -51.5t-49 -14.5h-55q-36 0 -50 14.5t-14 51.5z" />
<glyph unicode="&#x202f;" horiz-adv-x="383" />
<glyph unicode="&#x2030;" horiz-adv-x="2107" d="M72 1020q0 228 60.5 324t209.5 96q150 0 210 -95.5t60 -324.5q0 -228 -60 -324t-210 -96q-149 0 -209.5 96.5t-60.5 323.5zM201 1020q0 -174 30 -241.5t109 -67.5q81 0 111 67t30 242t-30 242t-111 67q-79 0 -109 -67.5t-30 -241.5zM319 0l721 1413h119l-721 -1413h-119z M870 401q0 225 61 321.5t210 96.5q150 0 210 -96t60 -322q0 -229 -60 -324t-210 -95t-210.5 95.5t-60.5 323.5zM1001 401q0 -176 29.5 -243.5t110.5 -67.5q79 0 110 68.5t31 242.5q0 172 -31 240t-110 68q-81 0 -110.5 -67t-29.5 -241zM1493 401q0 226 60.5 322t209.5 96 t210 -96.5t61 -321.5q0 -228 -60.5 -323.5t-210.5 -95.5q-149 0 -209.5 95.5t-60.5 323.5zM1624 401q0 -174 29.5 -242.5t107.5 -68.5q82 0 113 68t31 243q0 173 -31 240.5t-113 67.5q-78 0 -107.5 -67.5t-29.5 -240.5z" />
<glyph unicode="&#x2039;" horiz-adv-x="501" d="M68 494v41l264 405l90 -61l-195 -365l197 -373l-90 -61z" />
<glyph unicode="&#x203a;" horiz-adv-x="505" d="M78 141l198 373l-196 365l90 61l266 -405v-41l-266 -414z" />
<glyph unicode="&#x2044;" horiz-adv-x="264" d="M-289 0l721 1413h121l-721 -1413h-121z" />
<glyph unicode="&#x205f;" horiz-adv-x="478" />
<glyph unicode="&#x20ac;" horiz-adv-x="1050" d="M78 535v108h129v64q0 65 2 96h-129v108h135q25 268 133.5 397.5t325.5 129.5q161 0 276 -41l-16 -140q-125 28 -270 19q-117 -6 -179.5 -94.5t-81.5 -270.5h404l-10 -108h-402q-2 -31 -2 -98v-62h355l-11 -108h-338q15 -199 78 -296.5t187 -101.5q168 -4 288 25l19 -139 q-129 -48 -297 -48q-224 0 -332 137.5t-129 422.5h-135z" />
<glyph unicode="&#x2122;" horiz-adv-x="1603" d="M106 1321v104h543v-104h-211v-674h-123v674h-209zM725 647l25 729q3 49 45 49h123q37 0 49 -41l108 -450q4 -18 11.5 -55t11.5 -54h16q2 9 9.5 49t13.5 62l106 448q12 41 49 41h127q42 0 45 -49l25 -729h-115l-24 682h-19l-131 -549q-12 -41 -49 -41h-88q-38 0 -51 41 l-131 549h-19l-24 -682h-113z" />
<glyph unicode="&#x2202;" horiz-adv-x="950" d="M82 463q8 208 95 333t253 124q160 -4 254 -140q2 109 -5 186t-27.5 138t-54 98t-89 61.5t-127 34t-172.5 9.5v133q108 1 188.5 -6.5t153.5 -27.5t122.5 -57t89 -93t60.5 -136t29.5 -186t3.5 -244q-6 -170 -31.5 -298t-74 -223.5t-126.5 -144.5t-184 -49 q-84 0 -149.5 27.5t-105.5 73.5t-65 110t-33 132t-5 145zM254 463q-3 -96 15 -169t62.5 -118t112.5 -45q64 0 108.5 39t69.5 117t37 165.5t19 213.5q-96 106 -209 106q-202 0 -215 -309z" />
<glyph unicode="&#x2205;" horiz-adv-x="1402" d="M102 698q0 122 47.5 232.5t127.5 190.5t191.5 127.5t233.5 47.5t232.5 -47.5t190.5 -127.5t127.5 -190.5t47.5 -232.5t-47.5 -233.5t-127.5 -191.5t-190.5 -127.5t-232.5 -47.5t-233.5 47.5t-191.5 127.5t-127.5 191.5t-47.5 233.5zM453 1094l6 -93q130 19 243 19 q64 0 100 -25t36 -69q0 -36 -20.5 -72.5t-50 -70.5t-58.5 -72.5t-49.5 -95t-20.5 -121.5h111q0 59 20 108.5t48 84t56 68t48 77t20 94.5q0 190 -240 190q-39 0 -68.5 -1t-56 -3.5t-39.5 -4.5t-42.5 -6.5t-42.5 -6.5zM641 258q0 -14 14 -14h80q17 0 17 14v76q0 16 -17 16h-80 q-14 0 -14 -16v-76z" />
<glyph unicode="&#x220f;" horiz-adv-x="1189" d="M59 1266v147h1069v-147h-161v-1477h-174v1477h-398v-1477h-172v1477h-164z" />
<glyph unicode="&#x2211;" horiz-adv-x="980" d="M78 -78l284 791l-264 553v147h785v-147h-590l264 -553l-287 -791h629v-145h-821v145z" />
<glyph unicode="&#x2212;" horiz-adv-x="964" d="M115 539v131h735v-131h-735z" />
<glyph unicode="&#x221a;" horiz-adv-x="942" d="M49 997h144l176 -878h22l375 1675h143l-405 -1778q-6 -16 -23 -16h-202q-21 0 -21 16z" />
<glyph unicode="&#x221e;" horiz-adv-x="1284" d="M92 637q0 136 68 206t176 70q167 0 307 -190q63 80 144.5 135t173.5 55q99 0 165 -70.5t66 -205.5q0 -141 -72.5 -220t-181.5 -79q-157 0 -293 180q-146 -180 -303 -180q-106 0 -178 79t-72 220zM240 633q0 -82 34 -124t97 -42q62 0 106 38.5t96 117.5q-22 34 -35 53 t-34 42.5t-40 36t-45.5 21t-56.5 8.5q-122 0 -122 -151zM713 614q18 -29 34.5 -50.5t42 -46t58 -37.5t70.5 -13q60 0 93 42t33 124q0 151 -120 151q-25 0 -47 -5.5t-42.5 -21t-33 -25.5t-33 -38t-27 -37t-28.5 -43z" />
<glyph unicode="&#x222b;" horiz-adv-x="604" d="M49 -446l12 124h103q56 0 78.5 39t19.5 133l-76 1340q-6 133 44 202.5t147 69.5q112 0 178 -8l-12 -125h-107q-55 0 -77 -37t-19 -131l76 -1343q8 -140 -38 -206.5t-161 -66.5q-113 0 -168 9z" />
<glyph unicode="&#x2248;" horiz-adv-x="968" d="M121 279q-18 129 29.5 188.5t140.5 56.5q55 -2 188 -60.5t187 -60.5q39 -1 52 20.5t13 88.5h117q35 -243 -170 -240q-60 1 -193 59.5t-182 61.5q-39 0 -52 -22t-13 -92h-117zM121 670q-18 129 29.5 188.5t140.5 56.5q54 -2 187.5 -59t187.5 -59q40 -2 52.5 18.5 t12.5 89.5h117q17 -122 -25.5 -182.5t-144.5 -58.5q-60 1 -192.5 59.5t-182.5 60.5q-38 2 -51.5 -21.5t-13.5 -92.5h-117z" />
<glyph unicode="&#x2260;" horiz-adv-x="964" d="M115 317v132h239l152 303h-391v129h454l113 223l49 -29l-98 -194h217v-129h-281l-153 -303h434v-132h-500l-127 -251l-47 28l113 223h-174z" />
<glyph unicode="&#x2264;" horiz-adv-x="923" d="M102 162v129h715v-129h-715zM121 670v139l684 287v-140l-533 -217l533 -198v-140z" />
<glyph unicode="&#x2265;" horiz-adv-x="923" d="M106 162v129h715v-129h-715zM119 401v140l534 198l-534 217v140l684 -287v-139z" />
<glyph unicode="&#x25ca;" horiz-adv-x="944" d="M51 692q-8 16 0 33l408 692q5 9 13 9t15 -9l404 -692q8 -17 0 -33l-404 -696q-7 -9 -15 -9t-13 9zM190 709l283 -539l279 539l-279 534z" />
<glyph unicode="&#x25fc;" horiz-adv-x="993" d="M0 0v993h993v-993h-993z" />
<glyph unicode="&#xfb00;" horiz-adv-x="1202" d="M43 860v127l147 10v154q0 140 60.5 215.5t181.5 75.5q122 0 205 -15l-14 -129h-129q-75 0 -103.5 -35t-28.5 -133v-133h388v179q0 145 56 218.5t185 73.5q146 0 238 -14l-15 -129h-161q-71 0 -100 -38t-29 -130v-160h243v-137h-243v-860h-174v860h-388v-860h-172v860 h-147z" />
<glyph unicode="&#xfb03;" horiz-adv-x="1576" d="M43 860v127l129 8v156q0 140 61.5 215.5t182.5 75.5q122 0 205 -15l-15 -129h-129q-74 0 -102.5 -35t-28.5 -133v-133h387v158q0 157 56.5 235t187.5 78q116 0 199 -14v-129h-138q-73 0 -102 -41.5t-29 -146.5v-140h545v-997h-174v860h-371v-860h-174v860h-387v-860h-174 v860h-129zM1272 1251v117q0 53 51 53h82q49 0 49 -53v-117q0 -53 -49 -53h-82q-51 0 -51 53z" />
<glyph unicode="&#xfb04;" horiz-adv-x="1697" d="M43 860v127l147 10v154q0 140 60.5 215.5t181.5 75.5q122 0 205 -15l-14 -129h-129q-75 0 -103.5 -35t-28.5 -133v-133h388v158q0 157 56 235t185 78q361 0 496 -24v-1190q0 -67 26 -101t74 -34h74l20 -111q-24 -12 -73 -19t-86 -7q-98 0 -153.5 61.5t-55.5 171.5v1112 h-260q-72 1 -100.5 -41.5t-28.5 -148.5v-140h229v-137h-229v-860h-174v860h-388v-860h-172v860h-147z" />
<glyph unicode="&#xfb06;" horiz-adv-x="1435" d="M78 748q0 78 17 127t58.5 76t98 36.5t147.5 9.5h574v295h172v-295h246v-137h-246v-586q0 -73 22 -103t80 -30h115l18 -133q-77 -26 -194 -26q-104 0 -158.5 69.5t-54.5 200.5v608h-547q-43 0 -62.5 -0.5t-45 -4t-35.5 -10t-20.5 -19t-13.5 -31.5t-3 -47q0 -72 24 -98.5 t88 -45.5l224 -65q102 -30 146 -90.5t44 -184.5q0 -74 -14 -124.5t-39.5 -82.5t-71.5 -49.5t-99 -24t-132 -6.5q-173 0 -324 29l12 127q127 -11 275 -8q135 0 180 26t45 113q0 67 -27.5 93t-93.5 46l-221 66q-101 29 -142.5 92.5t-41.5 186.5z" />
<glyph horiz-adv-x="1394" d="M82 500q0 266 94.5 381.5t294.5 115.5h463v295h172v-295h244v-137h-244v-586q0 -73 22.5 -103t79.5 -30h115l18 -133q-77 -26 -194 -26q-104 0 -158.5 69.5t-54.5 200.5v608h-434q-90 0 -140 -32t-73 -109.5t-23 -218.5q0 -147 23.5 -228.5t73 -115t139.5 -33.5 q124 0 221 20l18 -116q-116 -52 -270 -52q-212 0 -299.5 118t-87.5 407z" />
<glyph horiz-adv-x="2031" d="M43 860v127l147 10v154q0 140 60.5 215.5t181.5 75.5q122 0 205 -15l-14 -129h-129q-75 0 -103.5 -35t-28.5 -133v-133h388v179q0 145 57 218.5t186 73.5q143 0 238 -14l-14 -129h-162q-72 0 -101.5 -38.5t-29.5 -129.5v-160h262q168 0 223 -186l137 -557q22 -76 31 -121 h22q12 38 33 121l189 743h186l-307 -1052q-21 -71 -52.5 -131t-77 -113.5t-110.5 -86t-143 -36.5l-17 115q94 37 149.5 102t86.5 162l16 43h-41q-47 0 -59 45l-209 727q-24 88 -92 88h-227v-860h-174v860h-388v-860h-172v860h-147z" />
<glyph horiz-adv-x="1208" d="M43 860v127l147 10v179q0 146 56 219t186 73q136 0 221 -14l-14 -129h-145q-73 0 -102.5 -38.5t-29.5 -129.5v-160h383v295h175v-295h243v-137h-243v-586q0 -73 22 -103t78 -30h115l20 -133q-79 -26 -194 -26q-104 0 -160 70t-56 200v608h-383v-860h-172v860h-147z" />
<glyph horiz-adv-x="1470" d="M43 860v127l147 10v179q0 146 56 219t186 73q148 0 236 -14l-13 -129h-161q-73 0 -102.5 -38.5t-29.5 -129.5v-160h261q171 0 223 -186l139 -557q23 -77 29 -121h24q4 16 15.5 52.5t15.5 54.5l191 757h184l-305 -1052q-110 -352 -385 -367l-17 115q95 37 151.5 101.5 t86.5 162.5l16 43h-41q-49 0 -61 45l-209 727q-21 88 -90 88h-228v-860h-172v860h-147z" />
<glyph horiz-adv-x="1236" d="M39 860v127l149 10v295h170v-295h418v295h172v-295h244v-137h-244v-586q0 -73 22.5 -103t78.5 -30h114l21 -133q-77 -26 -195 -26q-105 0 -159 69.5t-54 200.5v608h-418v-586q0 -72 23 -102.5t80 -30.5h114l21 -133q-77 -26 -197 -26q-104 0 -157.5 69.5t-53.5 200.5v608 h-149z" />
<glyph horiz-adv-x="1505" d="M39 860v127l149 10v295h170v-295h299q170 0 222 -186l139 -557q23 -77 29 -121h22q4 14 12 38t13.5 42.5t9.5 32.5l188 751h187l-310 -1052q-21 -71 -51.5 -131t-75.5 -113.5t-110 -86t-144 -36.5l-16 115q95 37 150 101.5t86 162.5l14 43h-39q-47 0 -59 45l-211 727 q-18 88 -90 88h-265v-586q0 -72 23 -102.5t80 -30.5h114l21 -133q-77 -26 -197 -26q-104 0 -157.5 69.5t-53.5 200.5v608h-149z" />
<glyph horiz-adv-x="626" d="M59 1423h129q0 -184 127 -184q61 0 93 47t32 137h129q8 -121 -61.5 -200.5t-192.5 -79.5q-124 0 -194 79.5t-62 200.5z" />
</font>
</defs>
</svg>
