<?xml version="1.0" encoding="utf-8"?>
<!-- Generator: Adobe Illustrator 25.2.1, SVG Export Plug-In . SVG Version: 6.00 Build 0)  -->
<svg version="1.1" id="Layer_1" xmlns="http://www.w3.org/2000/svg" xmlns:xlink="http://www.w3.org/1999/xlink" x="0px" y="0px"
	 viewBox="0 0 2886 481" style="enable-background:new 0 0 2886 481;" xml:space="preserve">
<style type="text/css">
	.st0{fill:#8FB7D7;}
	.st1{fill:#255D97;}
</style>
<g>
	<path class="st0" d="M1024,0.1c14,0,28,0,42,0c0.7,0.3,1.4,0.8,2.2,1c18.2,3.3,35.1,10.4,51.1,19.6c25.7,14.7,48.3,33.7,71.5,52.1
		c23.2,18.2,46.8,35.9,72.9,49.9c29.7,16,61.5,25.5,95,28.3c15.4,1.3,30.9,0.7,46.3-1.5c29.2-4.2,55.5-14.8,78.6-33.2
		c12.5-10,23.6-21.5,35.4-32.4c24.2-22.3,52.5-23.2,78.5-5.5c7.5,5.1,14.2,11,20.7,17.3c25,24.1,45.3,52.4,68.9,77.7
		c15,16.1,31.1,30.8,49.9,42.3c38.6,23.5,78,24.8,117.8,3.2c15.9-8.6,30.1-19.7,44.2-30.8c17.2-13.4,34.4-26.9,54.6-35.9
		c26.8-11.9,54-12.4,81.4-2.3c13.5,5,24.7,13.3,35.1,23c11.7,11,21.4,24.1,34.6,33.6c17.4,12.4,36.5,17.6,57.7,15.4
		c21.5-2.2,39.5-12.3,56-25.5c20.4-16.3,37.2-36.2,54.3-55.8c19.8-22.7,39.4-45.7,62.6-65.3c32.6-27.4,69-44.3,112.9-40.2
		c19.1,1.8,37,7.7,53.9,16.4c21,10.8,39.7,24.9,58.2,39.5c17.4,13.7,34.7,27.6,52.6,40.6c24.9,18.1,51.4,33.4,80.7,43.3
		c31.9,10.7,64.8,13.6,98.3,10.5c24-2.2,47.3-7.5,69.9-15.8c8.1-3,16.1-6.2,24.2-9.3c0,57.4,0,114.7,0,172.1
		c-25.1,3.4-48-3-69.4-15.9c-15.3-9.2-29.7-20-46.2-27.3c-22.4-10-45.5-12.3-69.3-6.2c-22.5,5.8-41.2,18.5-57.9,33.9
		c-13.4,12.4-26.2,25.5-38.4,39.2c-11.9,13.3-23.1,27.3-35.4,40.2c-13.3,13.9-26.6,27.8-42.1,39.3c-21.5,15.9-44.1,28.5-71.4,32.1
		c-22.6,3-43.9,0.3-64.5-9.1c-26.4-12.1-46.9-32.2-68.9-50.2c-16.4-13.4-33.3-26.2-52.1-36.2c-26.1-13.9-54.1-21.1-83.4-23.7
		c-25.4-2.2-50.2,1.1-74.7,8.7c-24.1,7.4-46.6,18.5-69.5,28.9c-25.6,11.6-52.1,17.3-80.3,13.4c-25-3.5-48.5-11.5-70.9-22.9
		c-26.9-13.6-51.2-31.1-74.2-50.4c-22.7-19.1-44.9-38.7-67.3-58.3c-17.9-15.5-36.4-30.3-56.6-42.8c-31.7-19.5-65.4-31.6-103.5-27.9
		c-22.1,2.1-42.8,8.4-62.8,17.5c-18.9,8.6-36.1,19.9-53,31.8c-28.4,19.8-58.9,34.7-94.1,38.1c-23.1,2.2-45.3-0.5-66.4-10.3
		c-14.2-6.6-26.8-16-40.1-23.9c-21.1-12.5-43.5-17.3-67.8-12.1c-22.6,4.8-40.8,17.5-57.4,32.5c-14.1,12.8-27.1,26.9-39.5,41.4
		c-12.7,15-25.1,30.4-37.6,45.6c-14.5,17.6-29.6,34.7-46.8,49.9c-13.7,12.1-28.4,22.8-45.2,30c-30.7,13.2-61.1,11.5-90.6-3.7
		c-16.8-8.7-31-21-44.8-33.6c-13.8-12.5-27.1-25.5-41.4-37.3c-17.5-14.4-36.1-27-57.1-35.6c-32.2-13.2-65.7-18-100.3-13.8
		c-24.5,3-46.8,12.5-67.8,25.1c-14.1,8.5-28.4,16.8-43.9,22.9c-23,9.1-46.7,11.3-71.2,7.9c-17.7-2.5-34.6-7.3-50.8-14.7
		c-26.5-12.2-49.2-30.1-70.1-50.1c-19.5-18.6-37.5-38.7-55.8-58.5c-14-15-28.5-29.7-43.9-43.4c-17.9-15.8-37-29.5-58.6-39.7
		c-33.5-15.9-68.7-20.5-105.2-15.4c-27.3,3.8-53,12.8-77.3,25.6c0-23.3,0-46.6,0-70.1c25,11.6,49.3,11.2,72.6-4.4
		c9.1-6,16.9-13.5,24.5-21.2c11.7-11.9,22.5-24.6,36.2-34.3c18.2-13,37.5-16.6,58.7-7.7c12,5.1,22,12.9,31.4,21.6
		c13.3,12.1,24.9,25.8,36.4,39.6c12.2,14.6,24.6,29.2,37.5,43.1c16.3,17.6,34.5,33.1,55.7,44.7c17.3,9.5,36.1,14.5,55.8,14.4
		c13.6-0.1,27-3,39.8-8.3c20.6-8.5,38.1-21.7,55.6-35.2c14.6-11.3,29.1-22.9,45.2-32.1c21.7-12.5,44.8-18.3,69.9-15.1
		c23.7,3,43.7,13.5,60.7,30.2c9.6,9.4,17.9,20.1,28.4,28.7c14.8,12.1,31.2,19.1,50.3,19.9c23.2,0.9,43.3-7.4,61.7-20.8
		c19.5-14.3,35.6-32,51.6-50c19.6-22,38.5-44.9,60.2-65.4c19.3-19,41-34.8,66.9-44.2C1007.6,4,1016,2.7,1024,0.1z"/>
	<path class="st1" d="M0.1,173.2c24.3-12.9,50-21.8,77.3-25.6c36.5-5.1,71.7-0.5,105.2,15.4c21.6,10.2,40.8,23.9,58.6,39.7
		c15.4,13.7,29.9,28.4,43.9,43.4c18.4,19.7,36.3,39.8,55.8,58.5c21,20,43.6,37.8,70.1,50.1c16.1,7.4,33.1,12.3,50.8,14.7
		c24.5,3.4,48.2,1.1,71.2-7.9c15.4-6.1,29.7-14.3,43.9-22.9c21.1-12.7,43.3-22.1,67.8-25.1c34.6-4.2,68.1,0.7,100.3,13.8
		c21.1,8.6,39.7,21.2,57.1,35.6c14.3,11.9,27.7,24.8,41.4,37.3c13.9,12.6,28.1,25,44.8,33.6c29.5,15.3,59.9,16.9,90.6,3.7
		c16.8-7.2,31.4-17.9,45.2-30c17.2-15.1,32.3-32.3,46.8-49.9c12.5-15.2,24.9-30.5,37.6-45.6c12.4-14.6,25.4-28.6,39.5-41.4
		c16.6-15,34.8-27.7,57.4-32.5c24.3-5.1,46.7-0.4,67.8,12.1c13.4,8,26,17.3,40.1,23.9c21.2,9.9,43.3,12.6,66.4,10.3
		c35.2-3.4,65.7-18.3,94.1-38.1c17-11.8,34.2-23.2,53-31.8c20-9.1,40.7-15.4,62.8-17.5c38.1-3.7,71.7,8.4,103.5,27.9
		c20.2,12.4,38.7,27.2,56.6,42.8c22.4,19.4,44.6,39.1,67.3,58.3c23,19.3,47.3,36.8,74.2,50.4c22.4,11.4,45.9,19.4,70.9,22.9
		c28.2,3.9,54.7-1.8,80.3-13.4c22.8-10.4,45.4-21.4,69.5-28.9c24.4-7.5,49.2-10.9,74.7-8.7c29.3,2.5,57.3,9.8,83.4,23.7
		c18.8,10,35.7,22.8,52.1,36.2c22.1,18,42.6,38.1,68.9,50.2c20.6,9.5,41.9,12.1,64.5,9.1c27.3-3.6,49.9-16.2,71.4-32.1
		c15.6-11.5,28.8-25.5,42.1-39.3c12.3-12.9,23.5-26.8,35.4-40.2c12.1-13.7,25-26.8,38.4-39.2c16.7-15.4,35.3-28.1,57.9-33.9
		c23.8-6.1,46.9-3.8,69.3,6.2c16.4,7.3,30.9,18.1,46.2,27.3c21.4,12.9,44.3,19.2,69.4,15.9c0,48.3,0,96.7,0.1,145
		c0,3.4-0.6,4.1-4.1,4.1c-111.6-0.1-223.3-0.1-334.9-0.1c-847.3,0-1694.6,0-2541.9,0.1c-4.4,0-5.1-1.1-5.1-5.2
		C0.1,375.3,0.1,274.3,0.1,173.2z"/>
</g>
</svg>
