<?xml version="1.0" encoding="utf-8"?>
<!-- Generator: Adobe Illustrator 25.2.1, SVG Export Plug-In . SVG Version: 6.00 Build 0)  -->
<svg version="1.1" xmlns="http://www.w3.org/2000/svg" xmlns:xlink="http://www.w3.org/1999/xlink" x="0px" y="0px"
	 viewBox="0 0 1514.5 550.6" style="enable-background:new 0 0 1514.5 550.6;" xml:space="preserve">
<style type="text/css">
	.st0{fill:#8FB8D8;}
	.st1{fill:#255D98;}
</style>
<g id="Layer_2">
	<path class="st0" d="M1528.6,123.5c-27.6,13.7-71.8,31.1-126.4,31.6c-171.5,1.7-226.2-165.5-352.4-154.6
		C916.1,12,870.8,208.7,759.3,190.2c-59.1-9.8-60.8-67.5-127.6-78.5c-96.1-15.7-132.7,97-226,91.3c-116.2-7-165.2-188.3-248.2-169.8
		c-49.5,11-69.5,83.8-130,80.8c-17.3-0.9-31.1-7.6-39.8-12.9v457.6h1540.9L1528.6,123.5z"/>
</g>
<g id="Layer_1">
	<path class="st1" d="M1.2,187.4c25.7-14.7,71.4-35.9,126.5-32.2c157.1,10.6,198.4,211.3,352,224.1c95.1,7.9,109-66.5,215.1-57.5
		c136.4,11.6,158.3,138.4,258.8,133.3c129.4-6.6,174.8-220.7,293.3-209.2c59.7,5.8,79.3,63.1,144.9,58.6
		c53.7-3.7,95-45.7,121.9-81.6v327.6H0L1.2,187.4z"/>
</g>
<g id="Layer_3">
</g>
<g id="Layer_4">
</g>
</svg>
