<?xml version="1.0" encoding="utf-8"?>
<!-- Generator: Adobe Illustrator 25.2.1, SVG Export Plug-In . SVG Version: 6.00 Build 0)  -->
<svg version="1.1" id="Layer_1" xmlns="http://www.w3.org/2000/svg" xmlns:xlink="http://www.w3.org/1999/xlink" x="0px" y="0px"
	 viewBox="0 0 3308.9 1613.6" style="enable-background:new 0 0 3308.9 1613.6;" xml:space="preserve">
<style type="text/css">
	.st0{fill:#8fb8d8;}
</style>
<g>
	<g>
		<path class="st0" d="M3098.9-163.5c-8.1-4.3-16.2-7-26.6-0.8c3.2,2.7,5.1,4.6,7.4,6.2c9.5,6.5,13.8,18.1,10.3,29
			c-2.3,7.3-8.7,8.6-15.1,9.2c-8.3,0.7-16.6,0.8-24.9,1.6c-19.6,1.9-37.5,9-54.1,19.2c-5.3,3.2-9.7,4.9-15.5,0.9
			c-5.9-4.1-12.2-2.1-18,1c-5,2.7-9.7,5.8-14.6,8.6c-3.9,2.2-6.5,4.7-4.6,9.6c2,5.2,6,8.4,10.7,6.5c11.5-4.5,22.3-1,33.3,1.6
			c9.2,2.2,12.3,4.9,13.1,11.4c0.8,6.8-3.5,15-9.7,18.3c-3.5,1.9-7.6,3-10.6,5.5c-3.7,3.2-6.8,7.2-9.8,11.2
			c-4.4,5.9-7.2,7.4-14.3,5.1c-7.2-2.3-13.2-1.7-17.2,5.4c-2.4,4.1-5.7,5.2-10.1,3.9c-7.7-2.2-13.5,1.4-19,6.2
			c-4.5,3.9-9.7,7.1-13.9,11.2c-5.1,5-9.4,10.8-14.7,17c4,3.9,6.8,7.2,10.1,9.7c4.3,3.2,8.7,4.3,13.2-0.4c5.8-6,13.6-4.1,20.9-4.3
			c7.2-0.2,14.4-0.3,21.9-0.5c3,7.6,0.9,10.7-7.4,10.8c-5.9,0.1-11.7,1.6-17.6,2.6c-5.2,0.9-10.4,2.5-15.6,2.5c-4.1,0-7,0.6-9.4,4
			c-5.3,7.6-12.6,10.1-21.7,9.2c-10.8-1.1-21.7,6.3-25.4,16.5c-3,8.2-4.8,9.3-12.3,5.2c-11.6-6.3-22.7-6.8-34,0.2
			c-1.4,0.9-3,1.6-4.5,2.1c-6.6,2.1-9.7,0.9-13.3-5c-5.3-8.7-5.5-8.2-14.5-3.6c-5.4,2.8-11.9,4-18,4.7c-9.7,1.2-19.3,2-26.5,9.6
			c-2.6,2.7-5.8,3-9.1,1c-6.7-4-12-1.7-16.6,3.8c-1.3,1.5-2.7,2.9-4.2,4.3c-3.5,3.3-7.4,4.2-11.9,2.3c-2.4-1-4.9-1.9-7-2.7
			c-1,0.9-1.8,1.3-1.9,1.8c-0.8,10.9-2.2,12.4-12.6,9.6c-7-1.9-13.2-1-19.3,1.8c-6.9,3.2-13.6,6.8-21,10.6c1,3.8,1.6,7.1,2.7,10.1
			c7.7,21.2,22,35.3,44.1,41.1c2.9,0.7,5.9,1.5,8.5,2.8c6.4,3.1,8.1,8,6,15.6c-0.9,0.1-2,0.5-2.8,0.3c-8.3-2.3-14.7,0.7-20.7,6.5
			c-8.6,8.4-12.7,7.8-19.8-2.1c-5.6-7.8-9.2-16.2-8.7-26c0.2-3.3-0.2-6.7-0.9-9.9c-0.9-4.1-4.5-5.6-8.3-6.2
			c-3.9-0.6-6.2,1.8-7.6,5.2c-1,2.5-1.9,5-3,7.4c-4.3,9.1-5.7,9.4-13.9,2.7c-5.7,8.1-7.8,16.6-4.2,26.1c0.5,1.2,1.1,2.4,1.7,3.6
			c6.9,13.9,3.1,20.7-12.6,22.8c-12.4,1.7-23.6,14-24,26.5c-0.2,5.4,2.1,9.8,8.2,10.9c7,1.3,14.5,1.1,21.7,0.6
			c6.9-0.4,13.8-2.5,20.7-3c7.5-0.5,15.5,0.6,19,8.2c3.6,7.8,3.1,16.4-2,23.8c-7.6,11.1-18.6,18.2-31.7,18.6
			c-10.6,0.3-16.7,4.8-21.7,12.9c-0.7,1.1-1.5,2.1-3.1,4.4c4.8,2.7,9.2,5.2,14.4,8.1c-3.4,6.8-9.9,9-16.5,10.7
			c-3.2,0.8-6.6,0.5-9.9,0.4c-4.5-0.1-7.8-2.4-8.9-6.7c-1.1-4.3,0.7-7.9,4.4-10.2c1.9-1.2,4-2.1,7.7-4c-5-2.1-8.5-3.7-12.1-5.1
			c-9-3.5-18.3-6.3-27-10.4c-7.3-3.5-13.7-2.7-19.6,1.9c-5.2,4.1-9.9,8.9-14.7,13.5c-7.8,7.2-13.5,7.9-22.4,2.1
			c-6.9-4.6-13.4-10-20.4-14.4c-15.9-9.8-25.8-8.8-39.6,3.8c-4.7,4.3-8.8,9.1-13.2,13.6c-3.4,3.5-6.9,7-10,10.1
			c-1.7-0.2-2.6-0.1-2.9-0.4c-5.9-7.1-13.3-9.5-22.2-7.6c-2.2,0.5-4.7,0.2-7,0c-9.9-0.8-17.2,2.8-22.3,11.8
			c-5.8,10.4-10.1,11.3-21.2,5.5c-3.1-1.6-5.6-2.1-8.2,0.1c-3.1,2.6-6.6,5.6-5.2,10c0.7,2.2,3.8,4.5,6.3,5.2
			c2.7,0.7,5.9-0.8,8.9-0.7c6.9,0.2,14-0.1,20.6,1.6c4.9,1.3,8.3,1,11.6-2.5c0.9-1,1.9-1.9,2.8-2.8c8-7.2,11.5-6.4,17.6,3.6
			c-3.1,5.5-8.9,6.6-14.2,8.5c-5.4,2-10,4.4-13.9,9c-6,7.1-14.5,10.2-23.7,11.6c-17,2.6-34,5.5-51,8.2c0.3,9.6,3.3,12.1,10.9,8.1
			c5.8-3.1,11.4-3.1,17.3-1.4c5.4,1.5,10.8,2.8,16.1,4.1c2.5,15.1-4.8,23-18.4,19.9c-8-1.8-15.9-2.1-23.7-0.1
			c-6.3,1.6-11.5,0.4-16.9-3.3c-13.2-9-26.9-17.3-40-26.4c-10.8-7.5-10-15.4,1.6-22c4-2.3,8.4-4.2,12.1-7c5.9-4.5,6.5-9.8,2.2-14.6
			c-3.7-4.1-9.1-4.4-14.1,0.3c-13.1,12.3-28.3,12-44,7.8c-7.1-1.9-13.4-4.5-20.6,1c-4.6,3.6-10.3,1.4-13.9-3.7
			c-2.7-3.8-4.5-8.2-7-12.1s-5-8.3-10.7-7.6c-4.9,0.6-7.1,4.6-8.9,8.6c-2.7,6.1-5.2,12.2-7.8,18.4c-3.3,7.9-9.3,11-17.6,9.7
			c-5.2-0.9-10.6-1.7-15.6-3.3c-9.5-3-17.7-0.7-25.3,5.1c-5.3,4-10.5,8.2-16,12c-9.1,6.2-15.2,5.8-23.3-1.2
			c-9-7.7-11.7-7.6-19.6,1.3c-3.2,3.6-8.2,7.2-8.7,11.3c-0.5,3.5,4.2,7.7,6.6,11.6c5.9,9.5,4.8,19.8-3.8,26.9
			c-9.1,7.4-15.7,16.1-18.5,27.6c-1.8,7.1-7.2,10.2-14.1,10.7c-6.8,0.5-12.2-1.6-15.7-8.1c-6.4-11.8-9.2-11.9-17.3-1.5
			c-2.5,3.1-4.8,6.4-7.5,9.4c-6.5,7.5-9.3,7.4-15.4-0.8c-2.6-3.5-4.7-7.3-7.1-10.8c-1.3-1.8-2.9-3.4-4.7-5.6c-2.4,2-4.4,3.6-6.4,5.2
			c-6.4,5.3-11.8,5.7-17.8,0.3c-5.2-4.6-9.9-9.9-14.3-15.3c-5.1-6.3-6.6-13.5-4.7-21.6c2.6-11.1,1.3-12.8-9.7-16.8
			c-10.6-3.8-14.2-3.4-18.9,2.3c-4.6,5.6-5.6,12.5-0.8,18.4c5.2,6.4,3.6,10.7-0.6,16.6c-3.8,5.3-5.6,11.9-8,18.1
			c-2,4.9-3.3,10.1-5.4,15c-2.8,6.3-7.8,10.7-14.2,13.3c-6.9,2.8-12.7,0.9-13.9-6.3c-3.5-20.3-5.5-40.5,11.8-56.8
			c9.8-9.2,9.7-11.8,1.9-22.8c-2.5-3.5-4.4-7.3-7.2-12c-2.4,2.8-4.7,5.5-6.9,8.3c-8.8,11.3-19.7,19.9-33.1,24.9
			c-7.5,2.8-11.1,7.1-11.2,15.5c0,11.6-4.8,15.2-16.3,14.6c-7.8-0.4-10.8-3-11.1-11.1c-0.3-9.3,0.1-18.7,0.2-28c0-1.6,0-3.2,0-5.6
			c-2.1,0.5-3.8,0.5-5,1.2c-10.4,6-21.5,6.5-32.9,4.3c-4.9-1-9.8-1.9-14.7-2.9c-6.8-1.3-8.5-4.6-4.4-10.3c2.7-3.7,6.4-6.6,9.7-9.9
			c2.6-2.6,5.4-4.9,7.6-7.8c3.1-3.9,2.4-8.1-0.5-12c-3-4-7.2-5.4-11.5-3.1c-9.8,5.3-20.7,6.9-31.2,10c-2.5,0.8-5,2-7.2,3.4
			c-4.5,3-5.3,6.3-3.2,11.1c0.5,1.2,1.4,2.3,2,3.5c4.9,9.8,3.8,16.2-5.1,22.5c-8.7,6-16.7,13.3-27.3,16.3c-2.2,0.6-4.2,2-6,3.4
			c-5.3,4-6.3,8.2-2.8,13.8c1.7,2.8,4.3,5.1,6.5,7.5c5.2,5.7,5.6,11.5,1.2,18c-9.5,13.9-33.4,12.7-41.1-3.2
			c-7.7-15.7-16.5-31.3-15.8-49.9c0.4-9.8-5.8-15.9-14.4-19.6c-9.2-3.9-18.2-8.8-27.7-11.1c-11.9-2.8-24.3-3.6-36.5-4.5
			c-5-0.4-8.5,3.6-7.7,9.5c1.2,8.3-1.5,13.3-8.7,16.8c-1.8,0.9-3.3,3.3-4.1,5.4c-1.5,4.2,0.9,7.3,5.5,6.8c3-0.3,5.8-1.4,8.8-1.8
			c8.7-1.4,14.1,2.2,16.1,10.8c1.5,6.3,1.5,12.9-2.5,18.3c-4.3,5.8-5.1,12.1-4.6,18.9c0.9,12.2-7.9,20.7-20.2,19.4
			c-14-1.4-14.7-0.8-14.8,13.3c0,2.3,0.1,4.7-0.1,7c-0.7,8.5-5.5,12-13.7,8.9c-5.3-2-10.2-4.9-15-7.9c-12.3-7.7-24.1-9.2-35.6,1.4
			c-2.3,2.1-5.4,3.9-8,1.3c-1.6-1.6-2.8-4.7-2.4-6.9c1.8-11.1,0.1-22.5,4.7-33.4c3.6-8.6-6.7-18.8-16.2-17.2
			c-1.3,0.2-2.5,0.8-3.8,1.1c-7.3,1.2-8.7,0-8.6-7.7c0.2-10.4-5.1-14.8-15.1-11.9c-9.9,2.9-19.8,5.9-27.6,13.3
			c-5.6,5.2-12.3,7.3-20.1,7.3c-9.4-0.1-27.4,5.8-37.8,11.5c0.4,0.8,0.5,1.9,1.2,2.4c11.7,10.5,12.2,22.5,6,36.3
			c-6.6,14.8-14.9,27.6-30.8,33.6c-5.9,2.3-11.9,4.1-18.5,2.5c-8.4-2.1-11.9-6.4-11.6-14.9c0.9-24.2-3.7-30.4-26.8-36.7
			c-15.4-4.2-20.5-10.7-19.1-25.6c0.4-4.3,3.2-8.4,5-12.9c-4.9-7.2-8.9-9.9-15.8-7.2c-6.3,2.4-12.1,6.6-17.5,10.9
			c-3.1,2.5-3.9,6.9-1.2,10.9c0.9,1.4,1.6,2.9,2.5,4.3c6,9.4,4.9,18.3-2.2,26.6c-1.3,1.5-2.6,3-4.1,4.4
			c-13.4,12.2-16.9,20.9-16.1,40.6c3.3,3.2,6.6,1.3,10.1,0.1c5-1.8,10-3.9,15.1-4.9c9.4-1.8,15.1,1.8,16.6,11.1
			c1.2,7.5,1.5,15.2,1.3,22.8c-0.4,11.8-0.4,23.4,7,33.5c3.1,4.2,1.9,7.6-2.3,9.9c-3.5,2-7.1,3.6-10.7,5.3
			c-8.5,3.9-13.4,10.2-15.1,19.6c-3.3,17.4-12.1,23.2-29.7,21.2c-6.9-0.8-13.9-0.1-20.8-0.5c-5.9-0.3-12.1-0.2-17.7-1.8
			c-11.1-3.2-16.2-12.8-13.9-24.2c0.5-2.3,1.2-4.5,1.6-6.8c3-15.5-5.7-26.9-21.4-26.6c-9.6,0.2-19.3,1.8-28.6,4
			c-10.7,2.6-18.8,9.6-25.3,18.5c-6.4,8.7-8.9,9-18.2,3.4c-2.3-1.4-4.5-2.8-6.8-4.2c-5.1-3.1-7.2-7.6-6.6-13.5c0.3-3,0.5-6,0.5-9
			c-0.1-3.3,0.2-7.1-4.6-7.4c-4.9-0.3-9.8,3.3-10.1,7.6c-0.2,3,0.3,6,0.5,9c0.5,8.1-0.2,15.9-4.9,23c-4.6,6.9-10.1,12.3-18.5,14.3
			c-2.3,0.5-4.5,1.3-6.7,2c-12.1,4-18.6,12.5-19.6,25c-0.4,5-0.2,10-0.4,15c-0.3,8-4.8,13.6-12.3,15.1c-8.1,1.6-13.7,6.3-19.3,11.6
			c-16,15.1-36.7,9.3-42.1-12c-1.9-7.6-6.2-13.3-12.4-17.5c-7.4-5-14.7-5.8-23.2-0.4c-11.2,7.2-23.5,12.4-34.9,19.3
			c-7.1,4.3-13.4,9.8-19.8,15.1c-5.6,4.7-7.7,10.9-5.3,17.9c2.9,8.7,0,15.5-6.2,21.6c-4.5,4.4-8.7,9.2-12.8,14
			c-7.3,8.6-15.8,10.9-24.5,3.9c-8.4-6.8-15.5-6-23.4-0.4c-1.9,1.3-4.1,2.3-6.2,3.1c-5.9,2.1-8.9,1.1-13-4c-1.7-2-3.4-4.1-5.1-6.1
			c-0.2-0.2-0.6-0.2-1.5-0.4c-1.3,2-2.5,4.3-4.2,6.3c-5,6.2-9.7,12.7-15.5,18.2c-7.5,7.1-15.9,6.4-22.7-1.4
			c-3.9-4.5-6.8-9.8-10-14.9c-1.4-2.2-2.6-4.7-4.1-6.9c-10.1-14.4-25.1-16.3-38.7-4.7c-4.8,4.1-9.1,8.8-14,12.8
			c-11.7,9.8-25,15-40.6,13c-1.3-0.2-2.6,0.2-4,0.3c-3.1,5.1-1.5,9.3,2.5,12.5c10,8,12.6,18.2,10.5,30.3c-0.7,4.2-0.5,8.6-0.3,12.9
			c0.3,4.9-1.8,7.5-6.6,8.4c-4.9-4.5-9.6-9.2-14.8-13.3c-6.4-5.2-8.8-11.8-7.2-19.5c2.9-13.6-2.9-24-11.7-33.4
			c-3.2-3.4-6.8-6.5-9.7-10c-6.9-8.3-6.4-14.2,1.3-21.8c2.1-2.1,4.3-4.1,6.4-6.3c0.6-0.7,0.8-1.8,1.3-3.1c-2.5-4.6-5.9-5.2-10.6-3.2
			c-17.1,7.2-17.6,7.1-28.7-7.4c-7.2-9.4-10.3-10.1-21.2-5.8c-4,1.6-8.3,2.5-12.4,3.7c-7.9,2.4-11.4,5.5-10.7,13.4
			c1,11.7-5.2,17-14.6,20.8c-19.1,7.8-38.1,15.9-57.1,23.9c-4.5,1.9-8.9,3.8-15,6.4c3.1,2.8,4.7,5.1,6.8,6c2.7,1.1,5.8,1.4,8.8,1.7
			c10.3,0.9,12,2.1,12.7,9c1,9.7-2.3,15.4-10.8,17.6c-4.1,1-8.6,1.4-12.8,1.1c-6.5-0.5-9.8-3.3-10.7-9.8
			c-2.6-20-12.6-22.1-28.7-18.7c-2.3,0.5-4.6,0.7-6.9,0.7c-4.2-0.1-6.9-2.2-7.5-6.5c-1.4-11.2-3.4-22.4-3.9-33.7
			c-0.3-7.8,1.6-15.7,2.5-23.8c-2.7-5.5-5.8-11.5-8.7-17.8c-2.4-5.3-6.2-7.9-12.8-7c-4.9,0.7-9.5,3-14.3,4.1s-9.7,2.5-14.6,2.5
			c-9.1-0.1-16.3-9-14.5-17.8c0.6-2.9,3.4-5.3,5.3-8c-3.3-5.3-4.5-5.6-7.9-1.8c-6.4,7.2-14.6,6.3-17.3-2.6c-2-6.5-2.4-13.7-2.4-20.6
			c0-5.7,3.1-8,10.2-8.6c6.2-0.5,11.5-2.6,16.4-6.4c10.6-8.3,10.7-8.2,23.6-5.8c4.4-7,3.7-10.1-3.6-10.6c-6.9-0.5-14-0.1-20.8,1.3
			c-11.6,2.5-22.6,7.8-35,7.7c-2.8,0-5.7,1.8-8.5,2.9c-5.6,2.2-10.5,1.1-14.6-3.1c-4.3-4.4-4.9-9.2-1.9-15.6
			c1.3-2.7,3.1-5.1,4.5-7.8c1.2-2.2,2.1-4.5,4-8.5c-4.1,1.8-6.5,2.8-8.7,3.9c-11.9,6.1-23.2,4.8-33.9-2.7
			c-4.6-3.3-8.9-7.1-12.8-11.1c-3.8-3.9-3.3-7.4,0.5-11.3c0.9-0.9,2.1-1.6,3.2-2.4c14.8-11.9,12.5-35.2-4.6-44.2
			c-3.5-1.9-7.4-3.1-10.9-4.9c-4.4-2.2-7.6-5.7-7.3-11c0.8-12.9,2.7-25.2,15.9-32.2c5.8-3.1,6.5-8.7,1.9-13.1
			c-9.4-8.9-18.7-17.9-28.8-26.1c-11.8-9.6-14.2-18.4-7.2-32.3c2.2-4.5,5.1-8.6,7.2-13.1c3-6.4,1.1-10-5.7-11.8c-1-0.3-2-0.5-3-0.5
			c-11.7,1-18.3-5.8-23.6-14.9c-3.6-6.2-8.6-11.3-8.3-19.6c0.1-2.8-4.2-6.3-7.3-8.5c-2.2-1.7-5.6-2-8.5-2.8c-6.9-2-11.3-5.5-13-13.3
			c-2.9-13.8-9.7-17.1-23.5-13.1c-2.9,0.8-5.7,2-8.5,3c-10.5,3.8-22-1.3-26.1-11.7c-0.7-1.7-1.1-4.1-0.4-5.7
			c2.1-5.5,4.8-10.7,7.7-17c4.7,2.5,8.2,4.3,11.6,6.1c10.1,5.4,20.2,5.3,28.9-2.1c10.6-9,22.8-13.4,36.1-15.9
			c14.3-2.6,27.4-7.8,39.6-15.8c4.7-3.1,10.1-5.1,14.9-7.9c2.7-1.6,5-3.8,6.1-4.7c-1.8-7.7-3.5-13.7-4.5-19.8
			c-1.4-7.9-3.2-10.1-11.1-11.8c-2.9-0.6-5.9-1.1-8.7-2c-8.7-2.9-14.9-8.8-17.8-17.6c-2.1-6.6-4.1-13.4-5.4-20.2
			c-2.8-15.1-11.4-24.4-26.2-28.1c-4.8-1.2-9.8-1.7-14.7-2.7c-12.5-2.6-16.7-8.7-12.3-20.8c4.3-11.7,2.4-22.3-3.2-32.6
			c-6.4-11.8-14.2-13.6-25.6-6.7c-2.8,1.7-5.5,3.7-9.6,6.5c-3-11.8-6.2-22.8-8.3-34c-0.7-4,0.9-8.6,2.3-12.6
			c2.3-6.6,5.1-7.5,11.4-4.3c3.3,1.7,6.5,3.4,9.7,5.1c9.2,4.8,10.6,7.1,9.2,17.5c-0.7,5.1-0.3,9.2,4.4,12.1
			c5.1,3.1,12.1,3.7,15.8-0.4c8.3-9.3,16.8-7.5,25.9-2.1c1.7,1,3.6,1.8,5.4,2.7c5.8,2.8,11.2,2.4,15.2-2.8c3.9-5,7.9-5,13-2.1
			c8,4.6,16.6,6.7,25.9,6c13.8-1,19.1-8.6,14.7-21.7c-3.9-11.6-11.2-21.1-20.4-29.1c-0.5-0.4-1-1.2-1.5-1.2
			C-59.5,57.4-63.5,47.9-71,44s-8-8.3-3.5-15.7c6.1-9.9,14.2-16.7,26.8-16c9,0.5,17.1-2,24.3-7.5c5.5-4.2,11.3-6,18.6-4.9
			c10.9,1.7,20.4-2,28-10.1c3.2-3.4,6.5-7,8.4-11.1C35.3-29.2,40-34,49.5-34.6c7.9-0.5,8.9-3.7,5.9-11c-1.3-3.1-3.1-5.9-4.6-8.9
			c-1.9-3.9-4.3-7.6-5.4-11.7c-3.1-10.7-0.6-15.3,9.8-19c19.5-7,38.5-15,55-27.8c8.8-6.8,17.7-13.7,24.5-25.8
			c-6,1.1-10.1,1.8-14.2,2.5c-11,1.8-19-3.8-21.1-14.7c-1.5-8.1,1.8-14.5,10-15.5c11.1-1.3,16.4-7.7,19.4-17.3
			c0.4-1.3,1-2.5,1.5-3.7c1.1-2.6,3.7-5.7,3.1-7.8c-1.4-4.3-3.9-8.5-6.9-11.9c-4-4.5-6.2-4.1-10.4,0.7c-8.2,9.4-12,9.8-21.7,1.8
			c3.5-7.3,10.7-8.3,17.4-9.8c9.1-2,9.4-1.8,10.9-11.1c2-11.8,8.4-20.2,18.8-25.6c7.7-4,15.6-7.5,23.4-11.2c6-2.8,12-5.4,18-8.2
			c8.4-4,13.8-2.8,18.8,5c2.9,4.4,5.2,9.3,7.1,14.2c1.1,2.7,1.7,6,1.3,8.8c-2.4,15.4-10.2,28.1-22.2,37.6c-4.1,3.3-11.1,3-16.8,4.3
			c5.6,14.1,14.8,18.4,26.7,10.9c12.3-7.7,25.5-11.3,39.6-12.4c25.5-2,48-12.3,70.1-24.4c11.6-6.4,24-11.4,36.4-16.1
			c3.1-1.2,8.3-0.2,11.1,1.8c12.7,9.2,15.5,12.2,26.6-6.5c2.9,1.8,6,3.3,8.6,5.3c10.7,8.2,16.5,7.9,25.9-1.9
			c4.6-4.8,8.8-10,13.5-14.7c6.8-6.8,13.8-13.4,21.4-20.6c-0.6-2.5-1.3-5.7-2.1-8.8c-2.8-10.9,1.8-15.5,14.4-13.9
			c0.5,3.3,1.1,6.8,1.8,11.5c2.6-1,5.2-1.4,7.1-2.7c17.3-11.2,36.1-12.6,55.7-8.5c1.3,0.3,2.6,0.6,3.9,0.8
			c11.1,2.1,16.8-0.8,21.3-11.3c1.9-4.3,3.2-8.7,4.9-13.1c0.8-2.2,1.8-4.3,2.8-6.4c4.5-9.3,7.4-9.8,14.7-2.9
			c1.9,1.8,3.8,3.7,5.8,5.5c3,2.6,6.7,2.9,8.8-0.3c6.6-9.7,15.4-8.9,24.9-6.3c0.6,0.2,1.3,0.2,2,0.1c0.3,0,0.6-0.3,1.9-1
			c-2.6-8.1-4.8-16.5-11.9-23.6c-2.5,1.8-4.7,3.6-7.1,5.2c-6.4,4.3-9.7,3.9-14.6-2c-1.7-2-3-4.4-4.3-6.7c-1.9-3.3-3.3-6.6,0.1-10
			c3.5-3.5,7.6-4.2,11.8-2c2.6,1.4,4.8,3.5,7,5.5c2.1,2,4,4.4,6.6,7.5c2.5-1.7,5-3,7.1-4.8c13.5-11.8,13.8-11.8,29.7-3
			c3.6-1.8,7.3-4.1,11.3-5.5c16.8-6.1,30,4.8,27,22.3c-2.8,15.9-10.4,29.3-21.9,40.7c-2.8,2.8-5.5,5.8-7.8,9
			c-2.6,3.6-2.6,7.4-0.1,11.2c2.4,3.7,6.1,5.6,10.2,4.7c3.8-0.8,7.7-2.2,10.8-4.5c4.3-3.1,8.3-6.9,11.5-11c4.4-5.7,9.4-6.8,15.8-4.3
			c8,3,16.2,4.2,24.4,0.7c6.3-2.7,13-5.4,15.1-13.7c-2.9-2.2-5.7-4.4-8.4-6.5c2.9-10.9,6.3-12.4,25.1-11.4c0.8-1.7,1.9-3.7,2.7-5.7
			c3.1-7.3,5.8-14.8,9.2-22c3.3-6.8,3-9-3.2-13.3c-10.3-7.1-10.3-9.6,0.1-16.4c12.4-8.1,25.7-12.1,40.7-10.1
			c5.2,0.7,10.6,0.2,15.8-0.7c5.9-1,10.4-4.4,11.9-10.7c1.5-6.3-2.2-10.1-6.3-13.7c-4.8-4.1-7.6-3.9-12,0.6c-0.9,1-1.6,2.1-2.5,3.1
			c-2.7,3.4-6.1,5.5-10.4,3.6c-4.2-1.8-5.2-5.6-5.3-9.9c-0.2-8.6,1.9-11.3,10.2-10.7c20.2,1.5,38,9.2,54,21.4c1,0.8,1.5,2.1,2.8,3.9
			c-4.2,3.8-8.2,7.6-13.1,12c9.4,13.8,19,27,36.6,29.7c6.1,0.9,13.4-0.9,19.2-3.5c12.4-5.6,24.4-12.2,36.2-19
			c9.2-5.4,11.1-14,5.2-25.2c-3.6-6.8-3.6-12.7,0.8-18.5c1.9-2.5,4.4-5.3,7.2-6.3c10.1-3.6,15.3-11.3,18.5-20.8
			c0.9-2.5,1.5-5.1,2.6-7.6c3.3-7.8,9.7-10.6,17.9-7.9c8.5,2.9,11.2,7.2,8.6,16.1c-1.7,6-1.8,11.5-0.2,17.6
			c2.9,11.2-0.2,18.4-10.2,24.7c-5,3.2-10.7,5.4-16,8.1c-8.1,4.1-9.6,7.6-7,16.1c3.6,12.3,10.1,21.2,24.1,23.6
			c6.6,1.1,12.8,5.4,19,8.4c14.7,7.2,22.3,4.7,29.8-10.2c2.7-5.3,4.9-10.9,7.5-16.3c3.9-8.3,9.9-13.3,19.6-12.3
			c5.2,0.5,9.7-1,14-4.1c12-8.8,25.6-12.5,40.3-12.7c8-0.1,16,0.3,24,0.7c7.5,0.4,14.7-1.9,18.3-10.6c5.8-13.8,12.9-17.1,27.8-14.3
			c7.6,1.4,14.4,0.2,21.2-4.8c-1.7-3.1-3.4-5.8-4.9-8.7c-3.5-7.1-2-11.3,5.3-15.7c6.7-4,12.9-3.3,16.8,2.2c3,4.3,5.5,9,8.5,13.9
			c5.6-0.8,10.8-1.4,16-2.2c6.5-1,12.8-0.4,18.2,3.4c5.8,4.1,10.9,3,15.2-1.5c5.8-6.1,12.6-8.9,20.8-10.5
			c12.4-2.4,15.3-9.9,9.6-21.5c-7.6-15.7-5.2-21.3,11.4-26.1c10.2-3,11.8-5.5,10.7-16.7c-0.2-1.7-0.3-3.3-0.3-5
			c0.1-6.4,2-8.5,8.3-8.3c4.6,0.1,9.1,0.8,15.2,1.3c0-5,0.2-8.8,0-12.6c-1.1-18.3,5.4-24.5,23.7-21.9c4.2,0.6,8.6,1.8,12.2,4
			c2.1,1.2,3.9,5.1,3.6,7.4c-0.3,2.2-3.6,4-5.7,5.8c-0.7,0.6-1.9,0.7-2.9,0.8c-4.8,0.9-9.2,2.5-10.1,8.1c-1,6,0.8,11.1,5.7,15.1
			c8.8,7.2,18.9,7.6,29.3,5.6c4.5-0.9,8.9-2.7,13.3-4.2c19.6-6.6,39.4-7.3,58.8-0.2c20.4,7.5,39.4,4.7,57.4-6.4
			c21.8-13.4,45.1-21,70.8-21.4c3.8-0.1,8.1-1,11.3-3c14.8-9.1,30.9-10.5,47.2-6.8c13.4,3,25.7,1.4,37.8-4.4
			c10.9-5.2,22.2-8.4,34.7-7c4.7,0.5,9.9-1.1,14.5-2.7c6.6-2.2,12.9-5.4,19.3-8.1c3.7-1.6,6.2-3.8,5.3-9.4
			c-11.6-2.7-22.9-9.8-35.9-3.1c-1.4,0.7-4.7-0.3-6-1.6c-3.8-4-3.7-14.1,0.7-17.2c9.5-6.8,12.7-16.7,15.4-27.1
			c1.3-5,3.3-9.8,5.4-16.2c4.1,2.9,6.7,4.8,9.4,6.6c6.4,4.2,10.5,4.5,14.9-1.2c5.2-6.8,11.9-8.8,19.7-10c6.2-1,12.1-3.3,18.7-5.2
			c7.1,5.4,15.1,10.8,22.2,17.3c3.2,2.9,4.8,7.7,6.9,11.8c1.4,2.7,2.3,5.7,3.4,8.5c9.7-10.8,18.5-20.6,27.2-30.4
			c6.2-7,14.9-8,22-1.7c3.9,3.5,7.1,7.9,10.1,12.2c2.8,4,6.1,6.6,11.1,7.7c8.4,1.8,10.1,5.2,12,13.6c3.5,15.5,7.6,30.9,12.2,46.2
			c2,6.7,4.6,7.2,11.5,4.1c17.5-7.7,39.2-1.9,50.4,13.7c4,5.5,6.5,11.5,5.9,18.6c-0.3,4-0.1,8,0,12c0.3,22.2,18.6,37.1,40.3,33
			c3.9-0.7,7.9-1.5,11.8-1.7c7.4-0.3,10.9,2.7,12.4,10.1c0.5,2.6,0.5,5.4,1.2,7.9c1.6,5.6,6,7.9,11.7,6.2c5.1-1.5,6.4-5,4.3-11.1
			c-4.1-11.9-3.8-13.9,5.4-21.5c8.2-6.8,12.7-16.1,18.2-24.8c4.4-7,9.8-13.3,14.5-20.1c2.2-3.2,4-6.7,5.2-10.4
			c1.2-3.8,1.3-7.9,2.2-11.8c3.7-16.5,13-28.4,29.2-33.8c14.2-4.7,28.6-8.7,42.9-13c7.5-2.2,14.5-0.9,21.2,2.8
			c7.6,4.2,8.9,7.1,7.1,15.4c-2.1,9.5-0.8,11.4,8.6,11.8c2.7,0.1,5.4,0.1,8-0.3c8.2-1.2,10.5-3.8,9.3-11.9
			c-1.1-7.6,1.5-12.2,7.6-16.8c27-20.1,56.7-34.8,88-46.5c9.1-3.4,18.2-3.7,27.1,0.6c14.7,7,29,6.6,42.4-3.3
			c4.4-3.2,8.7-3.1,13.1-0.6c5.3,3,9.5,3.4,13.6-2.5c4-5.9,10.5-4.2,16.5-3.6c7.5,0.8,15,1.1,22.6,0.9c4.9,2,3.7,6.2,2.8,10.6
			c-2.1,10.2,2.4,14.6,12.5,12.2c4.2-1,8.2-2.7,12.3-3.9c13.4-3.9,24.9,0,35.1,8.9c2,1.7,3.9,3.7,6.2,4.9c6.5,3.4,12.4,3,18.4-2.1
			c6.3-5.4,9.3-4.5,13.3,2.4c4.7,8.2,5.7,16.3-0.9,24.1c-0.6,0.8-1.1,1.7-1.5,2.5c-0.1,0.3,0,0.7,0.1,1.9c8.4,7,18.4,10.7,28.8,5
			c15.5-8.4,31.9-11.1,49-11.8c6-0.3,11.9-1.7,17.8-2.2c7.5-0.7,8.6,0.3,10.4,7.5c3.2,13.1,2,16.5-8.9,24.6
			c-10.2,7.6-10.4,12.3-1.1,21.7c7.5,7.6,8,11,2.4,19.9c-3.8,5.9-7.6,11.5-9.1,18.7c-1.2,5.7-5.9,8.7-11.7,9.4
			c-3.6,0.4-7.2,0.4-10.9,0.6c-2,4.5-1,8.6,2.6,10.7c2,1.1,5.6,0,8.3-0.7c7.2-2,14.4-4.4,22.4-7c0-1.1-0.3-3.3,0.1-5.4
			c0.4-2.6,0.6-5.7,2.1-7.4c2.2-2.5,5.9-5.8,8.5-5.4c4.5,0.5,3.6,5.6,3.5,9.1c0,2.9-0.5,5.9-0.8,9c11.9,5.9,24,6.3,36.3,4.2
			c14.8-2.4,29.4-6.1,44.2-7.8c19.5-2.2,39.1-2.8,58.7-4.2c8-0.6,15.9-1.8,23.9-1.8c9.5,0,13.3,5,10.9,14.3c-1.1,4.4-3.7,8.5-6,12.5
			c-2.8,5-3.7,10-1.2,15.2c1.6,3.3,4,5.1,8,4c7.6-2.1,13.3-5.6,14.5-14.3c1-6.5,1.9-13.3,8.1-17.6c0.9-0.6,1.4-2.3,1.5-3.5
			c0.1-8.2,5.7-11.1,12.2-14c8.5-3.7,16.7-8.1,25-12.3c12-6,24.7-8.1,37.9-5.5c4.8,0.9,9.7,2.8,13.8,5.3c6.7,4.1,6.8,11.9-0.2,15.1
			c-11.6,5.2-17.8,14.6-23.2,25c-3.9,7.5-9.1,13.8-17.2,17.4c-4.3,1.9-4.6,4.8-2,8.8c6.2,9.7,12.7,11.9,23.6,8.2
			c7.9-2.7,15.8-5.3,23.7-7.7c5.9-1.8,11.2-0.9,15.6,3.8c1.8,1.9,3.6,4.1,5.7,5.6c7.6,5.1,6.9,11.5,4.9,19.3
			c-4.4,16.9-14,30.7-23.7,44.7c-5.4,7.9-9.4,16.8-13.9,25.3c-2.2,4.2-1.8,8.1,1.6,11.9c9.5,10.3,3.8,18.2-4.1,24.3
			c-6.8,5.3-14.9,7.3-23.3,7.9c-13,1-26,1.8-36.5,11.1c-3.2,2.8-6.9,1.8-10.3-0.1c-2.8-1.6-5.6-3.3-8.1-4.7
			c-5.7,3.2-5.5,7.6-3.9,11.8c1.9,5,6.6,3.6,10.4,3c22.4-3.5,44.7-7.2,67-10.7c15.2-2.4,30.5-2.6,45.8-1c5,0.5,10,0.7,14.9,1
			c10.4,0.6,12.2,3,10.6,13.1c-0.5,3.3-0.1,6.8-0.1,11.5c5.1-0.6,8.6-1.1,12.1-1.5c9.1-0.9,17,6.6,16.5,15.7
			c-0.3,4.3-4.5,7.7-9.2,6.8c-3.5-0.7-6.8-2.9-10.3-3.5c-2.7-0.5-7.4-0.6-8.1,0.7c-2.7,5.4-7.5,4.4-11.7,5.7
			c-6.3,2-12.4,4.8-18.5,7.3c-9.8,4.1-19.5,8.4-29.4,12.2c-13.9,5.5-27.9,10.8-42,15.8c-4.3,1.5-9,1.9-13.5,2.8
			c-2.6,0.5-5.4,0.5-7.7,1.7c-3.4,1.9-3.8,5.2-2.2,8.7c1.5,3.3,4.2,4.8,7.2,2.8c6.5-4.2,13.5-2.8,20.4-3c3.6-0.1,7.8,0.8,10.8-0.6
			c9.9-4.8,20.2-3,31.3-3.5c-3.4,7.8-8.8,11.8-15.6,15.1c-13.1,6.4-25.8,13.5-38.6,20.4c-0.7,0.4-1.1,1.5-2.1,2.9
			c7.3,3.3,12.3,8.2,10.1,16.9c11.7,4.8,22.8,2,33.8-0.2c3.2-0.7,6.4-1.9,9.4-3.3c6.8-3.2,13.5-3,20.4-0.4c3.4,1.3,6.7,2.9,10.1,4.3
			c13.1,5.5,26.5,8.1,40.8,7.7c20.7-0.6,21.1,0.4,14.6,19.7c-0.9,2.7-0.9,5.8-1.4,8.7L3098.9-163.5z M206.6,719
			c-5.6,9.5-15.9,13.2-26.5,16.4c-2.5,0.8-5.1,1.7-7.6,2.6c-13.1,4.8-13.7,5.9-13.2,20.9c1.4,0.4,2.9,1.2,4.5,1.3
			c23.8,1,45.4-5.5,64.7-19.5c2-1.5,3.7-3.9,4.7-6.2c1.1-2.6,0.5-5.3-2.7-6.6C222.8,725,215.2,722.2,206.6,719z M1885.1,371.6
			c-14.1,3.3-22.1,11.1-26.6,23.4c0.8,1.1,1.3,2.5,2.3,3.2c8.2,5.5,10.1,13.5,9.6,22.6c-0.1,2.6-0.1,5.4,0.6,7.9
			c1.1,3.9,5.6,5.5,7.6,2.6c6.3-9.2,14.3-18.2,12.7-30.4C1889.9,391.1,1887.2,381.6,1885.1,371.6z M253.7,722.1
			c14.4,6,28.3,2.9,41.7-1.6c12-4,23.7-9.2,31.7-20.8C310.8,696.4,265.8,710.2,253.7,722.1z M-1.8,168.6c8.6-1.2,10.4-2.5,8.7-7.9
			C5,154.8,6,149.9,9.5,144.8c-2.4-1.8-4-3.7-6-4.4c-6.4-2.2-9.1-5.9-7.1-12.9c1.4-4.8-0.7-8.4-5.5-10.3c-6.3-2.5-13.4-1.1-16.4,3.2
			c-5.8,8.1-2.1,19.6,7.3,22.7c1.9,0.6,3.8,1.1,5.7,1.6c5.8,1.6,8.8,5.4,9.3,11.4C-2.9,160.1-2.3,164-1.8,168.6z M235.8,612
			c-7.4,2.9-14.2,5.5-20.9,8.2c-9.8,3.9-19.6,7.9-29.5,11.7c-2.5,1-6,1.4-4.8,4.8c0.6,1.7,4.3,3.7,6,3.3c5.4-1.2,10.9-3,15.7-5.6
			c9.6-5.2,18.8-11,30.3-11.7C238.1,622.2,238.5,620.4,235.8,612z M2242.2-530.3c0.8,1.1,1.5,2.2,2.3,3.3c11.8-0.1,23.1-2.9,33.8-8
			c4.3-2,9.6-3.2,10.8-8.8c-2.5-5.6-6.3-5.7-10.8-3.4c-10.7,5.3-21.4,10.6-32.1,15.8C2245-530.7,2243.6-530.6,2242.2-530.3z
			 M715.7,577.4c1.6,1.8,2,2.5,2.5,2.7c11.8,3.3,22.2-1.1,32.3-6.1c1.2-0.6,2.4-4.1,1.9-4.8c-1.2-1.5-3.9-3.2-5.5-2.8
			C736.5,569.2,725.9,571.8,715.7,577.4z M2591.7-653.3c-0.9,8.8,0.1,14.5,3.2,16.3c4.1,2.5,7.4,0.5,10.5-2
			C2604-652.2,2601.7-654.7,2591.7-653.3z M2235.4,366.3c5.8-0.4,10-4.1,9.7-7.6c-0.3-3.7-2.6-5.1-6.2-4.7c-4.4,0.5-9.1,4.3-8.1,7.1
			C2231.7,363.5,2234.3,365.1,2235.4,366.3z M355.2,581.5c-8.5,2.5-16,4.7-23.6,7C343.7,592.4,350,590.4,355.2,581.5z M25.9,175.3
			c0.3-7.1,1.5-13.6-3.3-19.9C18,164.1,18.7,168.5,25.9,175.3z M760.2-329.9c-0.8,0.2-1.6,0.4-2.4,0.7c-0.5,2.3-1,4.6-1.6,7.6
			c2.3,0.4,3.9,0.8,5.4,0.8c1.2,0,2.3-0.6,5-1.4C764.1-325.4,762.2-327.7,760.2-329.9z M446.5,552c0.1,0.8,0.2,1.6,0.4,2.5
			c3.5-0.4,7-0.7,10.5-1.1C453.5,549.4,449.9,548.6,446.5,552z M431.9,562.4c0.1-0.7,0.1-1.4,0.2-2.1c-6.3-1.1-6.3-1.1-11.6,3
			C425.1,562.9,428.5,562.6,431.9,562.4z"/>
		<path class="st0" d="M2808.6-653.7c5.8,1,11.9,1.4,17.5,3.2c3.5,1.1,6.9,4,9.3,6.9c2.7,3.3,2.4,7.1-1.3,10.5
			c-9.6,8.9-19.7,14.5-33.2,9.4c-2.4-0.9-5.3-1.3-7.8-0.8c-10.7,1.9-21.4,4.3-32.1,6.1c-2.7,0.4-6.2,0.3-8.2-1.2
			c-3-2.3-1.7-6-0.2-9.1c3.1-6.2,8.2-10.4,14.1-13.6C2779.6-649.6,2793.5-653.2,2808.6-653.7z"/>
		<path class="st0" d="M1618.4-621.8c12.9,5.9,25.5,4.2,38.5,0.8c1.4-8.9-1.9-15.4-8.9-20.2c4.4-7.4,9.2-9.9,14.1-7.4
			c5.3,2.7,8.3,10.1,6.1,16.4c-1.2,3.4-3.1,6.5-4.8,10c1.3,1.5,2.3,2.7,3.3,3.9c5.1,5.7,5.5,10.2,1.5,17.1c-4,6.9-7.9,8.9-15.7,6.5
			c-6.4-2-12.4-1.5-18.4,1c-5.3,2.2-10,2.6-14.6-2c-1.6-1.6-5.3-1.6-7.9-1.3c-2.2,0.2-4.1,2-6.2,3c-5.4,2.5-9.8,1.5-11.9-2.7
			c-2.3-4.6-0.1-11.6,4.5-13.8c1.5-0.7,3.2-1.3,4.8-1.1C1610.2-610.8,1615.6-613.4,1618.4-621.8z"/>
		<path class="st0" d="M42-156.2c6.3,1.2,11.7,1,15.7,3.2c6.2,3.5,12.3,4.3,19.1,4c7.1-0.4,8.1,1.3,6.3,8.3
			c-4.3,16.2-13.4,23.9-30,25.8c-7.6,0.9-15.1,2.6-22.5,4.1c-5.4,1.1-10.8,1.9-14.6-3.2c-2.9-3.9-0.7-11.4,4.5-16.1
			c2.2-2,4.6-3.9,7.3-5.2C35.6-139.2,41.2-144.9,42-156.2z"/>
		<path class="st0" d="M2762.5-707.7c6.7,0.2,10,3.1,12.4,7.5c2.6,4.6,0.8,8.5-2.2,11.7c-2.2,2.4-5.1,4.3-7.9,5.9
			c-7.6,4.1-15.2,8.1-23,11.7c-8.2,3.9-18.5,0.3-23-7.4c-3.5-6.1-1.5-11.3,5.4-12.6c11.3-2.2,21.3-6.9,30.8-13.4
			C2757.5-706,2760.7-706.9,2762.5-707.7z"/>
		<path class="st0" d="M533.6-329.8c-8.4,11.8-15.9,13.5-27.2,7c-3.1-1.8-6.2-3.8-9.6-5.1c-5.3-1.9-9.4,0.9-13.7,3.7
			c-5.8,3.8-8.7,2.6-11.4-3.7c-5.1-11.9,2.3-26.4,14.9-28.3c2.3-0.4,5.7,1.6,7.3,3.5c2,2.4,2.8,5.9,4.1,9
			c3.8,9.3,10.5,14.2,20.7,13.9C523.5-329.9,528.3-329.8,533.6-329.8z"/>
		<path class="st0" d="M13.8-33.5C5.7-27-0.3-21.4-7.2-17.1c-3.7,2.3-8.7,3.5-13.1,3.5C-33-13.7-40.2-27-33.7-37.9
			c1.2-2,4-4.6,6-4.5C-14.3-42-0.8-41.4,13.8-33.5z"/>
		<path class="st0" d="M20.3,704.9c3.5-1.3,7.3-2.1,10.6-3.9c4.4-2.4,8.8-3.7,13-0.6c4,3,3.7,7.8,2.6,11.9c-1,3.7-2.9,7.3-5.1,10.6
			c-2,2.9-5.1,4.4-8.7,2.5c-5.1-2.7-9.4-1.8-13.7,1.8c-3.8,3.2-8,4.7-12.6,1.1c-4.5-3.4-5.7-8.1-3.5-14.2
			C5.5,706.5,11.1,703,20.3,704.9z"/>
		<path class="st0" d="M285,811.3c2.7,17.2-7.8,30.5-23.5,31.1c-7.5,0.3-11.8-3.7-12.2-11.2c-0.5-11,6.9-21.6,19.2-20.1
			C274,811.9,279.7,811.3,285,811.3z"/>
		<path class="st0" d="M3117.3-278.4c-14.1-2.3-26.1,3.6-38.1,10.3c-7.8,4.3-16.2,7.6-24.7,10.2c-4.5,1.4-9.7,0.2-16.8,0.2
			c4.5-5.5,7.5-9.6,11-13.3c3.5-3.7,7.8-2.8,12-1.1c8,3.3,8.1,3.3,13.6-3.5c3.3-4.1,7.3-6.6,12.5-7.3c8.1-1.2,16.6-1.2,23.5-7
			c1-0.8,4.5,0.1,6,1.3C3119.4-286.1,3120-282.6,3117.3-278.4z"/>
		<path class="st0" d="M194.1,860.8c-10,5.4-18.9,3.5-27.9-0.1c-5.5,5.9-11.9,9.7-20.2,8c-5.9-1.1-11.2-7.8-10.3-12.8
			c1-5.7,7-10.2,13.4-9.1c3.4,0.6,6.7,2.5,9.7,4.4c2.7,1.7,5,4.2,7.9,6.8C175.3,854.7,184.5,852.3,194.1,860.8z"/>
		<path class="st0" d="M2867.2-663.7c2,0,4-0.1,5.9,0c3.9,0.2,7.9,1.4,8.5,5.4c0.5,3.2-0.5,7.4-2.4,10.1c-5.1,7.4-24.3,8.7-31,2.5
			c-4.2-3.8-3.7-9.8,1.1-13.8C2853.1-662.7,2857.9-663.9,2867.2-663.7z"/>
		<path class="st0" d="M10.6-63.3c0-0.7-0.1-1.3,0-2c0.7-8,4.7-12.4,10.6-11.5c8.2,1.3,13.9,7.9,12.6,15c-0.8,4.2-1.8,8.4-2.9,12.6
			c-1.5,5.4-3.4,6.2-8.8,4C15-48,10.6-55,10.6-63.3z"/>
		<path class="st0" d="M2262.9-719.4c6.2,6.7,7.9,14.4,3.5,21.6c-3.5,5.8-8.5,10.9-13.4,15.7c-1.3,1.3-5.4,1.6-6.9,0.6
			c-1.6-1.2-2-4.4-2.4-6.8c-0.2-1.1,0.7-2.5,1.4-3.6C2251-701.1,2256.9-710.2,2262.9-719.4z"/>
		<path class="st0" d="M49.9-177.9c-7.4,0-10.7-3.1-10.5-9.8c0.3-8.5,4.3-13.1,11.6-13.2c6.5-0.1,11.3,6.2,11.1,14.6
			C62-180.7,57.8-177.9,49.9-177.9z"/>
		<path class="st0" d="M28.8-179.3c-0.1,8.1-9.6,15.7-17.4,13.2c-2-0.6-4.1-3.4-4.5-5.5c-1.6-7.8,5.1-16.2,13-17.1
			C25.1-189.3,28.9-185.3,28.8-179.3z"/>
		<path class="st0" d="M3098.7-163.2c7.3,0.1,14.5,0.1,21.8,0.4c3.8,0.2,7.8,1.8,7.9,6c0.1,2.8-1.9,6.2-3.9,8.4
			c-3.2,3.5-7.7,4.1-11.9,1.8c-6.8-3.7-13.1-8-13.7-16.9C3098.9-163.5,3098.7-163.2,3098.7-163.2z"/>
		<path class="st0" d="M1621.1-634.2c-4.4,0-7.7-2.6-7.8-5.9c-0.2-5.3,4.9-9.1,12.2-8.8c3.9,0.1,7.5,1.2,8,5.7
			C1634-638.8,1627.3-634.1,1621.1-634.2z"/>
		<path class="st0" d="M378.3,875.7c9.3,1,12.4,8.2,8,18.4C378,887.7,376.3,883.9,378.3,875.7z"/>
	</g>
</g>
</svg>
