<?xml version="1.0" encoding="utf-8"?>
<!-- Generator: Adobe Illustrator 26.0.2, SVG Export Plug-In . SVG Version: 6.00 Build 0)  -->
<svg version="1.0" id="Layer_1" xmlns="http://www.w3.org/2000/svg" xmlns:xlink="http://www.w3.org/1999/xlink" x="0px" y="0px"
	 viewBox="0 0 1522.1 1349.8" style="enable-background:new 0 0 1522.1 1349.8;" xml:space="preserve">
<style type="text/css">
	.st0{fill:#255D98;}
	.st1{fill:#8FB8D8;}
</style>
<path class="st0" d="M1522.1,41.1c0,2.2,0,4.5,0,6.7c-1.1,1.9-2.5,3.6-4.3,4.8c-9,6.2-16.3,14.3-24.3,21.6
	c-14.8,13.4-29.2,27.2-43.8,40.8c-17,15.9-34.1,31.8-51.1,47.7c-13.4,12.5-26.8,25.1-40.1,37.7c-16.3,15.5-32.5,31.1-48.7,46.8
	c-4.7,4.5-9.6,8.9-14.8,12.8c-1.8,0.3-3.1,1.6-4.5,2.6c-9.9,6.5-20.6,10.8-32.4,12.6c-11.5,1.8-23,1-34.4,0.4
	c-9-0.4-17.9-0.1-26.7,1.6c-8.3,1.5-13.5,6.6-15.7,14.9c-1.9,7.3-2.3,14.9-2.4,22.3c-0.5,40.4,0.3,80.9-0.4,121.3
	c-0.2,12.5,4.6,17,17.2,17c10.5,0,21.1-0.4,31.6-0.3c17.4,0.2,34.8,0.6,52.2-0.5c2.5-0.2,5.1,0.3,7.6,0.8c4.8,1,7.9,3.9,9.5,8.5
	c1.3,3.7,1.6,7.6,1.4,11.4c-0.6,12.3-0.4,24.6-0.6,36.9c-0.3,21.3-0.3,42.5,0,63.8c0.2,12.3-0.2,24.6,0.7,36.9
	c0.3,3.5-0.3,7-1.1,10.4c-1.2,5.4-4.6,8.6-10,9.7c-3,0.6-6,0.8-9.1,0.6c-14.2-1.2-28.4-0.6-42.7-0.3c-9.3,0.2-18.5-0.2-27.7-0.7
	c-4.4-0.3-8.6-0.2-12.9,0.4c-7.5,1.1-12.5,5.2-14.7,12.6c-0.9,3.1-1.4,6.2-1.7,9.4c-0.5,5.4-0.1,10.8-0.1,16.2
	c0.2,29.7,0.3,59.5,0.4,89.2c0.4,130.1-0.6,260.2,0.6,390.3c0.2,19,0.1,38,0.1,57c-0.7,8.8-3.6,16-13.3,18.1c-15,0.9-30,0-45-0.4
	c-31.7-0.9-63.3-0.1-95,1c-3.7,0.1-7.4,0-11-0.5c-8.1-1.1-12.6-5.3-14-13.5c-0.7-3.9-1-7.9-1-11.9c0.2-35.3,0.5-70.7,0.6-106
	c0.1-62.2,0.1-124.4,0.1-186.6c0-32,0-64,0-95.9c0.1-51.5,0.2-103,0.3-154.4c0-3.4-0.3-6.7-0.9-10c-1.6-7.8-6.3-12.2-14.1-13.8
	c-4.9-1-9.9-0.9-14.8-0.9c-35.3,0.2-70.7,0.6-106,0.7c-55,0.1-110,0.1-165.1,0.1c-14.2,0-28.5,0-42.7-0.1
	c-35.8-0.2-71.6-0.4-107.5-0.6c-3.4,0-6.7,0.4-10,1.1c-6.6,1.5-10.6,5.5-12.2,12.1c-0.9,3.9-1.2,7.9-1.2,11.9
	c0.1,19.3,0.2,38.7,0.2,58c0.1,66.5,0.1,133,0.1,199.5c0,61.1-0.1,122.1,0.4,183.2c0.3,33.6,0.2,67.1,0.3,100.7
	c0,4.3-0.2,8.6-1.2,12.9c-1.8,7.9-6.4,12.1-14.4,13.4c-4.1,0.6-8.3,0.8-12.4,0.7c-21.6-0.9-43.2-1.3-64.7-1.5
	c-24.8-0.2-49.5,1.7-74.3,0.8c-6.4-1.3-10.4-5-11.6-11.5c-0.2-1.2-0.5-2.5-0.8-3.7c0-25.1,0.1-50.2,0.1-75.3
	c0-94.2,0.1-188.3,0.1-282.5c0-48.3,0.2-96.5,0.7-144.8c0.1-15.3,0.1-30.7,0.2-46c0-5.6-0.5-11.2-2.3-16.5
	c-2.4-7.2-7.5-11.3-14.9-12.5c-3.8-0.6-7.6-0.7-11.5-0.4c-10.7,1-21.4,1.6-32.1,1c-10.6-0.6-21.1-0.7-31.6,0.3
	c-3.6,0.3-7.4,0.3-11,0c-8.7-0.7-13.7-5.1-15.8-13.5c-1.2-4.9-1.1-9.8-0.8-14.8c1.1-23.6,1.3-47.3,1.1-70.9
	c-0.2-20.5-0.8-40.9-0.9-61.4c-0.1-13.8,5.3-18.9,19-18.7c6.7,0.1,13.4,0.5,20.1,0.6c21.4,0.3,42.8-0.7,64.3,0
	c1.9,0.1,3.8-0.1,5.7-0.4c6.2-1,8.9-3.9,9.8-10c0.6-4.1,0.3-8.3,0.2-12.4c-0.5-42.5-0.5-85-0.1-127.6c0-5.3,0.6-10.5-0.1-15.8
	c-1.1-7.8-5.1-11.3-13-10.8c-3.7,0.2-7.3,0.8-10.9,1.3c-20.7,3.2-41.1,2.3-61.1-4.5c-11.6-3.9-22.3-9.6-32.6-16c-2-1.3-4-2.6-6-4
	c-15.6-11.3-29.2-24.6-42.5-38.5c-13.1-13.6-26.5-26.8-40.1-39.9c-15.9-15.2-32-30.3-48.2-45.2c-10.2-9.4-20.4-18.8-30.6-28.2
	C48.4,86.6,33.3,72.8,18.2,59c-3.9-3.6-7.9-7-12.8-9.2c-1.7-0.8-3.5-1.5-4.3-3.3c0.9-1.2,1.8-2.1,2.5-3.2c1.4-2.2,3.2-2.6,5.7-2.2
	c16.4,2.4,32.8,4.7,49.2,6.9c23.7,3.2,47.4,6.4,71.1,9.3c17.1,2.1,34.2,4,51.3,5.9c22.3,2.5,44.6,4.9,67,7.3
	c11.9,1.2,23.8,2.2,35.7,3.3c15.9,1.5,31.7,3,47.6,4.4c10.3,0.9,20.7,1.5,31,2.3c14.6,1.1,29.2,2.3,43.8,3.4
	c8.3,0.6,16.5,1.2,24.8,1.8c3.8,0.9,7.6,0.3,11.4,0.6c32.7,2.3,65.4,3.9,98.1,5.3c22.7,1,45.4,1.6,68,2.4
	c35.6,1.4,71.3,1.8,106.9,2.2c37.9,0.4,75.8,0.5,113.7-0.2c18.2-0.3,36.4-0.6,54.7-1c35.8-0.7,71.6-2,107.4-3.5
	c25.5-1.1,51.1-2.5,76.6-4c7.6-0.4,15.3-0.2,22.9-1.8c0.8,0.1,1.6,0.2,2.4,0.2c7.8-0.5,15.6-1.2,23.4-1.6c13.5-0.7,27-1.8,40.5-2.9
	c13.3-1.1,26.7-1.9,40-3.1c17-1.4,33.9-3.1,50.9-4.6c14.9-1.4,29.8-2.7,44.7-4.2c16.3-1.7,32.6-3.5,48.9-5.4
	c15.4-1.7,30.7-3.4,46.1-5.2c19.3-2.4,38.6-4.8,57.8-7.4c17.5-2.3,35-5,52.5-7.3C1505.7,43.3,1513.8,41.6,1522.1,41.1z M613.2,276.1
	c-20.6,0.1-44.4-0.2-68.2-0.8c-3.1-0.1-6.1,0.2-9,0.9c-4.2,1.1-6.9,3.7-8.1,8c-1,3.6-1,7.3-0.9,10.9c0.2,16.1,0.5,32.3,0.6,48.4
	c0.3,29.6-0.3,59.1-0.6,88.7c0,2.7-0.1,5.5,0.2,8.1c0.9,7.4,4.3,10.8,11.6,11.8c1.6,0.2,3.2,0.3,4.8,0.3c4.5-0.1,8.9-0.4,13.4-0.4
	c26.5-0.1,53.1-0.1,79.6-0.2c16.5-0.1,32.9-0.1,49.4,0.6c14.1,0.6,19.3-4.6,19.3-18.6c0-8.5-0.5-16.9-0.5-25.4
	c-0.2-34.2-0.5-68.4,0.3-102.6c0.2-6.7,0.6-13.4-0.4-20.1c-0.9-5.6-4-8.8-9.6-9.9c-3.8-0.8-7.6-0.7-11.5-0.6
	C661.2,276,638.8,276.1,613.2,276.1z M824.2,364C824.2,364,824.2,364,824.2,364c0,19.7,0,39.3,0,59c0,5.9-0.2,11.8,0.1,17.7
	c0.3,7.5,3.5,10.8,10.8,11.5c2.9,0.3,5.8,0.2,8.6,0.1c11.2-0.5,22.4-0.4,33.6-0.4c16.6,0,33.3,0.3,49.9,0.1
	c18.2-0.2,36.5-0.5,54.7,0.3c3.5,0.2,7,0.3,10.5-0.5c4.2-0.9,6.7-3.4,7.8-7.5c0.7-2.7,0.8-5.4,0.7-8.1c-0.4-48-0.4-95.9,0-143.9
	c0-2.1,0-4.2-0.2-6.2c-0.8-6.4-3.8-9.3-10.2-10.2c-1.9-0.3-3.8-0.5-5.7-0.4c-21.9,0.5-43.8,0.4-65.7,0.4c-25.7,0-51.5,0.3-77.2-0.5
	c-2.9-0.1-5.8,0-8.6,0.6c-5.2,1-7.9,3.6-8.7,8.8c-0.4,2.5-0.4,5.1-0.4,7.7C824.2,316.3,824.2,340.1,824.2,364z"/>
<g>
	<path class="st1" d="M360.7,1223.1c24.8,0.9,49.5-1,74.3-0.8c21.6,0.2,43.2,0.6,64.7,1.5c4.2,0.2,8.3,0,12.4-0.7
		c8-1.2,12.6-5.5,14.4-13.4c1-4.2,1.2-8.5,1.2-12.9c-0.1-33.6,0-67.2-0.3-100.7c-0.5-61.1-0.4-122.1-0.4-183.2
		c0-66.5-0.1-133-0.1-199.5c0-19.3-0.1-38.7-0.2-58c0-4,0.2-8,1.2-11.9c1.6-6.6,5.6-10.6,12.2-12.1c3.3-0.7,6.6-1.1,10-1.1
		c35.8,0.2,71.6,0.4,107.5,0.6c14.2,0.1,28.5,0.1,42.7,0.1c55,0,110,0,165.1-0.1c35.3-0.1,70.7-0.5,106-0.7c5,0,9.9-0.1,14.8,0.9
		c7.8,1.5,12.5,5.9,14.1,13.8c0.7,3.3,1,6.6,0.9,10c-0.1,51.5-0.2,103-0.3,154.4c0,32,0,64,0,95.9c0,62.2,0,124.4-0.1,186.6
		c-0.1,35.3-0.4,70.7-0.6,106c0,4,0.3,8,1,11.9c1.4,8.1,5.9,12.4,14,13.5c3.6,0.5,7.3,0.6,11,0.5c31.6-1.1,63.3-1.9,95-1
		c15,0.4,30,1.3,45,0.4c-1.7,0.5-3.4,1.3-5.1,1.1c-5-0.7-9,1.3-12.7,4.3c-1.4,1.1-2.8,2.1-4.3,3.1c-30.2,20.5-61.6,38.7-94.7,54.3
		c-37,17.4-75.2,31.3-114.6,41.7c-44.7,11.9-90.3,18.7-136.5,21.5c-2.5,0.2-5.1-0.5-7.5,0.7c-18.9,0-37.7,0-56.6,0
		c-1-0.5-2.1-0.7-3.3-0.7c-9.9-0.3-19.7-1.2-29.6-2c-27.1-2.2-53.9-6.3-80.4-12c-60.2-12.8-117.5-33.4-172-62.1
		c-25.6-13.5-50.3-28.4-74-45.1c-3-2.1-5.9-4.2-10-3.8C363.5,1224.2,362.1,1223.4,360.7,1223.1z"/>
	<path class="st1" d="M348.2,1207.9c-7.3-4.7-13.7-10.5-20.3-16c-13.7-11.5-26.9-23.6-39.7-36.1c-35.7-34.9-66.9-73.4-94-115.3
		c-32-49.5-57-102.4-75.1-158.6c-10.1-31.5-17.9-63.6-23.2-96.3c-3.2-20-5.6-40.1-7.1-60.4c-2-26.2-2.4-52.4-1.3-78.5
		c1.7-41.7,7.3-83,16.7-123.7c9.6-41.4,22.9-81.5,40-120.4c14.1-31.9,30.6-62.6,49.5-91.9c11-17.1,22.8-33.6,35.2-49.7
		c1.1-1.4,2.5-2.6,1.9-4.6c10.3,6.5,21,12.1,32.6,16c20,6.7,40.4,7.7,61.1,4.5c3.6-0.6,7.3-1.1,10.9-1.3c7.9-0.5,11.9,3,13,10.8
		c0.7,5.3,0.2,10.5,0.1,15.8c-0.4,42.5-0.4,85,0.1,127.6c0,4.2,0.4,8.3-0.2,12.4c-1,6.1-3.7,9-9.8,10c-1.9,0.3-3.8,0.4-5.7,0.4
		c-21.4-0.8-42.8,0.3-64.3,0c-6.7-0.1-13.4-0.5-20.1-0.6c-13.7-0.1-19,5-19,18.7c0.1,20.5,0.7,40.9,0.9,61.4
		c0.2,23.7,0,47.3-1.1,70.9c-0.2,4.9-0.4,9.9,0.8,14.8c2.1,8.5,7,12.9,15.8,13.5c3.7,0.3,7.4,0.3,11,0c10.5-1,21.1-0.9,31.6-0.3
		c10.7,0.6,21.4,0,32.1-1c3.8-0.4,7.7-0.2,11.5,0.4c7.5,1.2,12.6,5.3,14.9,12.5c1.8,5.4,2.3,10.9,2.3,16.5
		c-0.1,15.3-0.1,30.7-0.2,46c-0.4,48.3-0.7,96.5-0.7,144.8c0,94.2,0,188.3-0.1,282.5C348.4,1157.7,348.3,1182.8,348.2,1207.9z"/>
	<path class="st1" d="M1295,260c2.5,4.7,6.1,8.6,9.2,12.8c27.2,36.5,50.4,75.5,69.7,116.7c22.3,47.5,38.7,97,49.2,148.4
		c5,24.3,8.5,48.7,10.9,73.4c2.7,27.2,3.3,54.5,2.7,81.8c-0.6,30.2-3.6,60.2-8.4,90c-6.1,38.1-15.5,75.4-28,111.9
		c-8.5,24.8-18.6,49-29.9,72.6c-19.7,41-43.5,79.6-71.1,115.9c-13.1,17.2-27,33.6-41.6,49.5c-22.5,24.5-46.9,47-72.8,67.9
		c-1.7,1.4-3.3,3-5.4,3.9c0-19,0-38-0.1-57c-1.2-130.1-0.2-260.2-0.6-390.3c-0.1-29.7-0.1-59.5-0.4-89.2c0-5.4-0.4-10.8,0.1-16.2
		c0.3-3.2,0.8-6.3,1.7-9.4c2.2-7.4,7.2-11.5,14.7-12.6c4.3-0.6,8.5-0.7,12.9-0.4c9.2,0.6,18.5,0.9,27.7,0.7
		c14.2-0.3,28.4-0.9,42.7,0.3c3,0.3,6,0.1,9.1-0.6c5.5-1.1,8.8-4.3,10-9.7c0.8-3.4,1.3-7,1.1-10.4c-0.9-12.3-0.5-24.6-0.7-36.9
		c-0.3-21.3-0.3-42.5,0-63.8c0.2-12.3,0-24.6,0.6-36.9c0.2-3.8-0.1-7.7-1.4-11.4c-1.6-4.6-4.7-7.5-9.5-8.5c-2.5-0.5-5.1-1-7.6-0.8
		c-17.4,1.1-34.8,0.6-52.2,0.5c-10.5-0.1-21.1,0.3-31.6,0.3c-12.6,0-17.4-4.5-17.2-17c0.7-40.4-0.1-80.9,0.4-121.3
		c0.1-7.5,0.4-15,2.4-22.3c2.2-8.3,7.4-13.4,15.7-14.9c8.8-1.6,17.7-2,26.7-1.6c11.5,0.6,23,1.4,34.4-0.4
		c11.7-1.8,22.5-6.1,32.4-12.6C1291.9,261.6,1293.1,260.3,1295,260z"/>
	<path class="st1" d="M430.6,85.8c2.9-0.5,5.4-1.8,8-3.2c12.4-6.9,25.2-13.2,38-19.3c40.8-19.1,83.1-33.9,126.9-44.4
		c27.4-6.6,55.1-11.2,83-14.6c32.9-3.9,66-4.6,99.1-3.7C831,2,875.9,8.2,920.2,18.9c41.8,10,82.2,24,121.3,41.6
		c14.9,6.7,29.4,14,43.7,21.9c1.8,1,3.9,1.5,5,3.5c-7.6,1.6-15.3,1.4-22.9,1.8c-25.5,1.5-51.1,2.8-76.6,4
		c-35.8,1.6-71.6,2.9-107.4,3.5c-18.2,0.3-36.4,0.6-54.7,1c-37.9,0.7-75.8,0.6-113.7,0.2c-35.6-0.4-71.3-0.9-106.9-2.2
		c-22.7-0.9-45.4-1.4-68-2.4c-32.7-1.4-65.5-3-98.1-5.3C438.2,86.1,434.3,86.6,430.6,85.8z"/>
	<path class="st1" d="M613.2,276.1c25.6,0,48-0.1,70.4-0.7c3.8-0.1,7.6-0.2,11.5,0.6c5.6,1.1,8.7,4.3,9.6,9.9
		c1.1,6.7,0.6,13.4,0.4,20.1c-0.9,34.2-0.6,68.4-0.3,102.6c0.1,8.5,0.5,16.9,0.5,25.4c0,14-5.2,19.3-19.3,18.6
		c-16.5-0.7-32.9-0.7-49.4-0.6c-26.5,0.1-53.1,0.1-79.6,0.2c-4.5,0-8.9,0.3-13.4,0.4c-1.6,0-3.2-0.1-4.8-0.3
		c-7.3-1-10.7-4.4-11.6-11.8c-0.3-2.7-0.3-5.4-0.2-8.1c0.3-29.6,0.9-59.1,0.6-88.7c-0.1-16.1-0.4-32.3-0.6-48.4
		c0-3.7-0.1-7.3,0.9-10.9c1.2-4.2,3.9-6.9,8.1-8c3-0.8,6-1,9-0.9C568.8,275.8,592.6,276.2,613.2,276.1z"/>
	<path class="st1" d="M824.2,364c0-23.8,0-47.6,0-71.5c0-2.6,0-5.1,0.4-7.7c0.8-5.3,3.5-7.8,8.7-8.8c2.8-0.5,5.7-0.6,8.6-0.6
		c25.7,0.7,51.5,0.4,77.2,0.5c21.9,0,43.8,0.1,65.7-0.4c1.9,0,3.8,0.2,5.7,0.4c6.4,0.9,9.4,3.8,10.2,10.2c0.3,2.1,0.2,4.1,0.2,6.2
		c-0.4,48-0.4,95.9,0,143.9c0,2.7,0,5.4-0.7,8.1c-1.1,4.1-3.7,6.6-7.8,7.5c-3.5,0.8-7,0.6-10.5,0.5c-18.2-0.8-36.5-0.5-54.7-0.3
		c-16.6,0.2-33.3-0.1-49.9-0.1c-11.2,0-22.4-0.1-33.6,0.4c-2.9,0.1-5.8,0.2-8.6-0.1c-7.3-0.7-10.5-4.1-10.8-11.5
		c-0.2-5.9-0.1-11.8-0.1-17.7C824.2,403.3,824.2,383.6,824.2,364C824.2,364,824.2,364,824.2,364z"/>
</g>
</svg>
