<?xml version="1.0" encoding="utf-8"?>
<!-- Generator: Adobe Illustrator 26.0.2, SVG Export Plug-In . SVG Version: 6.00 Build 0)  -->
<svg version="1.1" id="Layer_1" xmlns="http://www.w3.org/2000/svg" xmlns:xlink="http://www.w3.org/1999/xlink" x="0px" y="0px"
	 viewBox="0 0 512 512" style="enable-background:new 0 0 512 512;" xml:space="preserve">
<style type="text/css">
	.st0{fill:#255D98;}
	.st1{fill:#215388;}
	.st2{fill:#FFFFFF;}
	.st3{fill:#E8E6E6;}
	.st4{fill:#3A83CF;}
</style>
<path class="st0" d="M511.3,274.3c0.4-6,0.7-12.1,0.7-18.3C512,114.6,397.4,0,256,0S0,114.6,0,256c0,117.8,79.5,216.9,187.8,246.8
	L511.3,274.3z"/>
<path class="st1" d="M511.3,274.3L315,77.9L119.1,434.1l68.7,68.7c21.7,6,44.6,9.2,68.2,9.2C391.2,512,502,407.1,511.3,274.3z"/>
<polygon class="st2" points="278.3,333.9 255.7,77.9 119.1,77.9 119.1,311.7 "/>
<polygon class="st3" points="392.9,311.7 392.9,155.8 337.3,133.6 315,77.9 255.7,77.9 256.1,333.9 "/>
<polygon class="st2" points="315,155.8 315,77.9 392.9,155.8 "/>
<rect x="119.1" y="311.7" class="st4" width="273.8" height="122.4"/>
<g>
	<path class="st2" d="M197.5,346.4c16.6,0,28.2,10.7,28.2,26.5c0,15.7-11.7,26.5-28.7,26.5h-22.2v-53H197.5z M188.2,388.6h9.6
		c8.2,0,14.2-6.4,14.2-15.7c0-9.4-6.2-15.8-14.8-15.8h-9L188.2,388.6L188.2,388.6z"/>
	<path class="st2" d="M287.5,372.8c0,15.4-12.3,27.2-28.7,27.2c-16.3,0-28.6-11.7-28.6-27.2c0-15.4,12.3-26.9,28.6-26.9
		C275.2,345.9,287.5,357.4,287.5,372.8z M244,372.9c0,8.9,6.9,15.8,15,15.8c8.2,0,14.7-6.9,14.7-15.8s-6.5-15.7-14.7-15.7
		C250.8,357.2,244,363.9,244,372.9z"/>
	<path class="st2" d="M341.7,354.9l-7.8,9.2c-3.5-4.2-8.6-6.9-13.3-6.9c-8.4,0-14.8,6.7-14.8,15.4c0,8.9,6.4,15.6,14.8,15.6
		c4.5,0,9.6-2.4,13.3-6.2l7.9,8.3c-5.7,5.8-14.1,9.7-21.9,9.7c-16,0-27.8-11.7-27.8-27.2c0-15.3,12.2-26.8,28.3-26.8
		C328.2,345.9,336.4,349.4,341.7,354.9z"/>
</g>
</svg>
