<?xml version="1.0" encoding="utf-8"?>
<!-- Generator: Adobe Illustrator 26.0.2, SVG Export Plug-In . SVG Version: 6.00 Build 0)  -->
<svg version="1.1" id="Layer_1" xmlns="http://www.w3.org/2000/svg" xmlns:xlink="http://www.w3.org/1999/xlink" x="0px" y="0px"
	 viewBox="0 0 512 512" style="enable-background:new 0 0 512 512;" xml:space="preserve">
<style type="text/css">
	.st0{fill:#96262C;}
	.st1{fill:#7A1B29;}
	.st2{fill:#FFFFFF;}
	.st3{fill:#E8E6E6;}
	.st4{fill:#CE3C58;}
</style>
<path class="st0" d="M511.3,274.3c0.4-6,0.7-12.1,0.7-18.3C512,114.6,397.4,0,256,0S0,114.6,0,256c0,117.8,79.5,216.9,187.8,246.8
	L511.3,274.3z"/>
<path class="st1" d="M511.3,274.3L315,77.9L119.1,434.1l68.7,68.7c21.7,6,44.6,9.2,68.2,9.2C391.2,512,502,407.1,511.3,274.3z"/>
<polygon class="st2" points="278.3,333.9 255.7,77.9 119.1,77.9 119.1,311.7 "/>
<polygon class="st3" points="392.9,311.7 392.9,155.8 337.3,133.6 315,77.9 255.7,77.9 256.1,333.9 "/>
<polygon class="st2" points="315,155.8 315,77.9 392.9,155.8 "/>
<rect x="119.1" y="311.7" class="st4" width="273.8" height="122.4"/>
<g>
	<path class="st2" d="M204.9,346.4c13.5,0,21.3,6.7,21.3,18.5c0,12.4-7.8,19.6-21.3,19.6h-9.6v14.9h-13.5v-53H204.9L204.9,346.4z
		 M195.3,373.9h8.9c5.9,0,9.3-3,9.3-8.6c0-5.5-3.4-8.3-9.3-8.3h-8.9V373.9L195.3,373.9z"/>
	<path class="st2" d="M257.9,346.4c16.6,0,28.2,10.7,28.2,26.5c0,15.7-11.7,26.5-28.7,26.5h-22.2v-53H257.9z M248.6,388.6h9.6
		c8.2,0,14.2-6.4,14.2-15.7c0-9.4-6.2-15.8-14.8-15.8h-9L248.6,388.6L248.6,388.6z"/>
	<path class="st2" d="M308.6,357v12.3h23.8v10.6h-23.8v19.5h-13.5v-53h39.3V357H308.6L308.6,357z"/>
</g>
</svg>
