<?xml version="1.0" standalone="no"?>
<!DOCTYPE svg PUBLIC "-//W3C//DTD SVG 20010904//EN"
 "http://www.w3.org/TR/2001/REC-SVG-20010904/DTD/svg10.dtd">
<svg version="1.0" xmlns="http://www.w3.org/2000/svg"
 width="1087.000000pt" height="1087.000000pt" viewBox="0 0 1087.000000 1087.000000"
 preserveAspectRatio="xMidYMid meet">
<metadata>
Created by potrace 1.14, written by Peter Selinger 2001-2017
</metadata>
<g transform="translate(0.000000,1087.000000) scale(0.100000,-0.100000)"
fill="#000000" stroke="none">
<path d="M10735 9902 c-2 -2 -43 -5 -92 -7 -48 -2 -106 -7 -128 -10 -53 -8
-101 -14 -151 -21 -23 -2 -53 -7 -65 -9 -13 -3 -44 -7 -69 -10 -25 -3 -83 -10
-130 -17 -47 -6 -93 -12 -102 -12 -10 0 -18 -3 -18 -6 0 -3 -10 -5 -22 -6 -29
0 -147 -14 -173 -19 -26 -6 -82 -13 -147 -21 -29 -3 -78 -9 -108 -14 -30 -5
-75 -12 -100 -15 -25 -3 -56 -8 -70 -10 -14 -2 -50 -7 -80 -10 -30 -4 -73 -10
-95 -15 -22 -4 -47 -8 -55 -8 -8 0 -33 -3 -55 -6 -22 -4 -58 -9 -80 -12 -38
-5 -141 -20 -195 -29 -14 -2 -61 -9 -106 -15 -44 -6 -91 -13 -105 -15 -13 -3
-42 -8 -64 -10 -85 -11 -114 -16 -185 -30 -14 -2 -45 -7 -70 -10 -25 -3 -58
-7 -75 -10 -16 -3 -43 -7 -60 -10 -16 -3 -39 -7 -50 -9 -11 -2 -69 -11 -129
-21 -59 -9 -118 -19 -130 -21 -11 -2 -37 -7 -56 -10 -19 -2 -82 -14 -140 -24
-58 -11 -121 -22 -140 -25 -33 -5 -120 -21 -165 -30 -11 -3 -36 -6 -55 -9 -19
-2 -53 -9 -75 -14 -22 -6 -58 -13 -80 -17 -42 -6 -73 -11 -115 -20 -30 -6 -65
-13 -100 -20 -14 -2 -50 -10 -80 -16 -30 -6 -64 -12 -75 -14 -11 -2 -31 -6
-45 -10 -14 -3 -40 -8 -59 -11 -19 -3 -45 -10 -59 -15 -14 -5 -27 -7 -29 -5
-3 3 -15 1 -27 -4 -13 -4 -38 -11 -57 -14 -57 -10 -123 -23 -126 -26 -4 -3
-11 -5 -68 -15 -53 -9 -64 -11 -67 -15 -2 -1 -10 -3 -18 -5 -14 -2 -128 -27
-140 -30 -3 -1 -21 -5 -40 -9 -19 -4 -100 -24 -180 -43 -80 -19 -154 -36 -165
-38 -11 -1 -20 -3 -20 -4 0 -3 -9 -5 -55 -14 -14 -3 -52 -13 -85 -21 -33 -9
-73 -19 -89 -22 -16 -3 -33 -7 -38 -10 -4 -3 -16 -7 -25 -9 -29 -5 -249 -62
-368 -95 -60 -17 -118 -33 -128 -35 -9 -3 -26 -7 -37 -9 -11 -3 -24 -7 -28
-10 -5 -3 -19 -7 -33 -10 -36 -6 -302 -90 -484 -151 -88 -30 -176 -60 -195
-66 -31 -11 -55 -19 -70 -24 -3 -1 -12 -4 -20 -8 -8 -3 -68 -24 -132 -46 -65
-23 -169 -59 -230 -80 -135 -46 -180 -61 -193 -61 -5 -1 -20 -8 -33 -16 -12
-8 -22 -12 -22 -10 0 3 -25 -4 -57 -15 -31 -10 -66 -19 -79 -19 -34 0 -23 37
23 80 21 19 55 54 76 78 20 24 37 41 37 38 0 -2 36 33 80 79 44 46 80 82 80
80 0 -1 37 36 83 82 45 47 143 147 217 222 74 75 144 146 155 159 28 34 28 78
-1 101 -32 25 -63 21 -169 -20 -16 -7 -34 -13 -40 -15 -13 -3 -172 -62 -210
-79 -16 -6 -57 -22 -90 -35 -33 -13 -65 -27 -71 -32 -7 -5 -20 -11 -30 -13
-16 -3 -181 -74 -269 -115 -158 -73 -219 -100 -226 -100 -5 0 -9 -4 -9 -10 0
-5 -7 -10 -16 -10 -8 0 -97 -42 -197 -94 -172 -88 -204 -106 -302 -162 -22
-13 -51 -29 -65 -36 -14 -7 -27 -15 -30 -19 -3 -3 -12 -9 -20 -13 -40 -19
-203 -122 -298 -188 -45 -32 -86 -58 -89 -58 -3 0 -13 -7 -22 -15 -9 -9 -68
-55 -132 -103 -116 -87 -197 -153 -251 -204 -16 -16 -31 -28 -34 -28 -8 0
-318 -313 -364 -366 -50 -59 -100 -120 -139 -173 -19 -25 -47 -62 -61 -81 -68
-89 -243 -410 -254 -464 -2 -6 -8 -22 -14 -36 -17 -39 -62 -186 -66 -217 -2
-15 -7 -37 -11 -47 -5 -10 -9 -28 -10 -40 -1 -12 -5 -41 -9 -66 -4 -25 -9 -70
-11 -100 -2 -30 -5 -55 -5 -55 -7 0 -5 -163 2 -172 5 -7 5 -14 -2 -18 -7 -4
-7 -12 0 -26 8 -13 7 -19 0 -19 -8 0 -8 -6 0 -20 6 -11 7 -20 2 -20 -4 0 -7
-15 -5 -32 2 -18 5 -55 8 -83 9 -94 22 -154 56 -257 40 -122 129 -301 186
-373 4 -5 22 -30 38 -55 17 -25 35 -50 40 -56 6 -7 26 -31 45 -55 146 -181
221 -256 271 -271 35 -10 42 -9 77 15 25 16 56 53 86 103 25 42 46 80 46 84 0
5 4 10 8 12 4 2 23 27 42 55 18 29 37 53 42 53 4 0 8 6 8 13 0 7 10 23 22 37
13 14 44 50 69 80 26 30 96 105 156 165 94 94 141 139 299 280 12 11 37 32 55
47 19 14 45 36 59 48 14 12 52 43 85 68 33 26 62 50 63 54 2 4 8 8 13 8 8 0
35 19 63 46 6 6 22 17 36 24 13 7 29 17 34 22 25 20 136 98 142 98 7 0 77 52
86 65 5 7 8 7 8 0 0 -6 3 -6 8 0 4 6 39 30 77 55 39 24 79 52 91 62 11 10 24
15 27 11 4 -3 7 -1 7 5 0 7 7 12 15 12 8 0 15 5 15 10 0 6 7 10 15 10 8 0 15
3 15 8 0 4 20 18 45 32 25 14 45 28 45 33 0 4 4 6 9 3 5 -4 11 -2 13 2 4 11
102 77 107 73 2 -1 7 1 10 6 14 21 162 113 181 113 12 0 32 11 46 25 14 14 29
25 33 25 5 0 51 25 102 55 52 30 99 55 106 55 6 0 13 4 15 9 1 6 16 12 32 15
16 3 33 11 37 17 4 6 11 9 17 5 6 -3 22 -2 35 3 31 12 31 11 -18 -119 -20 -52
-42 -113 -50 -135 -7 -22 -25 -71 -40 -110 -14 -38 -28 -77 -30 -85 -2 -8 -22
-62 -44 -120 -22 -58 -41 -109 -41 -113 0 -5 -6 -23 -14 -40 -7 -18 -26 -68
-41 -112 -15 -44 -29 -87 -32 -95 -4 -8 -8 -19 -9 -25 -24 -70 -61 -173 -67
-183 -5 -6 -5 -12 -1 -12 3 0 0 -7 -7 -16 -8 -9 -14 -22 -14 -28 0 -6 -11 -38
-24 -71 -12 -33 -32 -82 -43 -110 -10 -27 -23 -59 -28 -70 -67 -152 -152 -400
-174 -505 -20 -92 -29 -120 -41 -120 -13 0 -27 -23 -30 -50 -1 -8 -7 -28 -14
-45 -6 -16 -23 -59 -36 -95 -13 -36 -30 -78 -36 -95 -7 -16 -13 -34 -15 -40
-1 -5 -8 -23 -15 -40 -7 -16 -13 -32 -14 -35 -4 -18 -47 -128 -55 -142 -6 -10
-10 -23 -10 -29 0 -6 -6 -25 -14 -42 -7 -18 -19 -48 -26 -67 -7 -19 -16 -44
-21 -55 -19 -46 -89 -232 -89 -237 0 -4 -5 -19 -12 -35 -6 -15 -12 -32 -13
-38 -2 -5 -12 -30 -23 -55 -11 -25 -29 -70 -40 -100 -23 -65 -82 -222 -112
-300 -12 -30 -23 -59 -24 -65 -2 -5 -7 -19 -11 -30 -21 -51 -97 -251 -99 -260
-2 -5 -8 -23 -14 -38 -7 -16 -12 -34 -12 -41 0 -7 -3 -16 -7 -20 -5 -4 -8 -11
-9 -14 0 -4 -6 -20 -13 -37 -7 -16 -22 -55 -33 -85 -12 -30 -25 -66 -31 -80
-6 -14 -11 -27 -11 -30 -5 -20 -61 -167 -67 -176 -5 -6 -10 -19 -12 -30 -4
-19 -12 -44 -27 -79 -5 -11 -18 -41 -29 -67 -11 -27 -18 -48 -15 -48 2 0 -5
-18 -16 -40 -11 -21 -20 -44 -20 -50 0 -5 -15 -49 -34 -98 -19 -48 -64 -166
-100 -262 -37 -96 -73 -191 -81 -210 -65 -163 -157 -419 -157 -438 -1 -35 31
-63 66 -60 24 2 38 13 63 53 18 28 39 57 46 65 7 9 16 24 20 33 3 9 11 17 17
17 5 0 10 7 10 15 0 8 4 15 8 15 4 0 16 14 26 32 11 17 28 42 39 54 10 12 19
25 18 28 -1 3 6 14 14 24 51 57 65 76 65 83 0 4 6 14 13 21 7 7 41 52 75 100
35 48 70 95 78 103 9 8 13 15 10 15 -3 0 9 19 27 43 17 24 40 54 49 68 46 64
119 165 126 174 4 6 23 33 42 60 18 28 36 52 39 55 3 3 11 12 16 21 6 9 19 29
30 45 95 138 146 211 155 221 5 6 37 52 70 102 34 50 66 93 71 97 5 3 7 10 4
15 -4 5 -2 9 4 9 6 0 18 15 27 33 9 17 20 34 24 37 3 3 64 91 135 195 70 105
132 192 136 193 5 2 7 7 4 12 -2 4 4 15 15 25 11 10 20 22 20 27 0 5 5 14 11
21 9 11 97 142 124 185 6 9 25 39 43 67 18 27 37 57 42 65 5 8 21 32 35 53 14
21 25 40 25 43 0 3 5 10 11 17 6 7 39 57 74 112 35 55 69 106 75 112 6 7 8 13
5 13 -4 0 7 18 24 39 17 21 31 41 31 45 0 3 20 37 45 75 25 38 45 74 45 79 0
6 3 12 8 14 7 3 52 64 52 72 0 2 18 33 40 67 22 35 46 75 52 89 7 14 15 27 19
30 7 6 244 406 329 555 34 61 73 128 87 150 13 22 26 48 30 58 3 9 9 17 13 17
5 0 11 14 15 30 4 16 11 30 16 30 5 0 9 7 9 15 0 8 5 15 12 15 6 0 8 3 5 6 -3
4 3 18 13 32 11 13 20 31 20 38 0 8 5 14 12 14 6 0 8 3 5 6 -4 4 2 19 12 33
10 14 24 40 33 56 8 17 30 59 50 95 19 36 55 101 78 145 23 44 47 84 51 90 5
5 9 17 9 27 0 10 4 18 8 18 4 0 21 28 37 63 16 34 34 65 40 69 5 4 6 8 1 8 -5
0 -4 6 2 13 17 21 112 207 106 207 -4 0 -1 7 6 15 6 8 9 19 5 25 -3 5 -1 10 4
10 7 0 11 24 11 59 0 43 5 65 20 84 11 14 20 30 20 35 0 6 6 17 13 24 12 13
17 23 59 97 39 68 155 306 169 344 7 20 17 37 21 37 4 0 7 3 6 8 -3 7 26 91
43 127 6 12 11 27 13 35 3 21 16 62 26 85 17 39 60 200 65 245 1 8 7 33 13 55
6 22 14 65 18 95 4 30 8 66 10 80 3 14 6 50 8 80 4 63 15 110 25 107 3 -1 26
8 51 20 70 33 160 73 210 93 25 10 59 25 75 34 17 9 33 16 37 16 5 0 36 13 70
29 164 76 398 178 413 181 6 1 18 9 28 17 9 9 17 13 17 8 0 -4 6 -3 13 3 20
16 139 62 147 57 14 -9 80 61 80 84 0 11 7 22 15 22 17 2 24 3 45 12 11 4 103
32 140 42 30 8 98 28 110 33 8 3 18 4 23 4 4 -1 7 2 7 6 0 5 6 9 13 9 15 0
179 55 187 63 5 5 95 39 115 43 6 2 17 7 25 12 8 5 17 10 20 10 3 0 61 23 130
50 69 27 127 50 130 50 3 1 19 7 35 14 17 6 75 29 130 50 55 21 109 42 120 46
11 5 22 9 25 10 3 1 19 7 35 14 44 17 169 65 175 67 3 0 19 6 35 13 17 6 44
16 60 22 17 6 39 15 50 20 11 4 56 21 100 38 44 16 143 52 220 81 77 28 147
54 155 57 8 4 18 7 22 7 3 1 10 4 14 9 4 4 14 7 22 7 8 0 28 6 45 14 18 7 55
21 82 31 28 9 59 20 70 25 11 5 38 14 60 21 22 7 44 17 49 21 6 4 16 8 24 8 8
0 28 6 45 14 18 8 57 22 87 31 30 10 60 20 65 24 6 3 12 6 15 7 3 0 12 3 20 7
8 3 38 13 65 22 28 10 57 20 65 23 8 3 20 6 25 8 6 1 37 12 70 25 123 44 380
131 393 132 6 0 12 4 12 7 0 6 45 19 65 20 3 0 19 7 35 15 17 9 30 14 30 11 0
-2 24 5 53 16 51 19 98 35 127 43 21 6 262 85 280 92 8 3 20 7 25 8 6 2 37 12
71 23 33 12 76 24 95 27 54 10 96 35 107 63 12 32 12 62 0 62 -4 0 -8 7 -8 15
0 21 -34 36 -75 33 -20 -1 -37 -4 -40 -6z"/>
<path d="M595 9433 c-96 -17 -135 -27 -135 -36 0 -6 -3 -8 -6 -4 -7 7 -85 -34
-129 -67 -87 -67 -151 -146 -205 -254 -41 -82 -81 -184 -82 -212 0 -8 -6 -44
-13 -80 -12 -67 -13 -331 0 -385 3 -16 10 -34 16 -41 5 -6 7 -13 4 -16 -8 -8
38 -133 70 -188 8 -14 22 -40 30 -57 8 -18 20 -33 25 -33 6 0 10 -7 10 -15 0
-12 105 -124 150 -160 78 -62 209 -103 320 -99 81 2 90 4 165 29 47 16 114 51
125 65 3 4 13 11 23 17 30 16 132 120 148 150 8 15 20 35 28 43 14 14 91 171
95 194 2 6 10 36 19 66 47 159 43 376 -8 555 -10 33 -21 65 -25 70 -4 6 -13
27 -19 48 -7 20 -17 37 -22 37 -5 0 -9 6 -9 13 0 48 -153 222 -248 281 -95 59
-240 94 -327 79z"/>
<path d="M5943 3395 c0 -22 2 -30 4 -17 2 12 2 30 0 40 -3 9 -5 -1 -4 -23z"/>
</g>
</svg>
