<?xml version="1.0" encoding="utf-8"?>
<!-- Generator: Adobe Illustrator 26.0.2, SVG Export Plug-In . SVG Version: 6.00 Build 0)  -->
<svg version="1.1" id="Layer_1" xmlns="http://www.w3.org/2000/svg" xmlns:xlink="http://www.w3.org/1999/xlink" x="0px" y="0px"
	 viewBox="0 0 800 800" style="enable-background:new 0 0 800 800;" xml:space="preserve">
<style type="text/css">
	.st0{fill:#B74949;}
	.st1{fill:#FFFFFF;}
</style>
<path class="st0" d="M400,0C179.1,0,0,179.1,0,400l0,0c0,220.9,179.1,400,400,400l0,0c220.9,0,400-179.1,400-400l0,0
	C800,179.1,620.9,0,400,0L400,0z"/>
<g>
	<path class="st1" d="M263.7,474c44.3,53,97.7,94.7,158.5,124.2c23.2,11,54.2,24,88.7,26.3c2.1,0.1,4.2,0.2,6.3,0.2
		c23.2,0,41.8-8,57-24.5c0.1-0.1,0.3-0.3,0.4-0.5c5.4-6.5,11.5-12.4,18-18.6c4.4-4.2,8.8-8.6,13.1-13c19.8-20.7,19.8-46.9-0.2-66.9
		l-55.9-55.9c-9.5-9.9-20.9-15.1-32.8-15.1c-11.9,0-23.4,5.2-33.1,15l-33.3,33.3c-3.1-1.8-6.2-3.4-9.2-4.8
		c-3.7-1.9-7.2-3.6-10.2-5.6c-30.3-19.3-57.9-44.4-84.2-76.7c-13.3-16.8-22.2-31-28.5-45.4c8.8-7.9,16.9-16.2,24.9-24.3
		c2.8-2.9,5.7-5.8,8.6-8.7c10.1-10.1,15.5-21.7,15.5-33.5s-5.3-23.5-15.5-33.5l-27.7-27.7c-3.3-3.3-6.3-6.4-9.5-9.7
		c-6.1-6.3-12.6-12.8-18.9-18.7c-9.6-9.4-20.9-14.3-32.8-14.3c-11.8,0-23.2,4.9-33.1,14.4l-34.8,34.8c-12.7,12.7-19.8,28-21.3,45.8
		c-1.8,22.2,2.3,45.9,12.9,74.5C202.6,389.1,227.2,430.2,263.7,474z M196.1,272.4c1.1-12.4,5.9-22.7,14.8-31.7l34.6-34.6
		c5.4-5.2,11.4-7.9,17.1-7.9c5.7,0,11.5,2.7,16.8,8.1c6.2,5.8,12.1,11.8,18.4,18.2c3.2,3.3,6.4,6.5,9.7,9.9l27.7,27.7
		c5.8,5.8,8.8,11.6,8.8,17.4c0,5.8-3,11.6-8.8,17.4c-2.9,2.9-5.8,5.9-8.7,8.8c-8.7,8.8-16.8,17-25.7,24.9c-0.2,0.2-0.3,0.3-0.5,0.5
		c-7.7,7.7-6.5,15.1-4.7,20.7c0.1,0.3,0.2,0.5,0.3,0.7c7.2,17.2,17.1,33.6,32.7,53.2c27.9,34.4,57.3,61.2,89.7,81.7
		c4,2.6,8.3,4.7,12.3,6.7c3.7,1.9,7.2,3.6,10.2,5.6c0.4,0.2,0.7,0.4,1,0.6c3.1,1.6,6.1,2.3,9,2.3c7.4,0,12.3-4.7,13.9-6.3l34.8-34.8
		c5.4-5.4,11.3-8.3,17-8.3c7.1,0,12.8,4.4,16.5,8.3l56.1,56c11.2,11.2,11.1,23.3-0.3,35.1c-3.9,4.2-8,8.2-12.4,12.4
		c-6.5,6.3-13.3,12.8-19.5,20.2c-10.7,11.5-23.5,16.9-39.9,16.9c-1.6,0-3.3-0.1-4.8-0.2c-30.5-2-58.9-13.9-80.2-24
		c-57.9-28-108.7-67.8-150.9-118.2c-34.7-41.8-58.1-80.7-73.5-122.4C198.3,311.7,194.6,291.1,196.1,272.4z"/>
</g>
</svg>
