<?xml version="1.0" encoding="utf-8"?>
<!-- Generator: Adobe Illustrator 26.0.2, SVG Export Plug-In . SVG Version: 6.00 Build 0)  -->
<svg version="1.1" id="Layer_1" xmlns="http://www.w3.org/2000/svg" xmlns:xlink="http://www.w3.org/1999/xlink" x="0px" y="0px"
	 viewBox="0 0 800 800" style="enable-background:new 0 0 800 800;" xml:space="preserve">
<style type="text/css">
	.st0{fill:#40B3E0;}
	.st1{fill:#FFFFFF;}
	.st2{fill:#D2E5F1;}
	.st3{fill:#B5CFE4;}
</style>
<path class="st0" d="M400,0C179.1,0,0,179.1,0,400l0,0c0,220.9,179.1,400,400,400l0,0c220.9,0,400-179.1,400-400l0,0
	C800,179.1,620.9,0,400,0L400,0z"/>
<path class="st1" d="M594.6,230.1l-71.4,360.2c0,0-10,25-37.5,13L320.9,476.9l-59.9-29l-100.9-34c0,0-15.5-5.5-17-17.5
	c-1.5-12,17.5-18.5,17.5-18.5l401.2-157.4C561.7,220.6,594.6,206.1,594.6,230.1"/>
<path class="st2" d="M308.2,586.3c0,0-4.8-0.4-10.8-19.4c-6-19-36.5-118.9-36.5-118.9L503.2,294c0,0,14-8.5,13.5,0
	c0,0,2.5,1.5-5,8.5c-7.5,7-190.3,171.4-190.3,171.4"/>
<path class="st3" d="M384.1,525.4l-65.2,59.5c0,0-5.1,3.9-10.7,1.4l12.5-110.4"/>
</svg>
